%TF.GenerationSoftware,KiCad,Pcbnew,(5.1.5-0-10_14)*%
%TF.CreationDate,2020-05-28T22:54:10-04:00*%
%TF.ProjectId,PD_PowerSupply,50445f50-6f77-4657-9253-7570706c792e,rev?*%
%TF.SameCoordinates,Original*%
%TF.FileFunction,Legend,Top*%
%TF.FilePolarity,Positive*%
%FSLAX46Y46*%
G04 Gerber Fmt 4.6, Leading zero omitted, Abs format (unit mm)*
G04 Created by KiCad (PCBNEW (5.1.5-0-10_14)) date 2020-05-28 22:54:10*
%MOMM*%
%LPD*%
G04 APERTURE LIST*
%ADD10C,0.350000*%
%ADD11C,0.250000*%
%ADD12C,0.150000*%
%ADD13C,0.065000*%
%ADD14C,0.127000*%
%ADD15C,0.200000*%
%ADD16C,0.120000*%
%ADD17C,0.152400*%
G04 APERTURE END LIST*
D10*
X161736419Y-108012971D02*
X163641180Y-108012971D01*
X170036419Y-106312971D02*
X171941180Y-106312971D01*
D11*
X140508219Y-110912971D02*
X140695719Y-109412971D01*
X141267148Y-109412971D01*
X141401076Y-109484400D01*
X141463576Y-109555828D01*
X141517148Y-109698685D01*
X141490362Y-109912971D01*
X141401076Y-110055828D01*
X141320719Y-110127257D01*
X141168933Y-110198685D01*
X140597505Y-110198685D01*
X142008219Y-110912971D02*
X142133219Y-109912971D01*
X142097505Y-110198685D02*
X142186791Y-110055828D01*
X142267148Y-109984400D01*
X142418933Y-109912971D01*
X142561791Y-109912971D01*
X143151076Y-110912971D02*
X143017148Y-110841542D01*
X142954648Y-110770114D01*
X142901076Y-110627257D01*
X142954648Y-110198685D01*
X143043933Y-110055828D01*
X143124291Y-109984400D01*
X143276076Y-109912971D01*
X143490362Y-109912971D01*
X143624291Y-109984400D01*
X143686791Y-110055828D01*
X143740362Y-110198685D01*
X143686791Y-110627257D01*
X143597505Y-110770114D01*
X143517148Y-110841542D01*
X143365362Y-110912971D01*
X143151076Y-110912971D01*
X144204648Y-109912971D02*
X144776076Y-109912971D01*
X144481433Y-109412971D02*
X144320719Y-110698685D01*
X144374291Y-110841542D01*
X144508219Y-110912971D01*
X144651076Y-110912971D01*
X145365362Y-110912971D02*
X145231433Y-110841542D01*
X145168933Y-110770114D01*
X145115362Y-110627257D01*
X145168933Y-110198685D01*
X145258219Y-110055828D01*
X145338576Y-109984400D01*
X145490362Y-109912971D01*
X145704648Y-109912971D01*
X145838576Y-109984400D01*
X145901076Y-110055828D01*
X145954648Y-110198685D01*
X145901076Y-110627257D01*
X145811791Y-110770114D01*
X145731433Y-110841542D01*
X145579648Y-110912971D01*
X145365362Y-110912971D01*
X148436791Y-110912971D02*
X147579648Y-110912971D01*
X148008219Y-110912971D02*
X148195719Y-109412971D01*
X148026076Y-109627257D01*
X147865362Y-109770114D01*
X147713576Y-109841542D01*
X136195942Y-108412971D02*
X136195942Y-106912971D01*
X136767371Y-106912971D01*
X136910228Y-106984400D01*
X136981657Y-107055828D01*
X137053085Y-107198685D01*
X137053085Y-107412971D01*
X136981657Y-107555828D01*
X136910228Y-107627257D01*
X136767371Y-107698685D01*
X136195942Y-107698685D01*
X137695942Y-108412971D02*
X137695942Y-106912971D01*
X138053085Y-106912971D01*
X138267371Y-106984400D01*
X138410228Y-107127257D01*
X138481657Y-107270114D01*
X138553085Y-107555828D01*
X138553085Y-107770114D01*
X138481657Y-108055828D01*
X138410228Y-108198685D01*
X138267371Y-108341542D01*
X138053085Y-108412971D01*
X137695942Y-108412971D01*
X139124514Y-108341542D02*
X139338800Y-108412971D01*
X139695942Y-108412971D01*
X139838800Y-108341542D01*
X139910228Y-108270114D01*
X139981657Y-108127257D01*
X139981657Y-107984400D01*
X139910228Y-107841542D01*
X139838800Y-107770114D01*
X139695942Y-107698685D01*
X139410228Y-107627257D01*
X139267371Y-107555828D01*
X139195942Y-107484400D01*
X139124514Y-107341542D01*
X139124514Y-107198685D01*
X139195942Y-107055828D01*
X139267371Y-106984400D01*
X139410228Y-106912971D01*
X139767371Y-106912971D01*
X139981657Y-106984400D01*
X141267371Y-107412971D02*
X141267371Y-108412971D01*
X140624514Y-107412971D02*
X140624514Y-108198685D01*
X140695942Y-108341542D01*
X140838800Y-108412971D01*
X141053085Y-108412971D01*
X141195942Y-108341542D01*
X141267371Y-108270114D01*
X141981657Y-107412971D02*
X141981657Y-108912971D01*
X141981657Y-107484400D02*
X142124514Y-107412971D01*
X142410228Y-107412971D01*
X142553085Y-107484400D01*
X142624514Y-107555828D01*
X142695942Y-107698685D01*
X142695942Y-108127257D01*
X142624514Y-108270114D01*
X142553085Y-108341542D01*
X142410228Y-108412971D01*
X142124514Y-108412971D01*
X141981657Y-108341542D01*
X143338800Y-107412971D02*
X143338800Y-108912971D01*
X143338800Y-107484400D02*
X143481657Y-107412971D01*
X143767371Y-107412971D01*
X143910228Y-107484400D01*
X143981657Y-107555828D01*
X144053085Y-107698685D01*
X144053085Y-108127257D01*
X143981657Y-108270114D01*
X143910228Y-108341542D01*
X143767371Y-108412971D01*
X143481657Y-108412971D01*
X143338800Y-108341542D01*
X144910228Y-108412971D02*
X144767371Y-108341542D01*
X144695942Y-108198685D01*
X144695942Y-106912971D01*
X145338800Y-107412971D02*
X145695942Y-108412971D01*
X146053085Y-107412971D02*
X145695942Y-108412971D01*
X145553085Y-108770114D01*
X145481657Y-108841542D01*
X145338800Y-108912971D01*
X147695942Y-108341542D02*
X147910228Y-108412971D01*
X148267371Y-108412971D01*
X148410228Y-108341542D01*
X148481657Y-108270114D01*
X148553085Y-108127257D01*
X148553085Y-107984400D01*
X148481657Y-107841542D01*
X148410228Y-107770114D01*
X148267371Y-107698685D01*
X147981657Y-107627257D01*
X147838800Y-107555828D01*
X147767371Y-107484400D01*
X147695942Y-107341542D01*
X147695942Y-107198685D01*
X147767371Y-107055828D01*
X147838800Y-106984400D01*
X147981657Y-106912971D01*
X148338800Y-106912971D01*
X148553085Y-106984400D01*
X149410228Y-108412971D02*
X149267371Y-108341542D01*
X149195942Y-108270114D01*
X149124514Y-108127257D01*
X149124514Y-107698685D01*
X149195942Y-107555828D01*
X149267371Y-107484400D01*
X149410228Y-107412971D01*
X149624514Y-107412971D01*
X149767371Y-107484400D01*
X149838800Y-107555828D01*
X149910228Y-107698685D01*
X149910228Y-108127257D01*
X149838800Y-108270114D01*
X149767371Y-108341542D01*
X149624514Y-108412971D01*
X149410228Y-108412971D01*
X150767371Y-108412971D02*
X150624514Y-108341542D01*
X150553085Y-108198685D01*
X150553085Y-106912971D01*
X151553085Y-108412971D02*
X151410228Y-108341542D01*
X151338800Y-108270114D01*
X151267371Y-108127257D01*
X151267371Y-107698685D01*
X151338800Y-107555828D01*
X151410228Y-107484400D01*
X151553085Y-107412971D01*
X151767371Y-107412971D01*
X151910228Y-107484400D01*
X151981657Y-107555828D01*
X152053085Y-107698685D01*
X152053085Y-108127257D01*
X151981657Y-108270114D01*
X151910228Y-108341542D01*
X151767371Y-108412971D01*
X151553085Y-108412971D01*
D10*
X166536419Y-106312971D02*
X168441180Y-106312971D01*
X167488800Y-107265352D02*
X167488800Y-105360590D01*
X156736419Y-107512971D02*
X158641180Y-107512971D01*
X157688800Y-108465352D02*
X157688800Y-106560590D01*
D12*
X144684038Y-112386780D02*
X144874514Y-112386780D01*
X144969752Y-112434400D01*
X145064990Y-112529638D01*
X145112609Y-112720114D01*
X145112609Y-113053447D01*
X145064990Y-113243923D01*
X144969752Y-113339161D01*
X144874514Y-113386780D01*
X144684038Y-113386780D01*
X144588800Y-113339161D01*
X144493561Y-113243923D01*
X144445942Y-113053447D01*
X144445942Y-112720114D01*
X144493561Y-112529638D01*
X144588800Y-112434400D01*
X144684038Y-112386780D01*
X145541180Y-112386780D02*
X145541180Y-113196304D01*
X145588800Y-113291542D01*
X145636419Y-113339161D01*
X145731657Y-113386780D01*
X145922133Y-113386780D01*
X146017371Y-113339161D01*
X146064990Y-113291542D01*
X146112609Y-113196304D01*
X146112609Y-112386780D01*
X146445942Y-112386780D02*
X147017371Y-112386780D01*
X146731657Y-113386780D02*
X146731657Y-112386780D01*
X147350704Y-113386780D02*
X147350704Y-112386780D01*
X147731657Y-112386780D01*
X147826895Y-112434400D01*
X147874514Y-112482019D01*
X147922133Y-112577257D01*
X147922133Y-112720114D01*
X147874514Y-112815352D01*
X147826895Y-112862971D01*
X147731657Y-112910590D01*
X147350704Y-112910590D01*
X148350704Y-112386780D02*
X148350704Y-113196304D01*
X148398323Y-113291542D01*
X148445942Y-113339161D01*
X148541180Y-113386780D01*
X148731657Y-113386780D01*
X148826895Y-113339161D01*
X148874514Y-113291542D01*
X148922133Y-113196304D01*
X148922133Y-112386780D01*
X149255466Y-112386780D02*
X149826895Y-112386780D01*
X149541180Y-113386780D02*
X149541180Y-112386780D01*
X139579276Y-112862971D02*
X139722133Y-112910590D01*
X139769752Y-112958209D01*
X139817371Y-113053447D01*
X139817371Y-113196304D01*
X139769752Y-113291542D01*
X139722133Y-113339161D01*
X139626895Y-113386780D01*
X139245942Y-113386780D01*
X139245942Y-112386780D01*
X139579276Y-112386780D01*
X139674514Y-112434400D01*
X139722133Y-112482019D01*
X139769752Y-112577257D01*
X139769752Y-112672495D01*
X139722133Y-112767733D01*
X139674514Y-112815352D01*
X139579276Y-112862971D01*
X139245942Y-112862971D01*
X140103085Y-112386780D02*
X140674514Y-112386780D01*
X140388800Y-113386780D02*
X140388800Y-112386780D01*
D13*
X119305844Y-115604400D02*
G75*
G03X119305844Y-115604400I-160644J0D01*
G01*
D14*
X157626200Y-98510200D02*
G75*
G02X157499200Y-101050200I-63500J-1270000D01*
G01*
X166135200Y-96656000D02*
X157499200Y-96656000D01*
X157499200Y-102828200D02*
X157499200Y-96656000D01*
X166135200Y-102828200D02*
X157499200Y-102828200D01*
X166135200Y-102828200D02*
X166135200Y-96656000D01*
D15*
X118376400Y-119428000D02*
G75*
G03X118376400Y-119428000I-100000J0D01*
G01*
D14*
X118326400Y-119028000D02*
X128626400Y-119028000D01*
X128626400Y-108828000D02*
X118326400Y-108828000D01*
X128626400Y-108828000D02*
X128626400Y-119028000D01*
D16*
X150887600Y-119268800D02*
X150887600Y-118118800D01*
X143587600Y-119268800D02*
X150887600Y-119268800D01*
X143587600Y-113768800D02*
X150887600Y-113768800D01*
X155054800Y-119082000D02*
X155554800Y-119082000D01*
X155054800Y-118342000D02*
X155054800Y-119082000D01*
X161627800Y-115205000D02*
X161580800Y-115251000D01*
X163924800Y-112907000D02*
X163889800Y-112943000D01*
X161820800Y-115421000D02*
X161785800Y-115456000D01*
X164129800Y-113113000D02*
X164082800Y-113159000D01*
X165414800Y-108921000D02*
X165414800Y-118842000D01*
X155294800Y-108921000D02*
X155294800Y-118842000D01*
X155294800Y-118842000D02*
X165414800Y-118842000D01*
X155294800Y-108921000D02*
X165414800Y-108921000D01*
X155294800Y-111881000D02*
X165414800Y-111881000D01*
X155294800Y-116782000D02*
X165414800Y-116782000D01*
X155294800Y-118282000D02*
X165414800Y-118282000D01*
X164534800Y-114182000D02*
G75*
G03X164534800Y-114182000I-1680000J0D01*
G01*
X157883605Y-115862253D02*
G75*
G02X157170800Y-115717000I-28805J1680253D01*
G01*
X156319374Y-114865042D02*
G75*
G02X156319800Y-113498000I1535426J683042D01*
G01*
X157171758Y-112646574D02*
G75*
G02X158538800Y-112647000I683042J-1535426D01*
G01*
X159390226Y-113498958D02*
G75*
G02X159389800Y-114866000I-1535426J-683042D01*
G01*
X158538118Y-115716756D02*
G75*
G02X157854800Y-115862000I-683318J1534756D01*
G01*
X156074800Y-104418021D02*
X156074800Y-104743579D01*
X157094800Y-104418021D02*
X157094800Y-104743579D01*
X121406600Y-88824200D02*
X121406600Y-91309200D01*
X122776600Y-88824200D02*
X121406600Y-88824200D01*
X122776600Y-91309200D02*
X122776600Y-88824200D01*
X123032200Y-88824200D02*
X123032200Y-91309200D01*
X124402200Y-88824200D02*
X123032200Y-88824200D01*
X124402200Y-91309200D02*
X124402200Y-88824200D01*
X143775600Y-119268800D02*
X143775600Y-118118800D01*
X136475600Y-119268800D02*
X143775600Y-119268800D01*
X136475600Y-113768800D02*
X143775600Y-113768800D01*
X152701200Y-115072821D02*
X152701200Y-115398379D01*
X153721200Y-115072821D02*
X153721200Y-115398379D01*
X119470000Y-92541200D02*
X119470000Y-89091200D01*
X119470000Y-92541200D02*
X119470000Y-94491200D01*
X114350000Y-92541200D02*
X114350000Y-90591200D01*
X114350000Y-92541200D02*
X114350000Y-94491200D01*
X119956000Y-90143221D02*
X119956000Y-90468779D01*
X120976000Y-90143221D02*
X120976000Y-90468779D01*
X162314821Y-107376800D02*
X162640379Y-107376800D01*
X162314821Y-106356800D02*
X162640379Y-106356800D01*
X159132336Y-90838626D02*
X160336464Y-90838626D01*
X159132336Y-89018626D02*
X160336464Y-89018626D01*
X159132336Y-76687200D02*
X160336464Y-76687200D01*
X159132336Y-74867200D02*
X160336464Y-74867200D01*
X159132336Y-88480055D02*
X160336464Y-88480055D01*
X159132336Y-86660055D02*
X160336464Y-86660055D01*
X159132336Y-81404342D02*
X160336464Y-81404342D01*
X159132336Y-79584342D02*
X160336464Y-79584342D01*
X159132336Y-86121484D02*
X160336464Y-86121484D01*
X159132336Y-84301484D02*
X160336464Y-84301484D01*
X159132336Y-93197200D02*
X160336464Y-93197200D01*
X159132336Y-91377200D02*
X160336464Y-91377200D01*
X159132336Y-83762913D02*
X160336464Y-83762913D01*
X159132336Y-81942913D02*
X160336464Y-81942913D01*
X159132336Y-79045771D02*
X160336464Y-79045771D01*
X159132336Y-77225771D02*
X160336464Y-77225771D01*
X139094800Y-105755600D02*
X133084800Y-105755600D01*
X136844800Y-98935600D02*
X133084800Y-98935600D01*
X133084800Y-105755600D02*
X133084800Y-104495600D01*
X133084800Y-98935600D02*
X133084800Y-100195600D01*
X139463200Y-95172421D02*
X139463200Y-95497979D01*
X140483200Y-95172421D02*
X140483200Y-95497979D01*
X137888400Y-95172421D02*
X137888400Y-95497979D01*
X138908400Y-95172421D02*
X138908400Y-95497979D01*
X150029600Y-91210021D02*
X150029600Y-91535579D01*
X151049600Y-91210021D02*
X151049600Y-91535579D01*
D14*
X137748800Y-87138000D02*
X137748800Y-88138000D01*
X144048800Y-87138000D02*
X137748800Y-87138000D01*
X144048800Y-88138000D02*
X144048800Y-87138000D01*
X137748800Y-93438000D02*
X137748800Y-92438000D01*
X144048800Y-93438000D02*
X137748800Y-93438000D01*
X144048800Y-92438000D02*
X144048800Y-93438000D01*
D16*
X141603000Y-98401400D02*
X145688000Y-98401400D01*
X141603000Y-96231400D02*
X141603000Y-98401400D01*
X145688000Y-96231400D02*
X141603000Y-96231400D01*
X139876000Y-103064336D02*
X139876000Y-104268464D01*
X141696000Y-103064336D02*
X141696000Y-104268464D01*
X134694400Y-94580736D02*
X134694400Y-95784864D01*
X136514400Y-94580736D02*
X136514400Y-95784864D01*
X144486864Y-94069600D02*
X143282736Y-94069600D01*
X144486864Y-95889600D02*
X143282736Y-95889600D01*
X149617664Y-87211600D02*
X148413536Y-87211600D01*
X149617664Y-89031600D02*
X148413536Y-89031600D01*
X154410779Y-96654000D02*
X154085221Y-96654000D01*
X154410779Y-97674000D02*
X154085221Y-97674000D01*
D17*
X155769349Y-102555537D02*
G75*
G03X155732800Y-102698600I-36549J-66863D01*
G01*
X150800200Y-103026602D02*
X150800200Y-103753400D01*
X155562200Y-98718198D02*
X155562200Y-97991400D01*
X155562200Y-103753400D02*
X155562200Y-103026605D01*
X150800200Y-103753400D02*
X155562200Y-103753400D01*
X150800200Y-97991400D02*
X150800200Y-98718195D01*
X155562200Y-97991400D02*
X150800200Y-97991400D01*
X155845535Y-86062400D02*
G75*
G03X155988600Y-86098945I66865J-36545D01*
G01*
X156370141Y-88882345D02*
X156539400Y-88882345D01*
X153454659Y-86628345D02*
X153285400Y-86628345D01*
X156539400Y-86628345D02*
X156370141Y-86628345D01*
X156539400Y-88882345D02*
X156539400Y-86628345D01*
X153285400Y-88882345D02*
X153454659Y-88882345D01*
X153285400Y-86628345D02*
X153285400Y-88882345D01*
D14*
X150317600Y-77942800D02*
X151317600Y-77942800D01*
X150317600Y-77942800D02*
X150317600Y-78942800D01*
X150317600Y-81942800D02*
X151317600Y-81942800D01*
X150317600Y-81942800D02*
X150317600Y-80942800D01*
X154317600Y-81942800D02*
X153317600Y-81942800D01*
X154317600Y-81942800D02*
X154317600Y-80942800D01*
X154317600Y-77942800D02*
X153317600Y-77942800D01*
X154317600Y-77942800D02*
X154317600Y-78942800D01*
D15*
X151117600Y-82442800D02*
G75*
G03X151117600Y-82442800I-100000J0D01*
G01*
D16*
X145526000Y-90879200D02*
X145526000Y-93329200D01*
X148746000Y-92679200D02*
X148746000Y-90879200D01*
X151909200Y-109802821D02*
X151909200Y-110128379D01*
X152929200Y-109802821D02*
X152929200Y-110128379D01*
X132261979Y-93961600D02*
X131936421Y-93961600D01*
X132261979Y-94981600D02*
X131936421Y-94981600D01*
X154504000Y-110128379D02*
X154504000Y-109802821D01*
X153484000Y-110128379D02*
X153484000Y-109802821D01*
X144750400Y-84220379D02*
X144750400Y-83894821D01*
X143730400Y-84220379D02*
X143730400Y-83894821D01*
X152823600Y-92530821D02*
X152823600Y-92856379D01*
X153843600Y-92530821D02*
X153843600Y-92856379D01*
X168763200Y-101931664D02*
X168763200Y-100727536D01*
X166943200Y-101931664D02*
X166943200Y-100727536D01*
X141600800Y-84220379D02*
X141600800Y-83894821D01*
X140580800Y-84220379D02*
X140580800Y-83894821D01*
X153678821Y-84313600D02*
X154004379Y-84313600D01*
X153678821Y-83293600D02*
X154004379Y-83293600D01*
X150956379Y-75572000D02*
X150630821Y-75572000D01*
X150956379Y-76592000D02*
X150630821Y-76592000D01*
X155418400Y-92856379D02*
X155418400Y-92530821D01*
X154398400Y-92856379D02*
X154398400Y-92530821D01*
X138451200Y-84220379D02*
X138451200Y-83894821D01*
X137431200Y-84220379D02*
X137431200Y-83894821D01*
X139006000Y-83894821D02*
X139006000Y-84220379D01*
X140026000Y-83894821D02*
X140026000Y-84220379D01*
X156993200Y-92856379D02*
X156993200Y-92530821D01*
X155973200Y-92856379D02*
X155973200Y-92530821D01*
X132261979Y-95536400D02*
X131936421Y-95536400D01*
X132261979Y-96556400D02*
X131936421Y-96556400D01*
X132249600Y-90651221D02*
X132249600Y-90976779D01*
X133269600Y-90651221D02*
X133269600Y-90976779D01*
X124731200Y-90549621D02*
X124731200Y-90875179D01*
X125751200Y-90549621D02*
X125751200Y-90875179D01*
X128084000Y-76884421D02*
X128084000Y-77209979D01*
X129104000Y-76884421D02*
X129104000Y-77209979D01*
X127478400Y-77209979D02*
X127478400Y-76884421D01*
X126458400Y-77209979D02*
X126458400Y-76884421D01*
X151096400Y-115086021D02*
X151096400Y-115411579D01*
X152116400Y-115086021D02*
X152116400Y-115411579D01*
D14*
X114854619Y-99710800D02*
G75*
G03X114854619Y-99710800I-141419J0D01*
G01*
X115398200Y-106485800D02*
X118828200Y-106485800D01*
X118828200Y-100135800D02*
X115398200Y-100135800D01*
D16*
X123953000Y-75527400D02*
X123953000Y-79612400D01*
X126123000Y-75527400D02*
X123953000Y-75527400D01*
X126123000Y-79612400D02*
X126123000Y-75527400D01*
X147946800Y-79881621D02*
X147946800Y-80207179D01*
X148966800Y-79881621D02*
X148966800Y-80207179D01*
X151706000Y-87603221D02*
X151706000Y-87928779D01*
X152726000Y-87603221D02*
X152726000Y-87928779D01*
X142155600Y-83894821D02*
X142155600Y-84220379D01*
X143175600Y-83894821D02*
X143175600Y-84220379D01*
X140115221Y-76998400D02*
X140440779Y-76998400D01*
X140115221Y-75978400D02*
X140440779Y-75978400D01*
X133065221Y-85583600D02*
X133390779Y-85583600D01*
X133065221Y-84563600D02*
X133390779Y-84563600D01*
X135976400Y-115407979D02*
X135976400Y-115082421D01*
X134956400Y-115407979D02*
X134956400Y-115082421D01*
X122246000Y-107080379D02*
X122246000Y-106754821D01*
X121226000Y-107080379D02*
X121226000Y-106754821D01*
X131265221Y-84008800D02*
X131590779Y-84008800D01*
X131265221Y-82988800D02*
X131590779Y-82988800D01*
X123795400Y-107080379D02*
X123795400Y-106754821D01*
X122775400Y-107080379D02*
X122775400Y-106754821D01*
X125344800Y-107080379D02*
X125344800Y-106754821D01*
X124324800Y-107080379D02*
X124324800Y-106754821D01*
X123617600Y-77159179D02*
X123617600Y-76833621D01*
X122597600Y-77159179D02*
X122597600Y-76833621D01*
X171774000Y-107476400D02*
X171774000Y-108746400D01*
X170504000Y-107476400D02*
X171774000Y-107476400D01*
X167584000Y-109789329D02*
X167584000Y-110186400D01*
X168344000Y-109789329D02*
X168344000Y-110186400D01*
X167584000Y-118846400D02*
X167584000Y-112846400D01*
X168344000Y-118846400D02*
X167584000Y-118846400D01*
X168344000Y-112846400D02*
X168344000Y-118846400D01*
X169234000Y-110186400D02*
X169234000Y-112846400D01*
X170124000Y-109856400D02*
X170124000Y-110186400D01*
X170884000Y-109856400D02*
X170884000Y-110186400D01*
X170224000Y-112846400D02*
X170224000Y-118846400D01*
X170344000Y-112846400D02*
X170344000Y-118846400D01*
X170464000Y-112846400D02*
X170464000Y-118846400D01*
X170584000Y-112846400D02*
X170584000Y-118846400D01*
X170704000Y-112846400D02*
X170704000Y-118846400D01*
X170824000Y-112846400D02*
X170824000Y-118846400D01*
X170124000Y-118846400D02*
X170124000Y-112846400D01*
X170884000Y-118846400D02*
X170124000Y-118846400D01*
X170884000Y-112846400D02*
X170884000Y-118846400D01*
X171834000Y-112846400D02*
X171834000Y-110186400D01*
X166634000Y-112846400D02*
X171834000Y-112846400D01*
X166634000Y-110186400D02*
X166634000Y-112846400D01*
X171834000Y-110186400D02*
X166634000Y-110186400D01*
D15*
X113565000Y-83605000D02*
X113915000Y-83605000D01*
X113565000Y-74655000D02*
X113565000Y-83605000D01*
X113915000Y-74655000D02*
X113565000Y-74655000D01*
X120225000Y-74655000D02*
X120225000Y-83605000D01*
D14*
X126919600Y-85583600D02*
X126919600Y-85913600D01*
X126919600Y-89643600D02*
X126919600Y-89313600D01*
X130979600Y-85583600D02*
X130979600Y-85913600D01*
X130979600Y-89643600D02*
X130979600Y-89313600D01*
X126919600Y-85583600D02*
X127249600Y-85583600D01*
X126919600Y-89643600D02*
X127249600Y-89643600D01*
X130979600Y-85583600D02*
X130649600Y-85583600D01*
X130979600Y-89643600D02*
X130649600Y-89643600D01*
D15*
X126289600Y-86093600D02*
G75*
G03X126289600Y-86093600I-100000J0D01*
G01*
X138509800Y-78155400D02*
G75*
G03X138509800Y-78155400I-100000J0D01*
G01*
D14*
X142209800Y-80843900D02*
X139209800Y-80843900D01*
X142209800Y-77466900D02*
X139209800Y-77466900D01*
D15*
X138640000Y-80130000D02*
G75*
G03X138640000Y-80130000I-100000J0D01*
G01*
D14*
X134740000Y-77441500D02*
X137740000Y-77441500D01*
X134740000Y-80818500D02*
X137740000Y-80818500D01*
D12*
X146374514Y-115286780D02*
X145803085Y-115286780D01*
X146088800Y-115286780D02*
X146088800Y-114286780D01*
X145993561Y-114429638D01*
X145898323Y-114524876D01*
X145803085Y-114572495D01*
X139274514Y-115371180D02*
X138703085Y-115371180D01*
X138988800Y-115371180D02*
X138988800Y-114371180D01*
X138893561Y-114514038D01*
X138798323Y-114609276D01*
X138703085Y-114656895D01*
X153181200Y-100324780D02*
X153181200Y-100562876D01*
X152943104Y-100467638D02*
X153181200Y-100562876D01*
X153419295Y-100467638D01*
X153038342Y-100753352D02*
X153181200Y-100562876D01*
X153324057Y-100753352D01*
X154364780Y-87755345D02*
X154602876Y-87755345D01*
X154507638Y-87993440D02*
X154602876Y-87755345D01*
X154507638Y-87517249D01*
X154793352Y-87898202D02*
X154602876Y-87755345D01*
X154793352Y-87612487D01*
M02*
