G04 #@! TF.GenerationSoftware,KiCad,Pcbnew,(5.1.5-0-10_14)*
G04 #@! TF.CreationDate,2020-06-14T19:46:55-04:00*
G04 #@! TF.ProjectId,PD_PowerSupply,50445f50-6f77-4657-9253-7570706c792e,rev?*
G04 #@! TF.SameCoordinates,Original*
G04 #@! TF.FileFunction,Legend,Bot*
G04 #@! TF.FilePolarity,Positive*
%FSLAX46Y46*%
G04 Gerber Fmt 4.6, Leading zero omitted, Abs format (unit mm)*
G04 Created by KiCad (PCBNEW (5.1.5-0-10_14)) date 2020-06-14 19:46:55*
%MOMM*%
%LPD*%
G04 APERTURE LIST*
%ADD10C,0.120000*%
%ADD11C,0.150000*%
G04 APERTURE END LIST*
D10*
X149188800Y-87434400D02*
G75*
G03X149188800Y-87434400I-700000J0D01*
G01*
X156988800Y-94234400D02*
G75*
G03X156988800Y-94234400I-700000J0D01*
G01*
X160488800Y-90534400D02*
G75*
G03X160488800Y-90534400I-700000J0D01*
G01*
X145588800Y-102734400D02*
G75*
G03X145588800Y-102734400I-700000J0D01*
G01*
X147588800Y-99734400D02*
G75*
G03X147588800Y-99734400I-700000J0D01*
G01*
X151188800Y-111234400D02*
G75*
G03X151188800Y-111234400I-700000J0D01*
G01*
X149888800Y-94834400D02*
G75*
G03X149888800Y-94834400I-700000J0D01*
G01*
X149288800Y-97434400D02*
G75*
G03X149288800Y-97434400I-700000J0D01*
G01*
X148788800Y-105934400D02*
G75*
G03X148788800Y-105934400I-700000J0D01*
G01*
X148293200Y-114944000D02*
G75*
G03X148293200Y-114944000I-700000J0D01*
G01*
X130157600Y-94573200D02*
G75*
G03X130157600Y-94573200I-700000J0D01*
G01*
X127312800Y-94573200D02*
G75*
G03X127312800Y-94573200I-700000J0D01*
G01*
D11*
X146460228Y-87462971D02*
X146317371Y-87510590D01*
X146269752Y-87558209D01*
X146222133Y-87653447D01*
X146222133Y-87796304D01*
X146269752Y-87891542D01*
X146317371Y-87939161D01*
X146412609Y-87986780D01*
X146793561Y-87986780D01*
X146793561Y-86986780D01*
X146460228Y-86986780D01*
X146364990Y-87034400D01*
X146317371Y-87082019D01*
X146269752Y-87177257D01*
X146269752Y-87272495D01*
X146317371Y-87367733D01*
X146364990Y-87415352D01*
X146460228Y-87462971D01*
X146793561Y-87462971D01*
X145793561Y-86986780D02*
X145793561Y-87796304D01*
X145745942Y-87891542D01*
X145698323Y-87939161D01*
X145603085Y-87986780D01*
X145412609Y-87986780D01*
X145317371Y-87939161D01*
X145269752Y-87891542D01*
X145222133Y-87796304D01*
X145222133Y-86986780D01*
X144174514Y-87891542D02*
X144222133Y-87939161D01*
X144364990Y-87986780D01*
X144460228Y-87986780D01*
X144603085Y-87939161D01*
X144698323Y-87843923D01*
X144745942Y-87748685D01*
X144793561Y-87558209D01*
X144793561Y-87415352D01*
X144745942Y-87224876D01*
X144698323Y-87129638D01*
X144603085Y-87034400D01*
X144460228Y-86986780D01*
X144364990Y-86986780D01*
X144222133Y-87034400D01*
X144174514Y-87082019D01*
X143745942Y-87986780D02*
X143745942Y-86986780D01*
X143174514Y-87986780D02*
X143603085Y-87415352D01*
X143174514Y-86986780D02*
X143745942Y-87558209D01*
X142984038Y-88082019D02*
X142222133Y-88082019D01*
X141984038Y-87462971D02*
X141650704Y-87462971D01*
X141507847Y-87986780D02*
X141984038Y-87986780D01*
X141984038Y-86986780D01*
X141507847Y-86986780D01*
X141079276Y-87986780D02*
X141079276Y-86986780D01*
X140507847Y-87986780D01*
X140507847Y-86986780D01*
X140079276Y-87701066D02*
X139603085Y-87701066D01*
X140174514Y-87986780D02*
X139841180Y-86986780D01*
X139507847Y-87986780D01*
X138841180Y-87462971D02*
X138698323Y-87510590D01*
X138650704Y-87558209D01*
X138603085Y-87653447D01*
X138603085Y-87796304D01*
X138650704Y-87891542D01*
X138698323Y-87939161D01*
X138793561Y-87986780D01*
X139174514Y-87986780D01*
X139174514Y-86986780D01*
X138841180Y-86986780D01*
X138745942Y-87034400D01*
X138698323Y-87082019D01*
X138650704Y-87177257D01*
X138650704Y-87272495D01*
X138698323Y-87367733D01*
X138745942Y-87415352D01*
X138841180Y-87462971D01*
X139174514Y-87462971D01*
X137698323Y-87986780D02*
X138174514Y-87986780D01*
X138174514Y-86986780D01*
X137364990Y-87462971D02*
X137031657Y-87462971D01*
X136888800Y-87986780D02*
X137364990Y-87986780D01*
X137364990Y-86986780D01*
X136888800Y-86986780D01*
X135936419Y-87986780D02*
X136507847Y-87986780D01*
X136222133Y-87986780D02*
X136222133Y-86986780D01*
X136317371Y-87129638D01*
X136412609Y-87224876D01*
X136507847Y-87272495D01*
X164984038Y-94786780D02*
X164984038Y-93786780D01*
X164745942Y-93786780D01*
X164603085Y-93834400D01*
X164507847Y-93929638D01*
X164460228Y-94024876D01*
X164412609Y-94215352D01*
X164412609Y-94358209D01*
X164460228Y-94548685D01*
X164507847Y-94643923D01*
X164603085Y-94739161D01*
X164745942Y-94786780D01*
X164984038Y-94786780D01*
X164031657Y-94501066D02*
X163555466Y-94501066D01*
X164126895Y-94786780D02*
X163793561Y-93786780D01*
X163460228Y-94786780D01*
X162555466Y-94691542D02*
X162603085Y-94739161D01*
X162745942Y-94786780D01*
X162841180Y-94786780D01*
X162984038Y-94739161D01*
X163079276Y-94643923D01*
X163126895Y-94548685D01*
X163174514Y-94358209D01*
X163174514Y-94215352D01*
X163126895Y-94024876D01*
X163079276Y-93929638D01*
X162984038Y-93834400D01*
X162841180Y-93786780D01*
X162745942Y-93786780D01*
X162603085Y-93834400D01*
X162555466Y-93882019D01*
X161936419Y-93786780D02*
X161745942Y-93786780D01*
X161650704Y-93834400D01*
X161555466Y-93929638D01*
X161507847Y-94120114D01*
X161507847Y-94453447D01*
X161555466Y-94643923D01*
X161650704Y-94739161D01*
X161745942Y-94786780D01*
X161936419Y-94786780D01*
X162031657Y-94739161D01*
X162126895Y-94643923D01*
X162174514Y-94453447D01*
X162174514Y-94120114D01*
X162126895Y-93929638D01*
X162031657Y-93834400D01*
X161936419Y-93786780D01*
X161079276Y-93786780D02*
X161079276Y-94596304D01*
X161031657Y-94691542D01*
X160984038Y-94739161D01*
X160888800Y-94786780D01*
X160698323Y-94786780D01*
X160603085Y-94739161D01*
X160555466Y-94691542D01*
X160507847Y-94596304D01*
X160507847Y-93786780D01*
X160174514Y-93786780D02*
X159603085Y-93786780D01*
X159888800Y-94786780D02*
X159888800Y-93786780D01*
X158936419Y-94262971D02*
X158793561Y-94310590D01*
X158745942Y-94358209D01*
X158698323Y-94453447D01*
X158698323Y-94596304D01*
X158745942Y-94691542D01*
X158793561Y-94739161D01*
X158888800Y-94786780D01*
X159269752Y-94786780D01*
X159269752Y-93786780D01*
X158936419Y-93786780D01*
X158841180Y-93834400D01*
X158793561Y-93882019D01*
X158745942Y-93977257D01*
X158745942Y-94072495D01*
X158793561Y-94167733D01*
X158841180Y-94215352D01*
X158936419Y-94262971D01*
X159269752Y-94262971D01*
X157745942Y-94786780D02*
X158317371Y-94786780D01*
X158031657Y-94786780D02*
X158031657Y-93786780D01*
X158126895Y-93929638D01*
X158222133Y-94024876D01*
X158317371Y-94072495D01*
X158112609Y-90986780D02*
X158112609Y-89986780D01*
X157874514Y-89986780D01*
X157731657Y-90034400D01*
X157636419Y-90129638D01*
X157588799Y-90224876D01*
X157541180Y-90415352D01*
X157541180Y-90558209D01*
X157588799Y-90748685D01*
X157636419Y-90843923D01*
X157731657Y-90939161D01*
X157874514Y-90986780D01*
X158112609Y-90986780D01*
X157160228Y-90701066D02*
X156684038Y-90701066D01*
X157255466Y-90986780D02*
X156922133Y-89986780D01*
X156588799Y-90986780D01*
X155684038Y-90891542D02*
X155731657Y-90939161D01*
X155874514Y-90986780D01*
X155969752Y-90986780D01*
X156112609Y-90939161D01*
X156207847Y-90843923D01*
X156255466Y-90748685D01*
X156303085Y-90558209D01*
X156303085Y-90415352D01*
X156255466Y-90224876D01*
X156207847Y-90129638D01*
X156112609Y-90034400D01*
X155969752Y-89986780D01*
X155874514Y-89986780D01*
X155731657Y-90034400D01*
X155684038Y-90082019D01*
X155064990Y-89986780D02*
X154874514Y-89986780D01*
X154779276Y-90034400D01*
X154684038Y-90129638D01*
X154636419Y-90320114D01*
X154636419Y-90653447D01*
X154684038Y-90843923D01*
X154779276Y-90939161D01*
X154874514Y-90986780D01*
X155064990Y-90986780D01*
X155160228Y-90939161D01*
X155255466Y-90843923D01*
X155303085Y-90653447D01*
X155303085Y-90320114D01*
X155255466Y-90129638D01*
X155160228Y-90034400D01*
X155064990Y-89986780D01*
X154207847Y-89986780D02*
X154207847Y-90796304D01*
X154160228Y-90891542D01*
X154112609Y-90939161D01*
X154017371Y-90986780D01*
X153826895Y-90986780D01*
X153731657Y-90939161D01*
X153684038Y-90891542D01*
X153636419Y-90796304D01*
X153636419Y-89986780D01*
X153303085Y-89986780D02*
X152731657Y-89986780D01*
X153017371Y-90986780D02*
X153017371Y-89986780D01*
X152445942Y-90701066D02*
X151969752Y-90701066D01*
X152541180Y-90986780D02*
X152207847Y-89986780D01*
X151874514Y-90986780D01*
X151017371Y-90986780D02*
X151588799Y-90986780D01*
X151303085Y-90986780D02*
X151303085Y-89986780D01*
X151398323Y-90129638D01*
X151493561Y-90224876D01*
X151588799Y-90272495D01*
X143355466Y-103139161D02*
X143212609Y-103186780D01*
X142974514Y-103186780D01*
X142879276Y-103139161D01*
X142831657Y-103091542D01*
X142784038Y-102996304D01*
X142784038Y-102901066D01*
X142831657Y-102805828D01*
X142879276Y-102758209D01*
X142974514Y-102710590D01*
X143164990Y-102662971D01*
X143260228Y-102615352D01*
X143307847Y-102567733D01*
X143355466Y-102472495D01*
X143355466Y-102377257D01*
X143307847Y-102282019D01*
X143260228Y-102234400D01*
X143164990Y-102186780D01*
X142926895Y-102186780D01*
X142784038Y-102234400D01*
X141784038Y-103091542D02*
X141831657Y-103139161D01*
X141974514Y-103186780D01*
X142069752Y-103186780D01*
X142212609Y-103139161D01*
X142307847Y-103043923D01*
X142355466Y-102948685D01*
X142403085Y-102758209D01*
X142403085Y-102615352D01*
X142355466Y-102424876D01*
X142307847Y-102329638D01*
X142212609Y-102234400D01*
X142069752Y-102186780D01*
X141974514Y-102186780D01*
X141831657Y-102234400D01*
X141784038Y-102282019D01*
X140879276Y-103186780D02*
X141355466Y-103186780D01*
X141355466Y-102186780D01*
X140545942Y-103186780D02*
X140545942Y-102186780D01*
X139974514Y-103186780D02*
X140403085Y-102615352D01*
X139974514Y-102186780D02*
X140545942Y-102758209D01*
X139022133Y-103186780D02*
X139593561Y-103186780D01*
X139307847Y-103186780D02*
X139307847Y-102186780D01*
X139403085Y-102329638D01*
X139498323Y-102424876D01*
X139593561Y-102472495D01*
X145436419Y-100286780D02*
X145436419Y-99286780D01*
X145103085Y-100001066D01*
X144769752Y-99286780D01*
X144769752Y-100286780D01*
X144103085Y-99286780D02*
X143912609Y-99286780D01*
X143817371Y-99334400D01*
X143722133Y-99429638D01*
X143674514Y-99620114D01*
X143674514Y-99953447D01*
X143722133Y-100143923D01*
X143817371Y-100239161D01*
X143912609Y-100286780D01*
X144103085Y-100286780D01*
X144198323Y-100239161D01*
X144293561Y-100143923D01*
X144341180Y-99953447D01*
X144341180Y-99620114D01*
X144293561Y-99429638D01*
X144198323Y-99334400D01*
X144103085Y-99286780D01*
X143293561Y-100239161D02*
X143150704Y-100286780D01*
X142912609Y-100286780D01*
X142817371Y-100239161D01*
X142769752Y-100191542D01*
X142722133Y-100096304D01*
X142722133Y-100001066D01*
X142769752Y-99905828D01*
X142817371Y-99858209D01*
X142912609Y-99810590D01*
X143103085Y-99762971D01*
X143198323Y-99715352D01*
X143245942Y-99667733D01*
X143293561Y-99572495D01*
X143293561Y-99477257D01*
X143245942Y-99382019D01*
X143198323Y-99334400D01*
X143103085Y-99286780D01*
X142864990Y-99286780D01*
X142722133Y-99334400D01*
X142293561Y-100286780D02*
X142293561Y-99286780D01*
X141293561Y-100286780D02*
X141864990Y-100286780D01*
X141579276Y-100286780D02*
X141579276Y-99286780D01*
X141674514Y-99429638D01*
X141769752Y-99524876D01*
X141864990Y-99572495D01*
X148836419Y-111886780D02*
X148836419Y-110886780D01*
X148503085Y-111601066D01*
X148169752Y-110886780D01*
X148169752Y-111886780D01*
X147693561Y-111886780D02*
X147693561Y-110886780D01*
X147264990Y-111839161D02*
X147122133Y-111886780D01*
X146884038Y-111886780D01*
X146788800Y-111839161D01*
X146741180Y-111791542D01*
X146693561Y-111696304D01*
X146693561Y-111601066D01*
X146741180Y-111505828D01*
X146788800Y-111458209D01*
X146884038Y-111410590D01*
X147074514Y-111362971D01*
X147169752Y-111315352D01*
X147217371Y-111267733D01*
X147264990Y-111172495D01*
X147264990Y-111077257D01*
X147217371Y-110982019D01*
X147169752Y-110934400D01*
X147074514Y-110886780D01*
X146836419Y-110886780D01*
X146693561Y-110934400D01*
X146074514Y-110886780D02*
X145884038Y-110886780D01*
X145788800Y-110934400D01*
X145693561Y-111029638D01*
X145645942Y-111220114D01*
X145645942Y-111553447D01*
X145693561Y-111743923D01*
X145788800Y-111839161D01*
X145884038Y-111886780D01*
X146074514Y-111886780D01*
X146169752Y-111839161D01*
X146264990Y-111743923D01*
X146312609Y-111553447D01*
X146312609Y-111220114D01*
X146264990Y-111029638D01*
X146169752Y-110934400D01*
X146074514Y-110886780D01*
X144693561Y-111886780D02*
X145264990Y-111886780D01*
X144979276Y-111886780D02*
X144979276Y-110886780D01*
X145074514Y-111029638D01*
X145169752Y-111124876D01*
X145264990Y-111172495D01*
X147426895Y-95286780D02*
X147426895Y-94286780D01*
X147188800Y-94286780D01*
X147045942Y-94334400D01*
X146950704Y-94429638D01*
X146903085Y-94524876D01*
X146855466Y-94715352D01*
X146855466Y-94858209D01*
X146903085Y-95048685D01*
X146950704Y-95143923D01*
X147045942Y-95239161D01*
X147188800Y-95286780D01*
X147426895Y-95286780D01*
X146474514Y-95001066D02*
X145998323Y-95001066D01*
X146569752Y-95286780D02*
X146236419Y-94286780D01*
X145903085Y-95286780D01*
X144998323Y-95191542D02*
X145045942Y-95239161D01*
X145188800Y-95286780D01*
X145284038Y-95286780D01*
X145426895Y-95239161D01*
X145522133Y-95143923D01*
X145569752Y-95048685D01*
X145617371Y-94858209D01*
X145617371Y-94715352D01*
X145569752Y-94524876D01*
X145522133Y-94429638D01*
X145426895Y-94334400D01*
X145284038Y-94286780D01*
X145188800Y-94286780D01*
X145045942Y-94334400D01*
X144998323Y-94382019D01*
X144569752Y-95286780D02*
X144569752Y-94286780D01*
X144188800Y-94286780D01*
X144093561Y-94334400D01*
X144045942Y-94382019D01*
X143998323Y-94477257D01*
X143998323Y-94620114D01*
X144045942Y-94715352D01*
X144093561Y-94762971D01*
X144188800Y-94810590D01*
X144569752Y-94810590D01*
X143664990Y-94286780D02*
X143426895Y-95286780D01*
X143236419Y-94572495D01*
X143045942Y-95286780D01*
X142807847Y-94286780D01*
X142426895Y-95286780D02*
X142426895Y-94286780D01*
X142093561Y-95001066D01*
X141760228Y-94286780D01*
X141760228Y-95286780D01*
X141331657Y-95001066D02*
X140855466Y-95001066D01*
X141426895Y-95286780D02*
X141093561Y-94286780D01*
X140760228Y-95286780D01*
X139903085Y-95286780D02*
X140474514Y-95286780D01*
X140188800Y-95286780D02*
X140188800Y-94286780D01*
X140284038Y-94429638D01*
X140379276Y-94524876D01*
X140474514Y-94572495D01*
X146898323Y-97886780D02*
X146898323Y-96886780D01*
X146660228Y-96886780D01*
X146517371Y-96934400D01*
X146422133Y-97029638D01*
X146374514Y-97124876D01*
X146326895Y-97315352D01*
X146326895Y-97458209D01*
X146374514Y-97648685D01*
X146422133Y-97743923D01*
X146517371Y-97839161D01*
X146660228Y-97886780D01*
X146898323Y-97886780D01*
X145945942Y-97601066D02*
X145469752Y-97601066D01*
X146041180Y-97886780D02*
X145707847Y-96886780D01*
X145374514Y-97886780D01*
X144469752Y-97791542D02*
X144517371Y-97839161D01*
X144660228Y-97886780D01*
X144755466Y-97886780D01*
X144898323Y-97839161D01*
X144993561Y-97743923D01*
X145041180Y-97648685D01*
X145088800Y-97458209D01*
X145088800Y-97315352D01*
X145041180Y-97124876D01*
X144993561Y-97029638D01*
X144898323Y-96934400D01*
X144755466Y-96886780D01*
X144660228Y-96886780D01*
X144517371Y-96934400D01*
X144469752Y-96982019D01*
X144041180Y-97886780D02*
X144041180Y-96886780D01*
X143660228Y-96886780D01*
X143564990Y-96934400D01*
X143517371Y-96982019D01*
X143469752Y-97077257D01*
X143469752Y-97220114D01*
X143517371Y-97315352D01*
X143564990Y-97362971D01*
X143660228Y-97410590D01*
X144041180Y-97410590D01*
X143136419Y-96886780D02*
X142898323Y-97886780D01*
X142707847Y-97172495D01*
X142517371Y-97886780D01*
X142279276Y-96886780D01*
X141898323Y-97886780D02*
X141898323Y-96886780D01*
X141564990Y-97601066D01*
X141231657Y-96886780D01*
X141231657Y-97886780D01*
X140422133Y-97362971D02*
X140279276Y-97410590D01*
X140231657Y-97458209D01*
X140184038Y-97553447D01*
X140184038Y-97696304D01*
X140231657Y-97791542D01*
X140279276Y-97839161D01*
X140374514Y-97886780D01*
X140755466Y-97886780D01*
X140755466Y-96886780D01*
X140422133Y-96886780D01*
X140326895Y-96934400D01*
X140279276Y-96982019D01*
X140231657Y-97077257D01*
X140231657Y-97172495D01*
X140279276Y-97267733D01*
X140326895Y-97315352D01*
X140422133Y-97362971D01*
X140755466Y-97362971D01*
X139231657Y-97886780D02*
X139803085Y-97886780D01*
X139517371Y-97886780D02*
X139517371Y-96886780D01*
X139612609Y-97029638D01*
X139707847Y-97124876D01*
X139803085Y-97172495D01*
X146184038Y-106486780D02*
X146660228Y-106486780D01*
X146660228Y-105486780D01*
X145850704Y-106486780D02*
X145850704Y-105486780D01*
X145517371Y-106201066D01*
X145184038Y-105486780D01*
X145184038Y-106486780D01*
X144707847Y-106486780D02*
X144707847Y-105486780D01*
X144326895Y-105486780D01*
X144231657Y-105534400D01*
X144184038Y-105582019D01*
X144136419Y-105677257D01*
X144136419Y-105820114D01*
X144184038Y-105915352D01*
X144231657Y-105962971D01*
X144326895Y-106010590D01*
X144707847Y-106010590D01*
X143945942Y-106582019D02*
X143184038Y-106582019D01*
X142374514Y-106391542D02*
X142422133Y-106439161D01*
X142564990Y-106486780D01*
X142660228Y-106486780D01*
X142803085Y-106439161D01*
X142898323Y-106343923D01*
X142945942Y-106248685D01*
X142993561Y-106058209D01*
X142993561Y-105915352D01*
X142945942Y-105724876D01*
X142898323Y-105629638D01*
X142803085Y-105534400D01*
X142660228Y-105486780D01*
X142564990Y-105486780D01*
X142422133Y-105534400D01*
X142374514Y-105582019D01*
X141993561Y-106439161D02*
X141850704Y-106486780D01*
X141612609Y-106486780D01*
X141517371Y-106439161D01*
X141469752Y-106391542D01*
X141422133Y-106296304D01*
X141422133Y-106201066D01*
X141469752Y-106105828D01*
X141517371Y-106058209D01*
X141612609Y-106010590D01*
X141803085Y-105962971D01*
X141898323Y-105915352D01*
X141945942Y-105867733D01*
X141993561Y-105772495D01*
X141993561Y-105677257D01*
X141945942Y-105582019D01*
X141898323Y-105534400D01*
X141803085Y-105486780D01*
X141564990Y-105486780D01*
X141422133Y-105534400D01*
X140660228Y-105962971D02*
X140517371Y-106010590D01*
X140469752Y-106058209D01*
X140422133Y-106153447D01*
X140422133Y-106296304D01*
X140469752Y-106391542D01*
X140517371Y-106439161D01*
X140612609Y-106486780D01*
X140993561Y-106486780D01*
X140993561Y-105486780D01*
X140660228Y-105486780D01*
X140564990Y-105534400D01*
X140517371Y-105582019D01*
X140469752Y-105677257D01*
X140469752Y-105772495D01*
X140517371Y-105867733D01*
X140564990Y-105915352D01*
X140660228Y-105962971D01*
X140993561Y-105962971D01*
X139469752Y-106486780D02*
X140041180Y-106486780D01*
X139755466Y-106486780D02*
X139755466Y-105486780D01*
X139850704Y-105629638D01*
X139945942Y-105724876D01*
X140041180Y-105772495D01*
X145726895Y-115486780D02*
X146203085Y-115486780D01*
X146203085Y-114486780D01*
X145393561Y-114962971D02*
X145060228Y-114962971D01*
X144917371Y-115486780D02*
X145393561Y-115486780D01*
X145393561Y-114486780D01*
X144917371Y-114486780D01*
X144488800Y-115486780D02*
X144488800Y-114486780D01*
X144250704Y-114486780D01*
X144107847Y-114534400D01*
X144012609Y-114629638D01*
X143964990Y-114724876D01*
X143917371Y-114915352D01*
X143917371Y-115058209D01*
X143964990Y-115248685D01*
X144012609Y-115343923D01*
X144107847Y-115439161D01*
X144250704Y-115486780D01*
X144488800Y-115486780D01*
X143726895Y-115582019D02*
X142964990Y-115582019D01*
X142726895Y-115486780D02*
X142726895Y-114486780D01*
X142488800Y-114486780D01*
X142345942Y-114534400D01*
X142250704Y-114629638D01*
X142203085Y-114724876D01*
X142155466Y-114915352D01*
X142155466Y-115058209D01*
X142203085Y-115248685D01*
X142250704Y-115343923D01*
X142345942Y-115439161D01*
X142488800Y-115486780D01*
X142726895Y-115486780D01*
X141774514Y-115201066D02*
X141298323Y-115201066D01*
X141869752Y-115486780D02*
X141536419Y-114486780D01*
X141203085Y-115486780D01*
X141012609Y-114486780D02*
X140441180Y-114486780D01*
X140726895Y-115486780D02*
X140726895Y-114486780D01*
X140155466Y-115201066D02*
X139679276Y-115201066D01*
X140250704Y-115486780D02*
X139917371Y-114486780D01*
X139584038Y-115486780D01*
X138726895Y-115486780D02*
X139298323Y-115486780D01*
X139012609Y-115486780D02*
X139012609Y-114486780D01*
X139107847Y-114629638D01*
X139203085Y-114724876D01*
X139298323Y-114772495D01*
X130041180Y-95996304D02*
X129041180Y-95996304D01*
X129136419Y-96424876D02*
X129088800Y-96472495D01*
X129041180Y-96567733D01*
X129041180Y-96805828D01*
X129088800Y-96901066D01*
X129136419Y-96948685D01*
X129231657Y-96996304D01*
X129326895Y-96996304D01*
X129469752Y-96948685D01*
X130041180Y-96377257D01*
X130041180Y-96996304D01*
X129945942Y-97996304D02*
X129993561Y-97948685D01*
X130041180Y-97805828D01*
X130041180Y-97710590D01*
X129993561Y-97567733D01*
X129898323Y-97472495D01*
X129803085Y-97424876D01*
X129612609Y-97377257D01*
X129469752Y-97377257D01*
X129279276Y-97424876D01*
X129184038Y-97472495D01*
X129088800Y-97567733D01*
X129041180Y-97710590D01*
X129041180Y-97805828D01*
X129088800Y-97948685D01*
X129136419Y-97996304D01*
X130136419Y-98186780D02*
X130136419Y-98948685D01*
X129993561Y-99139161D02*
X130041180Y-99282019D01*
X130041180Y-99520114D01*
X129993561Y-99615352D01*
X129945942Y-99662971D01*
X129850704Y-99710590D01*
X129755466Y-99710590D01*
X129660228Y-99662971D01*
X129612609Y-99615352D01*
X129564990Y-99520114D01*
X129517371Y-99329638D01*
X129469752Y-99234400D01*
X129422133Y-99186780D01*
X129326895Y-99139161D01*
X129231657Y-99139161D01*
X129136419Y-99186780D01*
X129088800Y-99234400D01*
X129041180Y-99329638D01*
X129041180Y-99567733D01*
X129088800Y-99710590D01*
X130041180Y-100139161D02*
X129041180Y-100139161D01*
X129041180Y-100377257D01*
X129088800Y-100520114D01*
X129184038Y-100615352D01*
X129279276Y-100662971D01*
X129469752Y-100710590D01*
X129612609Y-100710590D01*
X129803085Y-100662971D01*
X129898323Y-100615352D01*
X129993561Y-100520114D01*
X130041180Y-100377257D01*
X130041180Y-100139161D01*
X129755466Y-101091542D02*
X129755466Y-101567733D01*
X130041180Y-100996304D02*
X129041180Y-101329638D01*
X130041180Y-101662971D01*
X130041180Y-102520114D02*
X130041180Y-101948685D01*
X130041180Y-102234400D02*
X129041180Y-102234400D01*
X129184038Y-102139161D01*
X129279276Y-102043923D01*
X129326895Y-101948685D01*
X127041180Y-96020114D02*
X126041180Y-96020114D01*
X126136419Y-96448685D02*
X126088800Y-96496304D01*
X126041180Y-96591542D01*
X126041180Y-96829638D01*
X126088800Y-96924876D01*
X126136419Y-96972495D01*
X126231657Y-97020114D01*
X126326895Y-97020114D01*
X126469752Y-96972495D01*
X127041180Y-96401066D01*
X127041180Y-97020114D01*
X126945942Y-98020114D02*
X126993561Y-97972495D01*
X127041180Y-97829638D01*
X127041180Y-97734400D01*
X126993561Y-97591542D01*
X126898323Y-97496304D01*
X126803085Y-97448685D01*
X126612609Y-97401066D01*
X126469752Y-97401066D01*
X126279276Y-97448685D01*
X126184038Y-97496304D01*
X126088800Y-97591542D01*
X126041180Y-97734400D01*
X126041180Y-97829638D01*
X126088800Y-97972495D01*
X126136419Y-98020114D01*
X127136419Y-98210590D02*
X127136419Y-98972495D01*
X126993561Y-99162971D02*
X127041180Y-99305828D01*
X127041180Y-99543923D01*
X126993561Y-99639161D01*
X126945942Y-99686780D01*
X126850704Y-99734400D01*
X126755466Y-99734400D01*
X126660228Y-99686780D01*
X126612609Y-99639161D01*
X126564990Y-99543923D01*
X126517371Y-99353447D01*
X126469752Y-99258209D01*
X126422133Y-99210590D01*
X126326895Y-99162971D01*
X126231657Y-99162971D01*
X126136419Y-99210590D01*
X126088800Y-99258209D01*
X126041180Y-99353447D01*
X126041180Y-99591542D01*
X126088800Y-99734400D01*
X126945942Y-100734400D02*
X126993561Y-100686780D01*
X127041180Y-100543923D01*
X127041180Y-100448685D01*
X126993561Y-100305828D01*
X126898323Y-100210590D01*
X126803085Y-100162971D01*
X126612609Y-100115352D01*
X126469752Y-100115352D01*
X126279276Y-100162971D01*
X126184038Y-100210590D01*
X126088800Y-100305828D01*
X126041180Y-100448685D01*
X126041180Y-100543923D01*
X126088800Y-100686780D01*
X126136419Y-100734400D01*
X127041180Y-101639161D02*
X127041180Y-101162971D01*
X126041180Y-101162971D01*
X127041180Y-102496304D02*
X127041180Y-101924876D01*
X127041180Y-102210590D02*
X126041180Y-102210590D01*
X126184038Y-102115352D01*
X126279276Y-102020114D01*
X126326895Y-101924876D01*
M02*
