%TF.GenerationSoftware,KiCad,Pcbnew,(5.1.5-0-10_14)*%
%TF.CreationDate,2020-05-27T21:49:09-04:00*%
%TF.ProjectId,PD_PowerSupply,50445f50-6f77-4657-9253-7570706c792e,rev?*%
%TF.SameCoordinates,Original*%
%TF.FileFunction,Legend,Bot*%
%TF.FilePolarity,Positive*%
%FSLAX46Y46*%
G04 Gerber Fmt 4.6, Leading zero omitted, Abs format (unit mm)*
G04 Created by KiCad (PCBNEW (5.1.5-0-10_14)) date 2020-05-27 21:49:09*
%MOMM*%
%LPD*%
G04 APERTURE LIST*
%ADD10C,0.120000*%
%ADD11C,0.150000*%
G04 APERTURE END LIST*
D10*
X145588800Y-102734400D02*
G75*
G03X145588800Y-102734400I-700000J0D01*
G01*
X147588800Y-99734400D02*
G75*
G03X147588800Y-99734400I-700000J0D01*
G01*
X151188800Y-111234400D02*
G75*
G03X151188800Y-111234400I-700000J0D01*
G01*
X149888800Y-94834400D02*
G75*
G03X149888800Y-94834400I-700000J0D01*
G01*
X160488800Y-89834400D02*
G75*
G03X160488800Y-89834400I-700000J0D01*
G01*
X148788800Y-105934400D02*
G75*
G03X148788800Y-105934400I-700000J0D01*
G01*
X148293200Y-114944000D02*
G75*
G03X148293200Y-114944000I-700000J0D01*
G01*
X130157600Y-94573200D02*
G75*
G03X130157600Y-94573200I-700000J0D01*
G01*
X127312800Y-94573200D02*
G75*
G03X127312800Y-94573200I-700000J0D01*
G01*
D11*
X143355466Y-103139161D02*
X143212609Y-103186780D01*
X142974514Y-103186780D01*
X142879276Y-103139161D01*
X142831657Y-103091542D01*
X142784038Y-102996304D01*
X142784038Y-102901066D01*
X142831657Y-102805828D01*
X142879276Y-102758209D01*
X142974514Y-102710590D01*
X143164990Y-102662971D01*
X143260228Y-102615352D01*
X143307847Y-102567733D01*
X143355466Y-102472495D01*
X143355466Y-102377257D01*
X143307847Y-102282019D01*
X143260228Y-102234400D01*
X143164990Y-102186780D01*
X142926895Y-102186780D01*
X142784038Y-102234400D01*
X141784038Y-103091542D02*
X141831657Y-103139161D01*
X141974514Y-103186780D01*
X142069752Y-103186780D01*
X142212609Y-103139161D01*
X142307847Y-103043923D01*
X142355466Y-102948685D01*
X142403085Y-102758209D01*
X142403085Y-102615352D01*
X142355466Y-102424876D01*
X142307847Y-102329638D01*
X142212609Y-102234400D01*
X142069752Y-102186780D01*
X141974514Y-102186780D01*
X141831657Y-102234400D01*
X141784038Y-102282019D01*
X140879276Y-103186780D02*
X141355466Y-103186780D01*
X141355466Y-102186780D01*
X140545942Y-103186780D02*
X140545942Y-102186780D01*
X139974514Y-103186780D02*
X140403085Y-102615352D01*
X139974514Y-102186780D02*
X140545942Y-102758209D01*
X139022133Y-103186780D02*
X139593561Y-103186780D01*
X139307847Y-103186780D02*
X139307847Y-102186780D01*
X139403085Y-102329638D01*
X139498323Y-102424876D01*
X139593561Y-102472495D01*
X145436419Y-100286780D02*
X145436419Y-99286780D01*
X145103085Y-100001066D01*
X144769752Y-99286780D01*
X144769752Y-100286780D01*
X144103085Y-99286780D02*
X143912609Y-99286780D01*
X143817371Y-99334400D01*
X143722133Y-99429638D01*
X143674514Y-99620114D01*
X143674514Y-99953447D01*
X143722133Y-100143923D01*
X143817371Y-100239161D01*
X143912609Y-100286780D01*
X144103085Y-100286780D01*
X144198323Y-100239161D01*
X144293561Y-100143923D01*
X144341180Y-99953447D01*
X144341180Y-99620114D01*
X144293561Y-99429638D01*
X144198323Y-99334400D01*
X144103085Y-99286780D01*
X143293561Y-100239161D02*
X143150704Y-100286780D01*
X142912609Y-100286780D01*
X142817371Y-100239161D01*
X142769752Y-100191542D01*
X142722133Y-100096304D01*
X142722133Y-100001066D01*
X142769752Y-99905828D01*
X142817371Y-99858209D01*
X142912609Y-99810590D01*
X143103085Y-99762971D01*
X143198323Y-99715352D01*
X143245942Y-99667733D01*
X143293561Y-99572495D01*
X143293561Y-99477257D01*
X143245942Y-99382019D01*
X143198323Y-99334400D01*
X143103085Y-99286780D01*
X142864990Y-99286780D01*
X142722133Y-99334400D01*
X142293561Y-100286780D02*
X142293561Y-99286780D01*
X141293561Y-100286780D02*
X141864990Y-100286780D01*
X141579276Y-100286780D02*
X141579276Y-99286780D01*
X141674514Y-99429638D01*
X141769752Y-99524876D01*
X141864990Y-99572495D01*
X148836419Y-111886780D02*
X148836419Y-110886780D01*
X148503085Y-111601066D01*
X148169752Y-110886780D01*
X148169752Y-111886780D01*
X147693561Y-111886780D02*
X147693561Y-110886780D01*
X147264990Y-111839161D02*
X147122133Y-111886780D01*
X146884038Y-111886780D01*
X146788800Y-111839161D01*
X146741180Y-111791542D01*
X146693561Y-111696304D01*
X146693561Y-111601066D01*
X146741180Y-111505828D01*
X146788800Y-111458209D01*
X146884038Y-111410590D01*
X147074514Y-111362971D01*
X147169752Y-111315352D01*
X147217371Y-111267733D01*
X147264990Y-111172495D01*
X147264990Y-111077257D01*
X147217371Y-110982019D01*
X147169752Y-110934400D01*
X147074514Y-110886780D01*
X146836419Y-110886780D01*
X146693561Y-110934400D01*
X146074514Y-110886780D02*
X145884038Y-110886780D01*
X145788800Y-110934400D01*
X145693561Y-111029638D01*
X145645942Y-111220114D01*
X145645942Y-111553447D01*
X145693561Y-111743923D01*
X145788800Y-111839161D01*
X145884038Y-111886780D01*
X146074514Y-111886780D01*
X146169752Y-111839161D01*
X146264990Y-111743923D01*
X146312609Y-111553447D01*
X146312609Y-111220114D01*
X146264990Y-111029638D01*
X146169752Y-110934400D01*
X146074514Y-110886780D01*
X144693561Y-111886780D02*
X145264990Y-111886780D01*
X144979276Y-111886780D02*
X144979276Y-110886780D01*
X145074514Y-111029638D01*
X145169752Y-111124876D01*
X145264990Y-111172495D01*
X147193561Y-95286780D02*
X147669752Y-95286780D01*
X147669752Y-94286780D01*
X147003085Y-94286780D02*
X146431657Y-94286780D01*
X146717371Y-95286780D02*
X146717371Y-94286780D01*
X145526895Y-95191542D02*
X145574514Y-95239161D01*
X145717371Y-95286780D01*
X145812609Y-95286780D01*
X145955466Y-95239161D01*
X146050704Y-95143923D01*
X146098323Y-95048685D01*
X146145942Y-94858209D01*
X146145942Y-94715352D01*
X146098323Y-94524876D01*
X146050704Y-94429638D01*
X145955466Y-94334400D01*
X145812609Y-94286780D01*
X145717371Y-94286780D01*
X145574514Y-94334400D01*
X145526895Y-94382019D01*
X145336419Y-95382019D02*
X144574514Y-95382019D01*
X144336419Y-94762971D02*
X144003085Y-94762971D01*
X143860228Y-95286780D02*
X144336419Y-95286780D01*
X144336419Y-94286780D01*
X143860228Y-94286780D01*
X143431657Y-95286780D02*
X143431657Y-94286780D01*
X142860228Y-95286780D01*
X142860228Y-94286780D01*
X141860228Y-95286780D02*
X142431657Y-95286780D01*
X142145942Y-95286780D02*
X142145942Y-94286780D01*
X142241180Y-94429638D01*
X142336419Y-94524876D01*
X142431657Y-94572495D01*
X157893561Y-90386780D02*
X158369752Y-90386780D01*
X158369752Y-89386780D01*
X157703085Y-89386780D02*
X157131657Y-89386780D01*
X157417371Y-90386780D02*
X157417371Y-89386780D01*
X156226895Y-90291542D02*
X156274514Y-90339161D01*
X156417371Y-90386780D01*
X156512609Y-90386780D01*
X156655466Y-90339161D01*
X156750704Y-90243923D01*
X156798323Y-90148685D01*
X156845942Y-89958209D01*
X156845942Y-89815352D01*
X156798323Y-89624876D01*
X156750704Y-89529638D01*
X156655466Y-89434400D01*
X156512609Y-89386780D01*
X156417371Y-89386780D01*
X156274514Y-89434400D01*
X156226895Y-89482019D01*
X156036419Y-90482019D02*
X155274514Y-90482019D01*
X154464990Y-90291542D02*
X154512609Y-90339161D01*
X154655466Y-90386780D01*
X154750704Y-90386780D01*
X154893561Y-90339161D01*
X154988800Y-90243923D01*
X155036419Y-90148685D01*
X155084038Y-89958209D01*
X155084038Y-89815352D01*
X155036419Y-89624876D01*
X154988800Y-89529638D01*
X154893561Y-89434400D01*
X154750704Y-89386780D01*
X154655466Y-89386780D01*
X154512609Y-89434400D01*
X154464990Y-89482019D01*
X154084038Y-90339161D02*
X153941180Y-90386780D01*
X153703085Y-90386780D01*
X153607847Y-90339161D01*
X153560228Y-90291542D01*
X153512609Y-90196304D01*
X153512609Y-90101066D01*
X153560228Y-90005828D01*
X153607847Y-89958209D01*
X153703085Y-89910590D01*
X153893561Y-89862971D01*
X153988800Y-89815352D01*
X154036419Y-89767733D01*
X154084038Y-89672495D01*
X154084038Y-89577257D01*
X154036419Y-89482019D01*
X153988800Y-89434400D01*
X153893561Y-89386780D01*
X153655466Y-89386780D01*
X153512609Y-89434400D01*
X152750704Y-89862971D02*
X152607847Y-89910590D01*
X152560228Y-89958209D01*
X152512609Y-90053447D01*
X152512609Y-90196304D01*
X152560228Y-90291542D01*
X152607847Y-90339161D01*
X152703085Y-90386780D01*
X153084038Y-90386780D01*
X153084038Y-89386780D01*
X152750704Y-89386780D01*
X152655466Y-89434400D01*
X152607847Y-89482019D01*
X152560228Y-89577257D01*
X152560228Y-89672495D01*
X152607847Y-89767733D01*
X152655466Y-89815352D01*
X152750704Y-89862971D01*
X153084038Y-89862971D01*
X151560228Y-90386780D02*
X152131657Y-90386780D01*
X151845942Y-90386780D02*
X151845942Y-89386780D01*
X151941180Y-89529638D01*
X152036419Y-89624876D01*
X152131657Y-89672495D01*
X146184038Y-106486780D02*
X146660228Y-106486780D01*
X146660228Y-105486780D01*
X145850704Y-106486780D02*
X145850704Y-105486780D01*
X145517371Y-106201066D01*
X145184038Y-105486780D01*
X145184038Y-106486780D01*
X144707847Y-106486780D02*
X144707847Y-105486780D01*
X144326895Y-105486780D01*
X144231657Y-105534400D01*
X144184038Y-105582019D01*
X144136419Y-105677257D01*
X144136419Y-105820114D01*
X144184038Y-105915352D01*
X144231657Y-105962971D01*
X144326895Y-106010590D01*
X144707847Y-106010590D01*
X143945942Y-106582019D02*
X143184038Y-106582019D01*
X142374514Y-106391542D02*
X142422133Y-106439161D01*
X142564990Y-106486780D01*
X142660228Y-106486780D01*
X142803085Y-106439161D01*
X142898323Y-106343923D01*
X142945942Y-106248685D01*
X142993561Y-106058209D01*
X142993561Y-105915352D01*
X142945942Y-105724876D01*
X142898323Y-105629638D01*
X142803085Y-105534400D01*
X142660228Y-105486780D01*
X142564990Y-105486780D01*
X142422133Y-105534400D01*
X142374514Y-105582019D01*
X141993561Y-106439161D02*
X141850704Y-106486780D01*
X141612609Y-106486780D01*
X141517371Y-106439161D01*
X141469752Y-106391542D01*
X141422133Y-106296304D01*
X141422133Y-106201066D01*
X141469752Y-106105828D01*
X141517371Y-106058209D01*
X141612609Y-106010590D01*
X141803085Y-105962971D01*
X141898323Y-105915352D01*
X141945942Y-105867733D01*
X141993561Y-105772495D01*
X141993561Y-105677257D01*
X141945942Y-105582019D01*
X141898323Y-105534400D01*
X141803085Y-105486780D01*
X141564990Y-105486780D01*
X141422133Y-105534400D01*
X140660228Y-105962971D02*
X140517371Y-106010590D01*
X140469752Y-106058209D01*
X140422133Y-106153447D01*
X140422133Y-106296304D01*
X140469752Y-106391542D01*
X140517371Y-106439161D01*
X140612609Y-106486780D01*
X140993561Y-106486780D01*
X140993561Y-105486780D01*
X140660228Y-105486780D01*
X140564990Y-105534400D01*
X140517371Y-105582019D01*
X140469752Y-105677257D01*
X140469752Y-105772495D01*
X140517371Y-105867733D01*
X140564990Y-105915352D01*
X140660228Y-105962971D01*
X140993561Y-105962971D01*
X139469752Y-106486780D02*
X140041180Y-106486780D01*
X139755466Y-106486780D02*
X139755466Y-105486780D01*
X139850704Y-105629638D01*
X139945942Y-105724876D01*
X140041180Y-105772495D01*
X145726895Y-115486780D02*
X146203085Y-115486780D01*
X146203085Y-114486780D01*
X145393561Y-114962971D02*
X145060228Y-114962971D01*
X144917371Y-115486780D02*
X145393561Y-115486780D01*
X145393561Y-114486780D01*
X144917371Y-114486780D01*
X144488800Y-115486780D02*
X144488800Y-114486780D01*
X144250704Y-114486780D01*
X144107847Y-114534400D01*
X144012609Y-114629638D01*
X143964990Y-114724876D01*
X143917371Y-114915352D01*
X143917371Y-115058209D01*
X143964990Y-115248685D01*
X144012609Y-115343923D01*
X144107847Y-115439161D01*
X144250704Y-115486780D01*
X144488800Y-115486780D01*
X143726895Y-115582019D02*
X142964990Y-115582019D01*
X142726895Y-115486780D02*
X142726895Y-114486780D01*
X142488800Y-114486780D01*
X142345942Y-114534400D01*
X142250704Y-114629638D01*
X142203085Y-114724876D01*
X142155466Y-114915352D01*
X142155466Y-115058209D01*
X142203085Y-115248685D01*
X142250704Y-115343923D01*
X142345942Y-115439161D01*
X142488800Y-115486780D01*
X142726895Y-115486780D01*
X141774514Y-115201066D02*
X141298323Y-115201066D01*
X141869752Y-115486780D02*
X141536419Y-114486780D01*
X141203085Y-115486780D01*
X141012609Y-114486780D02*
X140441180Y-114486780D01*
X140726895Y-115486780D02*
X140726895Y-114486780D01*
X140155466Y-115201066D02*
X139679276Y-115201066D01*
X140250704Y-115486780D02*
X139917371Y-114486780D01*
X139584038Y-115486780D01*
X138726895Y-115486780D02*
X139298323Y-115486780D01*
X139012609Y-115486780D02*
X139012609Y-114486780D01*
X139107847Y-114629638D01*
X139203085Y-114724876D01*
X139298323Y-114772495D01*
X130041180Y-95996304D02*
X129041180Y-95996304D01*
X129136419Y-96424876D02*
X129088800Y-96472495D01*
X129041180Y-96567733D01*
X129041180Y-96805828D01*
X129088800Y-96901066D01*
X129136419Y-96948685D01*
X129231657Y-96996304D01*
X129326895Y-96996304D01*
X129469752Y-96948685D01*
X130041180Y-96377257D01*
X130041180Y-96996304D01*
X129945942Y-97996304D02*
X129993561Y-97948685D01*
X130041180Y-97805828D01*
X130041180Y-97710590D01*
X129993561Y-97567733D01*
X129898323Y-97472495D01*
X129803085Y-97424876D01*
X129612609Y-97377257D01*
X129469752Y-97377257D01*
X129279276Y-97424876D01*
X129184038Y-97472495D01*
X129088800Y-97567733D01*
X129041180Y-97710590D01*
X129041180Y-97805828D01*
X129088800Y-97948685D01*
X129136419Y-97996304D01*
X130136419Y-98186780D02*
X130136419Y-98948685D01*
X129993561Y-99139161D02*
X130041180Y-99282019D01*
X130041180Y-99520114D01*
X129993561Y-99615352D01*
X129945942Y-99662971D01*
X129850704Y-99710590D01*
X129755466Y-99710590D01*
X129660228Y-99662971D01*
X129612609Y-99615352D01*
X129564990Y-99520114D01*
X129517371Y-99329638D01*
X129469752Y-99234400D01*
X129422133Y-99186780D01*
X129326895Y-99139161D01*
X129231657Y-99139161D01*
X129136419Y-99186780D01*
X129088800Y-99234400D01*
X129041180Y-99329638D01*
X129041180Y-99567733D01*
X129088800Y-99710590D01*
X130041180Y-100139161D02*
X129041180Y-100139161D01*
X129041180Y-100377257D01*
X129088800Y-100520114D01*
X129184038Y-100615352D01*
X129279276Y-100662971D01*
X129469752Y-100710590D01*
X129612609Y-100710590D01*
X129803085Y-100662971D01*
X129898323Y-100615352D01*
X129993561Y-100520114D01*
X130041180Y-100377257D01*
X130041180Y-100139161D01*
X129755466Y-101091542D02*
X129755466Y-101567733D01*
X130041180Y-100996304D02*
X129041180Y-101329638D01*
X130041180Y-101662971D01*
X130041180Y-102520114D02*
X130041180Y-101948685D01*
X130041180Y-102234400D02*
X129041180Y-102234400D01*
X129184038Y-102139161D01*
X129279276Y-102043923D01*
X129326895Y-101948685D01*
X127041180Y-96020114D02*
X126041180Y-96020114D01*
X126136419Y-96448685D02*
X126088800Y-96496304D01*
X126041180Y-96591542D01*
X126041180Y-96829638D01*
X126088800Y-96924876D01*
X126136419Y-96972495D01*
X126231657Y-97020114D01*
X126326895Y-97020114D01*
X126469752Y-96972495D01*
X127041180Y-96401066D01*
X127041180Y-97020114D01*
X126945942Y-98020114D02*
X126993561Y-97972495D01*
X127041180Y-97829638D01*
X127041180Y-97734400D01*
X126993561Y-97591542D01*
X126898323Y-97496304D01*
X126803085Y-97448685D01*
X126612609Y-97401066D01*
X126469752Y-97401066D01*
X126279276Y-97448685D01*
X126184038Y-97496304D01*
X126088800Y-97591542D01*
X126041180Y-97734400D01*
X126041180Y-97829638D01*
X126088800Y-97972495D01*
X126136419Y-98020114D01*
X127136419Y-98210590D02*
X127136419Y-98972495D01*
X126993561Y-99162971D02*
X127041180Y-99305828D01*
X127041180Y-99543923D01*
X126993561Y-99639161D01*
X126945942Y-99686780D01*
X126850704Y-99734400D01*
X126755466Y-99734400D01*
X126660228Y-99686780D01*
X126612609Y-99639161D01*
X126564990Y-99543923D01*
X126517371Y-99353447D01*
X126469752Y-99258209D01*
X126422133Y-99210590D01*
X126326895Y-99162971D01*
X126231657Y-99162971D01*
X126136419Y-99210590D01*
X126088800Y-99258209D01*
X126041180Y-99353447D01*
X126041180Y-99591542D01*
X126088800Y-99734400D01*
X126945942Y-100734400D02*
X126993561Y-100686780D01*
X127041180Y-100543923D01*
X127041180Y-100448685D01*
X126993561Y-100305828D01*
X126898323Y-100210590D01*
X126803085Y-100162971D01*
X126612609Y-100115352D01*
X126469752Y-100115352D01*
X126279276Y-100162971D01*
X126184038Y-100210590D01*
X126088800Y-100305828D01*
X126041180Y-100448685D01*
X126041180Y-100543923D01*
X126088800Y-100686780D01*
X126136419Y-100734400D01*
X127041180Y-101639161D02*
X127041180Y-101162971D01*
X126041180Y-101162971D01*
X127041180Y-102496304D02*
X127041180Y-101924876D01*
X127041180Y-102210590D02*
X126041180Y-102210590D01*
X126184038Y-102115352D01*
X126279276Y-102020114D01*
X126326895Y-101924876D01*
M02*
