G04 #@! TF.GenerationSoftware,KiCad,Pcbnew,(5.1.5-0-10_14)*
G04 #@! TF.CreationDate,2020-06-14T19:46:55-04:00*
G04 #@! TF.ProjectId,PD_PowerSupply,50445f50-6f77-4657-9253-7570706c792e,rev?*
G04 #@! TF.SameCoordinates,Original*
G04 #@! TF.FileFunction,Copper,L3,Inr*
G04 #@! TF.FilePolarity,Positive*
%FSLAX46Y46*%
G04 Gerber Fmt 4.6, Leading zero omitted, Abs format (unit mm)*
G04 Created by KiCad (PCBNEW (5.1.5-0-10_14)) date 2020-06-14 19:46:55*
%MOMM*%
%LPD*%
G04 APERTURE LIST*
%ADD10C,2.600000*%
%ADD11R,2.600000X2.600000*%
%ADD12O,2.216000X1.108000*%
%ADD13C,0.650000*%
%ADD14O,1.700000X1.700000*%
%ADD15R,1.700000X1.700000*%
%ADD16C,0.508000*%
%ADD17C,0.800000*%
%ADD18C,0.254000*%
G04 APERTURE END LIST*
D10*
X162888800Y-114234400D03*
D11*
X157888800Y-114234400D03*
D12*
X115305000Y-74805000D03*
X115305000Y-83455000D03*
X118685000Y-83455000D03*
X118685000Y-74805000D03*
D13*
X118315000Y-76155000D03*
X118315000Y-77005000D03*
X118315000Y-77855000D03*
X118315000Y-78705000D03*
X118315000Y-79555000D03*
X118315000Y-80405000D03*
X118315000Y-81255000D03*
X118315000Y-82105000D03*
X119665000Y-82105000D03*
X119665000Y-81255000D03*
X119665000Y-80405000D03*
X119665000Y-79555000D03*
X119665000Y-78705000D03*
X119665000Y-77855000D03*
X119665000Y-77005000D03*
X119665000Y-76155000D03*
D14*
X167964000Y-108746400D03*
D15*
X170504000Y-108746400D03*
D16*
X129559200Y-96046400D03*
X126612800Y-94573200D03*
X131946800Y-111591200D03*
X131946800Y-112912000D03*
X125292000Y-111642000D03*
X129457600Y-94573200D03*
X130981600Y-111438800D03*
X152381200Y-77301200D03*
X149650800Y-103322000D03*
X150034000Y-78278400D03*
X150034000Y-77059200D03*
X147134000Y-81678400D03*
X147134000Y-80459200D03*
X124834800Y-105114200D03*
X123285400Y-105114200D03*
X121736000Y-105114200D03*
X119348400Y-119058800D03*
X128086000Y-118550800D03*
X125393600Y-116366400D03*
X153435200Y-96148000D03*
X156635600Y-102142400D03*
X152419200Y-111794400D03*
D17*
X164814400Y-106866800D03*
X162934800Y-89848800D03*
X162985600Y-87562800D03*
X162934800Y-85226000D03*
X162934800Y-82889200D03*
X162985600Y-80552400D03*
X162985600Y-78114000D03*
D16*
X139973200Y-97164000D03*
X149879200Y-81212800D03*
X149879200Y-82076400D03*
X151188800Y-82234400D03*
X148488800Y-76134400D03*
X147593200Y-76996400D03*
X147593200Y-76183600D03*
X147593200Y-77860000D03*
X148507600Y-77809200D03*
X149371200Y-77809200D03*
D17*
X153211200Y-117267600D03*
X135466400Y-113162400D03*
X140989200Y-118144400D03*
X148152000Y-118144400D03*
D16*
X135604400Y-97976800D03*
X146983600Y-97265600D03*
X147136000Y-94928800D03*
X147136000Y-94065200D03*
X168461200Y-98435600D03*
X167800800Y-98435600D03*
X167140400Y-98435600D03*
X115081200Y-106917600D03*
X120466000Y-92185600D03*
X142106800Y-76488400D03*
X134940800Y-85073600D03*
X133140800Y-83498800D03*
X123107600Y-75116800D03*
X132759600Y-92642800D03*
X122091600Y-92642800D03*
X123717200Y-92642800D03*
X125292000Y-92642800D03*
X129588800Y-88234400D03*
X128288800Y-86934400D03*
X115005000Y-92566600D03*
X113023800Y-102040800D03*
D17*
X142818000Y-105066400D03*
D16*
X154959200Y-79841200D03*
X154959200Y-78994532D03*
X154959200Y-78147866D03*
X153240533Y-77301200D03*
X154099866Y-77301200D03*
X154959200Y-77301200D03*
X154044800Y-82279600D03*
X154888800Y-82279600D03*
D17*
X162985600Y-75777200D03*
D16*
X156229200Y-99653200D03*
X150188800Y-99234400D03*
X149916000Y-88744000D03*
X127070000Y-108492400D03*
X124088800Y-112834400D03*
X120466000Y-119058800D03*
X118888800Y-114934400D03*
X118988800Y-112934400D03*
X154688800Y-89534400D03*
X151488800Y-87834400D03*
D17*
X146188800Y-84634400D03*
D16*
X156288800Y-82634400D03*
X156235514Y-106388924D03*
X137636400Y-76894800D03*
X139516000Y-81212800D03*
X125241200Y-94674800D03*
X126409600Y-89798000D03*
D17*
X131794400Y-105292000D03*
X131794400Y-99399200D03*
D16*
X128797200Y-113369200D03*
X115081200Y-99551600D03*
X132886700Y-97164000D03*
X129305200Y-117228000D03*
D17*
X142818000Y-102266400D03*
D16*
X155081199Y-96148000D03*
X151281201Y-97743199D03*
X120034200Y-107095400D03*
X154688800Y-87834400D03*
X152788800Y-87834400D03*
X151488800Y-89534400D03*
X150057559Y-85303159D03*
X147388800Y-82534400D03*
X156088800Y-98734400D03*
D17*
X133166000Y-77606000D03*
X133166000Y-78622000D03*
X133166000Y-79638000D03*
X132150000Y-77606000D03*
X132150000Y-78622000D03*
X132150000Y-79638000D03*
X132150000Y-80654000D03*
X123412400Y-79434800D03*
X145901600Y-88121600D03*
X133166000Y-80654000D03*
D16*
X132068400Y-86363600D03*
X128594000Y-79180800D03*
X128898800Y-90610800D03*
X133267600Y-87562800D03*
X129715600Y-91114800D03*
X148507600Y-114029600D03*
X149472800Y-116518800D03*
X123209200Y-114131198D03*
X132048400Y-88375600D03*
X126562000Y-98535600D03*
X131134000Y-85327600D03*
X126663600Y-97367200D03*
X153688800Y-88534400D03*
X153688800Y-84834400D03*
X126587400Y-92871400D03*
X129076600Y-92871400D03*
X154349600Y-104225200D03*
X156635600Y-100466000D03*
D17*
X164255600Y-93049200D03*
X164255600Y-91728400D03*
D16*
X154044800Y-112302400D03*
X123768000Y-112150000D03*
X121228000Y-103361600D03*
X124150000Y-115578000D03*
X150082400Y-104631600D03*
X130458000Y-115030000D03*
X149588802Y-101534394D03*
X147538797Y-103584397D03*
X146488800Y-102734408D03*
X124225200Y-114486800D03*
X149588802Y-100634400D03*
X132105801Y-115560201D03*
X149588802Y-102434400D03*
X140786000Y-92795200D03*
X144850000Y-92795200D03*
X133623200Y-113420000D03*
X126308000Y-105571400D03*
X123717200Y-88477200D03*
X123717200Y-86394400D03*
X128594000Y-110067200D03*
X117519600Y-96605200D03*
X128594000Y-111184800D03*
X116300400Y-96605200D03*
X116249600Y-88426400D03*
X117570400Y-88426400D03*
X155388800Y-88434400D03*
X153388800Y-89334400D03*
X156288800Y-92634400D03*
X151149200Y-113013600D03*
X129356001Y-118957199D03*
X151809600Y-95013600D03*
X130575200Y-115858400D03*
X152088800Y-88834400D03*
X148188800Y-86134400D03*
X124188800Y-113634400D03*
D18*
G36*
X163248408Y-73928300D02*
G01*
X163401946Y-73974656D01*
X163543550Y-74049948D01*
X163667832Y-74151310D01*
X163770061Y-74274884D01*
X163846341Y-74415961D01*
X163893765Y-74569162D01*
X163911400Y-74736944D01*
X163911401Y-89225887D01*
X163910544Y-89234793D01*
X163912262Y-89251858D01*
X163913968Y-89269176D01*
X163914025Y-89269365D01*
X163914045Y-89269561D01*
X163919085Y-89286043D01*
X163924112Y-89302616D01*
X163924205Y-89302791D01*
X163924263Y-89302979D01*
X163932464Y-89318242D01*
X163940585Y-89333435D01*
X163940709Y-89333586D01*
X163940803Y-89333761D01*
X163951916Y-89347241D01*
X163962754Y-89360447D01*
X163969669Y-89366122D01*
X172758484Y-98116263D01*
X172763297Y-98120195D01*
X172822051Y-98171026D01*
X172860655Y-98220551D01*
X172888905Y-98276632D01*
X172905988Y-98338084D01*
X172911400Y-98400348D01*
X172911401Y-118725717D01*
X172894899Y-118894012D01*
X172848544Y-119047546D01*
X172773252Y-119189150D01*
X172671892Y-119313430D01*
X172548318Y-119415660D01*
X172407240Y-119491941D01*
X172254038Y-119539365D01*
X172086256Y-119557000D01*
X118478231Y-119557000D01*
X118482921Y-118904900D01*
X128825001Y-118904900D01*
X128825001Y-119009498D01*
X128845407Y-119112086D01*
X128885435Y-119208722D01*
X128943547Y-119295692D01*
X129017508Y-119369653D01*
X129104478Y-119427765D01*
X129201114Y-119467793D01*
X129303702Y-119488199D01*
X129408300Y-119488199D01*
X129510888Y-119467793D01*
X129607524Y-119427765D01*
X129694494Y-119369653D01*
X129768455Y-119295692D01*
X129826567Y-119208722D01*
X129866595Y-119112086D01*
X129887001Y-119009498D01*
X129887001Y-118904900D01*
X129866595Y-118802312D01*
X129826567Y-118705676D01*
X129768455Y-118618706D01*
X129694494Y-118544745D01*
X129607524Y-118486633D01*
X129510888Y-118446605D01*
X129408300Y-118426199D01*
X129303702Y-118426199D01*
X129201114Y-118446605D01*
X129104478Y-118486633D01*
X129017508Y-118544745D01*
X128943547Y-118618706D01*
X128885435Y-118705676D01*
X128845407Y-118802312D01*
X128825001Y-118904900D01*
X118482921Y-118904900D01*
X118495361Y-117175701D01*
X128774200Y-117175701D01*
X128774200Y-117280299D01*
X128794606Y-117382887D01*
X128834634Y-117479523D01*
X128892746Y-117566493D01*
X128966707Y-117640454D01*
X129053677Y-117698566D01*
X129150313Y-117738594D01*
X129252901Y-117759000D01*
X129357499Y-117759000D01*
X129460087Y-117738594D01*
X129556723Y-117698566D01*
X129643693Y-117640454D01*
X129717654Y-117566493D01*
X129775766Y-117479523D01*
X129815794Y-117382887D01*
X129836200Y-117280299D01*
X129836200Y-117175701D01*
X129815794Y-117073113D01*
X129775766Y-116976477D01*
X129717654Y-116889507D01*
X129643693Y-116815546D01*
X129556723Y-116757434D01*
X129460087Y-116717406D01*
X129357499Y-116697000D01*
X129252901Y-116697000D01*
X129150313Y-116717406D01*
X129053677Y-116757434D01*
X128966707Y-116815546D01*
X128892746Y-116889507D01*
X128834634Y-116976477D01*
X128794606Y-117073113D01*
X128774200Y-117175701D01*
X118495361Y-117175701D01*
X118500463Y-116466501D01*
X148941800Y-116466501D01*
X148941800Y-116571099D01*
X148962206Y-116673687D01*
X149002234Y-116770323D01*
X149060346Y-116857293D01*
X149134307Y-116931254D01*
X149221277Y-116989366D01*
X149317913Y-117029394D01*
X149420501Y-117049800D01*
X149525099Y-117049800D01*
X149627687Y-117029394D01*
X149724323Y-116989366D01*
X149811293Y-116931254D01*
X149885254Y-116857293D01*
X149943366Y-116770323D01*
X149983394Y-116673687D01*
X150003800Y-116571099D01*
X150003800Y-116466501D01*
X149983394Y-116363913D01*
X149943366Y-116267277D01*
X149885254Y-116180307D01*
X149811293Y-116106346D01*
X149724323Y-116048234D01*
X149627687Y-116008206D01*
X149525099Y-115987800D01*
X149420501Y-115987800D01*
X149317913Y-116008206D01*
X149221277Y-116048234D01*
X149134307Y-116106346D01*
X149060346Y-116180307D01*
X149002234Y-116267277D01*
X148962206Y-116363913D01*
X148941800Y-116466501D01*
X118500463Y-116466501D01*
X118507232Y-115525701D01*
X123619000Y-115525701D01*
X123619000Y-115630299D01*
X123639406Y-115732887D01*
X123679434Y-115829523D01*
X123737546Y-115916493D01*
X123811507Y-115990454D01*
X123898477Y-116048566D01*
X123995113Y-116088594D01*
X124097701Y-116109000D01*
X124202299Y-116109000D01*
X124304887Y-116088594D01*
X124401523Y-116048566D01*
X124488493Y-115990454D01*
X124562454Y-115916493D01*
X124620566Y-115829523D01*
X124660594Y-115732887D01*
X124681000Y-115630299D01*
X124681000Y-115525701D01*
X124660594Y-115423113D01*
X124620566Y-115326477D01*
X124562454Y-115239507D01*
X124488493Y-115165546D01*
X124401523Y-115107434D01*
X124304887Y-115067406D01*
X124202299Y-115047000D01*
X124097701Y-115047000D01*
X123995113Y-115067406D01*
X123898477Y-115107434D01*
X123811507Y-115165546D01*
X123737546Y-115239507D01*
X123679434Y-115326477D01*
X123639406Y-115423113D01*
X123619000Y-115525701D01*
X118507232Y-115525701D01*
X118517641Y-114078899D01*
X122678200Y-114078899D01*
X122678200Y-114183497D01*
X122698606Y-114286085D01*
X122738634Y-114382721D01*
X122796746Y-114469691D01*
X122870707Y-114543652D01*
X122957677Y-114601764D01*
X123054313Y-114641792D01*
X123156901Y-114662198D01*
X123261499Y-114662198D01*
X123364087Y-114641792D01*
X123460723Y-114601764D01*
X123547693Y-114543652D01*
X123621654Y-114469691D01*
X123679766Y-114382721D01*
X123719794Y-114286085D01*
X123740200Y-114183497D01*
X123740200Y-114078899D01*
X123719794Y-113976311D01*
X123679766Y-113879675D01*
X123621654Y-113792705D01*
X123547693Y-113718744D01*
X123460723Y-113660632D01*
X123364087Y-113620604D01*
X123261499Y-113600198D01*
X123156901Y-113600198D01*
X123054313Y-113620604D01*
X122957677Y-113660632D01*
X122870707Y-113718744D01*
X122796746Y-113792705D01*
X122738634Y-113879675D01*
X122698606Y-113976311D01*
X122678200Y-114078899D01*
X118517641Y-114078899D01*
X118521215Y-113582101D01*
X123657800Y-113582101D01*
X123657800Y-113686699D01*
X123678206Y-113789287D01*
X123718234Y-113885923D01*
X123776346Y-113972893D01*
X123850307Y-114046854D01*
X123889079Y-114072761D01*
X123886707Y-114074346D01*
X123812746Y-114148307D01*
X123754634Y-114235277D01*
X123714606Y-114331913D01*
X123694200Y-114434501D01*
X123694200Y-114539099D01*
X123714606Y-114641687D01*
X123754634Y-114738323D01*
X123812746Y-114825293D01*
X123886707Y-114899254D01*
X123973677Y-114957366D01*
X124070313Y-114997394D01*
X124172901Y-115017800D01*
X124277499Y-115017800D01*
X124380087Y-114997394D01*
X124427630Y-114977701D01*
X129927000Y-114977701D01*
X129927000Y-115082299D01*
X129947406Y-115184887D01*
X129987434Y-115281523D01*
X130045546Y-115368493D01*
X130119507Y-115442454D01*
X130191856Y-115490797D01*
X130162746Y-115519907D01*
X130104634Y-115606877D01*
X130064606Y-115703513D01*
X130044200Y-115806101D01*
X130044200Y-115910699D01*
X130064606Y-116013287D01*
X130104634Y-116109923D01*
X130162746Y-116196893D01*
X130236707Y-116270854D01*
X130323677Y-116328966D01*
X130420313Y-116368994D01*
X130522901Y-116389400D01*
X130627499Y-116389400D01*
X130730087Y-116368994D01*
X130826723Y-116328966D01*
X130913693Y-116270854D01*
X130987654Y-116196893D01*
X131045766Y-116109923D01*
X131085794Y-116013287D01*
X131106200Y-115910699D01*
X131106200Y-115806101D01*
X131085794Y-115703513D01*
X131045766Y-115606877D01*
X130987654Y-115519907D01*
X130975649Y-115507902D01*
X131574801Y-115507902D01*
X131574801Y-115612500D01*
X131595207Y-115715088D01*
X131635235Y-115811724D01*
X131693347Y-115898694D01*
X131767308Y-115972655D01*
X131854278Y-116030767D01*
X131950914Y-116070795D01*
X132053502Y-116091201D01*
X132158100Y-116091201D01*
X132260688Y-116070795D01*
X132357324Y-116030767D01*
X132444294Y-115972655D01*
X132518255Y-115898694D01*
X132576367Y-115811724D01*
X132616395Y-115715088D01*
X132636801Y-115612500D01*
X132636801Y-115507902D01*
X132616395Y-115405314D01*
X132576367Y-115308678D01*
X132518255Y-115221708D01*
X132444294Y-115147747D01*
X132357324Y-115089635D01*
X132260688Y-115049607D01*
X132158100Y-115029201D01*
X132053502Y-115029201D01*
X131950914Y-115049607D01*
X131854278Y-115089635D01*
X131767308Y-115147747D01*
X131693347Y-115221708D01*
X131635235Y-115308678D01*
X131595207Y-115405314D01*
X131574801Y-115507902D01*
X130975649Y-115507902D01*
X130913693Y-115445946D01*
X130841344Y-115397603D01*
X130870454Y-115368493D01*
X130928566Y-115281523D01*
X130968594Y-115184887D01*
X130989000Y-115082299D01*
X130989000Y-114977701D01*
X130968594Y-114875113D01*
X130928566Y-114778477D01*
X130870454Y-114691507D01*
X130796493Y-114617546D01*
X130709523Y-114559434D01*
X130612887Y-114519406D01*
X130510299Y-114499000D01*
X130405701Y-114499000D01*
X130303113Y-114519406D01*
X130206477Y-114559434D01*
X130119507Y-114617546D01*
X130045546Y-114691507D01*
X129987434Y-114778477D01*
X129947406Y-114875113D01*
X129927000Y-114977701D01*
X124427630Y-114977701D01*
X124476723Y-114957366D01*
X124563693Y-114899254D01*
X124637654Y-114825293D01*
X124695766Y-114738323D01*
X124735794Y-114641687D01*
X124756200Y-114539099D01*
X124756200Y-114434501D01*
X124735794Y-114331913D01*
X124695766Y-114235277D01*
X124637654Y-114148307D01*
X124563693Y-114074346D01*
X124524921Y-114048439D01*
X124527293Y-114046854D01*
X124596846Y-113977301D01*
X147976600Y-113977301D01*
X147976600Y-114081899D01*
X147997006Y-114184487D01*
X148037034Y-114281123D01*
X148095146Y-114368093D01*
X148169107Y-114442054D01*
X148256077Y-114500166D01*
X148352713Y-114540194D01*
X148455301Y-114560600D01*
X148559899Y-114560600D01*
X148662487Y-114540194D01*
X148759123Y-114500166D01*
X148846093Y-114442054D01*
X148920054Y-114368093D01*
X148978166Y-114281123D01*
X149018194Y-114184487D01*
X149038600Y-114081899D01*
X149038600Y-113977301D01*
X149018194Y-113874713D01*
X148978166Y-113778077D01*
X148920054Y-113691107D01*
X148846093Y-113617146D01*
X148759123Y-113559034D01*
X148662487Y-113519006D01*
X148559899Y-113498600D01*
X148455301Y-113498600D01*
X148352713Y-113519006D01*
X148256077Y-113559034D01*
X148169107Y-113617146D01*
X148095146Y-113691107D01*
X148037034Y-113778077D01*
X147997006Y-113874713D01*
X147976600Y-113977301D01*
X124596846Y-113977301D01*
X124601254Y-113972893D01*
X124659366Y-113885923D01*
X124699394Y-113789287D01*
X124719800Y-113686699D01*
X124719800Y-113582101D01*
X124699394Y-113479513D01*
X124659366Y-113382877D01*
X124615282Y-113316901D01*
X128266200Y-113316901D01*
X128266200Y-113421499D01*
X128286606Y-113524087D01*
X128326634Y-113620723D01*
X128384746Y-113707693D01*
X128458707Y-113781654D01*
X128545677Y-113839766D01*
X128642313Y-113879794D01*
X128744901Y-113900200D01*
X128849499Y-113900200D01*
X128952087Y-113879794D01*
X129048723Y-113839766D01*
X129135693Y-113781654D01*
X129209654Y-113707693D01*
X129267766Y-113620723D01*
X129307794Y-113524087D01*
X129328200Y-113421499D01*
X129328200Y-113316901D01*
X129307794Y-113214313D01*
X129267766Y-113117677D01*
X129209654Y-113030707D01*
X129135693Y-112956746D01*
X129048723Y-112898634D01*
X128954731Y-112859701D01*
X131415800Y-112859701D01*
X131415800Y-112964299D01*
X131436206Y-113066887D01*
X131476234Y-113163523D01*
X131534346Y-113250493D01*
X131608307Y-113324454D01*
X131695277Y-113382566D01*
X131791913Y-113422594D01*
X131894501Y-113443000D01*
X131999099Y-113443000D01*
X132101687Y-113422594D01*
X132198323Y-113382566D01*
X132220569Y-113367701D01*
X133092200Y-113367701D01*
X133092200Y-113472299D01*
X133112606Y-113574887D01*
X133152634Y-113671523D01*
X133210746Y-113758493D01*
X133284707Y-113832454D01*
X133371677Y-113890566D01*
X133468313Y-113930594D01*
X133570901Y-113951000D01*
X133675499Y-113951000D01*
X133778087Y-113930594D01*
X133874723Y-113890566D01*
X133961693Y-113832454D01*
X134035654Y-113758493D01*
X134093766Y-113671523D01*
X134133794Y-113574887D01*
X134154200Y-113472299D01*
X134154200Y-113367701D01*
X134133794Y-113265113D01*
X134093766Y-113168477D01*
X134035654Y-113081507D01*
X133961693Y-113007546D01*
X133892484Y-112961301D01*
X150618200Y-112961301D01*
X150618200Y-113065899D01*
X150638606Y-113168487D01*
X150678634Y-113265123D01*
X150736746Y-113352093D01*
X150810707Y-113426054D01*
X150897677Y-113484166D01*
X150994313Y-113524194D01*
X151096901Y-113544600D01*
X151201499Y-113544600D01*
X151304087Y-113524194D01*
X151400723Y-113484166D01*
X151487693Y-113426054D01*
X151561654Y-113352093D01*
X151619766Y-113265123D01*
X151659794Y-113168487D01*
X151680200Y-113065899D01*
X151680200Y-112961301D01*
X151674850Y-112934400D01*
X156310460Y-112934400D01*
X156310460Y-115534400D01*
X156315808Y-115588701D01*
X156331647Y-115640916D01*
X156357369Y-115689037D01*
X156391984Y-115731216D01*
X156434163Y-115765831D01*
X156482284Y-115791553D01*
X156534499Y-115807392D01*
X156588800Y-115812740D01*
X159188800Y-115812740D01*
X159243101Y-115807392D01*
X159295316Y-115791553D01*
X159343437Y-115765831D01*
X159385616Y-115731216D01*
X159420231Y-115689037D01*
X159445953Y-115640916D01*
X159461792Y-115588701D01*
X159467140Y-115534400D01*
X159467140Y-114079079D01*
X161311800Y-114079079D01*
X161311800Y-114389721D01*
X161372404Y-114694394D01*
X161491281Y-114981389D01*
X161663864Y-115239679D01*
X161883521Y-115459336D01*
X162141811Y-115631919D01*
X162428806Y-115750796D01*
X162733479Y-115811400D01*
X163044121Y-115811400D01*
X163348794Y-115750796D01*
X163635789Y-115631919D01*
X163894079Y-115459336D01*
X164113736Y-115239679D01*
X164286319Y-114981389D01*
X164405196Y-114694394D01*
X164465800Y-114389721D01*
X164465800Y-114079079D01*
X164405196Y-113774406D01*
X164286319Y-113487411D01*
X164113736Y-113229121D01*
X163894079Y-113009464D01*
X163635789Y-112836881D01*
X163348794Y-112718004D01*
X163044121Y-112657400D01*
X162733479Y-112657400D01*
X162428806Y-112718004D01*
X162141811Y-112836881D01*
X161883521Y-113009464D01*
X161663864Y-113229121D01*
X161491281Y-113487411D01*
X161372404Y-113774406D01*
X161311800Y-114079079D01*
X159467140Y-114079079D01*
X159467140Y-112934400D01*
X159461792Y-112880099D01*
X159445953Y-112827884D01*
X159420231Y-112779763D01*
X159385616Y-112737584D01*
X159343437Y-112702969D01*
X159295316Y-112677247D01*
X159243101Y-112661408D01*
X159188800Y-112656060D01*
X156588800Y-112656060D01*
X156534499Y-112661408D01*
X156482284Y-112677247D01*
X156434163Y-112702969D01*
X156391984Y-112737584D01*
X156357369Y-112779763D01*
X156331647Y-112827884D01*
X156315808Y-112880099D01*
X156310460Y-112934400D01*
X151674850Y-112934400D01*
X151659794Y-112858713D01*
X151619766Y-112762077D01*
X151561654Y-112675107D01*
X151487693Y-112601146D01*
X151400723Y-112543034D01*
X151304087Y-112503006D01*
X151201499Y-112482600D01*
X151096901Y-112482600D01*
X150994313Y-112503006D01*
X150897677Y-112543034D01*
X150810707Y-112601146D01*
X150736746Y-112675107D01*
X150678634Y-112762077D01*
X150638606Y-112858713D01*
X150618200Y-112961301D01*
X133892484Y-112961301D01*
X133874723Y-112949434D01*
X133778087Y-112909406D01*
X133675499Y-112889000D01*
X133570901Y-112889000D01*
X133468313Y-112909406D01*
X133371677Y-112949434D01*
X133284707Y-113007546D01*
X133210746Y-113081507D01*
X133152634Y-113168477D01*
X133112606Y-113265113D01*
X133092200Y-113367701D01*
X132220569Y-113367701D01*
X132285293Y-113324454D01*
X132359254Y-113250493D01*
X132417366Y-113163523D01*
X132457394Y-113066887D01*
X132477800Y-112964299D01*
X132477800Y-112859701D01*
X132457394Y-112757113D01*
X132417366Y-112660477D01*
X132359254Y-112573507D01*
X132285293Y-112499546D01*
X132198323Y-112441434D01*
X132101687Y-112401406D01*
X131999099Y-112381000D01*
X131894501Y-112381000D01*
X131791913Y-112401406D01*
X131695277Y-112441434D01*
X131608307Y-112499546D01*
X131534346Y-112573507D01*
X131476234Y-112660477D01*
X131436206Y-112757113D01*
X131415800Y-112859701D01*
X128954731Y-112859701D01*
X128952087Y-112858606D01*
X128849499Y-112838200D01*
X128744901Y-112838200D01*
X128642313Y-112858606D01*
X128545677Y-112898634D01*
X128458707Y-112956746D01*
X128384746Y-113030707D01*
X128326634Y-113117677D01*
X128286606Y-113214313D01*
X128266200Y-113316901D01*
X124615282Y-113316901D01*
X124601254Y-113295907D01*
X124527293Y-113221946D01*
X124440323Y-113163834D01*
X124343687Y-113123806D01*
X124241099Y-113103400D01*
X124136501Y-113103400D01*
X124033913Y-113123806D01*
X123937277Y-113163834D01*
X123850307Y-113221946D01*
X123776346Y-113295907D01*
X123718234Y-113382877D01*
X123678206Y-113479513D01*
X123657800Y-113582101D01*
X118521215Y-113582101D01*
X118531894Y-112097701D01*
X123237000Y-112097701D01*
X123237000Y-112202299D01*
X123257406Y-112304887D01*
X123297434Y-112401523D01*
X123355546Y-112488493D01*
X123429507Y-112562454D01*
X123516477Y-112620566D01*
X123613113Y-112660594D01*
X123715701Y-112681000D01*
X123820299Y-112681000D01*
X123922887Y-112660594D01*
X124019523Y-112620566D01*
X124106493Y-112562454D01*
X124180454Y-112488493D01*
X124238566Y-112401523D01*
X124278594Y-112304887D01*
X124289491Y-112250101D01*
X153513800Y-112250101D01*
X153513800Y-112354699D01*
X153534206Y-112457287D01*
X153574234Y-112553923D01*
X153632346Y-112640893D01*
X153706307Y-112714854D01*
X153793277Y-112772966D01*
X153889913Y-112812994D01*
X153992501Y-112833400D01*
X154097099Y-112833400D01*
X154199687Y-112812994D01*
X154296323Y-112772966D01*
X154383293Y-112714854D01*
X154457254Y-112640893D01*
X154515366Y-112553923D01*
X154555394Y-112457287D01*
X154575800Y-112354699D01*
X154575800Y-112250101D01*
X154555394Y-112147513D01*
X154515366Y-112050877D01*
X154457254Y-111963907D01*
X154383293Y-111889946D01*
X154296323Y-111831834D01*
X154199687Y-111791806D01*
X154097099Y-111771400D01*
X153992501Y-111771400D01*
X153889913Y-111791806D01*
X153793277Y-111831834D01*
X153706307Y-111889946D01*
X153632346Y-111963907D01*
X153574234Y-112050877D01*
X153534206Y-112147513D01*
X153513800Y-112250101D01*
X124289491Y-112250101D01*
X124299000Y-112202299D01*
X124299000Y-112097701D01*
X124278594Y-111995113D01*
X124238566Y-111898477D01*
X124180454Y-111811507D01*
X124106493Y-111737546D01*
X124019523Y-111679434D01*
X123922887Y-111639406D01*
X123820299Y-111619000D01*
X123715701Y-111619000D01*
X123613113Y-111639406D01*
X123516477Y-111679434D01*
X123429507Y-111737546D01*
X123355546Y-111811507D01*
X123297434Y-111898477D01*
X123257406Y-111995113D01*
X123237000Y-112097701D01*
X118531894Y-112097701D01*
X118535548Y-111589701D01*
X124761000Y-111589701D01*
X124761000Y-111694299D01*
X124781406Y-111796887D01*
X124821434Y-111893523D01*
X124879546Y-111980493D01*
X124953507Y-112054454D01*
X125040477Y-112112566D01*
X125137113Y-112152594D01*
X125239701Y-112173000D01*
X125344299Y-112173000D01*
X125446887Y-112152594D01*
X125543523Y-112112566D01*
X125630493Y-112054454D01*
X125704454Y-111980493D01*
X125762566Y-111893523D01*
X125802594Y-111796887D01*
X125823000Y-111694299D01*
X125823000Y-111589701D01*
X125802594Y-111487113D01*
X125762566Y-111390477D01*
X125704454Y-111303507D01*
X125630493Y-111229546D01*
X125543523Y-111171434D01*
X125449531Y-111132501D01*
X128063000Y-111132501D01*
X128063000Y-111237099D01*
X128083406Y-111339687D01*
X128123434Y-111436323D01*
X128181546Y-111523293D01*
X128255507Y-111597254D01*
X128342477Y-111655366D01*
X128439113Y-111695394D01*
X128541701Y-111715800D01*
X128646299Y-111715800D01*
X128748887Y-111695394D01*
X128845523Y-111655366D01*
X128932493Y-111597254D01*
X129006454Y-111523293D01*
X129064566Y-111436323D01*
X129085202Y-111386501D01*
X130450600Y-111386501D01*
X130450600Y-111491099D01*
X130471006Y-111593687D01*
X130511034Y-111690323D01*
X130569146Y-111777293D01*
X130643107Y-111851254D01*
X130730077Y-111909366D01*
X130826713Y-111949394D01*
X130929301Y-111969800D01*
X131033899Y-111969800D01*
X131136487Y-111949394D01*
X131233123Y-111909366D01*
X131320093Y-111851254D01*
X131394054Y-111777293D01*
X131431320Y-111721522D01*
X131436206Y-111746087D01*
X131476234Y-111842723D01*
X131534346Y-111929693D01*
X131608307Y-112003654D01*
X131695277Y-112061766D01*
X131791913Y-112101794D01*
X131894501Y-112122200D01*
X131999099Y-112122200D01*
X132101687Y-112101794D01*
X132198323Y-112061766D01*
X132285293Y-112003654D01*
X132359254Y-111929693D01*
X132417366Y-111842723D01*
X132457394Y-111746087D01*
X132477800Y-111643499D01*
X132477800Y-111538901D01*
X132457394Y-111436313D01*
X132417366Y-111339677D01*
X132359254Y-111252707D01*
X132285293Y-111178746D01*
X132198323Y-111120634D01*
X132101687Y-111080606D01*
X131999099Y-111060200D01*
X131894501Y-111060200D01*
X131791913Y-111080606D01*
X131695277Y-111120634D01*
X131608307Y-111178746D01*
X131534346Y-111252707D01*
X131497080Y-111308478D01*
X131492194Y-111283913D01*
X131452166Y-111187277D01*
X131394054Y-111100307D01*
X131320093Y-111026346D01*
X131233123Y-110968234D01*
X131136487Y-110928206D01*
X131033899Y-110907800D01*
X130929301Y-110907800D01*
X130826713Y-110928206D01*
X130730077Y-110968234D01*
X130643107Y-111026346D01*
X130569146Y-111100307D01*
X130511034Y-111187277D01*
X130471006Y-111283913D01*
X130450600Y-111386501D01*
X129085202Y-111386501D01*
X129104594Y-111339687D01*
X129125000Y-111237099D01*
X129125000Y-111132501D01*
X129104594Y-111029913D01*
X129064566Y-110933277D01*
X129006454Y-110846307D01*
X128932493Y-110772346D01*
X128845523Y-110714234D01*
X128748887Y-110674206D01*
X128646299Y-110653800D01*
X128541701Y-110653800D01*
X128439113Y-110674206D01*
X128342477Y-110714234D01*
X128255507Y-110772346D01*
X128181546Y-110846307D01*
X128123434Y-110933277D01*
X128083406Y-111029913D01*
X128063000Y-111132501D01*
X125449531Y-111132501D01*
X125446887Y-111131406D01*
X125344299Y-111111000D01*
X125239701Y-111111000D01*
X125137113Y-111131406D01*
X125040477Y-111171434D01*
X124953507Y-111229546D01*
X124879546Y-111303507D01*
X124821434Y-111390477D01*
X124781406Y-111487113D01*
X124761000Y-111589701D01*
X118535548Y-111589701D01*
X118546878Y-110014901D01*
X128063000Y-110014901D01*
X128063000Y-110119499D01*
X128083406Y-110222087D01*
X128123434Y-110318723D01*
X128181546Y-110405693D01*
X128255507Y-110479654D01*
X128342477Y-110537766D01*
X128439113Y-110577794D01*
X128541701Y-110598200D01*
X128646299Y-110598200D01*
X128748887Y-110577794D01*
X128845523Y-110537766D01*
X128932493Y-110479654D01*
X129006454Y-110405693D01*
X129064566Y-110318723D01*
X129104594Y-110222087D01*
X129125000Y-110119499D01*
X129125000Y-110014901D01*
X129104594Y-109912313D01*
X129064566Y-109815677D01*
X129006454Y-109728707D01*
X128932493Y-109654746D01*
X128845523Y-109596634D01*
X128748887Y-109556606D01*
X128646299Y-109536200D01*
X128541701Y-109536200D01*
X128439113Y-109556606D01*
X128342477Y-109596634D01*
X128255507Y-109654746D01*
X128181546Y-109728707D01*
X128123434Y-109815677D01*
X128083406Y-109912313D01*
X128063000Y-110014901D01*
X118546878Y-110014901D01*
X118556803Y-108635400D01*
X166837000Y-108635400D01*
X166837000Y-108857400D01*
X166880310Y-109075134D01*
X166965266Y-109280235D01*
X167088602Y-109464821D01*
X167245579Y-109621798D01*
X167430165Y-109745134D01*
X167635266Y-109830090D01*
X167853000Y-109873400D01*
X168075000Y-109873400D01*
X168292734Y-109830090D01*
X168497835Y-109745134D01*
X168682421Y-109621798D01*
X168839398Y-109464821D01*
X168962734Y-109280235D01*
X169047690Y-109075134D01*
X169091000Y-108857400D01*
X169091000Y-108635400D01*
X169047690Y-108417666D01*
X168962734Y-108212565D01*
X168839398Y-108027979D01*
X168707819Y-107896400D01*
X169375660Y-107896400D01*
X169375660Y-109596400D01*
X169381008Y-109650701D01*
X169396847Y-109702916D01*
X169422569Y-109751037D01*
X169457184Y-109793216D01*
X169499363Y-109827831D01*
X169547484Y-109853553D01*
X169599699Y-109869392D01*
X169654000Y-109874740D01*
X171354000Y-109874740D01*
X171408301Y-109869392D01*
X171460516Y-109853553D01*
X171508637Y-109827831D01*
X171550816Y-109793216D01*
X171585431Y-109751037D01*
X171611153Y-109702916D01*
X171626992Y-109650701D01*
X171632340Y-109596400D01*
X171632340Y-107896400D01*
X171626992Y-107842099D01*
X171611153Y-107789884D01*
X171585431Y-107741763D01*
X171550816Y-107699584D01*
X171508637Y-107664969D01*
X171460516Y-107639247D01*
X171408301Y-107623408D01*
X171354000Y-107618060D01*
X169654000Y-107618060D01*
X169599699Y-107623408D01*
X169547484Y-107639247D01*
X169499363Y-107664969D01*
X169457184Y-107699584D01*
X169422569Y-107741763D01*
X169396847Y-107789884D01*
X169381008Y-107842099D01*
X169375660Y-107896400D01*
X168707819Y-107896400D01*
X168682421Y-107871002D01*
X168497835Y-107747666D01*
X168292734Y-107662710D01*
X168075000Y-107619400D01*
X167853000Y-107619400D01*
X167635266Y-107662710D01*
X167430165Y-107747666D01*
X167245579Y-107871002D01*
X167088602Y-108027979D01*
X166965266Y-108212565D01*
X166880310Y-108417666D01*
X166837000Y-108635400D01*
X118556803Y-108635400D01*
X118565797Y-107385314D01*
X118563504Y-107360361D01*
X118556418Y-107336494D01*
X118544812Y-107314469D01*
X118529132Y-107295130D01*
X118509981Y-107279223D01*
X118488094Y-107267357D01*
X118464313Y-107259989D01*
X118439551Y-107257402D01*
X112266200Y-107220873D01*
X112266200Y-107043101D01*
X119503200Y-107043101D01*
X119503200Y-107147699D01*
X119523606Y-107250287D01*
X119563634Y-107346923D01*
X119621746Y-107433893D01*
X119695707Y-107507854D01*
X119782677Y-107565966D01*
X119879313Y-107605994D01*
X119981901Y-107626400D01*
X120086499Y-107626400D01*
X120189087Y-107605994D01*
X120285723Y-107565966D01*
X120372693Y-107507854D01*
X120446654Y-107433893D01*
X120504766Y-107346923D01*
X120544794Y-107250287D01*
X120565200Y-107147699D01*
X120565200Y-107043101D01*
X120544794Y-106940513D01*
X120504766Y-106843877D01*
X120446654Y-106756907D01*
X120372693Y-106682946D01*
X120285723Y-106624834D01*
X120189087Y-106584806D01*
X120086499Y-106564400D01*
X119981901Y-106564400D01*
X119879313Y-106584806D01*
X119782677Y-106624834D01*
X119695707Y-106682946D01*
X119621746Y-106756907D01*
X119563634Y-106843877D01*
X119523606Y-106940513D01*
X119503200Y-107043101D01*
X112266200Y-107043101D01*
X112266200Y-105519101D01*
X125777000Y-105519101D01*
X125777000Y-105623699D01*
X125797406Y-105726287D01*
X125837434Y-105822923D01*
X125895546Y-105909893D01*
X125969507Y-105983854D01*
X126056477Y-106041966D01*
X126153113Y-106081994D01*
X126255701Y-106102400D01*
X126360299Y-106102400D01*
X126462887Y-106081994D01*
X126559523Y-106041966D01*
X126646493Y-105983854D01*
X126720454Y-105909893D01*
X126778566Y-105822923D01*
X126818594Y-105726287D01*
X126839000Y-105623699D01*
X126839000Y-105519101D01*
X126818594Y-105416513D01*
X126778566Y-105319877D01*
X126720454Y-105232907D01*
X126712868Y-105225321D01*
X131117400Y-105225321D01*
X131117400Y-105358679D01*
X131143416Y-105489474D01*
X131194450Y-105612680D01*
X131268540Y-105723563D01*
X131362837Y-105817860D01*
X131473720Y-105891950D01*
X131596926Y-105942984D01*
X131727721Y-105969000D01*
X131861079Y-105969000D01*
X131991874Y-105942984D01*
X132115080Y-105891950D01*
X132225963Y-105817860D01*
X132320260Y-105723563D01*
X132394350Y-105612680D01*
X132445384Y-105489474D01*
X132471400Y-105358679D01*
X132471400Y-105225321D01*
X132445384Y-105094526D01*
X132394350Y-104971320D01*
X132320260Y-104860437D01*
X132225963Y-104766140D01*
X132115080Y-104692050D01*
X131991874Y-104641016D01*
X131861079Y-104615000D01*
X131727721Y-104615000D01*
X131596926Y-104641016D01*
X131473720Y-104692050D01*
X131362837Y-104766140D01*
X131268540Y-104860437D01*
X131194450Y-104971320D01*
X131143416Y-105094526D01*
X131117400Y-105225321D01*
X126712868Y-105225321D01*
X126646493Y-105158946D01*
X126559523Y-105100834D01*
X126462887Y-105060806D01*
X126360299Y-105040400D01*
X126255701Y-105040400D01*
X126153113Y-105060806D01*
X126056477Y-105100834D01*
X125969507Y-105158946D01*
X125895546Y-105232907D01*
X125837434Y-105319877D01*
X125797406Y-105416513D01*
X125777000Y-105519101D01*
X112266200Y-105519101D01*
X112266200Y-104579301D01*
X149551400Y-104579301D01*
X149551400Y-104683899D01*
X149571806Y-104786487D01*
X149611834Y-104883123D01*
X149669946Y-104970093D01*
X149743907Y-105044054D01*
X149830877Y-105102166D01*
X149927513Y-105142194D01*
X150030101Y-105162600D01*
X150134699Y-105162600D01*
X150237287Y-105142194D01*
X150333923Y-105102166D01*
X150420893Y-105044054D01*
X150494854Y-104970093D01*
X150552966Y-104883123D01*
X150592994Y-104786487D01*
X150613400Y-104683899D01*
X150613400Y-104579301D01*
X150592994Y-104476713D01*
X150552966Y-104380077D01*
X150494854Y-104293107D01*
X150420893Y-104219146D01*
X150351684Y-104172901D01*
X153818600Y-104172901D01*
X153818600Y-104277499D01*
X153839006Y-104380087D01*
X153879034Y-104476723D01*
X153937146Y-104563693D01*
X154011107Y-104637654D01*
X154098077Y-104695766D01*
X154194713Y-104735794D01*
X154297301Y-104756200D01*
X154401899Y-104756200D01*
X154504487Y-104735794D01*
X154601123Y-104695766D01*
X154688093Y-104637654D01*
X154762054Y-104563693D01*
X154820166Y-104476723D01*
X154860194Y-104380087D01*
X154880600Y-104277499D01*
X154880600Y-104172901D01*
X154860194Y-104070313D01*
X154820166Y-103973677D01*
X154762054Y-103886707D01*
X154688093Y-103812746D01*
X154601123Y-103754634D01*
X154504487Y-103714606D01*
X154401899Y-103694200D01*
X154297301Y-103694200D01*
X154194713Y-103714606D01*
X154098077Y-103754634D01*
X154011107Y-103812746D01*
X153937146Y-103886707D01*
X153879034Y-103973677D01*
X153839006Y-104070313D01*
X153818600Y-104172901D01*
X150351684Y-104172901D01*
X150333923Y-104161034D01*
X150237287Y-104121006D01*
X150134699Y-104100600D01*
X150030101Y-104100600D01*
X149927513Y-104121006D01*
X149830877Y-104161034D01*
X149743907Y-104219146D01*
X149669946Y-104293107D01*
X149611834Y-104380077D01*
X149571806Y-104476713D01*
X149551400Y-104579301D01*
X112266200Y-104579301D01*
X112266200Y-103309301D01*
X120697000Y-103309301D01*
X120697000Y-103413899D01*
X120717406Y-103516487D01*
X120757434Y-103613123D01*
X120815546Y-103700093D01*
X120889507Y-103774054D01*
X120976477Y-103832166D01*
X121073113Y-103872194D01*
X121175701Y-103892600D01*
X121280299Y-103892600D01*
X121382887Y-103872194D01*
X121479523Y-103832166D01*
X121566493Y-103774054D01*
X121640454Y-103700093D01*
X121698566Y-103613123D01*
X121732127Y-103532098D01*
X147007797Y-103532098D01*
X147007797Y-103636696D01*
X147028203Y-103739284D01*
X147068231Y-103835920D01*
X147126343Y-103922890D01*
X147200304Y-103996851D01*
X147287274Y-104054963D01*
X147383910Y-104094991D01*
X147486498Y-104115397D01*
X147591096Y-104115397D01*
X147693684Y-104094991D01*
X147790320Y-104054963D01*
X147877290Y-103996851D01*
X147951251Y-103922890D01*
X148009363Y-103835920D01*
X148049391Y-103739284D01*
X148069797Y-103636696D01*
X148069797Y-103532098D01*
X148049391Y-103429510D01*
X148009363Y-103332874D01*
X147951251Y-103245904D01*
X147877290Y-103171943D01*
X147790320Y-103113831D01*
X147693684Y-103073803D01*
X147591096Y-103053397D01*
X147486498Y-103053397D01*
X147383910Y-103073803D01*
X147287274Y-103113831D01*
X147200304Y-103171943D01*
X147126343Y-103245904D01*
X147068231Y-103332874D01*
X147028203Y-103429510D01*
X147007797Y-103532098D01*
X121732127Y-103532098D01*
X121738594Y-103516487D01*
X121759000Y-103413899D01*
X121759000Y-103309301D01*
X121738594Y-103206713D01*
X121698566Y-103110077D01*
X121640454Y-103023107D01*
X121566493Y-102949146D01*
X121479523Y-102891034D01*
X121382887Y-102851006D01*
X121280299Y-102830600D01*
X121175701Y-102830600D01*
X121073113Y-102851006D01*
X120976477Y-102891034D01*
X120889507Y-102949146D01*
X120815546Y-103023107D01*
X120757434Y-103110077D01*
X120717406Y-103206713D01*
X120697000Y-103309301D01*
X112266200Y-103309301D01*
X112266200Y-102199721D01*
X142141000Y-102199721D01*
X142141000Y-102333079D01*
X142167016Y-102463874D01*
X142218050Y-102587080D01*
X142292140Y-102697963D01*
X142386437Y-102792260D01*
X142497320Y-102866350D01*
X142620526Y-102917384D01*
X142751321Y-102943400D01*
X142884679Y-102943400D01*
X143015474Y-102917384D01*
X143138680Y-102866350D01*
X143249563Y-102792260D01*
X143343860Y-102697963D01*
X143354453Y-102682109D01*
X145957800Y-102682109D01*
X145957800Y-102786707D01*
X145978206Y-102889295D01*
X146018234Y-102985931D01*
X146076346Y-103072901D01*
X146150307Y-103146862D01*
X146237277Y-103204974D01*
X146333913Y-103245002D01*
X146436501Y-103265408D01*
X146541099Y-103265408D01*
X146643687Y-103245002D01*
X146740323Y-103204974D01*
X146827293Y-103146862D01*
X146901254Y-103072901D01*
X146959366Y-102985931D01*
X146999394Y-102889295D01*
X147019800Y-102786707D01*
X147019800Y-102682109D01*
X146999394Y-102579521D01*
X146959366Y-102482885D01*
X146901254Y-102395915D01*
X146827293Y-102321954D01*
X146740323Y-102263842D01*
X146643687Y-102223814D01*
X146541099Y-102203408D01*
X146436501Y-102203408D01*
X146333913Y-102223814D01*
X146237277Y-102263842D01*
X146150307Y-102321954D01*
X146076346Y-102395915D01*
X146018234Y-102482885D01*
X145978206Y-102579521D01*
X145957800Y-102682109D01*
X143354453Y-102682109D01*
X143417950Y-102587080D01*
X143468984Y-102463874D01*
X143495000Y-102333079D01*
X143495000Y-102199721D01*
X143468984Y-102068926D01*
X143417950Y-101945720D01*
X143343860Y-101834837D01*
X143249563Y-101740540D01*
X143138680Y-101666450D01*
X143015474Y-101615416D01*
X142884679Y-101589400D01*
X142751321Y-101589400D01*
X142620526Y-101615416D01*
X142497320Y-101666450D01*
X142386437Y-101740540D01*
X142292140Y-101834837D01*
X142218050Y-101945720D01*
X142167016Y-102068926D01*
X142141000Y-102199721D01*
X112266200Y-102199721D01*
X112266200Y-100582101D01*
X149057802Y-100582101D01*
X149057802Y-100686699D01*
X149078208Y-100789287D01*
X149118236Y-100885923D01*
X149176348Y-100972893D01*
X149250309Y-101046854D01*
X149306496Y-101084397D01*
X149250309Y-101121940D01*
X149176348Y-101195901D01*
X149118236Y-101282871D01*
X149078208Y-101379507D01*
X149057802Y-101482095D01*
X149057802Y-101586693D01*
X149078208Y-101689281D01*
X149118236Y-101785917D01*
X149176348Y-101872887D01*
X149250309Y-101946848D01*
X149306505Y-101984397D01*
X149250309Y-102021946D01*
X149176348Y-102095907D01*
X149118236Y-102182877D01*
X149078208Y-102279513D01*
X149057802Y-102382101D01*
X149057802Y-102486699D01*
X149078208Y-102589287D01*
X149118236Y-102685923D01*
X149176348Y-102772893D01*
X149250309Y-102846854D01*
X149337279Y-102904966D01*
X149433915Y-102944994D01*
X149536503Y-102965400D01*
X149641101Y-102965400D01*
X149743689Y-102944994D01*
X149840325Y-102904966D01*
X149927295Y-102846854D01*
X150001256Y-102772893D01*
X150059368Y-102685923D01*
X150099396Y-102589287D01*
X150119802Y-102486699D01*
X150119802Y-102382101D01*
X150099396Y-102279513D01*
X150059368Y-102182877D01*
X150001256Y-102095907D01*
X149927295Y-102021946D01*
X149871099Y-101984397D01*
X149927295Y-101946848D01*
X150001256Y-101872887D01*
X150059368Y-101785917D01*
X150099396Y-101689281D01*
X150119802Y-101586693D01*
X150119802Y-101482095D01*
X150099396Y-101379507D01*
X150059368Y-101282871D01*
X150001256Y-101195901D01*
X149927295Y-101121940D01*
X149871108Y-101084397D01*
X149927295Y-101046854D01*
X150001256Y-100972893D01*
X150059368Y-100885923D01*
X150099396Y-100789287D01*
X150119802Y-100686699D01*
X150119802Y-100582101D01*
X150099396Y-100479513D01*
X150072136Y-100413701D01*
X156104600Y-100413701D01*
X156104600Y-100518299D01*
X156125006Y-100620887D01*
X156165034Y-100717523D01*
X156223146Y-100804493D01*
X156297107Y-100878454D01*
X156384077Y-100936566D01*
X156480713Y-100976594D01*
X156583301Y-100997000D01*
X156687899Y-100997000D01*
X156790487Y-100976594D01*
X156887123Y-100936566D01*
X156974093Y-100878454D01*
X157048054Y-100804493D01*
X157106166Y-100717523D01*
X157146194Y-100620887D01*
X157166600Y-100518299D01*
X157166600Y-100413701D01*
X157146194Y-100311113D01*
X157106166Y-100214477D01*
X157048054Y-100127507D01*
X156974093Y-100053546D01*
X156887123Y-99995434D01*
X156790487Y-99955406D01*
X156687899Y-99935000D01*
X156583301Y-99935000D01*
X156480713Y-99955406D01*
X156384077Y-99995434D01*
X156297107Y-100053546D01*
X156223146Y-100127507D01*
X156165034Y-100214477D01*
X156125006Y-100311113D01*
X156104600Y-100413701D01*
X150072136Y-100413701D01*
X150059368Y-100382877D01*
X150001256Y-100295907D01*
X149927295Y-100221946D01*
X149840325Y-100163834D01*
X149743689Y-100123806D01*
X149641101Y-100103400D01*
X149536503Y-100103400D01*
X149433915Y-100123806D01*
X149337279Y-100163834D01*
X149250309Y-100221946D01*
X149176348Y-100295907D01*
X149118236Y-100382877D01*
X149078208Y-100479513D01*
X149057802Y-100582101D01*
X112266200Y-100582101D01*
X112266200Y-99499301D01*
X114550200Y-99499301D01*
X114550200Y-99603899D01*
X114570606Y-99706487D01*
X114610634Y-99803123D01*
X114668746Y-99890093D01*
X114742707Y-99964054D01*
X114829677Y-100022166D01*
X114926313Y-100062194D01*
X115028901Y-100082600D01*
X115133499Y-100082600D01*
X115236087Y-100062194D01*
X115332723Y-100022166D01*
X115419693Y-99964054D01*
X115493654Y-99890093D01*
X115551766Y-99803123D01*
X115591794Y-99706487D01*
X115612200Y-99603899D01*
X115612200Y-99499301D01*
X115591794Y-99396713D01*
X115565205Y-99332521D01*
X131117400Y-99332521D01*
X131117400Y-99465879D01*
X131143416Y-99596674D01*
X131194450Y-99719880D01*
X131268540Y-99830763D01*
X131362837Y-99925060D01*
X131473720Y-99999150D01*
X131596926Y-100050184D01*
X131727721Y-100076200D01*
X131861079Y-100076200D01*
X131991874Y-100050184D01*
X132115080Y-99999150D01*
X132225963Y-99925060D01*
X132320260Y-99830763D01*
X132394350Y-99719880D01*
X132445384Y-99596674D01*
X132471400Y-99465879D01*
X132471400Y-99332521D01*
X132445384Y-99201726D01*
X132394350Y-99078520D01*
X132320260Y-98967637D01*
X132225963Y-98873340D01*
X132115080Y-98799250D01*
X131991874Y-98748216D01*
X131861079Y-98722200D01*
X131727721Y-98722200D01*
X131596926Y-98748216D01*
X131473720Y-98799250D01*
X131362837Y-98873340D01*
X131268540Y-98967637D01*
X131194450Y-99078520D01*
X131143416Y-99201726D01*
X131117400Y-99332521D01*
X115565205Y-99332521D01*
X115551766Y-99300077D01*
X115493654Y-99213107D01*
X115419693Y-99139146D01*
X115332723Y-99081034D01*
X115236087Y-99041006D01*
X115133499Y-99020600D01*
X115028901Y-99020600D01*
X114926313Y-99041006D01*
X114829677Y-99081034D01*
X114742707Y-99139146D01*
X114668746Y-99213107D01*
X114610634Y-99300077D01*
X114570606Y-99396713D01*
X114550200Y-99499301D01*
X112266200Y-99499301D01*
X112266200Y-98483301D01*
X126031000Y-98483301D01*
X126031000Y-98587899D01*
X126051406Y-98690487D01*
X126091434Y-98787123D01*
X126149546Y-98874093D01*
X126223507Y-98948054D01*
X126310477Y-99006166D01*
X126407113Y-99046194D01*
X126509701Y-99066600D01*
X126614299Y-99066600D01*
X126716887Y-99046194D01*
X126813523Y-99006166D01*
X126900493Y-98948054D01*
X126974454Y-98874093D01*
X127032566Y-98787123D01*
X127072594Y-98690487D01*
X127074262Y-98682101D01*
X155557800Y-98682101D01*
X155557800Y-98786699D01*
X155578206Y-98889287D01*
X155618234Y-98985923D01*
X155676346Y-99072893D01*
X155750307Y-99146854D01*
X155837277Y-99204966D01*
X155933913Y-99244994D01*
X156036501Y-99265400D01*
X156141099Y-99265400D01*
X156243687Y-99244994D01*
X156340323Y-99204966D01*
X156427293Y-99146854D01*
X156501254Y-99072893D01*
X156559366Y-98985923D01*
X156599394Y-98889287D01*
X156619800Y-98786699D01*
X156619800Y-98682101D01*
X156599394Y-98579513D01*
X156559366Y-98482877D01*
X156501254Y-98395907D01*
X156427293Y-98321946D01*
X156340323Y-98263834D01*
X156243687Y-98223806D01*
X156141099Y-98203400D01*
X156036501Y-98203400D01*
X155933913Y-98223806D01*
X155837277Y-98263834D01*
X155750307Y-98321946D01*
X155676346Y-98395907D01*
X155618234Y-98482877D01*
X155578206Y-98579513D01*
X155557800Y-98682101D01*
X127074262Y-98682101D01*
X127093000Y-98587899D01*
X127093000Y-98483301D01*
X127072594Y-98380713D01*
X127032566Y-98284077D01*
X126974454Y-98197107D01*
X126900493Y-98123146D01*
X126813523Y-98065034D01*
X126716887Y-98025006D01*
X126614299Y-98004600D01*
X126509701Y-98004600D01*
X126407113Y-98025006D01*
X126310477Y-98065034D01*
X126223507Y-98123146D01*
X126149546Y-98197107D01*
X126091434Y-98284077D01*
X126051406Y-98380713D01*
X126031000Y-98483301D01*
X112266200Y-98483301D01*
X112266200Y-97314901D01*
X126132600Y-97314901D01*
X126132600Y-97419499D01*
X126153006Y-97522087D01*
X126193034Y-97618723D01*
X126251146Y-97705693D01*
X126325107Y-97779654D01*
X126412077Y-97837766D01*
X126508713Y-97877794D01*
X126611301Y-97898200D01*
X126715899Y-97898200D01*
X126818487Y-97877794D01*
X126915123Y-97837766D01*
X127002093Y-97779654D01*
X127076054Y-97705693D01*
X127134166Y-97618723D01*
X127174194Y-97522087D01*
X127194600Y-97419499D01*
X127194600Y-97314901D01*
X127174194Y-97212313D01*
X127134166Y-97115677D01*
X127131510Y-97111701D01*
X132355700Y-97111701D01*
X132355700Y-97216299D01*
X132376106Y-97318887D01*
X132416134Y-97415523D01*
X132474246Y-97502493D01*
X132548207Y-97576454D01*
X132635177Y-97634566D01*
X132731813Y-97674594D01*
X132834401Y-97695000D01*
X132938999Y-97695000D01*
X132959611Y-97690900D01*
X150750201Y-97690900D01*
X150750201Y-97795498D01*
X150770607Y-97898086D01*
X150810635Y-97994722D01*
X150868747Y-98081692D01*
X150942708Y-98155653D01*
X151029678Y-98213765D01*
X151126314Y-98253793D01*
X151228902Y-98274199D01*
X151333500Y-98274199D01*
X151436088Y-98253793D01*
X151532724Y-98213765D01*
X151619694Y-98155653D01*
X151693655Y-98081692D01*
X151751767Y-97994722D01*
X151791795Y-97898086D01*
X151812201Y-97795498D01*
X151812201Y-97690900D01*
X151791795Y-97588312D01*
X151751767Y-97491676D01*
X151693655Y-97404706D01*
X151619694Y-97330745D01*
X151532724Y-97272633D01*
X151436088Y-97232605D01*
X151333500Y-97212199D01*
X151228902Y-97212199D01*
X151126314Y-97232605D01*
X151029678Y-97272633D01*
X150942708Y-97330745D01*
X150868747Y-97404706D01*
X150810635Y-97491676D01*
X150770607Y-97588312D01*
X150750201Y-97690900D01*
X132959611Y-97690900D01*
X133041587Y-97674594D01*
X133138223Y-97634566D01*
X133225193Y-97576454D01*
X133299154Y-97502493D01*
X133357266Y-97415523D01*
X133397294Y-97318887D01*
X133417700Y-97216299D01*
X133417700Y-97111701D01*
X133397294Y-97009113D01*
X133357266Y-96912477D01*
X133299154Y-96825507D01*
X133225193Y-96751546D01*
X133138223Y-96693434D01*
X133041587Y-96653406D01*
X132938999Y-96633000D01*
X132834401Y-96633000D01*
X132731813Y-96653406D01*
X132635177Y-96693434D01*
X132548207Y-96751546D01*
X132474246Y-96825507D01*
X132416134Y-96912477D01*
X132376106Y-97009113D01*
X132355700Y-97111701D01*
X127131510Y-97111701D01*
X127076054Y-97028707D01*
X127002093Y-96954746D01*
X126915123Y-96896634D01*
X126818487Y-96856606D01*
X126715899Y-96836200D01*
X126611301Y-96836200D01*
X126508713Y-96856606D01*
X126412077Y-96896634D01*
X126325107Y-96954746D01*
X126251146Y-97028707D01*
X126193034Y-97115677D01*
X126153006Y-97212313D01*
X126132600Y-97314901D01*
X112266200Y-97314901D01*
X112266200Y-96552901D01*
X115769400Y-96552901D01*
X115769400Y-96657499D01*
X115789806Y-96760087D01*
X115829834Y-96856723D01*
X115887946Y-96943693D01*
X115961907Y-97017654D01*
X116048877Y-97075766D01*
X116145513Y-97115794D01*
X116248101Y-97136200D01*
X116352699Y-97136200D01*
X116455287Y-97115794D01*
X116551923Y-97075766D01*
X116638893Y-97017654D01*
X116712854Y-96943693D01*
X116770966Y-96856723D01*
X116810994Y-96760087D01*
X116831400Y-96657499D01*
X116831400Y-96552901D01*
X116988600Y-96552901D01*
X116988600Y-96657499D01*
X117009006Y-96760087D01*
X117049034Y-96856723D01*
X117107146Y-96943693D01*
X117181107Y-97017654D01*
X117268077Y-97075766D01*
X117364713Y-97115794D01*
X117467301Y-97136200D01*
X117571899Y-97136200D01*
X117674487Y-97115794D01*
X117771123Y-97075766D01*
X117858093Y-97017654D01*
X117932054Y-96943693D01*
X117990166Y-96856723D01*
X118030194Y-96760087D01*
X118050600Y-96657499D01*
X118050600Y-96552901D01*
X118030194Y-96450313D01*
X117990166Y-96353677D01*
X117932054Y-96266707D01*
X117858093Y-96192746D01*
X117771123Y-96134634D01*
X117674487Y-96094606D01*
X117571899Y-96074200D01*
X117467301Y-96074200D01*
X117364713Y-96094606D01*
X117268077Y-96134634D01*
X117181107Y-96192746D01*
X117107146Y-96266707D01*
X117049034Y-96353677D01*
X117009006Y-96450313D01*
X116988600Y-96552901D01*
X116831400Y-96552901D01*
X116810994Y-96450313D01*
X116770966Y-96353677D01*
X116712854Y-96266707D01*
X116638893Y-96192746D01*
X116551923Y-96134634D01*
X116455287Y-96094606D01*
X116352699Y-96074200D01*
X116248101Y-96074200D01*
X116145513Y-96094606D01*
X116048877Y-96134634D01*
X115961907Y-96192746D01*
X115887946Y-96266707D01*
X115829834Y-96353677D01*
X115789806Y-96450313D01*
X115769400Y-96552901D01*
X112266200Y-96552901D01*
X112266200Y-95994101D01*
X129028200Y-95994101D01*
X129028200Y-96098699D01*
X129048606Y-96201287D01*
X129088634Y-96297923D01*
X129146746Y-96384893D01*
X129220707Y-96458854D01*
X129307677Y-96516966D01*
X129404313Y-96556994D01*
X129506901Y-96577400D01*
X129611499Y-96577400D01*
X129714087Y-96556994D01*
X129810723Y-96516966D01*
X129897693Y-96458854D01*
X129971654Y-96384893D01*
X130029766Y-96297923D01*
X130069794Y-96201287D01*
X130090200Y-96098699D01*
X130090200Y-96095701D01*
X154550199Y-96095701D01*
X154550199Y-96200299D01*
X154570605Y-96302887D01*
X154610633Y-96399523D01*
X154668745Y-96486493D01*
X154742706Y-96560454D01*
X154829676Y-96618566D01*
X154926312Y-96658594D01*
X155028900Y-96679000D01*
X155133498Y-96679000D01*
X155236086Y-96658594D01*
X155332722Y-96618566D01*
X155419692Y-96560454D01*
X155493653Y-96486493D01*
X155551765Y-96399523D01*
X155591793Y-96302887D01*
X155612199Y-96200299D01*
X155612199Y-96095701D01*
X155591793Y-95993113D01*
X155551765Y-95896477D01*
X155493653Y-95809507D01*
X155419692Y-95735546D01*
X155332722Y-95677434D01*
X155236086Y-95637406D01*
X155133498Y-95617000D01*
X155028900Y-95617000D01*
X154926312Y-95637406D01*
X154829676Y-95677434D01*
X154742706Y-95735546D01*
X154668745Y-95809507D01*
X154610633Y-95896477D01*
X154570605Y-95993113D01*
X154550199Y-96095701D01*
X130090200Y-96095701D01*
X130090200Y-95994101D01*
X130069794Y-95891513D01*
X130029766Y-95794877D01*
X129971654Y-95707907D01*
X129897693Y-95633946D01*
X129810723Y-95575834D01*
X129714087Y-95535806D01*
X129611499Y-95515400D01*
X129506901Y-95515400D01*
X129404313Y-95535806D01*
X129307677Y-95575834D01*
X129220707Y-95633946D01*
X129146746Y-95707907D01*
X129088634Y-95794877D01*
X129048606Y-95891513D01*
X129028200Y-95994101D01*
X112266200Y-95994101D01*
X112266200Y-94622501D01*
X124710200Y-94622501D01*
X124710200Y-94727099D01*
X124730606Y-94829687D01*
X124770634Y-94926323D01*
X124828746Y-95013293D01*
X124902707Y-95087254D01*
X124989677Y-95145366D01*
X125086313Y-95185394D01*
X125188901Y-95205800D01*
X125293499Y-95205800D01*
X125396087Y-95185394D01*
X125492723Y-95145366D01*
X125579693Y-95087254D01*
X125653654Y-95013293D01*
X125711766Y-94926323D01*
X125751794Y-94829687D01*
X125772200Y-94727099D01*
X125772200Y-94622501D01*
X125751991Y-94520901D01*
X126081800Y-94520901D01*
X126081800Y-94625499D01*
X126102206Y-94728087D01*
X126142234Y-94824723D01*
X126200346Y-94911693D01*
X126274307Y-94985654D01*
X126361277Y-95043766D01*
X126457913Y-95083794D01*
X126560501Y-95104200D01*
X126665099Y-95104200D01*
X126767687Y-95083794D01*
X126864323Y-95043766D01*
X126951293Y-94985654D01*
X127025254Y-94911693D01*
X127083366Y-94824723D01*
X127123394Y-94728087D01*
X127143800Y-94625499D01*
X127143800Y-94520901D01*
X128926600Y-94520901D01*
X128926600Y-94625499D01*
X128947006Y-94728087D01*
X128987034Y-94824723D01*
X129045146Y-94911693D01*
X129119107Y-94985654D01*
X129206077Y-95043766D01*
X129302713Y-95083794D01*
X129405301Y-95104200D01*
X129509899Y-95104200D01*
X129612487Y-95083794D01*
X129709123Y-95043766D01*
X129796093Y-94985654D01*
X129820446Y-94961301D01*
X151278600Y-94961301D01*
X151278600Y-95065899D01*
X151299006Y-95168487D01*
X151339034Y-95265123D01*
X151397146Y-95352093D01*
X151471107Y-95426054D01*
X151558077Y-95484166D01*
X151654713Y-95524194D01*
X151757301Y-95544600D01*
X151861899Y-95544600D01*
X151964487Y-95524194D01*
X152061123Y-95484166D01*
X152148093Y-95426054D01*
X152222054Y-95352093D01*
X152280166Y-95265123D01*
X152320194Y-95168487D01*
X152340600Y-95065899D01*
X152340600Y-94961301D01*
X152320194Y-94858713D01*
X152280166Y-94762077D01*
X152222054Y-94675107D01*
X152148093Y-94601146D01*
X152061123Y-94543034D01*
X151964487Y-94503006D01*
X151861899Y-94482600D01*
X151757301Y-94482600D01*
X151654713Y-94503006D01*
X151558077Y-94543034D01*
X151471107Y-94601146D01*
X151397146Y-94675107D01*
X151339034Y-94762077D01*
X151299006Y-94858713D01*
X151278600Y-94961301D01*
X129820446Y-94961301D01*
X129870054Y-94911693D01*
X129928166Y-94824723D01*
X129968194Y-94728087D01*
X129988600Y-94625499D01*
X129988600Y-94520901D01*
X129968194Y-94418313D01*
X129928166Y-94321677D01*
X129870054Y-94234707D01*
X129796093Y-94160746D01*
X129709123Y-94102634D01*
X129612487Y-94062606D01*
X129509899Y-94042200D01*
X129405301Y-94042200D01*
X129302713Y-94062606D01*
X129206077Y-94102634D01*
X129119107Y-94160746D01*
X129045146Y-94234707D01*
X128987034Y-94321677D01*
X128947006Y-94418313D01*
X128926600Y-94520901D01*
X127143800Y-94520901D01*
X127123394Y-94418313D01*
X127083366Y-94321677D01*
X127025254Y-94234707D01*
X126951293Y-94160746D01*
X126864323Y-94102634D01*
X126767687Y-94062606D01*
X126665099Y-94042200D01*
X126560501Y-94042200D01*
X126457913Y-94062606D01*
X126361277Y-94102634D01*
X126274307Y-94160746D01*
X126200346Y-94234707D01*
X126142234Y-94321677D01*
X126102206Y-94418313D01*
X126081800Y-94520901D01*
X125751991Y-94520901D01*
X125751794Y-94519913D01*
X125711766Y-94423277D01*
X125653654Y-94336307D01*
X125579693Y-94262346D01*
X125492723Y-94204234D01*
X125396087Y-94164206D01*
X125293499Y-94143800D01*
X125188901Y-94143800D01*
X125086313Y-94164206D01*
X124989677Y-94204234D01*
X124902707Y-94262346D01*
X124828746Y-94336307D01*
X124770634Y-94423277D01*
X124730606Y-94519913D01*
X124710200Y-94622501D01*
X112266200Y-94622501D01*
X112266200Y-92819101D01*
X126056400Y-92819101D01*
X126056400Y-92923699D01*
X126076806Y-93026287D01*
X126116834Y-93122923D01*
X126174946Y-93209893D01*
X126248907Y-93283854D01*
X126335877Y-93341966D01*
X126432513Y-93381994D01*
X126535101Y-93402400D01*
X126639699Y-93402400D01*
X126742287Y-93381994D01*
X126838923Y-93341966D01*
X126925893Y-93283854D01*
X126999854Y-93209893D01*
X127057966Y-93122923D01*
X127097994Y-93026287D01*
X127118400Y-92923699D01*
X127118400Y-92819101D01*
X128545600Y-92819101D01*
X128545600Y-92923699D01*
X128566006Y-93026287D01*
X128606034Y-93122923D01*
X128664146Y-93209893D01*
X128738107Y-93283854D01*
X128825077Y-93341966D01*
X128921713Y-93381994D01*
X129024301Y-93402400D01*
X129128899Y-93402400D01*
X129231487Y-93381994D01*
X129328123Y-93341966D01*
X129415093Y-93283854D01*
X129489054Y-93209893D01*
X129547166Y-93122923D01*
X129587194Y-93026287D01*
X129607600Y-92923699D01*
X129607600Y-92819101D01*
X129592443Y-92742901D01*
X140255000Y-92742901D01*
X140255000Y-92847499D01*
X140275406Y-92950087D01*
X140315434Y-93046723D01*
X140373546Y-93133693D01*
X140447507Y-93207654D01*
X140534477Y-93265766D01*
X140631113Y-93305794D01*
X140733701Y-93326200D01*
X140838299Y-93326200D01*
X140940887Y-93305794D01*
X141037523Y-93265766D01*
X141124493Y-93207654D01*
X141198454Y-93133693D01*
X141256566Y-93046723D01*
X141296594Y-92950087D01*
X141317000Y-92847499D01*
X141317000Y-92742901D01*
X144319000Y-92742901D01*
X144319000Y-92847499D01*
X144339406Y-92950087D01*
X144379434Y-93046723D01*
X144437546Y-93133693D01*
X144511507Y-93207654D01*
X144598477Y-93265766D01*
X144695113Y-93305794D01*
X144797701Y-93326200D01*
X144902299Y-93326200D01*
X145004887Y-93305794D01*
X145101523Y-93265766D01*
X145188493Y-93207654D01*
X145262454Y-93133693D01*
X145320566Y-93046723D01*
X145360594Y-92950087D01*
X145381000Y-92847499D01*
X145381000Y-92742901D01*
X145360594Y-92640313D01*
X145336482Y-92582101D01*
X155757800Y-92582101D01*
X155757800Y-92686699D01*
X155778206Y-92789287D01*
X155818234Y-92885923D01*
X155876346Y-92972893D01*
X155950307Y-93046854D01*
X156037277Y-93104966D01*
X156133913Y-93144994D01*
X156236501Y-93165400D01*
X156341099Y-93165400D01*
X156443687Y-93144994D01*
X156540323Y-93104966D01*
X156627293Y-93046854D01*
X156701254Y-92972893D01*
X156759366Y-92885923D01*
X156799394Y-92789287D01*
X156819800Y-92686699D01*
X156819800Y-92582101D01*
X156799394Y-92479513D01*
X156759366Y-92382877D01*
X156701254Y-92295907D01*
X156627293Y-92221946D01*
X156540323Y-92163834D01*
X156443687Y-92123806D01*
X156341099Y-92103400D01*
X156236501Y-92103400D01*
X156133913Y-92123806D01*
X156037277Y-92163834D01*
X155950307Y-92221946D01*
X155876346Y-92295907D01*
X155818234Y-92382877D01*
X155778206Y-92479513D01*
X155757800Y-92582101D01*
X145336482Y-92582101D01*
X145320566Y-92543677D01*
X145262454Y-92456707D01*
X145188493Y-92382746D01*
X145101523Y-92324634D01*
X145004887Y-92284606D01*
X144902299Y-92264200D01*
X144797701Y-92264200D01*
X144695113Y-92284606D01*
X144598477Y-92324634D01*
X144511507Y-92382746D01*
X144437546Y-92456707D01*
X144379434Y-92543677D01*
X144339406Y-92640313D01*
X144319000Y-92742901D01*
X141317000Y-92742901D01*
X141296594Y-92640313D01*
X141256566Y-92543677D01*
X141198454Y-92456707D01*
X141124493Y-92382746D01*
X141037523Y-92324634D01*
X140940887Y-92284606D01*
X140838299Y-92264200D01*
X140733701Y-92264200D01*
X140631113Y-92284606D01*
X140534477Y-92324634D01*
X140447507Y-92382746D01*
X140373546Y-92456707D01*
X140315434Y-92543677D01*
X140275406Y-92640313D01*
X140255000Y-92742901D01*
X129592443Y-92742901D01*
X129587194Y-92716513D01*
X129547166Y-92619877D01*
X129489054Y-92532907D01*
X129415093Y-92458946D01*
X129328123Y-92400834D01*
X129231487Y-92360806D01*
X129128899Y-92340400D01*
X129024301Y-92340400D01*
X128921713Y-92360806D01*
X128825077Y-92400834D01*
X128738107Y-92458946D01*
X128664146Y-92532907D01*
X128606034Y-92619877D01*
X128566006Y-92716513D01*
X128545600Y-92819101D01*
X127118400Y-92819101D01*
X127097994Y-92716513D01*
X127057966Y-92619877D01*
X126999854Y-92532907D01*
X126925893Y-92458946D01*
X126838923Y-92400834D01*
X126742287Y-92360806D01*
X126639699Y-92340400D01*
X126535101Y-92340400D01*
X126432513Y-92360806D01*
X126335877Y-92400834D01*
X126248907Y-92458946D01*
X126174946Y-92532907D01*
X126116834Y-92619877D01*
X126076806Y-92716513D01*
X126056400Y-92819101D01*
X112266200Y-92819101D01*
X112266200Y-91661721D01*
X163578600Y-91661721D01*
X163578600Y-91795079D01*
X163604616Y-91925874D01*
X163655650Y-92049080D01*
X163729740Y-92159963D01*
X163824037Y-92254260D01*
X163934920Y-92328350D01*
X164058126Y-92379384D01*
X164105465Y-92388800D01*
X164058126Y-92398216D01*
X163934920Y-92449250D01*
X163824037Y-92523340D01*
X163729740Y-92617637D01*
X163655650Y-92728520D01*
X163604616Y-92851726D01*
X163578600Y-92982521D01*
X163578600Y-93115879D01*
X163604616Y-93246674D01*
X163655650Y-93369880D01*
X163729740Y-93480763D01*
X163824037Y-93575060D01*
X163934920Y-93649150D01*
X164058126Y-93700184D01*
X164188921Y-93726200D01*
X164322279Y-93726200D01*
X164453074Y-93700184D01*
X164576280Y-93649150D01*
X164687163Y-93575060D01*
X164781460Y-93480763D01*
X164855550Y-93369880D01*
X164906584Y-93246674D01*
X164932600Y-93115879D01*
X164932600Y-92982521D01*
X164906584Y-92851726D01*
X164855550Y-92728520D01*
X164781460Y-92617637D01*
X164687163Y-92523340D01*
X164576280Y-92449250D01*
X164453074Y-92398216D01*
X164405735Y-92388800D01*
X164453074Y-92379384D01*
X164576280Y-92328350D01*
X164687163Y-92254260D01*
X164781460Y-92159963D01*
X164855550Y-92049080D01*
X164906584Y-91925874D01*
X164932600Y-91795079D01*
X164932600Y-91661721D01*
X164906584Y-91530926D01*
X164855550Y-91407720D01*
X164781460Y-91296837D01*
X164687163Y-91202540D01*
X164576280Y-91128450D01*
X164453074Y-91077416D01*
X164322279Y-91051400D01*
X164188921Y-91051400D01*
X164058126Y-91077416D01*
X163934920Y-91128450D01*
X163824037Y-91202540D01*
X163729740Y-91296837D01*
X163655650Y-91407720D01*
X163604616Y-91530926D01*
X163578600Y-91661721D01*
X112266200Y-91661721D01*
X112266200Y-90558501D01*
X128367800Y-90558501D01*
X128367800Y-90663099D01*
X128388206Y-90765687D01*
X128428234Y-90862323D01*
X128486346Y-90949293D01*
X128560307Y-91023254D01*
X128647277Y-91081366D01*
X128743913Y-91121394D01*
X128846501Y-91141800D01*
X128951099Y-91141800D01*
X129053687Y-91121394D01*
X129150323Y-91081366D01*
X129185526Y-91057844D01*
X129184600Y-91062501D01*
X129184600Y-91167099D01*
X129205006Y-91269687D01*
X129245034Y-91366323D01*
X129303146Y-91453293D01*
X129377107Y-91527254D01*
X129464077Y-91585366D01*
X129560713Y-91625394D01*
X129663301Y-91645800D01*
X129767899Y-91645800D01*
X129870487Y-91625394D01*
X129967123Y-91585366D01*
X130054093Y-91527254D01*
X130128054Y-91453293D01*
X130186166Y-91366323D01*
X130226194Y-91269687D01*
X130246600Y-91167099D01*
X130246600Y-91062501D01*
X130226194Y-90959913D01*
X130186166Y-90863277D01*
X130128054Y-90776307D01*
X130054093Y-90702346D01*
X129967123Y-90644234D01*
X129870487Y-90604206D01*
X129767899Y-90583800D01*
X129663301Y-90583800D01*
X129560713Y-90604206D01*
X129464077Y-90644234D01*
X129428874Y-90667756D01*
X129429800Y-90663099D01*
X129429800Y-90558501D01*
X129409394Y-90455913D01*
X129369366Y-90359277D01*
X129311254Y-90272307D01*
X129237293Y-90198346D01*
X129150323Y-90140234D01*
X129053687Y-90100206D01*
X128951099Y-90079800D01*
X128846501Y-90079800D01*
X128743913Y-90100206D01*
X128647277Y-90140234D01*
X128560307Y-90198346D01*
X128486346Y-90272307D01*
X128428234Y-90359277D01*
X128388206Y-90455913D01*
X128367800Y-90558501D01*
X112266200Y-90558501D01*
X112266200Y-89745701D01*
X125878600Y-89745701D01*
X125878600Y-89850299D01*
X125899006Y-89952887D01*
X125939034Y-90049523D01*
X125997146Y-90136493D01*
X126071107Y-90210454D01*
X126158077Y-90268566D01*
X126254713Y-90308594D01*
X126357301Y-90329000D01*
X126461899Y-90329000D01*
X126564487Y-90308594D01*
X126661123Y-90268566D01*
X126748093Y-90210454D01*
X126822054Y-90136493D01*
X126880166Y-90049523D01*
X126920194Y-89952887D01*
X126940600Y-89850299D01*
X126940600Y-89745701D01*
X126920194Y-89643113D01*
X126880166Y-89546477D01*
X126837151Y-89482101D01*
X150957800Y-89482101D01*
X150957800Y-89586699D01*
X150978206Y-89689287D01*
X151018234Y-89785923D01*
X151076346Y-89872893D01*
X151150307Y-89946854D01*
X151237277Y-90004966D01*
X151333913Y-90044994D01*
X151436501Y-90065400D01*
X151541099Y-90065400D01*
X151643687Y-90044994D01*
X151740323Y-90004966D01*
X151827293Y-89946854D01*
X151901254Y-89872893D01*
X151959366Y-89785923D01*
X151999394Y-89689287D01*
X152019800Y-89586699D01*
X152019800Y-89482101D01*
X151999394Y-89379513D01*
X151989691Y-89356089D01*
X152036501Y-89365400D01*
X152141099Y-89365400D01*
X152243687Y-89344994D01*
X152340323Y-89304966D01*
X152374542Y-89282101D01*
X152857800Y-89282101D01*
X152857800Y-89386699D01*
X152878206Y-89489287D01*
X152918234Y-89585923D01*
X152976346Y-89672893D01*
X153050307Y-89746854D01*
X153137277Y-89804966D01*
X153233913Y-89844994D01*
X153336501Y-89865400D01*
X153441099Y-89865400D01*
X153543687Y-89844994D01*
X153640323Y-89804966D01*
X153727293Y-89746854D01*
X153801254Y-89672893D01*
X153859366Y-89585923D01*
X153899394Y-89489287D01*
X153919800Y-89386699D01*
X153919800Y-89282101D01*
X153899394Y-89179513D01*
X153859366Y-89082877D01*
X153835183Y-89046685D01*
X153843687Y-89044994D01*
X153940323Y-89004966D01*
X154027293Y-88946854D01*
X154101254Y-88872893D01*
X154159366Y-88785923D01*
X154199394Y-88689287D01*
X154219800Y-88586699D01*
X154219800Y-88482101D01*
X154199394Y-88379513D01*
X154159366Y-88282877D01*
X154101254Y-88195907D01*
X154027293Y-88121946D01*
X153940323Y-88063834D01*
X153843687Y-88023806D01*
X153741099Y-88003400D01*
X153636501Y-88003400D01*
X153533913Y-88023806D01*
X153437277Y-88063834D01*
X153350307Y-88121946D01*
X153276346Y-88195907D01*
X153218234Y-88282877D01*
X153178206Y-88379513D01*
X153157800Y-88482101D01*
X153157800Y-88586699D01*
X153178206Y-88689287D01*
X153218234Y-88785923D01*
X153242417Y-88822115D01*
X153233913Y-88823806D01*
X153137277Y-88863834D01*
X153050307Y-88921946D01*
X152976346Y-88995907D01*
X152918234Y-89082877D01*
X152878206Y-89179513D01*
X152857800Y-89282101D01*
X152374542Y-89282101D01*
X152427293Y-89246854D01*
X152501254Y-89172893D01*
X152559366Y-89085923D01*
X152599394Y-88989287D01*
X152619800Y-88886699D01*
X152619800Y-88782101D01*
X152599394Y-88679513D01*
X152559366Y-88582877D01*
X152501254Y-88495907D01*
X152427293Y-88421946D01*
X152340323Y-88363834D01*
X152243687Y-88323806D01*
X152141099Y-88303400D01*
X152036501Y-88303400D01*
X151933913Y-88323806D01*
X151837277Y-88363834D01*
X151750307Y-88421946D01*
X151676346Y-88495907D01*
X151618234Y-88582877D01*
X151578206Y-88679513D01*
X151557800Y-88782101D01*
X151557800Y-88886699D01*
X151578206Y-88989287D01*
X151587909Y-89012711D01*
X151541099Y-89003400D01*
X151436501Y-89003400D01*
X151333913Y-89023806D01*
X151237277Y-89063834D01*
X151150307Y-89121946D01*
X151076346Y-89195907D01*
X151018234Y-89282877D01*
X150978206Y-89379513D01*
X150957800Y-89482101D01*
X126837151Y-89482101D01*
X126822054Y-89459507D01*
X126748093Y-89385546D01*
X126661123Y-89327434D01*
X126564487Y-89287406D01*
X126461899Y-89267000D01*
X126357301Y-89267000D01*
X126254713Y-89287406D01*
X126158077Y-89327434D01*
X126071107Y-89385546D01*
X125997146Y-89459507D01*
X125939034Y-89546477D01*
X125899006Y-89643113D01*
X125878600Y-89745701D01*
X112266200Y-89745701D01*
X112266200Y-88374101D01*
X115718600Y-88374101D01*
X115718600Y-88478699D01*
X115739006Y-88581287D01*
X115779034Y-88677923D01*
X115837146Y-88764893D01*
X115911107Y-88838854D01*
X115998077Y-88896966D01*
X116094713Y-88936994D01*
X116197301Y-88957400D01*
X116301899Y-88957400D01*
X116404487Y-88936994D01*
X116501123Y-88896966D01*
X116588093Y-88838854D01*
X116662054Y-88764893D01*
X116720166Y-88677923D01*
X116760194Y-88581287D01*
X116780600Y-88478699D01*
X116780600Y-88374101D01*
X117039400Y-88374101D01*
X117039400Y-88478699D01*
X117059806Y-88581287D01*
X117099834Y-88677923D01*
X117157946Y-88764893D01*
X117231907Y-88838854D01*
X117318877Y-88896966D01*
X117415513Y-88936994D01*
X117518101Y-88957400D01*
X117622699Y-88957400D01*
X117725287Y-88936994D01*
X117821923Y-88896966D01*
X117908893Y-88838854D01*
X117982854Y-88764893D01*
X118040966Y-88677923D01*
X118080994Y-88581287D01*
X118101400Y-88478699D01*
X118101400Y-88424901D01*
X123186200Y-88424901D01*
X123186200Y-88529499D01*
X123206606Y-88632087D01*
X123246634Y-88728723D01*
X123304746Y-88815693D01*
X123378707Y-88889654D01*
X123465677Y-88947766D01*
X123562313Y-88987794D01*
X123664901Y-89008200D01*
X123769499Y-89008200D01*
X123872087Y-88987794D01*
X123968723Y-88947766D01*
X124055693Y-88889654D01*
X124129654Y-88815693D01*
X124187766Y-88728723D01*
X124227794Y-88632087D01*
X124248200Y-88529499D01*
X124248200Y-88424901D01*
X124227991Y-88323301D01*
X131517400Y-88323301D01*
X131517400Y-88427899D01*
X131537806Y-88530487D01*
X131577834Y-88627123D01*
X131635946Y-88714093D01*
X131709907Y-88788054D01*
X131796877Y-88846166D01*
X131893513Y-88886194D01*
X131996101Y-88906600D01*
X132100699Y-88906600D01*
X132203287Y-88886194D01*
X132299923Y-88846166D01*
X132386893Y-88788054D01*
X132460854Y-88714093D01*
X132518966Y-88627123D01*
X132558994Y-88530487D01*
X132579400Y-88427899D01*
X132579400Y-88323301D01*
X132558994Y-88220713D01*
X132518966Y-88124077D01*
X132460854Y-88037107D01*
X132386893Y-87963146D01*
X132299923Y-87905034D01*
X132203287Y-87865006D01*
X132100699Y-87844600D01*
X131996101Y-87844600D01*
X131893513Y-87865006D01*
X131796877Y-87905034D01*
X131709907Y-87963146D01*
X131635946Y-88037107D01*
X131577834Y-88124077D01*
X131537806Y-88220713D01*
X131517400Y-88323301D01*
X124227991Y-88323301D01*
X124227794Y-88322313D01*
X124187766Y-88225677D01*
X124129654Y-88138707D01*
X124055693Y-88064746D01*
X123968723Y-88006634D01*
X123872087Y-87966606D01*
X123769499Y-87946200D01*
X123664901Y-87946200D01*
X123562313Y-87966606D01*
X123465677Y-88006634D01*
X123378707Y-88064746D01*
X123304746Y-88138707D01*
X123246634Y-88225677D01*
X123206606Y-88322313D01*
X123186200Y-88424901D01*
X118101400Y-88424901D01*
X118101400Y-88374101D01*
X118080994Y-88271513D01*
X118040966Y-88174877D01*
X117982854Y-88087907D01*
X117908893Y-88013946D01*
X117821923Y-87955834D01*
X117725287Y-87915806D01*
X117622699Y-87895400D01*
X117518101Y-87895400D01*
X117415513Y-87915806D01*
X117318877Y-87955834D01*
X117231907Y-88013946D01*
X117157946Y-88087907D01*
X117099834Y-88174877D01*
X117059806Y-88271513D01*
X117039400Y-88374101D01*
X116780600Y-88374101D01*
X116760194Y-88271513D01*
X116720166Y-88174877D01*
X116662054Y-88087907D01*
X116588093Y-88013946D01*
X116501123Y-87955834D01*
X116404487Y-87915806D01*
X116301899Y-87895400D01*
X116197301Y-87895400D01*
X116094713Y-87915806D01*
X115998077Y-87955834D01*
X115911107Y-88013946D01*
X115837146Y-88087907D01*
X115779034Y-88174877D01*
X115739006Y-88271513D01*
X115718600Y-88374101D01*
X112266200Y-88374101D01*
X112266200Y-87510501D01*
X132736600Y-87510501D01*
X132736600Y-87615099D01*
X132757006Y-87717687D01*
X132797034Y-87814323D01*
X132855146Y-87901293D01*
X132929107Y-87975254D01*
X133016077Y-88033366D01*
X133112713Y-88073394D01*
X133215301Y-88093800D01*
X133319899Y-88093800D01*
X133422487Y-88073394D01*
X133467084Y-88054921D01*
X145224600Y-88054921D01*
X145224600Y-88188279D01*
X145250616Y-88319074D01*
X145301650Y-88442280D01*
X145375740Y-88553163D01*
X145470037Y-88647460D01*
X145580920Y-88721550D01*
X145704126Y-88772584D01*
X145834921Y-88798600D01*
X145968279Y-88798600D01*
X146099074Y-88772584D01*
X146222280Y-88721550D01*
X146333163Y-88647460D01*
X146427460Y-88553163D01*
X146501550Y-88442280D01*
X146552584Y-88319074D01*
X146578600Y-88188279D01*
X146578600Y-88054921D01*
X146552584Y-87924126D01*
X146501550Y-87800920D01*
X146488976Y-87782101D01*
X152257800Y-87782101D01*
X152257800Y-87886699D01*
X152278206Y-87989287D01*
X152318234Y-88085923D01*
X152376346Y-88172893D01*
X152450307Y-88246854D01*
X152537277Y-88304966D01*
X152633913Y-88344994D01*
X152736501Y-88365400D01*
X152841099Y-88365400D01*
X152943687Y-88344994D01*
X153040323Y-88304966D01*
X153127293Y-88246854D01*
X153201254Y-88172893D01*
X153259366Y-88085923D01*
X153299394Y-87989287D01*
X153319800Y-87886699D01*
X153319800Y-87782101D01*
X154157800Y-87782101D01*
X154157800Y-87886699D01*
X154178206Y-87989287D01*
X154218234Y-88085923D01*
X154276346Y-88172893D01*
X154350307Y-88246854D01*
X154437277Y-88304966D01*
X154533913Y-88344994D01*
X154636501Y-88365400D01*
X154741099Y-88365400D01*
X154843687Y-88344994D01*
X154867111Y-88335291D01*
X154857800Y-88382101D01*
X154857800Y-88486699D01*
X154878206Y-88589287D01*
X154918234Y-88685923D01*
X154976346Y-88772893D01*
X155050307Y-88846854D01*
X155137277Y-88904966D01*
X155233913Y-88944994D01*
X155336501Y-88965400D01*
X155441099Y-88965400D01*
X155543687Y-88944994D01*
X155640323Y-88904966D01*
X155727293Y-88846854D01*
X155801254Y-88772893D01*
X155859366Y-88685923D01*
X155899394Y-88589287D01*
X155919800Y-88486699D01*
X155919800Y-88382101D01*
X155899394Y-88279513D01*
X155859366Y-88182877D01*
X155801254Y-88095907D01*
X155727293Y-88021946D01*
X155640323Y-87963834D01*
X155543687Y-87923806D01*
X155441099Y-87903400D01*
X155336501Y-87903400D01*
X155233913Y-87923806D01*
X155210489Y-87933509D01*
X155219800Y-87886699D01*
X155219800Y-87782101D01*
X155199394Y-87679513D01*
X155159366Y-87582877D01*
X155101254Y-87495907D01*
X155027293Y-87421946D01*
X154940323Y-87363834D01*
X154843687Y-87323806D01*
X154741099Y-87303400D01*
X154636501Y-87303400D01*
X154533913Y-87323806D01*
X154437277Y-87363834D01*
X154350307Y-87421946D01*
X154276346Y-87495907D01*
X154218234Y-87582877D01*
X154178206Y-87679513D01*
X154157800Y-87782101D01*
X153319800Y-87782101D01*
X153299394Y-87679513D01*
X153259366Y-87582877D01*
X153201254Y-87495907D01*
X153127293Y-87421946D01*
X153040323Y-87363834D01*
X152943687Y-87323806D01*
X152841099Y-87303400D01*
X152736501Y-87303400D01*
X152633913Y-87323806D01*
X152537277Y-87363834D01*
X152450307Y-87421946D01*
X152376346Y-87495907D01*
X152318234Y-87582877D01*
X152278206Y-87679513D01*
X152257800Y-87782101D01*
X146488976Y-87782101D01*
X146427460Y-87690037D01*
X146333163Y-87595740D01*
X146222280Y-87521650D01*
X146099074Y-87470616D01*
X145968279Y-87444600D01*
X145834921Y-87444600D01*
X145704126Y-87470616D01*
X145580920Y-87521650D01*
X145470037Y-87595740D01*
X145375740Y-87690037D01*
X145301650Y-87800920D01*
X145250616Y-87924126D01*
X145224600Y-88054921D01*
X133467084Y-88054921D01*
X133519123Y-88033366D01*
X133606093Y-87975254D01*
X133680054Y-87901293D01*
X133738166Y-87814323D01*
X133778194Y-87717687D01*
X133798600Y-87615099D01*
X133798600Y-87510501D01*
X133778194Y-87407913D01*
X133738166Y-87311277D01*
X133680054Y-87224307D01*
X133606093Y-87150346D01*
X133519123Y-87092234D01*
X133422487Y-87052206D01*
X133319899Y-87031800D01*
X133215301Y-87031800D01*
X133112713Y-87052206D01*
X133016077Y-87092234D01*
X132929107Y-87150346D01*
X132855146Y-87224307D01*
X132797034Y-87311277D01*
X132757006Y-87407913D01*
X132736600Y-87510501D01*
X112266200Y-87510501D01*
X112266200Y-86493072D01*
X112274301Y-86410443D01*
X112294935Y-86342101D01*
X123186200Y-86342101D01*
X123186200Y-86446699D01*
X123206606Y-86549287D01*
X123246634Y-86645923D01*
X123304746Y-86732893D01*
X123378707Y-86806854D01*
X123465677Y-86864966D01*
X123562313Y-86904994D01*
X123664901Y-86925400D01*
X123769499Y-86925400D01*
X123872087Y-86904994D01*
X123968723Y-86864966D01*
X124055693Y-86806854D01*
X124129654Y-86732893D01*
X124187766Y-86645923D01*
X124227794Y-86549287D01*
X124248200Y-86446699D01*
X124248200Y-86342101D01*
X124242074Y-86311301D01*
X131537400Y-86311301D01*
X131537400Y-86415899D01*
X131557806Y-86518487D01*
X131597834Y-86615123D01*
X131655946Y-86702093D01*
X131729907Y-86776054D01*
X131816877Y-86834166D01*
X131913513Y-86874194D01*
X132016101Y-86894600D01*
X132120699Y-86894600D01*
X132223287Y-86874194D01*
X132319923Y-86834166D01*
X132406893Y-86776054D01*
X132480854Y-86702093D01*
X132538966Y-86615123D01*
X132578994Y-86518487D01*
X132599400Y-86415899D01*
X132599400Y-86311301D01*
X132578994Y-86208713D01*
X132538966Y-86112077D01*
X132518937Y-86082101D01*
X147657800Y-86082101D01*
X147657800Y-86186699D01*
X147678206Y-86289287D01*
X147718234Y-86385923D01*
X147776346Y-86472893D01*
X147850307Y-86546854D01*
X147937277Y-86604966D01*
X148033913Y-86644994D01*
X148136501Y-86665400D01*
X148241099Y-86665400D01*
X148343687Y-86644994D01*
X148440323Y-86604966D01*
X148527293Y-86546854D01*
X148601254Y-86472893D01*
X148659366Y-86385923D01*
X148699394Y-86289287D01*
X148719800Y-86186699D01*
X148719800Y-86082101D01*
X148699394Y-85979513D01*
X148659366Y-85882877D01*
X148601254Y-85795907D01*
X148527293Y-85721946D01*
X148440323Y-85663834D01*
X148343687Y-85623806D01*
X148241099Y-85603400D01*
X148136501Y-85603400D01*
X148033913Y-85623806D01*
X147937277Y-85663834D01*
X147850307Y-85721946D01*
X147776346Y-85795907D01*
X147718234Y-85882877D01*
X147678206Y-85979513D01*
X147657800Y-86082101D01*
X132518937Y-86082101D01*
X132480854Y-86025107D01*
X132406893Y-85951146D01*
X132319923Y-85893034D01*
X132223287Y-85853006D01*
X132120699Y-85832600D01*
X132016101Y-85832600D01*
X131913513Y-85853006D01*
X131816877Y-85893034D01*
X131729907Y-85951146D01*
X131655946Y-86025107D01*
X131597834Y-86112077D01*
X131557806Y-86208713D01*
X131537400Y-86311301D01*
X124242074Y-86311301D01*
X124227794Y-86239513D01*
X124187766Y-86142877D01*
X124129654Y-86055907D01*
X124055693Y-85981946D01*
X123968723Y-85923834D01*
X123872087Y-85883806D01*
X123769499Y-85863400D01*
X123664901Y-85863400D01*
X123562313Y-85883806D01*
X123465677Y-85923834D01*
X123378707Y-85981946D01*
X123304746Y-86055907D01*
X123246634Y-86142877D01*
X123206606Y-86239513D01*
X123186200Y-86342101D01*
X112294935Y-86342101D01*
X112295780Y-86339303D01*
X112330669Y-86273687D01*
X112377636Y-86216100D01*
X112437158Y-86166859D01*
X112486332Y-86138145D01*
X112500405Y-86130179D01*
X112520243Y-86113080D01*
X113318467Y-85275301D01*
X130603000Y-85275301D01*
X130603000Y-85379899D01*
X130623406Y-85482487D01*
X130663434Y-85579123D01*
X130721546Y-85666093D01*
X130795507Y-85740054D01*
X130882477Y-85798166D01*
X130979113Y-85838194D01*
X131081701Y-85858600D01*
X131186299Y-85858600D01*
X131288887Y-85838194D01*
X131385523Y-85798166D01*
X131472493Y-85740054D01*
X131546454Y-85666093D01*
X131604566Y-85579123D01*
X131644594Y-85482487D01*
X131665000Y-85379899D01*
X131665000Y-85275301D01*
X131660139Y-85250860D01*
X149526559Y-85250860D01*
X149526559Y-85355458D01*
X149546965Y-85458046D01*
X149586993Y-85554682D01*
X149645105Y-85641652D01*
X149719066Y-85715613D01*
X149806036Y-85773725D01*
X149902672Y-85813753D01*
X150005260Y-85834159D01*
X150109858Y-85834159D01*
X150212446Y-85813753D01*
X150309082Y-85773725D01*
X150396052Y-85715613D01*
X150470013Y-85641652D01*
X150528125Y-85554682D01*
X150568153Y-85458046D01*
X150588559Y-85355458D01*
X150588559Y-85250860D01*
X150568153Y-85148272D01*
X150528125Y-85051636D01*
X150470013Y-84964666D01*
X150396052Y-84890705D01*
X150309082Y-84832593D01*
X150212446Y-84792565D01*
X150159840Y-84782101D01*
X153157800Y-84782101D01*
X153157800Y-84886699D01*
X153178206Y-84989287D01*
X153218234Y-85085923D01*
X153276346Y-85172893D01*
X153350307Y-85246854D01*
X153437277Y-85304966D01*
X153533913Y-85344994D01*
X153636501Y-85365400D01*
X153741099Y-85365400D01*
X153843687Y-85344994D01*
X153940323Y-85304966D01*
X154027293Y-85246854D01*
X154101254Y-85172893D01*
X154159366Y-85085923D01*
X154199394Y-84989287D01*
X154219800Y-84886699D01*
X154219800Y-84782101D01*
X154199394Y-84679513D01*
X154159366Y-84582877D01*
X154101254Y-84495907D01*
X154027293Y-84421946D01*
X153940323Y-84363834D01*
X153843687Y-84323806D01*
X153741099Y-84303400D01*
X153636501Y-84303400D01*
X153533913Y-84323806D01*
X153437277Y-84363834D01*
X153350307Y-84421946D01*
X153276346Y-84495907D01*
X153218234Y-84582877D01*
X153178206Y-84679513D01*
X153157800Y-84782101D01*
X150159840Y-84782101D01*
X150109858Y-84772159D01*
X150005260Y-84772159D01*
X149902672Y-84792565D01*
X149806036Y-84832593D01*
X149719066Y-84890705D01*
X149645105Y-84964666D01*
X149586993Y-85051636D01*
X149546965Y-85148272D01*
X149526559Y-85250860D01*
X131660139Y-85250860D01*
X131644594Y-85172713D01*
X131604566Y-85076077D01*
X131546454Y-84989107D01*
X131472493Y-84915146D01*
X131385523Y-84857034D01*
X131288887Y-84817006D01*
X131186299Y-84796600D01*
X131081701Y-84796600D01*
X130979113Y-84817006D01*
X130882477Y-84857034D01*
X130795507Y-84915146D01*
X130721546Y-84989107D01*
X130663434Y-85076077D01*
X130623406Y-85172713D01*
X130603000Y-85275301D01*
X113318467Y-85275301D01*
X113709747Y-84864632D01*
X113714846Y-84860447D01*
X113721756Y-84852027D01*
X113723245Y-84850465D01*
X113727301Y-84845272D01*
X113737016Y-84833435D01*
X113738036Y-84831527D01*
X113739366Y-84829824D01*
X113746258Y-84816144D01*
X113753489Y-84802616D01*
X113754117Y-84800545D01*
X113755089Y-84798616D01*
X113759179Y-84783860D01*
X113763633Y-84769176D01*
X113763845Y-84767023D01*
X113764422Y-84764941D01*
X113765553Y-84749679D01*
X113766200Y-84743112D01*
X113766200Y-84740953D01*
X113767005Y-84730092D01*
X113766200Y-84723544D01*
X113766200Y-83455000D01*
X113915980Y-83455000D01*
X113932025Y-83617904D01*
X113979542Y-83774548D01*
X114056706Y-83918912D01*
X114160552Y-84045448D01*
X114287088Y-84149294D01*
X114431452Y-84226458D01*
X114588096Y-84273975D01*
X114710185Y-84286000D01*
X115899815Y-84286000D01*
X116021904Y-84273975D01*
X116178548Y-84226458D01*
X116322912Y-84149294D01*
X116449448Y-84045448D01*
X116553294Y-83918912D01*
X116630458Y-83774548D01*
X116677975Y-83617904D01*
X116694020Y-83455000D01*
X117295980Y-83455000D01*
X117312025Y-83617904D01*
X117359542Y-83774548D01*
X117436706Y-83918912D01*
X117540552Y-84045448D01*
X117667088Y-84149294D01*
X117811452Y-84226458D01*
X117968096Y-84273975D01*
X118090185Y-84286000D01*
X119279815Y-84286000D01*
X119401904Y-84273975D01*
X119558548Y-84226458D01*
X119702912Y-84149294D01*
X119829448Y-84045448D01*
X119933294Y-83918912D01*
X120010458Y-83774548D01*
X120057975Y-83617904D01*
X120074020Y-83455000D01*
X120057975Y-83292096D01*
X120010458Y-83135452D01*
X119951403Y-83024968D01*
X120115126Y-82958187D01*
X120124323Y-82953270D01*
X120137931Y-82757536D01*
X119665000Y-82284605D01*
X119650858Y-82298748D01*
X119471253Y-82119143D01*
X119485395Y-82105000D01*
X119844605Y-82105000D01*
X120317536Y-82577931D01*
X120513270Y-82564323D01*
X120547849Y-82482101D01*
X146857800Y-82482101D01*
X146857800Y-82586699D01*
X146878206Y-82689287D01*
X146918234Y-82785923D01*
X146976346Y-82872893D01*
X147050307Y-82946854D01*
X147137277Y-83004966D01*
X147233913Y-83044994D01*
X147336501Y-83065400D01*
X147441099Y-83065400D01*
X147543687Y-83044994D01*
X147640323Y-83004966D01*
X147727293Y-82946854D01*
X147801254Y-82872893D01*
X147859366Y-82785923D01*
X147899394Y-82689287D01*
X147919800Y-82586699D01*
X147919800Y-82482101D01*
X147899394Y-82379513D01*
X147859366Y-82282877D01*
X147801254Y-82195907D01*
X147727293Y-82121946D01*
X147640323Y-82063834D01*
X147543687Y-82023806D01*
X147441099Y-82003400D01*
X147336501Y-82003400D01*
X147233913Y-82023806D01*
X147137277Y-82063834D01*
X147050307Y-82121946D01*
X146976346Y-82195907D01*
X146918234Y-82282877D01*
X146878206Y-82379513D01*
X146857800Y-82482101D01*
X120547849Y-82482101D01*
X120586581Y-82390008D01*
X120624475Y-82204740D01*
X120625497Y-82015639D01*
X120589608Y-81829972D01*
X120518187Y-81654874D01*
X120513270Y-81645677D01*
X120317536Y-81632069D01*
X119844605Y-82105000D01*
X119485395Y-82105000D01*
X119246615Y-81866220D01*
X119239608Y-81829972D01*
X119168187Y-81654874D01*
X119163270Y-81645677D01*
X119015821Y-81635426D01*
X119012464Y-81632069D01*
X118990000Y-81633631D01*
X118967536Y-81632069D01*
X118964179Y-81635426D01*
X118816730Y-81645677D01*
X118743419Y-81819992D01*
X118734113Y-81865492D01*
X118494605Y-82105000D01*
X118508748Y-82119143D01*
X118329143Y-82298748D01*
X118315000Y-82284605D01*
X117961614Y-82637991D01*
X117811452Y-82683542D01*
X117667088Y-82760706D01*
X117540552Y-82864552D01*
X117436706Y-82991088D01*
X117359542Y-83135452D01*
X117312025Y-83292096D01*
X117295980Y-83455000D01*
X116694020Y-83455000D01*
X116677975Y-83292096D01*
X116630458Y-83135452D01*
X116553294Y-82991088D01*
X116449448Y-82864552D01*
X116322912Y-82760706D01*
X116178548Y-82683542D01*
X116021904Y-82636025D01*
X115899815Y-82624000D01*
X114710185Y-82624000D01*
X114588096Y-82636025D01*
X114431452Y-82683542D01*
X114287088Y-82760706D01*
X114160552Y-82864552D01*
X114056706Y-82991088D01*
X113979542Y-83135452D01*
X113932025Y-83292096D01*
X113915980Y-83455000D01*
X113766200Y-83455000D01*
X113766200Y-82194361D01*
X117354503Y-82194361D01*
X117390392Y-82380028D01*
X117461813Y-82555126D01*
X117466730Y-82564323D01*
X117662464Y-82577931D01*
X118135395Y-82105000D01*
X117662464Y-81632069D01*
X117466730Y-81645677D01*
X117393419Y-81819992D01*
X117355525Y-82005260D01*
X117354503Y-82194361D01*
X113766200Y-82194361D01*
X113766200Y-76945708D01*
X117713000Y-76945708D01*
X117713000Y-77064292D01*
X117736134Y-77180597D01*
X117781514Y-77290154D01*
X117847396Y-77388753D01*
X117888643Y-77430000D01*
X117847396Y-77471247D01*
X117781514Y-77569846D01*
X117736134Y-77679403D01*
X117713000Y-77795708D01*
X117713000Y-77914292D01*
X117736134Y-78030597D01*
X117781514Y-78140154D01*
X117847396Y-78238753D01*
X117888643Y-78280000D01*
X117847396Y-78321247D01*
X117781514Y-78419846D01*
X117736134Y-78529403D01*
X117713000Y-78645708D01*
X117713000Y-78764292D01*
X117736134Y-78880597D01*
X117781514Y-78990154D01*
X117847396Y-79088753D01*
X117888643Y-79130000D01*
X117847396Y-79171247D01*
X117781514Y-79269846D01*
X117736134Y-79379403D01*
X117713000Y-79495708D01*
X117713000Y-79614292D01*
X117736134Y-79730597D01*
X117781514Y-79840154D01*
X117847396Y-79938753D01*
X117888643Y-79980000D01*
X117847396Y-80021247D01*
X117781514Y-80119846D01*
X117736134Y-80229403D01*
X117713000Y-80345708D01*
X117713000Y-80464292D01*
X117736134Y-80580597D01*
X117781514Y-80690154D01*
X117847396Y-80788753D01*
X117888643Y-80830000D01*
X117847396Y-80871247D01*
X117781514Y-80969846D01*
X117736134Y-81079403D01*
X117713000Y-81195708D01*
X117713000Y-81314292D01*
X117736134Y-81430597D01*
X117781514Y-81540154D01*
X117847396Y-81638753D01*
X117931247Y-81722604D01*
X118029846Y-81788486D01*
X118139403Y-81833866D01*
X118244345Y-81854740D01*
X118315000Y-81925395D01*
X118385655Y-81854740D01*
X118490597Y-81833866D01*
X118600154Y-81788486D01*
X118698753Y-81722604D01*
X118782604Y-81638753D01*
X118848486Y-81540154D01*
X118893866Y-81430597D01*
X118917000Y-81314292D01*
X118917000Y-81195708D01*
X118893866Y-81079403D01*
X118848486Y-80969846D01*
X118782604Y-80871247D01*
X118741357Y-80830000D01*
X118782604Y-80788753D01*
X118848486Y-80690154D01*
X118893866Y-80580597D01*
X118917000Y-80464292D01*
X118917000Y-80345708D01*
X118893866Y-80229403D01*
X118848486Y-80119846D01*
X118782604Y-80021247D01*
X118741357Y-79980000D01*
X118782604Y-79938753D01*
X118848486Y-79840154D01*
X118893866Y-79730597D01*
X118917000Y-79614292D01*
X118917000Y-79495708D01*
X118893866Y-79379403D01*
X118848486Y-79269846D01*
X118782604Y-79171247D01*
X118741357Y-79130000D01*
X118782604Y-79088753D01*
X118848486Y-78990154D01*
X118893866Y-78880597D01*
X118917000Y-78764292D01*
X118917000Y-78645708D01*
X118893866Y-78529403D01*
X118848486Y-78419846D01*
X118782604Y-78321247D01*
X118741357Y-78280000D01*
X118782604Y-78238753D01*
X118848486Y-78140154D01*
X118893866Y-78030597D01*
X118917000Y-77914292D01*
X118917000Y-77795708D01*
X118893866Y-77679403D01*
X118848486Y-77569846D01*
X118782604Y-77471247D01*
X118741357Y-77430000D01*
X118782604Y-77388753D01*
X118848486Y-77290154D01*
X118893866Y-77180597D01*
X118917000Y-77064292D01*
X118917000Y-76945708D01*
X119063000Y-76945708D01*
X119063000Y-77064292D01*
X119086134Y-77180597D01*
X119131514Y-77290154D01*
X119197396Y-77388753D01*
X119238643Y-77430000D01*
X119197396Y-77471247D01*
X119131514Y-77569846D01*
X119086134Y-77679403D01*
X119063000Y-77795708D01*
X119063000Y-77914292D01*
X119086134Y-78030597D01*
X119131514Y-78140154D01*
X119197396Y-78238753D01*
X119238643Y-78280000D01*
X119197396Y-78321247D01*
X119131514Y-78419846D01*
X119086134Y-78529403D01*
X119063000Y-78645708D01*
X119063000Y-78764292D01*
X119086134Y-78880597D01*
X119131514Y-78990154D01*
X119197396Y-79088753D01*
X119238643Y-79130000D01*
X119197396Y-79171247D01*
X119131514Y-79269846D01*
X119086134Y-79379403D01*
X119063000Y-79495708D01*
X119063000Y-79614292D01*
X119086134Y-79730597D01*
X119131514Y-79840154D01*
X119197396Y-79938753D01*
X119238643Y-79980000D01*
X119197396Y-80021247D01*
X119131514Y-80119846D01*
X119086134Y-80229403D01*
X119063000Y-80345708D01*
X119063000Y-80464292D01*
X119086134Y-80580597D01*
X119131514Y-80690154D01*
X119197396Y-80788753D01*
X119238643Y-80830000D01*
X119197396Y-80871247D01*
X119131514Y-80969846D01*
X119086134Y-81079403D01*
X119063000Y-81195708D01*
X119063000Y-81314292D01*
X119086134Y-81430597D01*
X119131514Y-81540154D01*
X119197396Y-81638753D01*
X119281247Y-81722604D01*
X119379846Y-81788486D01*
X119489403Y-81833866D01*
X119594345Y-81854740D01*
X119665000Y-81925395D01*
X119735655Y-81854740D01*
X119840597Y-81833866D01*
X119950154Y-81788486D01*
X120048753Y-81722604D01*
X120132604Y-81638753D01*
X120198486Y-81540154D01*
X120243866Y-81430597D01*
X120267000Y-81314292D01*
X120267000Y-81195708D01*
X120243866Y-81079403D01*
X120198486Y-80969846D01*
X120132604Y-80871247D01*
X120091357Y-80830000D01*
X120132604Y-80788753D01*
X120198486Y-80690154D01*
X120243866Y-80580597D01*
X120267000Y-80464292D01*
X120267000Y-80345708D01*
X120243866Y-80229403D01*
X120198486Y-80119846D01*
X120132604Y-80021247D01*
X120091357Y-79980000D01*
X120132604Y-79938753D01*
X120198486Y-79840154D01*
X120243866Y-79730597D01*
X120267000Y-79614292D01*
X120267000Y-79495708D01*
X120243866Y-79379403D01*
X120239193Y-79368121D01*
X122735400Y-79368121D01*
X122735400Y-79501479D01*
X122761416Y-79632274D01*
X122812450Y-79755480D01*
X122886540Y-79866363D01*
X122980837Y-79960660D01*
X123091720Y-80034750D01*
X123214926Y-80085784D01*
X123345721Y-80111800D01*
X123479079Y-80111800D01*
X123609874Y-80085784D01*
X123733080Y-80034750D01*
X123843963Y-79960660D01*
X123938260Y-79866363D01*
X124012350Y-79755480D01*
X124063384Y-79632274D01*
X124089400Y-79501479D01*
X124089400Y-79368121D01*
X124063384Y-79237326D01*
X124018307Y-79128501D01*
X128063000Y-79128501D01*
X128063000Y-79233099D01*
X128083406Y-79335687D01*
X128123434Y-79432323D01*
X128181546Y-79519293D01*
X128255507Y-79593254D01*
X128342477Y-79651366D01*
X128439113Y-79691394D01*
X128541701Y-79711800D01*
X128646299Y-79711800D01*
X128748887Y-79691394D01*
X128845523Y-79651366D01*
X128932493Y-79593254D01*
X129006454Y-79519293D01*
X129064566Y-79432323D01*
X129104594Y-79335687D01*
X129125000Y-79233099D01*
X129125000Y-79128501D01*
X129104594Y-79025913D01*
X129064566Y-78929277D01*
X129006454Y-78842307D01*
X128932493Y-78768346D01*
X128845523Y-78710234D01*
X128748887Y-78670206D01*
X128646299Y-78649800D01*
X128541701Y-78649800D01*
X128439113Y-78670206D01*
X128342477Y-78710234D01*
X128255507Y-78768346D01*
X128181546Y-78842307D01*
X128123434Y-78929277D01*
X128083406Y-79025913D01*
X128063000Y-79128501D01*
X124018307Y-79128501D01*
X124012350Y-79114120D01*
X123938260Y-79003237D01*
X123843963Y-78908940D01*
X123733080Y-78834850D01*
X123609874Y-78783816D01*
X123479079Y-78757800D01*
X123345721Y-78757800D01*
X123214926Y-78783816D01*
X123091720Y-78834850D01*
X122980837Y-78908940D01*
X122886540Y-79003237D01*
X122812450Y-79114120D01*
X122761416Y-79237326D01*
X122735400Y-79368121D01*
X120239193Y-79368121D01*
X120198486Y-79269846D01*
X120132604Y-79171247D01*
X120091357Y-79130000D01*
X120132604Y-79088753D01*
X120198486Y-78990154D01*
X120243866Y-78880597D01*
X120267000Y-78764292D01*
X120267000Y-78645708D01*
X120243866Y-78529403D01*
X120198486Y-78419846D01*
X120132604Y-78321247D01*
X120091357Y-78280000D01*
X120132604Y-78238753D01*
X120198486Y-78140154D01*
X120243866Y-78030597D01*
X120267000Y-77914292D01*
X120267000Y-77795708D01*
X120243866Y-77679403D01*
X120198486Y-77569846D01*
X120178090Y-77539321D01*
X131473000Y-77539321D01*
X131473000Y-77672679D01*
X131499016Y-77803474D01*
X131550050Y-77926680D01*
X131624140Y-78037563D01*
X131700577Y-78114000D01*
X131624140Y-78190437D01*
X131550050Y-78301320D01*
X131499016Y-78424526D01*
X131473000Y-78555321D01*
X131473000Y-78688679D01*
X131499016Y-78819474D01*
X131550050Y-78942680D01*
X131624140Y-79053563D01*
X131700577Y-79130000D01*
X131624140Y-79206437D01*
X131550050Y-79317320D01*
X131499016Y-79440526D01*
X131473000Y-79571321D01*
X131473000Y-79704679D01*
X131499016Y-79835474D01*
X131550050Y-79958680D01*
X131624140Y-80069563D01*
X131700577Y-80146000D01*
X131624140Y-80222437D01*
X131550050Y-80333320D01*
X131499016Y-80456526D01*
X131473000Y-80587321D01*
X131473000Y-80720679D01*
X131499016Y-80851474D01*
X131550050Y-80974680D01*
X131624140Y-81085563D01*
X131718437Y-81179860D01*
X131829320Y-81253950D01*
X131952526Y-81304984D01*
X132083321Y-81331000D01*
X132216679Y-81331000D01*
X132347474Y-81304984D01*
X132470680Y-81253950D01*
X132581563Y-81179860D01*
X132658000Y-81103423D01*
X132734437Y-81179860D01*
X132845320Y-81253950D01*
X132968526Y-81304984D01*
X133099321Y-81331000D01*
X133232679Y-81331000D01*
X133363474Y-81304984D01*
X133486680Y-81253950D01*
X133597563Y-81179860D01*
X133616922Y-81160501D01*
X138985000Y-81160501D01*
X138985000Y-81265099D01*
X139005406Y-81367687D01*
X139045434Y-81464323D01*
X139103546Y-81551293D01*
X139177507Y-81625254D01*
X139264477Y-81683366D01*
X139361113Y-81723394D01*
X139463701Y-81743800D01*
X139568299Y-81743800D01*
X139670887Y-81723394D01*
X139767523Y-81683366D01*
X139854493Y-81625254D01*
X139928454Y-81551293D01*
X139986566Y-81464323D01*
X140026594Y-81367687D01*
X140047000Y-81265099D01*
X140047000Y-81160501D01*
X140026594Y-81057913D01*
X139986566Y-80961277D01*
X139928454Y-80874307D01*
X139854493Y-80800346D01*
X139767523Y-80742234D01*
X139670887Y-80702206D01*
X139568299Y-80681800D01*
X139463701Y-80681800D01*
X139361113Y-80702206D01*
X139264477Y-80742234D01*
X139177507Y-80800346D01*
X139103546Y-80874307D01*
X139045434Y-80961277D01*
X139005406Y-81057913D01*
X138985000Y-81160501D01*
X133616922Y-81160501D01*
X133691860Y-81085563D01*
X133765950Y-80974680D01*
X133816984Y-80851474D01*
X133843000Y-80720679D01*
X133843000Y-80587321D01*
X133816984Y-80456526D01*
X133765950Y-80333320D01*
X133691860Y-80222437D01*
X133615423Y-80146000D01*
X133691860Y-80069563D01*
X133765950Y-79958680D01*
X133816984Y-79835474D01*
X133843000Y-79704679D01*
X133843000Y-79571321D01*
X133816984Y-79440526D01*
X133765950Y-79317320D01*
X133691860Y-79206437D01*
X133615423Y-79130000D01*
X133691860Y-79053563D01*
X133765950Y-78942680D01*
X133816984Y-78819474D01*
X133843000Y-78688679D01*
X133843000Y-78555321D01*
X133816984Y-78424526D01*
X133765950Y-78301320D01*
X133691860Y-78190437D01*
X133615423Y-78114000D01*
X133691860Y-78037563D01*
X133765950Y-77926680D01*
X133816984Y-77803474D01*
X133843000Y-77672679D01*
X133843000Y-77539321D01*
X133816984Y-77408526D01*
X133765950Y-77285320D01*
X133691860Y-77174437D01*
X133597563Y-77080140D01*
X133486680Y-77006050D01*
X133363474Y-76955016D01*
X133232679Y-76929000D01*
X133099321Y-76929000D01*
X132968526Y-76955016D01*
X132845320Y-77006050D01*
X132734437Y-77080140D01*
X132658000Y-77156577D01*
X132581563Y-77080140D01*
X132470680Y-77006050D01*
X132347474Y-76955016D01*
X132216679Y-76929000D01*
X132083321Y-76929000D01*
X131952526Y-76955016D01*
X131829320Y-77006050D01*
X131718437Y-77080140D01*
X131624140Y-77174437D01*
X131550050Y-77285320D01*
X131499016Y-77408526D01*
X131473000Y-77539321D01*
X120178090Y-77539321D01*
X120132604Y-77471247D01*
X120091357Y-77430000D01*
X120132604Y-77388753D01*
X120198486Y-77290154D01*
X120243866Y-77180597D01*
X120267000Y-77064292D01*
X120267000Y-76945708D01*
X120246472Y-76842501D01*
X137105400Y-76842501D01*
X137105400Y-76947099D01*
X137125806Y-77049687D01*
X137165834Y-77146323D01*
X137223946Y-77233293D01*
X137297907Y-77307254D01*
X137384877Y-77365366D01*
X137481513Y-77405394D01*
X137584101Y-77425800D01*
X137688699Y-77425800D01*
X137791287Y-77405394D01*
X137887923Y-77365366D01*
X137974893Y-77307254D01*
X138048854Y-77233293D01*
X138106966Y-77146323D01*
X138146994Y-77049687D01*
X138167400Y-76947099D01*
X138167400Y-76842501D01*
X138146994Y-76739913D01*
X138106966Y-76643277D01*
X138048854Y-76556307D01*
X137974893Y-76482346D01*
X137887923Y-76424234D01*
X137791287Y-76384206D01*
X137688699Y-76363800D01*
X137584101Y-76363800D01*
X137481513Y-76384206D01*
X137384877Y-76424234D01*
X137297907Y-76482346D01*
X137223946Y-76556307D01*
X137165834Y-76643277D01*
X137125806Y-76739913D01*
X137105400Y-76842501D01*
X120246472Y-76842501D01*
X120243866Y-76829403D01*
X120198486Y-76719846D01*
X120132604Y-76621247D01*
X120048753Y-76537396D01*
X119950154Y-76471514D01*
X119840597Y-76426134D01*
X119735655Y-76405260D01*
X119665000Y-76334605D01*
X119594345Y-76405260D01*
X119489403Y-76426134D01*
X119379846Y-76471514D01*
X119281247Y-76537396D01*
X119197396Y-76621247D01*
X119131514Y-76719846D01*
X119086134Y-76829403D01*
X119063000Y-76945708D01*
X118917000Y-76945708D01*
X118893866Y-76829403D01*
X118848486Y-76719846D01*
X118782604Y-76621247D01*
X118698753Y-76537396D01*
X118600154Y-76471514D01*
X118490597Y-76426134D01*
X118385655Y-76405260D01*
X118315000Y-76334605D01*
X118244345Y-76405260D01*
X118139403Y-76426134D01*
X118029846Y-76471514D01*
X117931247Y-76537396D01*
X117847396Y-76621247D01*
X117781514Y-76719846D01*
X117736134Y-76829403D01*
X117713000Y-76945708D01*
X113766200Y-76945708D01*
X113766200Y-76244361D01*
X117354503Y-76244361D01*
X117390392Y-76430028D01*
X117461813Y-76605126D01*
X117466730Y-76614323D01*
X117662464Y-76627931D01*
X118135395Y-76155000D01*
X117662464Y-75682069D01*
X117466730Y-75695677D01*
X117393419Y-75869992D01*
X117355525Y-76055260D01*
X117354503Y-76244361D01*
X113766200Y-76244361D01*
X113766200Y-74805000D01*
X113915980Y-74805000D01*
X113932025Y-74967904D01*
X113979542Y-75124548D01*
X114056706Y-75268912D01*
X114160552Y-75395448D01*
X114287088Y-75499294D01*
X114431452Y-75576458D01*
X114588096Y-75623975D01*
X114710185Y-75636000D01*
X115899815Y-75636000D01*
X116021904Y-75623975D01*
X116178548Y-75576458D01*
X116322912Y-75499294D01*
X116449448Y-75395448D01*
X116553294Y-75268912D01*
X116630458Y-75124548D01*
X116677975Y-74967904D01*
X116694020Y-74805000D01*
X117295980Y-74805000D01*
X117312025Y-74967904D01*
X117359542Y-75124548D01*
X117436706Y-75268912D01*
X117540552Y-75395448D01*
X117667088Y-75499294D01*
X117811452Y-75576458D01*
X117961614Y-75622009D01*
X118315000Y-75975395D01*
X118329143Y-75961253D01*
X118508748Y-76140858D01*
X118494605Y-76155000D01*
X118733385Y-76393780D01*
X118740392Y-76430028D01*
X118811813Y-76605126D01*
X118816730Y-76614323D01*
X118964179Y-76624574D01*
X118967536Y-76627931D01*
X118990000Y-76626369D01*
X119012464Y-76627931D01*
X119015821Y-76624574D01*
X119163270Y-76614323D01*
X119236581Y-76440008D01*
X119245887Y-76394508D01*
X119485395Y-76155000D01*
X119844605Y-76155000D01*
X120317536Y-76627931D01*
X120513270Y-76614323D01*
X120586581Y-76440008D01*
X120624475Y-76254740D01*
X120625497Y-76065639D01*
X120589608Y-75879972D01*
X120518187Y-75704874D01*
X120513270Y-75695677D01*
X120317536Y-75682069D01*
X119844605Y-76155000D01*
X119485395Y-76155000D01*
X119471253Y-76140858D01*
X119650858Y-75961253D01*
X119665000Y-75975395D01*
X120137931Y-75502464D01*
X120124323Y-75306730D01*
X119951851Y-75234194D01*
X120010458Y-75124548D01*
X120057975Y-74967904D01*
X120074020Y-74805000D01*
X120057975Y-74642096D01*
X120010458Y-74485452D01*
X119933294Y-74341088D01*
X119829448Y-74214552D01*
X119702912Y-74110706D01*
X119558548Y-74033542D01*
X119401904Y-73986025D01*
X119279815Y-73974000D01*
X118090185Y-73974000D01*
X117968096Y-73986025D01*
X117811452Y-74033542D01*
X117667088Y-74110706D01*
X117540552Y-74214552D01*
X117436706Y-74341088D01*
X117359542Y-74485452D01*
X117312025Y-74642096D01*
X117295980Y-74805000D01*
X116694020Y-74805000D01*
X116677975Y-74642096D01*
X116630458Y-74485452D01*
X116553294Y-74341088D01*
X116449448Y-74214552D01*
X116322912Y-74110706D01*
X116178548Y-74033542D01*
X116021904Y-73986025D01*
X115899815Y-73974000D01*
X114710185Y-73974000D01*
X114588096Y-73986025D01*
X114431452Y-74033542D01*
X114287088Y-74110706D01*
X114160552Y-74214552D01*
X114056706Y-74341088D01*
X113979542Y-74485452D01*
X113932025Y-74642096D01*
X113915980Y-74805000D01*
X113766200Y-74805000D01*
X113766200Y-74743073D01*
X113782700Y-74574792D01*
X113829056Y-74421254D01*
X113904348Y-74279650D01*
X114005710Y-74155368D01*
X114129284Y-74053139D01*
X114270361Y-73976859D01*
X114423562Y-73929435D01*
X114591344Y-73911800D01*
X163080127Y-73911800D01*
X163248408Y-73928300D01*
G37*
X163248408Y-73928300D02*
X163401946Y-73974656D01*
X163543550Y-74049948D01*
X163667832Y-74151310D01*
X163770061Y-74274884D01*
X163846341Y-74415961D01*
X163893765Y-74569162D01*
X163911400Y-74736944D01*
X163911401Y-89225887D01*
X163910544Y-89234793D01*
X163912262Y-89251858D01*
X163913968Y-89269176D01*
X163914025Y-89269365D01*
X163914045Y-89269561D01*
X163919085Y-89286043D01*
X163924112Y-89302616D01*
X163924205Y-89302791D01*
X163924263Y-89302979D01*
X163932464Y-89318242D01*
X163940585Y-89333435D01*
X163940709Y-89333586D01*
X163940803Y-89333761D01*
X163951916Y-89347241D01*
X163962754Y-89360447D01*
X163969669Y-89366122D01*
X172758484Y-98116263D01*
X172763297Y-98120195D01*
X172822051Y-98171026D01*
X172860655Y-98220551D01*
X172888905Y-98276632D01*
X172905988Y-98338084D01*
X172911400Y-98400348D01*
X172911401Y-118725717D01*
X172894899Y-118894012D01*
X172848544Y-119047546D01*
X172773252Y-119189150D01*
X172671892Y-119313430D01*
X172548318Y-119415660D01*
X172407240Y-119491941D01*
X172254038Y-119539365D01*
X172086256Y-119557000D01*
X118478231Y-119557000D01*
X118482921Y-118904900D01*
X128825001Y-118904900D01*
X128825001Y-119009498D01*
X128845407Y-119112086D01*
X128885435Y-119208722D01*
X128943547Y-119295692D01*
X129017508Y-119369653D01*
X129104478Y-119427765D01*
X129201114Y-119467793D01*
X129303702Y-119488199D01*
X129408300Y-119488199D01*
X129510888Y-119467793D01*
X129607524Y-119427765D01*
X129694494Y-119369653D01*
X129768455Y-119295692D01*
X129826567Y-119208722D01*
X129866595Y-119112086D01*
X129887001Y-119009498D01*
X129887001Y-118904900D01*
X129866595Y-118802312D01*
X129826567Y-118705676D01*
X129768455Y-118618706D01*
X129694494Y-118544745D01*
X129607524Y-118486633D01*
X129510888Y-118446605D01*
X129408300Y-118426199D01*
X129303702Y-118426199D01*
X129201114Y-118446605D01*
X129104478Y-118486633D01*
X129017508Y-118544745D01*
X128943547Y-118618706D01*
X128885435Y-118705676D01*
X128845407Y-118802312D01*
X128825001Y-118904900D01*
X118482921Y-118904900D01*
X118495361Y-117175701D01*
X128774200Y-117175701D01*
X128774200Y-117280299D01*
X128794606Y-117382887D01*
X128834634Y-117479523D01*
X128892746Y-117566493D01*
X128966707Y-117640454D01*
X129053677Y-117698566D01*
X129150313Y-117738594D01*
X129252901Y-117759000D01*
X129357499Y-117759000D01*
X129460087Y-117738594D01*
X129556723Y-117698566D01*
X129643693Y-117640454D01*
X129717654Y-117566493D01*
X129775766Y-117479523D01*
X129815794Y-117382887D01*
X129836200Y-117280299D01*
X129836200Y-117175701D01*
X129815794Y-117073113D01*
X129775766Y-116976477D01*
X129717654Y-116889507D01*
X129643693Y-116815546D01*
X129556723Y-116757434D01*
X129460087Y-116717406D01*
X129357499Y-116697000D01*
X129252901Y-116697000D01*
X129150313Y-116717406D01*
X129053677Y-116757434D01*
X128966707Y-116815546D01*
X128892746Y-116889507D01*
X128834634Y-116976477D01*
X128794606Y-117073113D01*
X128774200Y-117175701D01*
X118495361Y-117175701D01*
X118500463Y-116466501D01*
X148941800Y-116466501D01*
X148941800Y-116571099D01*
X148962206Y-116673687D01*
X149002234Y-116770323D01*
X149060346Y-116857293D01*
X149134307Y-116931254D01*
X149221277Y-116989366D01*
X149317913Y-117029394D01*
X149420501Y-117049800D01*
X149525099Y-117049800D01*
X149627687Y-117029394D01*
X149724323Y-116989366D01*
X149811293Y-116931254D01*
X149885254Y-116857293D01*
X149943366Y-116770323D01*
X149983394Y-116673687D01*
X150003800Y-116571099D01*
X150003800Y-116466501D01*
X149983394Y-116363913D01*
X149943366Y-116267277D01*
X149885254Y-116180307D01*
X149811293Y-116106346D01*
X149724323Y-116048234D01*
X149627687Y-116008206D01*
X149525099Y-115987800D01*
X149420501Y-115987800D01*
X149317913Y-116008206D01*
X149221277Y-116048234D01*
X149134307Y-116106346D01*
X149060346Y-116180307D01*
X149002234Y-116267277D01*
X148962206Y-116363913D01*
X148941800Y-116466501D01*
X118500463Y-116466501D01*
X118507232Y-115525701D01*
X123619000Y-115525701D01*
X123619000Y-115630299D01*
X123639406Y-115732887D01*
X123679434Y-115829523D01*
X123737546Y-115916493D01*
X123811507Y-115990454D01*
X123898477Y-116048566D01*
X123995113Y-116088594D01*
X124097701Y-116109000D01*
X124202299Y-116109000D01*
X124304887Y-116088594D01*
X124401523Y-116048566D01*
X124488493Y-115990454D01*
X124562454Y-115916493D01*
X124620566Y-115829523D01*
X124660594Y-115732887D01*
X124681000Y-115630299D01*
X124681000Y-115525701D01*
X124660594Y-115423113D01*
X124620566Y-115326477D01*
X124562454Y-115239507D01*
X124488493Y-115165546D01*
X124401523Y-115107434D01*
X124304887Y-115067406D01*
X124202299Y-115047000D01*
X124097701Y-115047000D01*
X123995113Y-115067406D01*
X123898477Y-115107434D01*
X123811507Y-115165546D01*
X123737546Y-115239507D01*
X123679434Y-115326477D01*
X123639406Y-115423113D01*
X123619000Y-115525701D01*
X118507232Y-115525701D01*
X118517641Y-114078899D01*
X122678200Y-114078899D01*
X122678200Y-114183497D01*
X122698606Y-114286085D01*
X122738634Y-114382721D01*
X122796746Y-114469691D01*
X122870707Y-114543652D01*
X122957677Y-114601764D01*
X123054313Y-114641792D01*
X123156901Y-114662198D01*
X123261499Y-114662198D01*
X123364087Y-114641792D01*
X123460723Y-114601764D01*
X123547693Y-114543652D01*
X123621654Y-114469691D01*
X123679766Y-114382721D01*
X123719794Y-114286085D01*
X123740200Y-114183497D01*
X123740200Y-114078899D01*
X123719794Y-113976311D01*
X123679766Y-113879675D01*
X123621654Y-113792705D01*
X123547693Y-113718744D01*
X123460723Y-113660632D01*
X123364087Y-113620604D01*
X123261499Y-113600198D01*
X123156901Y-113600198D01*
X123054313Y-113620604D01*
X122957677Y-113660632D01*
X122870707Y-113718744D01*
X122796746Y-113792705D01*
X122738634Y-113879675D01*
X122698606Y-113976311D01*
X122678200Y-114078899D01*
X118517641Y-114078899D01*
X118521215Y-113582101D01*
X123657800Y-113582101D01*
X123657800Y-113686699D01*
X123678206Y-113789287D01*
X123718234Y-113885923D01*
X123776346Y-113972893D01*
X123850307Y-114046854D01*
X123889079Y-114072761D01*
X123886707Y-114074346D01*
X123812746Y-114148307D01*
X123754634Y-114235277D01*
X123714606Y-114331913D01*
X123694200Y-114434501D01*
X123694200Y-114539099D01*
X123714606Y-114641687D01*
X123754634Y-114738323D01*
X123812746Y-114825293D01*
X123886707Y-114899254D01*
X123973677Y-114957366D01*
X124070313Y-114997394D01*
X124172901Y-115017800D01*
X124277499Y-115017800D01*
X124380087Y-114997394D01*
X124427630Y-114977701D01*
X129927000Y-114977701D01*
X129927000Y-115082299D01*
X129947406Y-115184887D01*
X129987434Y-115281523D01*
X130045546Y-115368493D01*
X130119507Y-115442454D01*
X130191856Y-115490797D01*
X130162746Y-115519907D01*
X130104634Y-115606877D01*
X130064606Y-115703513D01*
X130044200Y-115806101D01*
X130044200Y-115910699D01*
X130064606Y-116013287D01*
X130104634Y-116109923D01*
X130162746Y-116196893D01*
X130236707Y-116270854D01*
X130323677Y-116328966D01*
X130420313Y-116368994D01*
X130522901Y-116389400D01*
X130627499Y-116389400D01*
X130730087Y-116368994D01*
X130826723Y-116328966D01*
X130913693Y-116270854D01*
X130987654Y-116196893D01*
X131045766Y-116109923D01*
X131085794Y-116013287D01*
X131106200Y-115910699D01*
X131106200Y-115806101D01*
X131085794Y-115703513D01*
X131045766Y-115606877D01*
X130987654Y-115519907D01*
X130975649Y-115507902D01*
X131574801Y-115507902D01*
X131574801Y-115612500D01*
X131595207Y-115715088D01*
X131635235Y-115811724D01*
X131693347Y-115898694D01*
X131767308Y-115972655D01*
X131854278Y-116030767D01*
X131950914Y-116070795D01*
X132053502Y-116091201D01*
X132158100Y-116091201D01*
X132260688Y-116070795D01*
X132357324Y-116030767D01*
X132444294Y-115972655D01*
X132518255Y-115898694D01*
X132576367Y-115811724D01*
X132616395Y-115715088D01*
X132636801Y-115612500D01*
X132636801Y-115507902D01*
X132616395Y-115405314D01*
X132576367Y-115308678D01*
X132518255Y-115221708D01*
X132444294Y-115147747D01*
X132357324Y-115089635D01*
X132260688Y-115049607D01*
X132158100Y-115029201D01*
X132053502Y-115029201D01*
X131950914Y-115049607D01*
X131854278Y-115089635D01*
X131767308Y-115147747D01*
X131693347Y-115221708D01*
X131635235Y-115308678D01*
X131595207Y-115405314D01*
X131574801Y-115507902D01*
X130975649Y-115507902D01*
X130913693Y-115445946D01*
X130841344Y-115397603D01*
X130870454Y-115368493D01*
X130928566Y-115281523D01*
X130968594Y-115184887D01*
X130989000Y-115082299D01*
X130989000Y-114977701D01*
X130968594Y-114875113D01*
X130928566Y-114778477D01*
X130870454Y-114691507D01*
X130796493Y-114617546D01*
X130709523Y-114559434D01*
X130612887Y-114519406D01*
X130510299Y-114499000D01*
X130405701Y-114499000D01*
X130303113Y-114519406D01*
X130206477Y-114559434D01*
X130119507Y-114617546D01*
X130045546Y-114691507D01*
X129987434Y-114778477D01*
X129947406Y-114875113D01*
X129927000Y-114977701D01*
X124427630Y-114977701D01*
X124476723Y-114957366D01*
X124563693Y-114899254D01*
X124637654Y-114825293D01*
X124695766Y-114738323D01*
X124735794Y-114641687D01*
X124756200Y-114539099D01*
X124756200Y-114434501D01*
X124735794Y-114331913D01*
X124695766Y-114235277D01*
X124637654Y-114148307D01*
X124563693Y-114074346D01*
X124524921Y-114048439D01*
X124527293Y-114046854D01*
X124596846Y-113977301D01*
X147976600Y-113977301D01*
X147976600Y-114081899D01*
X147997006Y-114184487D01*
X148037034Y-114281123D01*
X148095146Y-114368093D01*
X148169107Y-114442054D01*
X148256077Y-114500166D01*
X148352713Y-114540194D01*
X148455301Y-114560600D01*
X148559899Y-114560600D01*
X148662487Y-114540194D01*
X148759123Y-114500166D01*
X148846093Y-114442054D01*
X148920054Y-114368093D01*
X148978166Y-114281123D01*
X149018194Y-114184487D01*
X149038600Y-114081899D01*
X149038600Y-113977301D01*
X149018194Y-113874713D01*
X148978166Y-113778077D01*
X148920054Y-113691107D01*
X148846093Y-113617146D01*
X148759123Y-113559034D01*
X148662487Y-113519006D01*
X148559899Y-113498600D01*
X148455301Y-113498600D01*
X148352713Y-113519006D01*
X148256077Y-113559034D01*
X148169107Y-113617146D01*
X148095146Y-113691107D01*
X148037034Y-113778077D01*
X147997006Y-113874713D01*
X147976600Y-113977301D01*
X124596846Y-113977301D01*
X124601254Y-113972893D01*
X124659366Y-113885923D01*
X124699394Y-113789287D01*
X124719800Y-113686699D01*
X124719800Y-113582101D01*
X124699394Y-113479513D01*
X124659366Y-113382877D01*
X124615282Y-113316901D01*
X128266200Y-113316901D01*
X128266200Y-113421499D01*
X128286606Y-113524087D01*
X128326634Y-113620723D01*
X128384746Y-113707693D01*
X128458707Y-113781654D01*
X128545677Y-113839766D01*
X128642313Y-113879794D01*
X128744901Y-113900200D01*
X128849499Y-113900200D01*
X128952087Y-113879794D01*
X129048723Y-113839766D01*
X129135693Y-113781654D01*
X129209654Y-113707693D01*
X129267766Y-113620723D01*
X129307794Y-113524087D01*
X129328200Y-113421499D01*
X129328200Y-113316901D01*
X129307794Y-113214313D01*
X129267766Y-113117677D01*
X129209654Y-113030707D01*
X129135693Y-112956746D01*
X129048723Y-112898634D01*
X128954731Y-112859701D01*
X131415800Y-112859701D01*
X131415800Y-112964299D01*
X131436206Y-113066887D01*
X131476234Y-113163523D01*
X131534346Y-113250493D01*
X131608307Y-113324454D01*
X131695277Y-113382566D01*
X131791913Y-113422594D01*
X131894501Y-113443000D01*
X131999099Y-113443000D01*
X132101687Y-113422594D01*
X132198323Y-113382566D01*
X132220569Y-113367701D01*
X133092200Y-113367701D01*
X133092200Y-113472299D01*
X133112606Y-113574887D01*
X133152634Y-113671523D01*
X133210746Y-113758493D01*
X133284707Y-113832454D01*
X133371677Y-113890566D01*
X133468313Y-113930594D01*
X133570901Y-113951000D01*
X133675499Y-113951000D01*
X133778087Y-113930594D01*
X133874723Y-113890566D01*
X133961693Y-113832454D01*
X134035654Y-113758493D01*
X134093766Y-113671523D01*
X134133794Y-113574887D01*
X134154200Y-113472299D01*
X134154200Y-113367701D01*
X134133794Y-113265113D01*
X134093766Y-113168477D01*
X134035654Y-113081507D01*
X133961693Y-113007546D01*
X133892484Y-112961301D01*
X150618200Y-112961301D01*
X150618200Y-113065899D01*
X150638606Y-113168487D01*
X150678634Y-113265123D01*
X150736746Y-113352093D01*
X150810707Y-113426054D01*
X150897677Y-113484166D01*
X150994313Y-113524194D01*
X151096901Y-113544600D01*
X151201499Y-113544600D01*
X151304087Y-113524194D01*
X151400723Y-113484166D01*
X151487693Y-113426054D01*
X151561654Y-113352093D01*
X151619766Y-113265123D01*
X151659794Y-113168487D01*
X151680200Y-113065899D01*
X151680200Y-112961301D01*
X151674850Y-112934400D01*
X156310460Y-112934400D01*
X156310460Y-115534400D01*
X156315808Y-115588701D01*
X156331647Y-115640916D01*
X156357369Y-115689037D01*
X156391984Y-115731216D01*
X156434163Y-115765831D01*
X156482284Y-115791553D01*
X156534499Y-115807392D01*
X156588800Y-115812740D01*
X159188800Y-115812740D01*
X159243101Y-115807392D01*
X159295316Y-115791553D01*
X159343437Y-115765831D01*
X159385616Y-115731216D01*
X159420231Y-115689037D01*
X159445953Y-115640916D01*
X159461792Y-115588701D01*
X159467140Y-115534400D01*
X159467140Y-114079079D01*
X161311800Y-114079079D01*
X161311800Y-114389721D01*
X161372404Y-114694394D01*
X161491281Y-114981389D01*
X161663864Y-115239679D01*
X161883521Y-115459336D01*
X162141811Y-115631919D01*
X162428806Y-115750796D01*
X162733479Y-115811400D01*
X163044121Y-115811400D01*
X163348794Y-115750796D01*
X163635789Y-115631919D01*
X163894079Y-115459336D01*
X164113736Y-115239679D01*
X164286319Y-114981389D01*
X164405196Y-114694394D01*
X164465800Y-114389721D01*
X164465800Y-114079079D01*
X164405196Y-113774406D01*
X164286319Y-113487411D01*
X164113736Y-113229121D01*
X163894079Y-113009464D01*
X163635789Y-112836881D01*
X163348794Y-112718004D01*
X163044121Y-112657400D01*
X162733479Y-112657400D01*
X162428806Y-112718004D01*
X162141811Y-112836881D01*
X161883521Y-113009464D01*
X161663864Y-113229121D01*
X161491281Y-113487411D01*
X161372404Y-113774406D01*
X161311800Y-114079079D01*
X159467140Y-114079079D01*
X159467140Y-112934400D01*
X159461792Y-112880099D01*
X159445953Y-112827884D01*
X159420231Y-112779763D01*
X159385616Y-112737584D01*
X159343437Y-112702969D01*
X159295316Y-112677247D01*
X159243101Y-112661408D01*
X159188800Y-112656060D01*
X156588800Y-112656060D01*
X156534499Y-112661408D01*
X156482284Y-112677247D01*
X156434163Y-112702969D01*
X156391984Y-112737584D01*
X156357369Y-112779763D01*
X156331647Y-112827884D01*
X156315808Y-112880099D01*
X156310460Y-112934400D01*
X151674850Y-112934400D01*
X151659794Y-112858713D01*
X151619766Y-112762077D01*
X151561654Y-112675107D01*
X151487693Y-112601146D01*
X151400723Y-112543034D01*
X151304087Y-112503006D01*
X151201499Y-112482600D01*
X151096901Y-112482600D01*
X150994313Y-112503006D01*
X150897677Y-112543034D01*
X150810707Y-112601146D01*
X150736746Y-112675107D01*
X150678634Y-112762077D01*
X150638606Y-112858713D01*
X150618200Y-112961301D01*
X133892484Y-112961301D01*
X133874723Y-112949434D01*
X133778087Y-112909406D01*
X133675499Y-112889000D01*
X133570901Y-112889000D01*
X133468313Y-112909406D01*
X133371677Y-112949434D01*
X133284707Y-113007546D01*
X133210746Y-113081507D01*
X133152634Y-113168477D01*
X133112606Y-113265113D01*
X133092200Y-113367701D01*
X132220569Y-113367701D01*
X132285293Y-113324454D01*
X132359254Y-113250493D01*
X132417366Y-113163523D01*
X132457394Y-113066887D01*
X132477800Y-112964299D01*
X132477800Y-112859701D01*
X132457394Y-112757113D01*
X132417366Y-112660477D01*
X132359254Y-112573507D01*
X132285293Y-112499546D01*
X132198323Y-112441434D01*
X132101687Y-112401406D01*
X131999099Y-112381000D01*
X131894501Y-112381000D01*
X131791913Y-112401406D01*
X131695277Y-112441434D01*
X131608307Y-112499546D01*
X131534346Y-112573507D01*
X131476234Y-112660477D01*
X131436206Y-112757113D01*
X131415800Y-112859701D01*
X128954731Y-112859701D01*
X128952087Y-112858606D01*
X128849499Y-112838200D01*
X128744901Y-112838200D01*
X128642313Y-112858606D01*
X128545677Y-112898634D01*
X128458707Y-112956746D01*
X128384746Y-113030707D01*
X128326634Y-113117677D01*
X128286606Y-113214313D01*
X128266200Y-113316901D01*
X124615282Y-113316901D01*
X124601254Y-113295907D01*
X124527293Y-113221946D01*
X124440323Y-113163834D01*
X124343687Y-113123806D01*
X124241099Y-113103400D01*
X124136501Y-113103400D01*
X124033913Y-113123806D01*
X123937277Y-113163834D01*
X123850307Y-113221946D01*
X123776346Y-113295907D01*
X123718234Y-113382877D01*
X123678206Y-113479513D01*
X123657800Y-113582101D01*
X118521215Y-113582101D01*
X118531894Y-112097701D01*
X123237000Y-112097701D01*
X123237000Y-112202299D01*
X123257406Y-112304887D01*
X123297434Y-112401523D01*
X123355546Y-112488493D01*
X123429507Y-112562454D01*
X123516477Y-112620566D01*
X123613113Y-112660594D01*
X123715701Y-112681000D01*
X123820299Y-112681000D01*
X123922887Y-112660594D01*
X124019523Y-112620566D01*
X124106493Y-112562454D01*
X124180454Y-112488493D01*
X124238566Y-112401523D01*
X124278594Y-112304887D01*
X124289491Y-112250101D01*
X153513800Y-112250101D01*
X153513800Y-112354699D01*
X153534206Y-112457287D01*
X153574234Y-112553923D01*
X153632346Y-112640893D01*
X153706307Y-112714854D01*
X153793277Y-112772966D01*
X153889913Y-112812994D01*
X153992501Y-112833400D01*
X154097099Y-112833400D01*
X154199687Y-112812994D01*
X154296323Y-112772966D01*
X154383293Y-112714854D01*
X154457254Y-112640893D01*
X154515366Y-112553923D01*
X154555394Y-112457287D01*
X154575800Y-112354699D01*
X154575800Y-112250101D01*
X154555394Y-112147513D01*
X154515366Y-112050877D01*
X154457254Y-111963907D01*
X154383293Y-111889946D01*
X154296323Y-111831834D01*
X154199687Y-111791806D01*
X154097099Y-111771400D01*
X153992501Y-111771400D01*
X153889913Y-111791806D01*
X153793277Y-111831834D01*
X153706307Y-111889946D01*
X153632346Y-111963907D01*
X153574234Y-112050877D01*
X153534206Y-112147513D01*
X153513800Y-112250101D01*
X124289491Y-112250101D01*
X124299000Y-112202299D01*
X124299000Y-112097701D01*
X124278594Y-111995113D01*
X124238566Y-111898477D01*
X124180454Y-111811507D01*
X124106493Y-111737546D01*
X124019523Y-111679434D01*
X123922887Y-111639406D01*
X123820299Y-111619000D01*
X123715701Y-111619000D01*
X123613113Y-111639406D01*
X123516477Y-111679434D01*
X123429507Y-111737546D01*
X123355546Y-111811507D01*
X123297434Y-111898477D01*
X123257406Y-111995113D01*
X123237000Y-112097701D01*
X118531894Y-112097701D01*
X118535548Y-111589701D01*
X124761000Y-111589701D01*
X124761000Y-111694299D01*
X124781406Y-111796887D01*
X124821434Y-111893523D01*
X124879546Y-111980493D01*
X124953507Y-112054454D01*
X125040477Y-112112566D01*
X125137113Y-112152594D01*
X125239701Y-112173000D01*
X125344299Y-112173000D01*
X125446887Y-112152594D01*
X125543523Y-112112566D01*
X125630493Y-112054454D01*
X125704454Y-111980493D01*
X125762566Y-111893523D01*
X125802594Y-111796887D01*
X125823000Y-111694299D01*
X125823000Y-111589701D01*
X125802594Y-111487113D01*
X125762566Y-111390477D01*
X125704454Y-111303507D01*
X125630493Y-111229546D01*
X125543523Y-111171434D01*
X125449531Y-111132501D01*
X128063000Y-111132501D01*
X128063000Y-111237099D01*
X128083406Y-111339687D01*
X128123434Y-111436323D01*
X128181546Y-111523293D01*
X128255507Y-111597254D01*
X128342477Y-111655366D01*
X128439113Y-111695394D01*
X128541701Y-111715800D01*
X128646299Y-111715800D01*
X128748887Y-111695394D01*
X128845523Y-111655366D01*
X128932493Y-111597254D01*
X129006454Y-111523293D01*
X129064566Y-111436323D01*
X129085202Y-111386501D01*
X130450600Y-111386501D01*
X130450600Y-111491099D01*
X130471006Y-111593687D01*
X130511034Y-111690323D01*
X130569146Y-111777293D01*
X130643107Y-111851254D01*
X130730077Y-111909366D01*
X130826713Y-111949394D01*
X130929301Y-111969800D01*
X131033899Y-111969800D01*
X131136487Y-111949394D01*
X131233123Y-111909366D01*
X131320093Y-111851254D01*
X131394054Y-111777293D01*
X131431320Y-111721522D01*
X131436206Y-111746087D01*
X131476234Y-111842723D01*
X131534346Y-111929693D01*
X131608307Y-112003654D01*
X131695277Y-112061766D01*
X131791913Y-112101794D01*
X131894501Y-112122200D01*
X131999099Y-112122200D01*
X132101687Y-112101794D01*
X132198323Y-112061766D01*
X132285293Y-112003654D01*
X132359254Y-111929693D01*
X132417366Y-111842723D01*
X132457394Y-111746087D01*
X132477800Y-111643499D01*
X132477800Y-111538901D01*
X132457394Y-111436313D01*
X132417366Y-111339677D01*
X132359254Y-111252707D01*
X132285293Y-111178746D01*
X132198323Y-111120634D01*
X132101687Y-111080606D01*
X131999099Y-111060200D01*
X131894501Y-111060200D01*
X131791913Y-111080606D01*
X131695277Y-111120634D01*
X131608307Y-111178746D01*
X131534346Y-111252707D01*
X131497080Y-111308478D01*
X131492194Y-111283913D01*
X131452166Y-111187277D01*
X131394054Y-111100307D01*
X131320093Y-111026346D01*
X131233123Y-110968234D01*
X131136487Y-110928206D01*
X131033899Y-110907800D01*
X130929301Y-110907800D01*
X130826713Y-110928206D01*
X130730077Y-110968234D01*
X130643107Y-111026346D01*
X130569146Y-111100307D01*
X130511034Y-111187277D01*
X130471006Y-111283913D01*
X130450600Y-111386501D01*
X129085202Y-111386501D01*
X129104594Y-111339687D01*
X129125000Y-111237099D01*
X129125000Y-111132501D01*
X129104594Y-111029913D01*
X129064566Y-110933277D01*
X129006454Y-110846307D01*
X128932493Y-110772346D01*
X128845523Y-110714234D01*
X128748887Y-110674206D01*
X128646299Y-110653800D01*
X128541701Y-110653800D01*
X128439113Y-110674206D01*
X128342477Y-110714234D01*
X128255507Y-110772346D01*
X128181546Y-110846307D01*
X128123434Y-110933277D01*
X128083406Y-111029913D01*
X128063000Y-111132501D01*
X125449531Y-111132501D01*
X125446887Y-111131406D01*
X125344299Y-111111000D01*
X125239701Y-111111000D01*
X125137113Y-111131406D01*
X125040477Y-111171434D01*
X124953507Y-111229546D01*
X124879546Y-111303507D01*
X124821434Y-111390477D01*
X124781406Y-111487113D01*
X124761000Y-111589701D01*
X118535548Y-111589701D01*
X118546878Y-110014901D01*
X128063000Y-110014901D01*
X128063000Y-110119499D01*
X128083406Y-110222087D01*
X128123434Y-110318723D01*
X128181546Y-110405693D01*
X128255507Y-110479654D01*
X128342477Y-110537766D01*
X128439113Y-110577794D01*
X128541701Y-110598200D01*
X128646299Y-110598200D01*
X128748887Y-110577794D01*
X128845523Y-110537766D01*
X128932493Y-110479654D01*
X129006454Y-110405693D01*
X129064566Y-110318723D01*
X129104594Y-110222087D01*
X129125000Y-110119499D01*
X129125000Y-110014901D01*
X129104594Y-109912313D01*
X129064566Y-109815677D01*
X129006454Y-109728707D01*
X128932493Y-109654746D01*
X128845523Y-109596634D01*
X128748887Y-109556606D01*
X128646299Y-109536200D01*
X128541701Y-109536200D01*
X128439113Y-109556606D01*
X128342477Y-109596634D01*
X128255507Y-109654746D01*
X128181546Y-109728707D01*
X128123434Y-109815677D01*
X128083406Y-109912313D01*
X128063000Y-110014901D01*
X118546878Y-110014901D01*
X118556803Y-108635400D01*
X166837000Y-108635400D01*
X166837000Y-108857400D01*
X166880310Y-109075134D01*
X166965266Y-109280235D01*
X167088602Y-109464821D01*
X167245579Y-109621798D01*
X167430165Y-109745134D01*
X167635266Y-109830090D01*
X167853000Y-109873400D01*
X168075000Y-109873400D01*
X168292734Y-109830090D01*
X168497835Y-109745134D01*
X168682421Y-109621798D01*
X168839398Y-109464821D01*
X168962734Y-109280235D01*
X169047690Y-109075134D01*
X169091000Y-108857400D01*
X169091000Y-108635400D01*
X169047690Y-108417666D01*
X168962734Y-108212565D01*
X168839398Y-108027979D01*
X168707819Y-107896400D01*
X169375660Y-107896400D01*
X169375660Y-109596400D01*
X169381008Y-109650701D01*
X169396847Y-109702916D01*
X169422569Y-109751037D01*
X169457184Y-109793216D01*
X169499363Y-109827831D01*
X169547484Y-109853553D01*
X169599699Y-109869392D01*
X169654000Y-109874740D01*
X171354000Y-109874740D01*
X171408301Y-109869392D01*
X171460516Y-109853553D01*
X171508637Y-109827831D01*
X171550816Y-109793216D01*
X171585431Y-109751037D01*
X171611153Y-109702916D01*
X171626992Y-109650701D01*
X171632340Y-109596400D01*
X171632340Y-107896400D01*
X171626992Y-107842099D01*
X171611153Y-107789884D01*
X171585431Y-107741763D01*
X171550816Y-107699584D01*
X171508637Y-107664969D01*
X171460516Y-107639247D01*
X171408301Y-107623408D01*
X171354000Y-107618060D01*
X169654000Y-107618060D01*
X169599699Y-107623408D01*
X169547484Y-107639247D01*
X169499363Y-107664969D01*
X169457184Y-107699584D01*
X169422569Y-107741763D01*
X169396847Y-107789884D01*
X169381008Y-107842099D01*
X169375660Y-107896400D01*
X168707819Y-107896400D01*
X168682421Y-107871002D01*
X168497835Y-107747666D01*
X168292734Y-107662710D01*
X168075000Y-107619400D01*
X167853000Y-107619400D01*
X167635266Y-107662710D01*
X167430165Y-107747666D01*
X167245579Y-107871002D01*
X167088602Y-108027979D01*
X166965266Y-108212565D01*
X166880310Y-108417666D01*
X166837000Y-108635400D01*
X118556803Y-108635400D01*
X118565797Y-107385314D01*
X118563504Y-107360361D01*
X118556418Y-107336494D01*
X118544812Y-107314469D01*
X118529132Y-107295130D01*
X118509981Y-107279223D01*
X118488094Y-107267357D01*
X118464313Y-107259989D01*
X118439551Y-107257402D01*
X112266200Y-107220873D01*
X112266200Y-107043101D01*
X119503200Y-107043101D01*
X119503200Y-107147699D01*
X119523606Y-107250287D01*
X119563634Y-107346923D01*
X119621746Y-107433893D01*
X119695707Y-107507854D01*
X119782677Y-107565966D01*
X119879313Y-107605994D01*
X119981901Y-107626400D01*
X120086499Y-107626400D01*
X120189087Y-107605994D01*
X120285723Y-107565966D01*
X120372693Y-107507854D01*
X120446654Y-107433893D01*
X120504766Y-107346923D01*
X120544794Y-107250287D01*
X120565200Y-107147699D01*
X120565200Y-107043101D01*
X120544794Y-106940513D01*
X120504766Y-106843877D01*
X120446654Y-106756907D01*
X120372693Y-106682946D01*
X120285723Y-106624834D01*
X120189087Y-106584806D01*
X120086499Y-106564400D01*
X119981901Y-106564400D01*
X119879313Y-106584806D01*
X119782677Y-106624834D01*
X119695707Y-106682946D01*
X119621746Y-106756907D01*
X119563634Y-106843877D01*
X119523606Y-106940513D01*
X119503200Y-107043101D01*
X112266200Y-107043101D01*
X112266200Y-105519101D01*
X125777000Y-105519101D01*
X125777000Y-105623699D01*
X125797406Y-105726287D01*
X125837434Y-105822923D01*
X125895546Y-105909893D01*
X125969507Y-105983854D01*
X126056477Y-106041966D01*
X126153113Y-106081994D01*
X126255701Y-106102400D01*
X126360299Y-106102400D01*
X126462887Y-106081994D01*
X126559523Y-106041966D01*
X126646493Y-105983854D01*
X126720454Y-105909893D01*
X126778566Y-105822923D01*
X126818594Y-105726287D01*
X126839000Y-105623699D01*
X126839000Y-105519101D01*
X126818594Y-105416513D01*
X126778566Y-105319877D01*
X126720454Y-105232907D01*
X126712868Y-105225321D01*
X131117400Y-105225321D01*
X131117400Y-105358679D01*
X131143416Y-105489474D01*
X131194450Y-105612680D01*
X131268540Y-105723563D01*
X131362837Y-105817860D01*
X131473720Y-105891950D01*
X131596926Y-105942984D01*
X131727721Y-105969000D01*
X131861079Y-105969000D01*
X131991874Y-105942984D01*
X132115080Y-105891950D01*
X132225963Y-105817860D01*
X132320260Y-105723563D01*
X132394350Y-105612680D01*
X132445384Y-105489474D01*
X132471400Y-105358679D01*
X132471400Y-105225321D01*
X132445384Y-105094526D01*
X132394350Y-104971320D01*
X132320260Y-104860437D01*
X132225963Y-104766140D01*
X132115080Y-104692050D01*
X131991874Y-104641016D01*
X131861079Y-104615000D01*
X131727721Y-104615000D01*
X131596926Y-104641016D01*
X131473720Y-104692050D01*
X131362837Y-104766140D01*
X131268540Y-104860437D01*
X131194450Y-104971320D01*
X131143416Y-105094526D01*
X131117400Y-105225321D01*
X126712868Y-105225321D01*
X126646493Y-105158946D01*
X126559523Y-105100834D01*
X126462887Y-105060806D01*
X126360299Y-105040400D01*
X126255701Y-105040400D01*
X126153113Y-105060806D01*
X126056477Y-105100834D01*
X125969507Y-105158946D01*
X125895546Y-105232907D01*
X125837434Y-105319877D01*
X125797406Y-105416513D01*
X125777000Y-105519101D01*
X112266200Y-105519101D01*
X112266200Y-104579301D01*
X149551400Y-104579301D01*
X149551400Y-104683899D01*
X149571806Y-104786487D01*
X149611834Y-104883123D01*
X149669946Y-104970093D01*
X149743907Y-105044054D01*
X149830877Y-105102166D01*
X149927513Y-105142194D01*
X150030101Y-105162600D01*
X150134699Y-105162600D01*
X150237287Y-105142194D01*
X150333923Y-105102166D01*
X150420893Y-105044054D01*
X150494854Y-104970093D01*
X150552966Y-104883123D01*
X150592994Y-104786487D01*
X150613400Y-104683899D01*
X150613400Y-104579301D01*
X150592994Y-104476713D01*
X150552966Y-104380077D01*
X150494854Y-104293107D01*
X150420893Y-104219146D01*
X150351684Y-104172901D01*
X153818600Y-104172901D01*
X153818600Y-104277499D01*
X153839006Y-104380087D01*
X153879034Y-104476723D01*
X153937146Y-104563693D01*
X154011107Y-104637654D01*
X154098077Y-104695766D01*
X154194713Y-104735794D01*
X154297301Y-104756200D01*
X154401899Y-104756200D01*
X154504487Y-104735794D01*
X154601123Y-104695766D01*
X154688093Y-104637654D01*
X154762054Y-104563693D01*
X154820166Y-104476723D01*
X154860194Y-104380087D01*
X154880600Y-104277499D01*
X154880600Y-104172901D01*
X154860194Y-104070313D01*
X154820166Y-103973677D01*
X154762054Y-103886707D01*
X154688093Y-103812746D01*
X154601123Y-103754634D01*
X154504487Y-103714606D01*
X154401899Y-103694200D01*
X154297301Y-103694200D01*
X154194713Y-103714606D01*
X154098077Y-103754634D01*
X154011107Y-103812746D01*
X153937146Y-103886707D01*
X153879034Y-103973677D01*
X153839006Y-104070313D01*
X153818600Y-104172901D01*
X150351684Y-104172901D01*
X150333923Y-104161034D01*
X150237287Y-104121006D01*
X150134699Y-104100600D01*
X150030101Y-104100600D01*
X149927513Y-104121006D01*
X149830877Y-104161034D01*
X149743907Y-104219146D01*
X149669946Y-104293107D01*
X149611834Y-104380077D01*
X149571806Y-104476713D01*
X149551400Y-104579301D01*
X112266200Y-104579301D01*
X112266200Y-103309301D01*
X120697000Y-103309301D01*
X120697000Y-103413899D01*
X120717406Y-103516487D01*
X120757434Y-103613123D01*
X120815546Y-103700093D01*
X120889507Y-103774054D01*
X120976477Y-103832166D01*
X121073113Y-103872194D01*
X121175701Y-103892600D01*
X121280299Y-103892600D01*
X121382887Y-103872194D01*
X121479523Y-103832166D01*
X121566493Y-103774054D01*
X121640454Y-103700093D01*
X121698566Y-103613123D01*
X121732127Y-103532098D01*
X147007797Y-103532098D01*
X147007797Y-103636696D01*
X147028203Y-103739284D01*
X147068231Y-103835920D01*
X147126343Y-103922890D01*
X147200304Y-103996851D01*
X147287274Y-104054963D01*
X147383910Y-104094991D01*
X147486498Y-104115397D01*
X147591096Y-104115397D01*
X147693684Y-104094991D01*
X147790320Y-104054963D01*
X147877290Y-103996851D01*
X147951251Y-103922890D01*
X148009363Y-103835920D01*
X148049391Y-103739284D01*
X148069797Y-103636696D01*
X148069797Y-103532098D01*
X148049391Y-103429510D01*
X148009363Y-103332874D01*
X147951251Y-103245904D01*
X147877290Y-103171943D01*
X147790320Y-103113831D01*
X147693684Y-103073803D01*
X147591096Y-103053397D01*
X147486498Y-103053397D01*
X147383910Y-103073803D01*
X147287274Y-103113831D01*
X147200304Y-103171943D01*
X147126343Y-103245904D01*
X147068231Y-103332874D01*
X147028203Y-103429510D01*
X147007797Y-103532098D01*
X121732127Y-103532098D01*
X121738594Y-103516487D01*
X121759000Y-103413899D01*
X121759000Y-103309301D01*
X121738594Y-103206713D01*
X121698566Y-103110077D01*
X121640454Y-103023107D01*
X121566493Y-102949146D01*
X121479523Y-102891034D01*
X121382887Y-102851006D01*
X121280299Y-102830600D01*
X121175701Y-102830600D01*
X121073113Y-102851006D01*
X120976477Y-102891034D01*
X120889507Y-102949146D01*
X120815546Y-103023107D01*
X120757434Y-103110077D01*
X120717406Y-103206713D01*
X120697000Y-103309301D01*
X112266200Y-103309301D01*
X112266200Y-102199721D01*
X142141000Y-102199721D01*
X142141000Y-102333079D01*
X142167016Y-102463874D01*
X142218050Y-102587080D01*
X142292140Y-102697963D01*
X142386437Y-102792260D01*
X142497320Y-102866350D01*
X142620526Y-102917384D01*
X142751321Y-102943400D01*
X142884679Y-102943400D01*
X143015474Y-102917384D01*
X143138680Y-102866350D01*
X143249563Y-102792260D01*
X143343860Y-102697963D01*
X143354453Y-102682109D01*
X145957800Y-102682109D01*
X145957800Y-102786707D01*
X145978206Y-102889295D01*
X146018234Y-102985931D01*
X146076346Y-103072901D01*
X146150307Y-103146862D01*
X146237277Y-103204974D01*
X146333913Y-103245002D01*
X146436501Y-103265408D01*
X146541099Y-103265408D01*
X146643687Y-103245002D01*
X146740323Y-103204974D01*
X146827293Y-103146862D01*
X146901254Y-103072901D01*
X146959366Y-102985931D01*
X146999394Y-102889295D01*
X147019800Y-102786707D01*
X147019800Y-102682109D01*
X146999394Y-102579521D01*
X146959366Y-102482885D01*
X146901254Y-102395915D01*
X146827293Y-102321954D01*
X146740323Y-102263842D01*
X146643687Y-102223814D01*
X146541099Y-102203408D01*
X146436501Y-102203408D01*
X146333913Y-102223814D01*
X146237277Y-102263842D01*
X146150307Y-102321954D01*
X146076346Y-102395915D01*
X146018234Y-102482885D01*
X145978206Y-102579521D01*
X145957800Y-102682109D01*
X143354453Y-102682109D01*
X143417950Y-102587080D01*
X143468984Y-102463874D01*
X143495000Y-102333079D01*
X143495000Y-102199721D01*
X143468984Y-102068926D01*
X143417950Y-101945720D01*
X143343860Y-101834837D01*
X143249563Y-101740540D01*
X143138680Y-101666450D01*
X143015474Y-101615416D01*
X142884679Y-101589400D01*
X142751321Y-101589400D01*
X142620526Y-101615416D01*
X142497320Y-101666450D01*
X142386437Y-101740540D01*
X142292140Y-101834837D01*
X142218050Y-101945720D01*
X142167016Y-102068926D01*
X142141000Y-102199721D01*
X112266200Y-102199721D01*
X112266200Y-100582101D01*
X149057802Y-100582101D01*
X149057802Y-100686699D01*
X149078208Y-100789287D01*
X149118236Y-100885923D01*
X149176348Y-100972893D01*
X149250309Y-101046854D01*
X149306496Y-101084397D01*
X149250309Y-101121940D01*
X149176348Y-101195901D01*
X149118236Y-101282871D01*
X149078208Y-101379507D01*
X149057802Y-101482095D01*
X149057802Y-101586693D01*
X149078208Y-101689281D01*
X149118236Y-101785917D01*
X149176348Y-101872887D01*
X149250309Y-101946848D01*
X149306505Y-101984397D01*
X149250309Y-102021946D01*
X149176348Y-102095907D01*
X149118236Y-102182877D01*
X149078208Y-102279513D01*
X149057802Y-102382101D01*
X149057802Y-102486699D01*
X149078208Y-102589287D01*
X149118236Y-102685923D01*
X149176348Y-102772893D01*
X149250309Y-102846854D01*
X149337279Y-102904966D01*
X149433915Y-102944994D01*
X149536503Y-102965400D01*
X149641101Y-102965400D01*
X149743689Y-102944994D01*
X149840325Y-102904966D01*
X149927295Y-102846854D01*
X150001256Y-102772893D01*
X150059368Y-102685923D01*
X150099396Y-102589287D01*
X150119802Y-102486699D01*
X150119802Y-102382101D01*
X150099396Y-102279513D01*
X150059368Y-102182877D01*
X150001256Y-102095907D01*
X149927295Y-102021946D01*
X149871099Y-101984397D01*
X149927295Y-101946848D01*
X150001256Y-101872887D01*
X150059368Y-101785917D01*
X150099396Y-101689281D01*
X150119802Y-101586693D01*
X150119802Y-101482095D01*
X150099396Y-101379507D01*
X150059368Y-101282871D01*
X150001256Y-101195901D01*
X149927295Y-101121940D01*
X149871108Y-101084397D01*
X149927295Y-101046854D01*
X150001256Y-100972893D01*
X150059368Y-100885923D01*
X150099396Y-100789287D01*
X150119802Y-100686699D01*
X150119802Y-100582101D01*
X150099396Y-100479513D01*
X150072136Y-100413701D01*
X156104600Y-100413701D01*
X156104600Y-100518299D01*
X156125006Y-100620887D01*
X156165034Y-100717523D01*
X156223146Y-100804493D01*
X156297107Y-100878454D01*
X156384077Y-100936566D01*
X156480713Y-100976594D01*
X156583301Y-100997000D01*
X156687899Y-100997000D01*
X156790487Y-100976594D01*
X156887123Y-100936566D01*
X156974093Y-100878454D01*
X157048054Y-100804493D01*
X157106166Y-100717523D01*
X157146194Y-100620887D01*
X157166600Y-100518299D01*
X157166600Y-100413701D01*
X157146194Y-100311113D01*
X157106166Y-100214477D01*
X157048054Y-100127507D01*
X156974093Y-100053546D01*
X156887123Y-99995434D01*
X156790487Y-99955406D01*
X156687899Y-99935000D01*
X156583301Y-99935000D01*
X156480713Y-99955406D01*
X156384077Y-99995434D01*
X156297107Y-100053546D01*
X156223146Y-100127507D01*
X156165034Y-100214477D01*
X156125006Y-100311113D01*
X156104600Y-100413701D01*
X150072136Y-100413701D01*
X150059368Y-100382877D01*
X150001256Y-100295907D01*
X149927295Y-100221946D01*
X149840325Y-100163834D01*
X149743689Y-100123806D01*
X149641101Y-100103400D01*
X149536503Y-100103400D01*
X149433915Y-100123806D01*
X149337279Y-100163834D01*
X149250309Y-100221946D01*
X149176348Y-100295907D01*
X149118236Y-100382877D01*
X149078208Y-100479513D01*
X149057802Y-100582101D01*
X112266200Y-100582101D01*
X112266200Y-99499301D01*
X114550200Y-99499301D01*
X114550200Y-99603899D01*
X114570606Y-99706487D01*
X114610634Y-99803123D01*
X114668746Y-99890093D01*
X114742707Y-99964054D01*
X114829677Y-100022166D01*
X114926313Y-100062194D01*
X115028901Y-100082600D01*
X115133499Y-100082600D01*
X115236087Y-100062194D01*
X115332723Y-100022166D01*
X115419693Y-99964054D01*
X115493654Y-99890093D01*
X115551766Y-99803123D01*
X115591794Y-99706487D01*
X115612200Y-99603899D01*
X115612200Y-99499301D01*
X115591794Y-99396713D01*
X115565205Y-99332521D01*
X131117400Y-99332521D01*
X131117400Y-99465879D01*
X131143416Y-99596674D01*
X131194450Y-99719880D01*
X131268540Y-99830763D01*
X131362837Y-99925060D01*
X131473720Y-99999150D01*
X131596926Y-100050184D01*
X131727721Y-100076200D01*
X131861079Y-100076200D01*
X131991874Y-100050184D01*
X132115080Y-99999150D01*
X132225963Y-99925060D01*
X132320260Y-99830763D01*
X132394350Y-99719880D01*
X132445384Y-99596674D01*
X132471400Y-99465879D01*
X132471400Y-99332521D01*
X132445384Y-99201726D01*
X132394350Y-99078520D01*
X132320260Y-98967637D01*
X132225963Y-98873340D01*
X132115080Y-98799250D01*
X131991874Y-98748216D01*
X131861079Y-98722200D01*
X131727721Y-98722200D01*
X131596926Y-98748216D01*
X131473720Y-98799250D01*
X131362837Y-98873340D01*
X131268540Y-98967637D01*
X131194450Y-99078520D01*
X131143416Y-99201726D01*
X131117400Y-99332521D01*
X115565205Y-99332521D01*
X115551766Y-99300077D01*
X115493654Y-99213107D01*
X115419693Y-99139146D01*
X115332723Y-99081034D01*
X115236087Y-99041006D01*
X115133499Y-99020600D01*
X115028901Y-99020600D01*
X114926313Y-99041006D01*
X114829677Y-99081034D01*
X114742707Y-99139146D01*
X114668746Y-99213107D01*
X114610634Y-99300077D01*
X114570606Y-99396713D01*
X114550200Y-99499301D01*
X112266200Y-99499301D01*
X112266200Y-98483301D01*
X126031000Y-98483301D01*
X126031000Y-98587899D01*
X126051406Y-98690487D01*
X126091434Y-98787123D01*
X126149546Y-98874093D01*
X126223507Y-98948054D01*
X126310477Y-99006166D01*
X126407113Y-99046194D01*
X126509701Y-99066600D01*
X126614299Y-99066600D01*
X126716887Y-99046194D01*
X126813523Y-99006166D01*
X126900493Y-98948054D01*
X126974454Y-98874093D01*
X127032566Y-98787123D01*
X127072594Y-98690487D01*
X127074262Y-98682101D01*
X155557800Y-98682101D01*
X155557800Y-98786699D01*
X155578206Y-98889287D01*
X155618234Y-98985923D01*
X155676346Y-99072893D01*
X155750307Y-99146854D01*
X155837277Y-99204966D01*
X155933913Y-99244994D01*
X156036501Y-99265400D01*
X156141099Y-99265400D01*
X156243687Y-99244994D01*
X156340323Y-99204966D01*
X156427293Y-99146854D01*
X156501254Y-99072893D01*
X156559366Y-98985923D01*
X156599394Y-98889287D01*
X156619800Y-98786699D01*
X156619800Y-98682101D01*
X156599394Y-98579513D01*
X156559366Y-98482877D01*
X156501254Y-98395907D01*
X156427293Y-98321946D01*
X156340323Y-98263834D01*
X156243687Y-98223806D01*
X156141099Y-98203400D01*
X156036501Y-98203400D01*
X155933913Y-98223806D01*
X155837277Y-98263834D01*
X155750307Y-98321946D01*
X155676346Y-98395907D01*
X155618234Y-98482877D01*
X155578206Y-98579513D01*
X155557800Y-98682101D01*
X127074262Y-98682101D01*
X127093000Y-98587899D01*
X127093000Y-98483301D01*
X127072594Y-98380713D01*
X127032566Y-98284077D01*
X126974454Y-98197107D01*
X126900493Y-98123146D01*
X126813523Y-98065034D01*
X126716887Y-98025006D01*
X126614299Y-98004600D01*
X126509701Y-98004600D01*
X126407113Y-98025006D01*
X126310477Y-98065034D01*
X126223507Y-98123146D01*
X126149546Y-98197107D01*
X126091434Y-98284077D01*
X126051406Y-98380713D01*
X126031000Y-98483301D01*
X112266200Y-98483301D01*
X112266200Y-97314901D01*
X126132600Y-97314901D01*
X126132600Y-97419499D01*
X126153006Y-97522087D01*
X126193034Y-97618723D01*
X126251146Y-97705693D01*
X126325107Y-97779654D01*
X126412077Y-97837766D01*
X126508713Y-97877794D01*
X126611301Y-97898200D01*
X126715899Y-97898200D01*
X126818487Y-97877794D01*
X126915123Y-97837766D01*
X127002093Y-97779654D01*
X127076054Y-97705693D01*
X127134166Y-97618723D01*
X127174194Y-97522087D01*
X127194600Y-97419499D01*
X127194600Y-97314901D01*
X127174194Y-97212313D01*
X127134166Y-97115677D01*
X127131510Y-97111701D01*
X132355700Y-97111701D01*
X132355700Y-97216299D01*
X132376106Y-97318887D01*
X132416134Y-97415523D01*
X132474246Y-97502493D01*
X132548207Y-97576454D01*
X132635177Y-97634566D01*
X132731813Y-97674594D01*
X132834401Y-97695000D01*
X132938999Y-97695000D01*
X132959611Y-97690900D01*
X150750201Y-97690900D01*
X150750201Y-97795498D01*
X150770607Y-97898086D01*
X150810635Y-97994722D01*
X150868747Y-98081692D01*
X150942708Y-98155653D01*
X151029678Y-98213765D01*
X151126314Y-98253793D01*
X151228902Y-98274199D01*
X151333500Y-98274199D01*
X151436088Y-98253793D01*
X151532724Y-98213765D01*
X151619694Y-98155653D01*
X151693655Y-98081692D01*
X151751767Y-97994722D01*
X151791795Y-97898086D01*
X151812201Y-97795498D01*
X151812201Y-97690900D01*
X151791795Y-97588312D01*
X151751767Y-97491676D01*
X151693655Y-97404706D01*
X151619694Y-97330745D01*
X151532724Y-97272633D01*
X151436088Y-97232605D01*
X151333500Y-97212199D01*
X151228902Y-97212199D01*
X151126314Y-97232605D01*
X151029678Y-97272633D01*
X150942708Y-97330745D01*
X150868747Y-97404706D01*
X150810635Y-97491676D01*
X150770607Y-97588312D01*
X150750201Y-97690900D01*
X132959611Y-97690900D01*
X133041587Y-97674594D01*
X133138223Y-97634566D01*
X133225193Y-97576454D01*
X133299154Y-97502493D01*
X133357266Y-97415523D01*
X133397294Y-97318887D01*
X133417700Y-97216299D01*
X133417700Y-97111701D01*
X133397294Y-97009113D01*
X133357266Y-96912477D01*
X133299154Y-96825507D01*
X133225193Y-96751546D01*
X133138223Y-96693434D01*
X133041587Y-96653406D01*
X132938999Y-96633000D01*
X132834401Y-96633000D01*
X132731813Y-96653406D01*
X132635177Y-96693434D01*
X132548207Y-96751546D01*
X132474246Y-96825507D01*
X132416134Y-96912477D01*
X132376106Y-97009113D01*
X132355700Y-97111701D01*
X127131510Y-97111701D01*
X127076054Y-97028707D01*
X127002093Y-96954746D01*
X126915123Y-96896634D01*
X126818487Y-96856606D01*
X126715899Y-96836200D01*
X126611301Y-96836200D01*
X126508713Y-96856606D01*
X126412077Y-96896634D01*
X126325107Y-96954746D01*
X126251146Y-97028707D01*
X126193034Y-97115677D01*
X126153006Y-97212313D01*
X126132600Y-97314901D01*
X112266200Y-97314901D01*
X112266200Y-96552901D01*
X115769400Y-96552901D01*
X115769400Y-96657499D01*
X115789806Y-96760087D01*
X115829834Y-96856723D01*
X115887946Y-96943693D01*
X115961907Y-97017654D01*
X116048877Y-97075766D01*
X116145513Y-97115794D01*
X116248101Y-97136200D01*
X116352699Y-97136200D01*
X116455287Y-97115794D01*
X116551923Y-97075766D01*
X116638893Y-97017654D01*
X116712854Y-96943693D01*
X116770966Y-96856723D01*
X116810994Y-96760087D01*
X116831400Y-96657499D01*
X116831400Y-96552901D01*
X116988600Y-96552901D01*
X116988600Y-96657499D01*
X117009006Y-96760087D01*
X117049034Y-96856723D01*
X117107146Y-96943693D01*
X117181107Y-97017654D01*
X117268077Y-97075766D01*
X117364713Y-97115794D01*
X117467301Y-97136200D01*
X117571899Y-97136200D01*
X117674487Y-97115794D01*
X117771123Y-97075766D01*
X117858093Y-97017654D01*
X117932054Y-96943693D01*
X117990166Y-96856723D01*
X118030194Y-96760087D01*
X118050600Y-96657499D01*
X118050600Y-96552901D01*
X118030194Y-96450313D01*
X117990166Y-96353677D01*
X117932054Y-96266707D01*
X117858093Y-96192746D01*
X117771123Y-96134634D01*
X117674487Y-96094606D01*
X117571899Y-96074200D01*
X117467301Y-96074200D01*
X117364713Y-96094606D01*
X117268077Y-96134634D01*
X117181107Y-96192746D01*
X117107146Y-96266707D01*
X117049034Y-96353677D01*
X117009006Y-96450313D01*
X116988600Y-96552901D01*
X116831400Y-96552901D01*
X116810994Y-96450313D01*
X116770966Y-96353677D01*
X116712854Y-96266707D01*
X116638893Y-96192746D01*
X116551923Y-96134634D01*
X116455287Y-96094606D01*
X116352699Y-96074200D01*
X116248101Y-96074200D01*
X116145513Y-96094606D01*
X116048877Y-96134634D01*
X115961907Y-96192746D01*
X115887946Y-96266707D01*
X115829834Y-96353677D01*
X115789806Y-96450313D01*
X115769400Y-96552901D01*
X112266200Y-96552901D01*
X112266200Y-95994101D01*
X129028200Y-95994101D01*
X129028200Y-96098699D01*
X129048606Y-96201287D01*
X129088634Y-96297923D01*
X129146746Y-96384893D01*
X129220707Y-96458854D01*
X129307677Y-96516966D01*
X129404313Y-96556994D01*
X129506901Y-96577400D01*
X129611499Y-96577400D01*
X129714087Y-96556994D01*
X129810723Y-96516966D01*
X129897693Y-96458854D01*
X129971654Y-96384893D01*
X130029766Y-96297923D01*
X130069794Y-96201287D01*
X130090200Y-96098699D01*
X130090200Y-96095701D01*
X154550199Y-96095701D01*
X154550199Y-96200299D01*
X154570605Y-96302887D01*
X154610633Y-96399523D01*
X154668745Y-96486493D01*
X154742706Y-96560454D01*
X154829676Y-96618566D01*
X154926312Y-96658594D01*
X155028900Y-96679000D01*
X155133498Y-96679000D01*
X155236086Y-96658594D01*
X155332722Y-96618566D01*
X155419692Y-96560454D01*
X155493653Y-96486493D01*
X155551765Y-96399523D01*
X155591793Y-96302887D01*
X155612199Y-96200299D01*
X155612199Y-96095701D01*
X155591793Y-95993113D01*
X155551765Y-95896477D01*
X155493653Y-95809507D01*
X155419692Y-95735546D01*
X155332722Y-95677434D01*
X155236086Y-95637406D01*
X155133498Y-95617000D01*
X155028900Y-95617000D01*
X154926312Y-95637406D01*
X154829676Y-95677434D01*
X154742706Y-95735546D01*
X154668745Y-95809507D01*
X154610633Y-95896477D01*
X154570605Y-95993113D01*
X154550199Y-96095701D01*
X130090200Y-96095701D01*
X130090200Y-95994101D01*
X130069794Y-95891513D01*
X130029766Y-95794877D01*
X129971654Y-95707907D01*
X129897693Y-95633946D01*
X129810723Y-95575834D01*
X129714087Y-95535806D01*
X129611499Y-95515400D01*
X129506901Y-95515400D01*
X129404313Y-95535806D01*
X129307677Y-95575834D01*
X129220707Y-95633946D01*
X129146746Y-95707907D01*
X129088634Y-95794877D01*
X129048606Y-95891513D01*
X129028200Y-95994101D01*
X112266200Y-95994101D01*
X112266200Y-94622501D01*
X124710200Y-94622501D01*
X124710200Y-94727099D01*
X124730606Y-94829687D01*
X124770634Y-94926323D01*
X124828746Y-95013293D01*
X124902707Y-95087254D01*
X124989677Y-95145366D01*
X125086313Y-95185394D01*
X125188901Y-95205800D01*
X125293499Y-95205800D01*
X125396087Y-95185394D01*
X125492723Y-95145366D01*
X125579693Y-95087254D01*
X125653654Y-95013293D01*
X125711766Y-94926323D01*
X125751794Y-94829687D01*
X125772200Y-94727099D01*
X125772200Y-94622501D01*
X125751991Y-94520901D01*
X126081800Y-94520901D01*
X126081800Y-94625499D01*
X126102206Y-94728087D01*
X126142234Y-94824723D01*
X126200346Y-94911693D01*
X126274307Y-94985654D01*
X126361277Y-95043766D01*
X126457913Y-95083794D01*
X126560501Y-95104200D01*
X126665099Y-95104200D01*
X126767687Y-95083794D01*
X126864323Y-95043766D01*
X126951293Y-94985654D01*
X127025254Y-94911693D01*
X127083366Y-94824723D01*
X127123394Y-94728087D01*
X127143800Y-94625499D01*
X127143800Y-94520901D01*
X128926600Y-94520901D01*
X128926600Y-94625499D01*
X128947006Y-94728087D01*
X128987034Y-94824723D01*
X129045146Y-94911693D01*
X129119107Y-94985654D01*
X129206077Y-95043766D01*
X129302713Y-95083794D01*
X129405301Y-95104200D01*
X129509899Y-95104200D01*
X129612487Y-95083794D01*
X129709123Y-95043766D01*
X129796093Y-94985654D01*
X129820446Y-94961301D01*
X151278600Y-94961301D01*
X151278600Y-95065899D01*
X151299006Y-95168487D01*
X151339034Y-95265123D01*
X151397146Y-95352093D01*
X151471107Y-95426054D01*
X151558077Y-95484166D01*
X151654713Y-95524194D01*
X151757301Y-95544600D01*
X151861899Y-95544600D01*
X151964487Y-95524194D01*
X152061123Y-95484166D01*
X152148093Y-95426054D01*
X152222054Y-95352093D01*
X152280166Y-95265123D01*
X152320194Y-95168487D01*
X152340600Y-95065899D01*
X152340600Y-94961301D01*
X152320194Y-94858713D01*
X152280166Y-94762077D01*
X152222054Y-94675107D01*
X152148093Y-94601146D01*
X152061123Y-94543034D01*
X151964487Y-94503006D01*
X151861899Y-94482600D01*
X151757301Y-94482600D01*
X151654713Y-94503006D01*
X151558077Y-94543034D01*
X151471107Y-94601146D01*
X151397146Y-94675107D01*
X151339034Y-94762077D01*
X151299006Y-94858713D01*
X151278600Y-94961301D01*
X129820446Y-94961301D01*
X129870054Y-94911693D01*
X129928166Y-94824723D01*
X129968194Y-94728087D01*
X129988600Y-94625499D01*
X129988600Y-94520901D01*
X129968194Y-94418313D01*
X129928166Y-94321677D01*
X129870054Y-94234707D01*
X129796093Y-94160746D01*
X129709123Y-94102634D01*
X129612487Y-94062606D01*
X129509899Y-94042200D01*
X129405301Y-94042200D01*
X129302713Y-94062606D01*
X129206077Y-94102634D01*
X129119107Y-94160746D01*
X129045146Y-94234707D01*
X128987034Y-94321677D01*
X128947006Y-94418313D01*
X128926600Y-94520901D01*
X127143800Y-94520901D01*
X127123394Y-94418313D01*
X127083366Y-94321677D01*
X127025254Y-94234707D01*
X126951293Y-94160746D01*
X126864323Y-94102634D01*
X126767687Y-94062606D01*
X126665099Y-94042200D01*
X126560501Y-94042200D01*
X126457913Y-94062606D01*
X126361277Y-94102634D01*
X126274307Y-94160746D01*
X126200346Y-94234707D01*
X126142234Y-94321677D01*
X126102206Y-94418313D01*
X126081800Y-94520901D01*
X125751991Y-94520901D01*
X125751794Y-94519913D01*
X125711766Y-94423277D01*
X125653654Y-94336307D01*
X125579693Y-94262346D01*
X125492723Y-94204234D01*
X125396087Y-94164206D01*
X125293499Y-94143800D01*
X125188901Y-94143800D01*
X125086313Y-94164206D01*
X124989677Y-94204234D01*
X124902707Y-94262346D01*
X124828746Y-94336307D01*
X124770634Y-94423277D01*
X124730606Y-94519913D01*
X124710200Y-94622501D01*
X112266200Y-94622501D01*
X112266200Y-92819101D01*
X126056400Y-92819101D01*
X126056400Y-92923699D01*
X126076806Y-93026287D01*
X126116834Y-93122923D01*
X126174946Y-93209893D01*
X126248907Y-93283854D01*
X126335877Y-93341966D01*
X126432513Y-93381994D01*
X126535101Y-93402400D01*
X126639699Y-93402400D01*
X126742287Y-93381994D01*
X126838923Y-93341966D01*
X126925893Y-93283854D01*
X126999854Y-93209893D01*
X127057966Y-93122923D01*
X127097994Y-93026287D01*
X127118400Y-92923699D01*
X127118400Y-92819101D01*
X128545600Y-92819101D01*
X128545600Y-92923699D01*
X128566006Y-93026287D01*
X128606034Y-93122923D01*
X128664146Y-93209893D01*
X128738107Y-93283854D01*
X128825077Y-93341966D01*
X128921713Y-93381994D01*
X129024301Y-93402400D01*
X129128899Y-93402400D01*
X129231487Y-93381994D01*
X129328123Y-93341966D01*
X129415093Y-93283854D01*
X129489054Y-93209893D01*
X129547166Y-93122923D01*
X129587194Y-93026287D01*
X129607600Y-92923699D01*
X129607600Y-92819101D01*
X129592443Y-92742901D01*
X140255000Y-92742901D01*
X140255000Y-92847499D01*
X140275406Y-92950087D01*
X140315434Y-93046723D01*
X140373546Y-93133693D01*
X140447507Y-93207654D01*
X140534477Y-93265766D01*
X140631113Y-93305794D01*
X140733701Y-93326200D01*
X140838299Y-93326200D01*
X140940887Y-93305794D01*
X141037523Y-93265766D01*
X141124493Y-93207654D01*
X141198454Y-93133693D01*
X141256566Y-93046723D01*
X141296594Y-92950087D01*
X141317000Y-92847499D01*
X141317000Y-92742901D01*
X144319000Y-92742901D01*
X144319000Y-92847499D01*
X144339406Y-92950087D01*
X144379434Y-93046723D01*
X144437546Y-93133693D01*
X144511507Y-93207654D01*
X144598477Y-93265766D01*
X144695113Y-93305794D01*
X144797701Y-93326200D01*
X144902299Y-93326200D01*
X145004887Y-93305794D01*
X145101523Y-93265766D01*
X145188493Y-93207654D01*
X145262454Y-93133693D01*
X145320566Y-93046723D01*
X145360594Y-92950087D01*
X145381000Y-92847499D01*
X145381000Y-92742901D01*
X145360594Y-92640313D01*
X145336482Y-92582101D01*
X155757800Y-92582101D01*
X155757800Y-92686699D01*
X155778206Y-92789287D01*
X155818234Y-92885923D01*
X155876346Y-92972893D01*
X155950307Y-93046854D01*
X156037277Y-93104966D01*
X156133913Y-93144994D01*
X156236501Y-93165400D01*
X156341099Y-93165400D01*
X156443687Y-93144994D01*
X156540323Y-93104966D01*
X156627293Y-93046854D01*
X156701254Y-92972893D01*
X156759366Y-92885923D01*
X156799394Y-92789287D01*
X156819800Y-92686699D01*
X156819800Y-92582101D01*
X156799394Y-92479513D01*
X156759366Y-92382877D01*
X156701254Y-92295907D01*
X156627293Y-92221946D01*
X156540323Y-92163834D01*
X156443687Y-92123806D01*
X156341099Y-92103400D01*
X156236501Y-92103400D01*
X156133913Y-92123806D01*
X156037277Y-92163834D01*
X155950307Y-92221946D01*
X155876346Y-92295907D01*
X155818234Y-92382877D01*
X155778206Y-92479513D01*
X155757800Y-92582101D01*
X145336482Y-92582101D01*
X145320566Y-92543677D01*
X145262454Y-92456707D01*
X145188493Y-92382746D01*
X145101523Y-92324634D01*
X145004887Y-92284606D01*
X144902299Y-92264200D01*
X144797701Y-92264200D01*
X144695113Y-92284606D01*
X144598477Y-92324634D01*
X144511507Y-92382746D01*
X144437546Y-92456707D01*
X144379434Y-92543677D01*
X144339406Y-92640313D01*
X144319000Y-92742901D01*
X141317000Y-92742901D01*
X141296594Y-92640313D01*
X141256566Y-92543677D01*
X141198454Y-92456707D01*
X141124493Y-92382746D01*
X141037523Y-92324634D01*
X140940887Y-92284606D01*
X140838299Y-92264200D01*
X140733701Y-92264200D01*
X140631113Y-92284606D01*
X140534477Y-92324634D01*
X140447507Y-92382746D01*
X140373546Y-92456707D01*
X140315434Y-92543677D01*
X140275406Y-92640313D01*
X140255000Y-92742901D01*
X129592443Y-92742901D01*
X129587194Y-92716513D01*
X129547166Y-92619877D01*
X129489054Y-92532907D01*
X129415093Y-92458946D01*
X129328123Y-92400834D01*
X129231487Y-92360806D01*
X129128899Y-92340400D01*
X129024301Y-92340400D01*
X128921713Y-92360806D01*
X128825077Y-92400834D01*
X128738107Y-92458946D01*
X128664146Y-92532907D01*
X128606034Y-92619877D01*
X128566006Y-92716513D01*
X128545600Y-92819101D01*
X127118400Y-92819101D01*
X127097994Y-92716513D01*
X127057966Y-92619877D01*
X126999854Y-92532907D01*
X126925893Y-92458946D01*
X126838923Y-92400834D01*
X126742287Y-92360806D01*
X126639699Y-92340400D01*
X126535101Y-92340400D01*
X126432513Y-92360806D01*
X126335877Y-92400834D01*
X126248907Y-92458946D01*
X126174946Y-92532907D01*
X126116834Y-92619877D01*
X126076806Y-92716513D01*
X126056400Y-92819101D01*
X112266200Y-92819101D01*
X112266200Y-91661721D01*
X163578600Y-91661721D01*
X163578600Y-91795079D01*
X163604616Y-91925874D01*
X163655650Y-92049080D01*
X163729740Y-92159963D01*
X163824037Y-92254260D01*
X163934920Y-92328350D01*
X164058126Y-92379384D01*
X164105465Y-92388800D01*
X164058126Y-92398216D01*
X163934920Y-92449250D01*
X163824037Y-92523340D01*
X163729740Y-92617637D01*
X163655650Y-92728520D01*
X163604616Y-92851726D01*
X163578600Y-92982521D01*
X163578600Y-93115879D01*
X163604616Y-93246674D01*
X163655650Y-93369880D01*
X163729740Y-93480763D01*
X163824037Y-93575060D01*
X163934920Y-93649150D01*
X164058126Y-93700184D01*
X164188921Y-93726200D01*
X164322279Y-93726200D01*
X164453074Y-93700184D01*
X164576280Y-93649150D01*
X164687163Y-93575060D01*
X164781460Y-93480763D01*
X164855550Y-93369880D01*
X164906584Y-93246674D01*
X164932600Y-93115879D01*
X164932600Y-92982521D01*
X164906584Y-92851726D01*
X164855550Y-92728520D01*
X164781460Y-92617637D01*
X164687163Y-92523340D01*
X164576280Y-92449250D01*
X164453074Y-92398216D01*
X164405735Y-92388800D01*
X164453074Y-92379384D01*
X164576280Y-92328350D01*
X164687163Y-92254260D01*
X164781460Y-92159963D01*
X164855550Y-92049080D01*
X164906584Y-91925874D01*
X164932600Y-91795079D01*
X164932600Y-91661721D01*
X164906584Y-91530926D01*
X164855550Y-91407720D01*
X164781460Y-91296837D01*
X164687163Y-91202540D01*
X164576280Y-91128450D01*
X164453074Y-91077416D01*
X164322279Y-91051400D01*
X164188921Y-91051400D01*
X164058126Y-91077416D01*
X163934920Y-91128450D01*
X163824037Y-91202540D01*
X163729740Y-91296837D01*
X163655650Y-91407720D01*
X163604616Y-91530926D01*
X163578600Y-91661721D01*
X112266200Y-91661721D01*
X112266200Y-90558501D01*
X128367800Y-90558501D01*
X128367800Y-90663099D01*
X128388206Y-90765687D01*
X128428234Y-90862323D01*
X128486346Y-90949293D01*
X128560307Y-91023254D01*
X128647277Y-91081366D01*
X128743913Y-91121394D01*
X128846501Y-91141800D01*
X128951099Y-91141800D01*
X129053687Y-91121394D01*
X129150323Y-91081366D01*
X129185526Y-91057844D01*
X129184600Y-91062501D01*
X129184600Y-91167099D01*
X129205006Y-91269687D01*
X129245034Y-91366323D01*
X129303146Y-91453293D01*
X129377107Y-91527254D01*
X129464077Y-91585366D01*
X129560713Y-91625394D01*
X129663301Y-91645800D01*
X129767899Y-91645800D01*
X129870487Y-91625394D01*
X129967123Y-91585366D01*
X130054093Y-91527254D01*
X130128054Y-91453293D01*
X130186166Y-91366323D01*
X130226194Y-91269687D01*
X130246600Y-91167099D01*
X130246600Y-91062501D01*
X130226194Y-90959913D01*
X130186166Y-90863277D01*
X130128054Y-90776307D01*
X130054093Y-90702346D01*
X129967123Y-90644234D01*
X129870487Y-90604206D01*
X129767899Y-90583800D01*
X129663301Y-90583800D01*
X129560713Y-90604206D01*
X129464077Y-90644234D01*
X129428874Y-90667756D01*
X129429800Y-90663099D01*
X129429800Y-90558501D01*
X129409394Y-90455913D01*
X129369366Y-90359277D01*
X129311254Y-90272307D01*
X129237293Y-90198346D01*
X129150323Y-90140234D01*
X129053687Y-90100206D01*
X128951099Y-90079800D01*
X128846501Y-90079800D01*
X128743913Y-90100206D01*
X128647277Y-90140234D01*
X128560307Y-90198346D01*
X128486346Y-90272307D01*
X128428234Y-90359277D01*
X128388206Y-90455913D01*
X128367800Y-90558501D01*
X112266200Y-90558501D01*
X112266200Y-89745701D01*
X125878600Y-89745701D01*
X125878600Y-89850299D01*
X125899006Y-89952887D01*
X125939034Y-90049523D01*
X125997146Y-90136493D01*
X126071107Y-90210454D01*
X126158077Y-90268566D01*
X126254713Y-90308594D01*
X126357301Y-90329000D01*
X126461899Y-90329000D01*
X126564487Y-90308594D01*
X126661123Y-90268566D01*
X126748093Y-90210454D01*
X126822054Y-90136493D01*
X126880166Y-90049523D01*
X126920194Y-89952887D01*
X126940600Y-89850299D01*
X126940600Y-89745701D01*
X126920194Y-89643113D01*
X126880166Y-89546477D01*
X126837151Y-89482101D01*
X150957800Y-89482101D01*
X150957800Y-89586699D01*
X150978206Y-89689287D01*
X151018234Y-89785923D01*
X151076346Y-89872893D01*
X151150307Y-89946854D01*
X151237277Y-90004966D01*
X151333913Y-90044994D01*
X151436501Y-90065400D01*
X151541099Y-90065400D01*
X151643687Y-90044994D01*
X151740323Y-90004966D01*
X151827293Y-89946854D01*
X151901254Y-89872893D01*
X151959366Y-89785923D01*
X151999394Y-89689287D01*
X152019800Y-89586699D01*
X152019800Y-89482101D01*
X151999394Y-89379513D01*
X151989691Y-89356089D01*
X152036501Y-89365400D01*
X152141099Y-89365400D01*
X152243687Y-89344994D01*
X152340323Y-89304966D01*
X152374542Y-89282101D01*
X152857800Y-89282101D01*
X152857800Y-89386699D01*
X152878206Y-89489287D01*
X152918234Y-89585923D01*
X152976346Y-89672893D01*
X153050307Y-89746854D01*
X153137277Y-89804966D01*
X153233913Y-89844994D01*
X153336501Y-89865400D01*
X153441099Y-89865400D01*
X153543687Y-89844994D01*
X153640323Y-89804966D01*
X153727293Y-89746854D01*
X153801254Y-89672893D01*
X153859366Y-89585923D01*
X153899394Y-89489287D01*
X153919800Y-89386699D01*
X153919800Y-89282101D01*
X153899394Y-89179513D01*
X153859366Y-89082877D01*
X153835183Y-89046685D01*
X153843687Y-89044994D01*
X153940323Y-89004966D01*
X154027293Y-88946854D01*
X154101254Y-88872893D01*
X154159366Y-88785923D01*
X154199394Y-88689287D01*
X154219800Y-88586699D01*
X154219800Y-88482101D01*
X154199394Y-88379513D01*
X154159366Y-88282877D01*
X154101254Y-88195907D01*
X154027293Y-88121946D01*
X153940323Y-88063834D01*
X153843687Y-88023806D01*
X153741099Y-88003400D01*
X153636501Y-88003400D01*
X153533913Y-88023806D01*
X153437277Y-88063834D01*
X153350307Y-88121946D01*
X153276346Y-88195907D01*
X153218234Y-88282877D01*
X153178206Y-88379513D01*
X153157800Y-88482101D01*
X153157800Y-88586699D01*
X153178206Y-88689287D01*
X153218234Y-88785923D01*
X153242417Y-88822115D01*
X153233913Y-88823806D01*
X153137277Y-88863834D01*
X153050307Y-88921946D01*
X152976346Y-88995907D01*
X152918234Y-89082877D01*
X152878206Y-89179513D01*
X152857800Y-89282101D01*
X152374542Y-89282101D01*
X152427293Y-89246854D01*
X152501254Y-89172893D01*
X152559366Y-89085923D01*
X152599394Y-88989287D01*
X152619800Y-88886699D01*
X152619800Y-88782101D01*
X152599394Y-88679513D01*
X152559366Y-88582877D01*
X152501254Y-88495907D01*
X152427293Y-88421946D01*
X152340323Y-88363834D01*
X152243687Y-88323806D01*
X152141099Y-88303400D01*
X152036501Y-88303400D01*
X151933913Y-88323806D01*
X151837277Y-88363834D01*
X151750307Y-88421946D01*
X151676346Y-88495907D01*
X151618234Y-88582877D01*
X151578206Y-88679513D01*
X151557800Y-88782101D01*
X151557800Y-88886699D01*
X151578206Y-88989287D01*
X151587909Y-89012711D01*
X151541099Y-89003400D01*
X151436501Y-89003400D01*
X151333913Y-89023806D01*
X151237277Y-89063834D01*
X151150307Y-89121946D01*
X151076346Y-89195907D01*
X151018234Y-89282877D01*
X150978206Y-89379513D01*
X150957800Y-89482101D01*
X126837151Y-89482101D01*
X126822054Y-89459507D01*
X126748093Y-89385546D01*
X126661123Y-89327434D01*
X126564487Y-89287406D01*
X126461899Y-89267000D01*
X126357301Y-89267000D01*
X126254713Y-89287406D01*
X126158077Y-89327434D01*
X126071107Y-89385546D01*
X125997146Y-89459507D01*
X125939034Y-89546477D01*
X125899006Y-89643113D01*
X125878600Y-89745701D01*
X112266200Y-89745701D01*
X112266200Y-88374101D01*
X115718600Y-88374101D01*
X115718600Y-88478699D01*
X115739006Y-88581287D01*
X115779034Y-88677923D01*
X115837146Y-88764893D01*
X115911107Y-88838854D01*
X115998077Y-88896966D01*
X116094713Y-88936994D01*
X116197301Y-88957400D01*
X116301899Y-88957400D01*
X116404487Y-88936994D01*
X116501123Y-88896966D01*
X116588093Y-88838854D01*
X116662054Y-88764893D01*
X116720166Y-88677923D01*
X116760194Y-88581287D01*
X116780600Y-88478699D01*
X116780600Y-88374101D01*
X117039400Y-88374101D01*
X117039400Y-88478699D01*
X117059806Y-88581287D01*
X117099834Y-88677923D01*
X117157946Y-88764893D01*
X117231907Y-88838854D01*
X117318877Y-88896966D01*
X117415513Y-88936994D01*
X117518101Y-88957400D01*
X117622699Y-88957400D01*
X117725287Y-88936994D01*
X117821923Y-88896966D01*
X117908893Y-88838854D01*
X117982854Y-88764893D01*
X118040966Y-88677923D01*
X118080994Y-88581287D01*
X118101400Y-88478699D01*
X118101400Y-88424901D01*
X123186200Y-88424901D01*
X123186200Y-88529499D01*
X123206606Y-88632087D01*
X123246634Y-88728723D01*
X123304746Y-88815693D01*
X123378707Y-88889654D01*
X123465677Y-88947766D01*
X123562313Y-88987794D01*
X123664901Y-89008200D01*
X123769499Y-89008200D01*
X123872087Y-88987794D01*
X123968723Y-88947766D01*
X124055693Y-88889654D01*
X124129654Y-88815693D01*
X124187766Y-88728723D01*
X124227794Y-88632087D01*
X124248200Y-88529499D01*
X124248200Y-88424901D01*
X124227991Y-88323301D01*
X131517400Y-88323301D01*
X131517400Y-88427899D01*
X131537806Y-88530487D01*
X131577834Y-88627123D01*
X131635946Y-88714093D01*
X131709907Y-88788054D01*
X131796877Y-88846166D01*
X131893513Y-88886194D01*
X131996101Y-88906600D01*
X132100699Y-88906600D01*
X132203287Y-88886194D01*
X132299923Y-88846166D01*
X132386893Y-88788054D01*
X132460854Y-88714093D01*
X132518966Y-88627123D01*
X132558994Y-88530487D01*
X132579400Y-88427899D01*
X132579400Y-88323301D01*
X132558994Y-88220713D01*
X132518966Y-88124077D01*
X132460854Y-88037107D01*
X132386893Y-87963146D01*
X132299923Y-87905034D01*
X132203287Y-87865006D01*
X132100699Y-87844600D01*
X131996101Y-87844600D01*
X131893513Y-87865006D01*
X131796877Y-87905034D01*
X131709907Y-87963146D01*
X131635946Y-88037107D01*
X131577834Y-88124077D01*
X131537806Y-88220713D01*
X131517400Y-88323301D01*
X124227991Y-88323301D01*
X124227794Y-88322313D01*
X124187766Y-88225677D01*
X124129654Y-88138707D01*
X124055693Y-88064746D01*
X123968723Y-88006634D01*
X123872087Y-87966606D01*
X123769499Y-87946200D01*
X123664901Y-87946200D01*
X123562313Y-87966606D01*
X123465677Y-88006634D01*
X123378707Y-88064746D01*
X123304746Y-88138707D01*
X123246634Y-88225677D01*
X123206606Y-88322313D01*
X123186200Y-88424901D01*
X118101400Y-88424901D01*
X118101400Y-88374101D01*
X118080994Y-88271513D01*
X118040966Y-88174877D01*
X117982854Y-88087907D01*
X117908893Y-88013946D01*
X117821923Y-87955834D01*
X117725287Y-87915806D01*
X117622699Y-87895400D01*
X117518101Y-87895400D01*
X117415513Y-87915806D01*
X117318877Y-87955834D01*
X117231907Y-88013946D01*
X117157946Y-88087907D01*
X117099834Y-88174877D01*
X117059806Y-88271513D01*
X117039400Y-88374101D01*
X116780600Y-88374101D01*
X116760194Y-88271513D01*
X116720166Y-88174877D01*
X116662054Y-88087907D01*
X116588093Y-88013946D01*
X116501123Y-87955834D01*
X116404487Y-87915806D01*
X116301899Y-87895400D01*
X116197301Y-87895400D01*
X116094713Y-87915806D01*
X115998077Y-87955834D01*
X115911107Y-88013946D01*
X115837146Y-88087907D01*
X115779034Y-88174877D01*
X115739006Y-88271513D01*
X115718600Y-88374101D01*
X112266200Y-88374101D01*
X112266200Y-87510501D01*
X132736600Y-87510501D01*
X132736600Y-87615099D01*
X132757006Y-87717687D01*
X132797034Y-87814323D01*
X132855146Y-87901293D01*
X132929107Y-87975254D01*
X133016077Y-88033366D01*
X133112713Y-88073394D01*
X133215301Y-88093800D01*
X133319899Y-88093800D01*
X133422487Y-88073394D01*
X133467084Y-88054921D01*
X145224600Y-88054921D01*
X145224600Y-88188279D01*
X145250616Y-88319074D01*
X145301650Y-88442280D01*
X145375740Y-88553163D01*
X145470037Y-88647460D01*
X145580920Y-88721550D01*
X145704126Y-88772584D01*
X145834921Y-88798600D01*
X145968279Y-88798600D01*
X146099074Y-88772584D01*
X146222280Y-88721550D01*
X146333163Y-88647460D01*
X146427460Y-88553163D01*
X146501550Y-88442280D01*
X146552584Y-88319074D01*
X146578600Y-88188279D01*
X146578600Y-88054921D01*
X146552584Y-87924126D01*
X146501550Y-87800920D01*
X146488976Y-87782101D01*
X152257800Y-87782101D01*
X152257800Y-87886699D01*
X152278206Y-87989287D01*
X152318234Y-88085923D01*
X152376346Y-88172893D01*
X152450307Y-88246854D01*
X152537277Y-88304966D01*
X152633913Y-88344994D01*
X152736501Y-88365400D01*
X152841099Y-88365400D01*
X152943687Y-88344994D01*
X153040323Y-88304966D01*
X153127293Y-88246854D01*
X153201254Y-88172893D01*
X153259366Y-88085923D01*
X153299394Y-87989287D01*
X153319800Y-87886699D01*
X153319800Y-87782101D01*
X154157800Y-87782101D01*
X154157800Y-87886699D01*
X154178206Y-87989287D01*
X154218234Y-88085923D01*
X154276346Y-88172893D01*
X154350307Y-88246854D01*
X154437277Y-88304966D01*
X154533913Y-88344994D01*
X154636501Y-88365400D01*
X154741099Y-88365400D01*
X154843687Y-88344994D01*
X154867111Y-88335291D01*
X154857800Y-88382101D01*
X154857800Y-88486699D01*
X154878206Y-88589287D01*
X154918234Y-88685923D01*
X154976346Y-88772893D01*
X155050307Y-88846854D01*
X155137277Y-88904966D01*
X155233913Y-88944994D01*
X155336501Y-88965400D01*
X155441099Y-88965400D01*
X155543687Y-88944994D01*
X155640323Y-88904966D01*
X155727293Y-88846854D01*
X155801254Y-88772893D01*
X155859366Y-88685923D01*
X155899394Y-88589287D01*
X155919800Y-88486699D01*
X155919800Y-88382101D01*
X155899394Y-88279513D01*
X155859366Y-88182877D01*
X155801254Y-88095907D01*
X155727293Y-88021946D01*
X155640323Y-87963834D01*
X155543687Y-87923806D01*
X155441099Y-87903400D01*
X155336501Y-87903400D01*
X155233913Y-87923806D01*
X155210489Y-87933509D01*
X155219800Y-87886699D01*
X155219800Y-87782101D01*
X155199394Y-87679513D01*
X155159366Y-87582877D01*
X155101254Y-87495907D01*
X155027293Y-87421946D01*
X154940323Y-87363834D01*
X154843687Y-87323806D01*
X154741099Y-87303400D01*
X154636501Y-87303400D01*
X154533913Y-87323806D01*
X154437277Y-87363834D01*
X154350307Y-87421946D01*
X154276346Y-87495907D01*
X154218234Y-87582877D01*
X154178206Y-87679513D01*
X154157800Y-87782101D01*
X153319800Y-87782101D01*
X153299394Y-87679513D01*
X153259366Y-87582877D01*
X153201254Y-87495907D01*
X153127293Y-87421946D01*
X153040323Y-87363834D01*
X152943687Y-87323806D01*
X152841099Y-87303400D01*
X152736501Y-87303400D01*
X152633913Y-87323806D01*
X152537277Y-87363834D01*
X152450307Y-87421946D01*
X152376346Y-87495907D01*
X152318234Y-87582877D01*
X152278206Y-87679513D01*
X152257800Y-87782101D01*
X146488976Y-87782101D01*
X146427460Y-87690037D01*
X146333163Y-87595740D01*
X146222280Y-87521650D01*
X146099074Y-87470616D01*
X145968279Y-87444600D01*
X145834921Y-87444600D01*
X145704126Y-87470616D01*
X145580920Y-87521650D01*
X145470037Y-87595740D01*
X145375740Y-87690037D01*
X145301650Y-87800920D01*
X145250616Y-87924126D01*
X145224600Y-88054921D01*
X133467084Y-88054921D01*
X133519123Y-88033366D01*
X133606093Y-87975254D01*
X133680054Y-87901293D01*
X133738166Y-87814323D01*
X133778194Y-87717687D01*
X133798600Y-87615099D01*
X133798600Y-87510501D01*
X133778194Y-87407913D01*
X133738166Y-87311277D01*
X133680054Y-87224307D01*
X133606093Y-87150346D01*
X133519123Y-87092234D01*
X133422487Y-87052206D01*
X133319899Y-87031800D01*
X133215301Y-87031800D01*
X133112713Y-87052206D01*
X133016077Y-87092234D01*
X132929107Y-87150346D01*
X132855146Y-87224307D01*
X132797034Y-87311277D01*
X132757006Y-87407913D01*
X132736600Y-87510501D01*
X112266200Y-87510501D01*
X112266200Y-86493072D01*
X112274301Y-86410443D01*
X112294935Y-86342101D01*
X123186200Y-86342101D01*
X123186200Y-86446699D01*
X123206606Y-86549287D01*
X123246634Y-86645923D01*
X123304746Y-86732893D01*
X123378707Y-86806854D01*
X123465677Y-86864966D01*
X123562313Y-86904994D01*
X123664901Y-86925400D01*
X123769499Y-86925400D01*
X123872087Y-86904994D01*
X123968723Y-86864966D01*
X124055693Y-86806854D01*
X124129654Y-86732893D01*
X124187766Y-86645923D01*
X124227794Y-86549287D01*
X124248200Y-86446699D01*
X124248200Y-86342101D01*
X124242074Y-86311301D01*
X131537400Y-86311301D01*
X131537400Y-86415899D01*
X131557806Y-86518487D01*
X131597834Y-86615123D01*
X131655946Y-86702093D01*
X131729907Y-86776054D01*
X131816877Y-86834166D01*
X131913513Y-86874194D01*
X132016101Y-86894600D01*
X132120699Y-86894600D01*
X132223287Y-86874194D01*
X132319923Y-86834166D01*
X132406893Y-86776054D01*
X132480854Y-86702093D01*
X132538966Y-86615123D01*
X132578994Y-86518487D01*
X132599400Y-86415899D01*
X132599400Y-86311301D01*
X132578994Y-86208713D01*
X132538966Y-86112077D01*
X132518937Y-86082101D01*
X147657800Y-86082101D01*
X147657800Y-86186699D01*
X147678206Y-86289287D01*
X147718234Y-86385923D01*
X147776346Y-86472893D01*
X147850307Y-86546854D01*
X147937277Y-86604966D01*
X148033913Y-86644994D01*
X148136501Y-86665400D01*
X148241099Y-86665400D01*
X148343687Y-86644994D01*
X148440323Y-86604966D01*
X148527293Y-86546854D01*
X148601254Y-86472893D01*
X148659366Y-86385923D01*
X148699394Y-86289287D01*
X148719800Y-86186699D01*
X148719800Y-86082101D01*
X148699394Y-85979513D01*
X148659366Y-85882877D01*
X148601254Y-85795907D01*
X148527293Y-85721946D01*
X148440323Y-85663834D01*
X148343687Y-85623806D01*
X148241099Y-85603400D01*
X148136501Y-85603400D01*
X148033913Y-85623806D01*
X147937277Y-85663834D01*
X147850307Y-85721946D01*
X147776346Y-85795907D01*
X147718234Y-85882877D01*
X147678206Y-85979513D01*
X147657800Y-86082101D01*
X132518937Y-86082101D01*
X132480854Y-86025107D01*
X132406893Y-85951146D01*
X132319923Y-85893034D01*
X132223287Y-85853006D01*
X132120699Y-85832600D01*
X132016101Y-85832600D01*
X131913513Y-85853006D01*
X131816877Y-85893034D01*
X131729907Y-85951146D01*
X131655946Y-86025107D01*
X131597834Y-86112077D01*
X131557806Y-86208713D01*
X131537400Y-86311301D01*
X124242074Y-86311301D01*
X124227794Y-86239513D01*
X124187766Y-86142877D01*
X124129654Y-86055907D01*
X124055693Y-85981946D01*
X123968723Y-85923834D01*
X123872087Y-85883806D01*
X123769499Y-85863400D01*
X123664901Y-85863400D01*
X123562313Y-85883806D01*
X123465677Y-85923834D01*
X123378707Y-85981946D01*
X123304746Y-86055907D01*
X123246634Y-86142877D01*
X123206606Y-86239513D01*
X123186200Y-86342101D01*
X112294935Y-86342101D01*
X112295780Y-86339303D01*
X112330669Y-86273687D01*
X112377636Y-86216100D01*
X112437158Y-86166859D01*
X112486332Y-86138145D01*
X112500405Y-86130179D01*
X112520243Y-86113080D01*
X113318467Y-85275301D01*
X130603000Y-85275301D01*
X130603000Y-85379899D01*
X130623406Y-85482487D01*
X130663434Y-85579123D01*
X130721546Y-85666093D01*
X130795507Y-85740054D01*
X130882477Y-85798166D01*
X130979113Y-85838194D01*
X131081701Y-85858600D01*
X131186299Y-85858600D01*
X131288887Y-85838194D01*
X131385523Y-85798166D01*
X131472493Y-85740054D01*
X131546454Y-85666093D01*
X131604566Y-85579123D01*
X131644594Y-85482487D01*
X131665000Y-85379899D01*
X131665000Y-85275301D01*
X131660139Y-85250860D01*
X149526559Y-85250860D01*
X149526559Y-85355458D01*
X149546965Y-85458046D01*
X149586993Y-85554682D01*
X149645105Y-85641652D01*
X149719066Y-85715613D01*
X149806036Y-85773725D01*
X149902672Y-85813753D01*
X150005260Y-85834159D01*
X150109858Y-85834159D01*
X150212446Y-85813753D01*
X150309082Y-85773725D01*
X150396052Y-85715613D01*
X150470013Y-85641652D01*
X150528125Y-85554682D01*
X150568153Y-85458046D01*
X150588559Y-85355458D01*
X150588559Y-85250860D01*
X150568153Y-85148272D01*
X150528125Y-85051636D01*
X150470013Y-84964666D01*
X150396052Y-84890705D01*
X150309082Y-84832593D01*
X150212446Y-84792565D01*
X150159840Y-84782101D01*
X153157800Y-84782101D01*
X153157800Y-84886699D01*
X153178206Y-84989287D01*
X153218234Y-85085923D01*
X153276346Y-85172893D01*
X153350307Y-85246854D01*
X153437277Y-85304966D01*
X153533913Y-85344994D01*
X153636501Y-85365400D01*
X153741099Y-85365400D01*
X153843687Y-85344994D01*
X153940323Y-85304966D01*
X154027293Y-85246854D01*
X154101254Y-85172893D01*
X154159366Y-85085923D01*
X154199394Y-84989287D01*
X154219800Y-84886699D01*
X154219800Y-84782101D01*
X154199394Y-84679513D01*
X154159366Y-84582877D01*
X154101254Y-84495907D01*
X154027293Y-84421946D01*
X153940323Y-84363834D01*
X153843687Y-84323806D01*
X153741099Y-84303400D01*
X153636501Y-84303400D01*
X153533913Y-84323806D01*
X153437277Y-84363834D01*
X153350307Y-84421946D01*
X153276346Y-84495907D01*
X153218234Y-84582877D01*
X153178206Y-84679513D01*
X153157800Y-84782101D01*
X150159840Y-84782101D01*
X150109858Y-84772159D01*
X150005260Y-84772159D01*
X149902672Y-84792565D01*
X149806036Y-84832593D01*
X149719066Y-84890705D01*
X149645105Y-84964666D01*
X149586993Y-85051636D01*
X149546965Y-85148272D01*
X149526559Y-85250860D01*
X131660139Y-85250860D01*
X131644594Y-85172713D01*
X131604566Y-85076077D01*
X131546454Y-84989107D01*
X131472493Y-84915146D01*
X131385523Y-84857034D01*
X131288887Y-84817006D01*
X131186299Y-84796600D01*
X131081701Y-84796600D01*
X130979113Y-84817006D01*
X130882477Y-84857034D01*
X130795507Y-84915146D01*
X130721546Y-84989107D01*
X130663434Y-85076077D01*
X130623406Y-85172713D01*
X130603000Y-85275301D01*
X113318467Y-85275301D01*
X113709747Y-84864632D01*
X113714846Y-84860447D01*
X113721756Y-84852027D01*
X113723245Y-84850465D01*
X113727301Y-84845272D01*
X113737016Y-84833435D01*
X113738036Y-84831527D01*
X113739366Y-84829824D01*
X113746258Y-84816144D01*
X113753489Y-84802616D01*
X113754117Y-84800545D01*
X113755089Y-84798616D01*
X113759179Y-84783860D01*
X113763633Y-84769176D01*
X113763845Y-84767023D01*
X113764422Y-84764941D01*
X113765553Y-84749679D01*
X113766200Y-84743112D01*
X113766200Y-84740953D01*
X113767005Y-84730092D01*
X113766200Y-84723544D01*
X113766200Y-83455000D01*
X113915980Y-83455000D01*
X113932025Y-83617904D01*
X113979542Y-83774548D01*
X114056706Y-83918912D01*
X114160552Y-84045448D01*
X114287088Y-84149294D01*
X114431452Y-84226458D01*
X114588096Y-84273975D01*
X114710185Y-84286000D01*
X115899815Y-84286000D01*
X116021904Y-84273975D01*
X116178548Y-84226458D01*
X116322912Y-84149294D01*
X116449448Y-84045448D01*
X116553294Y-83918912D01*
X116630458Y-83774548D01*
X116677975Y-83617904D01*
X116694020Y-83455000D01*
X117295980Y-83455000D01*
X117312025Y-83617904D01*
X117359542Y-83774548D01*
X117436706Y-83918912D01*
X117540552Y-84045448D01*
X117667088Y-84149294D01*
X117811452Y-84226458D01*
X117968096Y-84273975D01*
X118090185Y-84286000D01*
X119279815Y-84286000D01*
X119401904Y-84273975D01*
X119558548Y-84226458D01*
X119702912Y-84149294D01*
X119829448Y-84045448D01*
X119933294Y-83918912D01*
X120010458Y-83774548D01*
X120057975Y-83617904D01*
X120074020Y-83455000D01*
X120057975Y-83292096D01*
X120010458Y-83135452D01*
X119951403Y-83024968D01*
X120115126Y-82958187D01*
X120124323Y-82953270D01*
X120137931Y-82757536D01*
X119665000Y-82284605D01*
X119650858Y-82298748D01*
X119471253Y-82119143D01*
X119485395Y-82105000D01*
X119844605Y-82105000D01*
X120317536Y-82577931D01*
X120513270Y-82564323D01*
X120547849Y-82482101D01*
X146857800Y-82482101D01*
X146857800Y-82586699D01*
X146878206Y-82689287D01*
X146918234Y-82785923D01*
X146976346Y-82872893D01*
X147050307Y-82946854D01*
X147137277Y-83004966D01*
X147233913Y-83044994D01*
X147336501Y-83065400D01*
X147441099Y-83065400D01*
X147543687Y-83044994D01*
X147640323Y-83004966D01*
X147727293Y-82946854D01*
X147801254Y-82872893D01*
X147859366Y-82785923D01*
X147899394Y-82689287D01*
X147919800Y-82586699D01*
X147919800Y-82482101D01*
X147899394Y-82379513D01*
X147859366Y-82282877D01*
X147801254Y-82195907D01*
X147727293Y-82121946D01*
X147640323Y-82063834D01*
X147543687Y-82023806D01*
X147441099Y-82003400D01*
X147336501Y-82003400D01*
X147233913Y-82023806D01*
X147137277Y-82063834D01*
X147050307Y-82121946D01*
X146976346Y-82195907D01*
X146918234Y-82282877D01*
X146878206Y-82379513D01*
X146857800Y-82482101D01*
X120547849Y-82482101D01*
X120586581Y-82390008D01*
X120624475Y-82204740D01*
X120625497Y-82015639D01*
X120589608Y-81829972D01*
X120518187Y-81654874D01*
X120513270Y-81645677D01*
X120317536Y-81632069D01*
X119844605Y-82105000D01*
X119485395Y-82105000D01*
X119246615Y-81866220D01*
X119239608Y-81829972D01*
X119168187Y-81654874D01*
X119163270Y-81645677D01*
X119015821Y-81635426D01*
X119012464Y-81632069D01*
X118990000Y-81633631D01*
X118967536Y-81632069D01*
X118964179Y-81635426D01*
X118816730Y-81645677D01*
X118743419Y-81819992D01*
X118734113Y-81865492D01*
X118494605Y-82105000D01*
X118508748Y-82119143D01*
X118329143Y-82298748D01*
X118315000Y-82284605D01*
X117961614Y-82637991D01*
X117811452Y-82683542D01*
X117667088Y-82760706D01*
X117540552Y-82864552D01*
X117436706Y-82991088D01*
X117359542Y-83135452D01*
X117312025Y-83292096D01*
X117295980Y-83455000D01*
X116694020Y-83455000D01*
X116677975Y-83292096D01*
X116630458Y-83135452D01*
X116553294Y-82991088D01*
X116449448Y-82864552D01*
X116322912Y-82760706D01*
X116178548Y-82683542D01*
X116021904Y-82636025D01*
X115899815Y-82624000D01*
X114710185Y-82624000D01*
X114588096Y-82636025D01*
X114431452Y-82683542D01*
X114287088Y-82760706D01*
X114160552Y-82864552D01*
X114056706Y-82991088D01*
X113979542Y-83135452D01*
X113932025Y-83292096D01*
X113915980Y-83455000D01*
X113766200Y-83455000D01*
X113766200Y-82194361D01*
X117354503Y-82194361D01*
X117390392Y-82380028D01*
X117461813Y-82555126D01*
X117466730Y-82564323D01*
X117662464Y-82577931D01*
X118135395Y-82105000D01*
X117662464Y-81632069D01*
X117466730Y-81645677D01*
X117393419Y-81819992D01*
X117355525Y-82005260D01*
X117354503Y-82194361D01*
X113766200Y-82194361D01*
X113766200Y-76945708D01*
X117713000Y-76945708D01*
X117713000Y-77064292D01*
X117736134Y-77180597D01*
X117781514Y-77290154D01*
X117847396Y-77388753D01*
X117888643Y-77430000D01*
X117847396Y-77471247D01*
X117781514Y-77569846D01*
X117736134Y-77679403D01*
X117713000Y-77795708D01*
X117713000Y-77914292D01*
X117736134Y-78030597D01*
X117781514Y-78140154D01*
X117847396Y-78238753D01*
X117888643Y-78280000D01*
X117847396Y-78321247D01*
X117781514Y-78419846D01*
X117736134Y-78529403D01*
X117713000Y-78645708D01*
X117713000Y-78764292D01*
X117736134Y-78880597D01*
X117781514Y-78990154D01*
X117847396Y-79088753D01*
X117888643Y-79130000D01*
X117847396Y-79171247D01*
X117781514Y-79269846D01*
X117736134Y-79379403D01*
X117713000Y-79495708D01*
X117713000Y-79614292D01*
X117736134Y-79730597D01*
X117781514Y-79840154D01*
X117847396Y-79938753D01*
X117888643Y-79980000D01*
X117847396Y-80021247D01*
X117781514Y-80119846D01*
X117736134Y-80229403D01*
X117713000Y-80345708D01*
X117713000Y-80464292D01*
X117736134Y-80580597D01*
X117781514Y-80690154D01*
X117847396Y-80788753D01*
X117888643Y-80830000D01*
X117847396Y-80871247D01*
X117781514Y-80969846D01*
X117736134Y-81079403D01*
X117713000Y-81195708D01*
X117713000Y-81314292D01*
X117736134Y-81430597D01*
X117781514Y-81540154D01*
X117847396Y-81638753D01*
X117931247Y-81722604D01*
X118029846Y-81788486D01*
X118139403Y-81833866D01*
X118244345Y-81854740D01*
X118315000Y-81925395D01*
X118385655Y-81854740D01*
X118490597Y-81833866D01*
X118600154Y-81788486D01*
X118698753Y-81722604D01*
X118782604Y-81638753D01*
X118848486Y-81540154D01*
X118893866Y-81430597D01*
X118917000Y-81314292D01*
X118917000Y-81195708D01*
X118893866Y-81079403D01*
X118848486Y-80969846D01*
X118782604Y-80871247D01*
X118741357Y-80830000D01*
X118782604Y-80788753D01*
X118848486Y-80690154D01*
X118893866Y-80580597D01*
X118917000Y-80464292D01*
X118917000Y-80345708D01*
X118893866Y-80229403D01*
X118848486Y-80119846D01*
X118782604Y-80021247D01*
X118741357Y-79980000D01*
X118782604Y-79938753D01*
X118848486Y-79840154D01*
X118893866Y-79730597D01*
X118917000Y-79614292D01*
X118917000Y-79495708D01*
X118893866Y-79379403D01*
X118848486Y-79269846D01*
X118782604Y-79171247D01*
X118741357Y-79130000D01*
X118782604Y-79088753D01*
X118848486Y-78990154D01*
X118893866Y-78880597D01*
X118917000Y-78764292D01*
X118917000Y-78645708D01*
X118893866Y-78529403D01*
X118848486Y-78419846D01*
X118782604Y-78321247D01*
X118741357Y-78280000D01*
X118782604Y-78238753D01*
X118848486Y-78140154D01*
X118893866Y-78030597D01*
X118917000Y-77914292D01*
X118917000Y-77795708D01*
X118893866Y-77679403D01*
X118848486Y-77569846D01*
X118782604Y-77471247D01*
X118741357Y-77430000D01*
X118782604Y-77388753D01*
X118848486Y-77290154D01*
X118893866Y-77180597D01*
X118917000Y-77064292D01*
X118917000Y-76945708D01*
X119063000Y-76945708D01*
X119063000Y-77064292D01*
X119086134Y-77180597D01*
X119131514Y-77290154D01*
X119197396Y-77388753D01*
X119238643Y-77430000D01*
X119197396Y-77471247D01*
X119131514Y-77569846D01*
X119086134Y-77679403D01*
X119063000Y-77795708D01*
X119063000Y-77914292D01*
X119086134Y-78030597D01*
X119131514Y-78140154D01*
X119197396Y-78238753D01*
X119238643Y-78280000D01*
X119197396Y-78321247D01*
X119131514Y-78419846D01*
X119086134Y-78529403D01*
X119063000Y-78645708D01*
X119063000Y-78764292D01*
X119086134Y-78880597D01*
X119131514Y-78990154D01*
X119197396Y-79088753D01*
X119238643Y-79130000D01*
X119197396Y-79171247D01*
X119131514Y-79269846D01*
X119086134Y-79379403D01*
X119063000Y-79495708D01*
X119063000Y-79614292D01*
X119086134Y-79730597D01*
X119131514Y-79840154D01*
X119197396Y-79938753D01*
X119238643Y-79980000D01*
X119197396Y-80021247D01*
X119131514Y-80119846D01*
X119086134Y-80229403D01*
X119063000Y-80345708D01*
X119063000Y-80464292D01*
X119086134Y-80580597D01*
X119131514Y-80690154D01*
X119197396Y-80788753D01*
X119238643Y-80830000D01*
X119197396Y-80871247D01*
X119131514Y-80969846D01*
X119086134Y-81079403D01*
X119063000Y-81195708D01*
X119063000Y-81314292D01*
X119086134Y-81430597D01*
X119131514Y-81540154D01*
X119197396Y-81638753D01*
X119281247Y-81722604D01*
X119379846Y-81788486D01*
X119489403Y-81833866D01*
X119594345Y-81854740D01*
X119665000Y-81925395D01*
X119735655Y-81854740D01*
X119840597Y-81833866D01*
X119950154Y-81788486D01*
X120048753Y-81722604D01*
X120132604Y-81638753D01*
X120198486Y-81540154D01*
X120243866Y-81430597D01*
X120267000Y-81314292D01*
X120267000Y-81195708D01*
X120243866Y-81079403D01*
X120198486Y-80969846D01*
X120132604Y-80871247D01*
X120091357Y-80830000D01*
X120132604Y-80788753D01*
X120198486Y-80690154D01*
X120243866Y-80580597D01*
X120267000Y-80464292D01*
X120267000Y-80345708D01*
X120243866Y-80229403D01*
X120198486Y-80119846D01*
X120132604Y-80021247D01*
X120091357Y-79980000D01*
X120132604Y-79938753D01*
X120198486Y-79840154D01*
X120243866Y-79730597D01*
X120267000Y-79614292D01*
X120267000Y-79495708D01*
X120243866Y-79379403D01*
X120239193Y-79368121D01*
X122735400Y-79368121D01*
X122735400Y-79501479D01*
X122761416Y-79632274D01*
X122812450Y-79755480D01*
X122886540Y-79866363D01*
X122980837Y-79960660D01*
X123091720Y-80034750D01*
X123214926Y-80085784D01*
X123345721Y-80111800D01*
X123479079Y-80111800D01*
X123609874Y-80085784D01*
X123733080Y-80034750D01*
X123843963Y-79960660D01*
X123938260Y-79866363D01*
X124012350Y-79755480D01*
X124063384Y-79632274D01*
X124089400Y-79501479D01*
X124089400Y-79368121D01*
X124063384Y-79237326D01*
X124018307Y-79128501D01*
X128063000Y-79128501D01*
X128063000Y-79233099D01*
X128083406Y-79335687D01*
X128123434Y-79432323D01*
X128181546Y-79519293D01*
X128255507Y-79593254D01*
X128342477Y-79651366D01*
X128439113Y-79691394D01*
X128541701Y-79711800D01*
X128646299Y-79711800D01*
X128748887Y-79691394D01*
X128845523Y-79651366D01*
X128932493Y-79593254D01*
X129006454Y-79519293D01*
X129064566Y-79432323D01*
X129104594Y-79335687D01*
X129125000Y-79233099D01*
X129125000Y-79128501D01*
X129104594Y-79025913D01*
X129064566Y-78929277D01*
X129006454Y-78842307D01*
X128932493Y-78768346D01*
X128845523Y-78710234D01*
X128748887Y-78670206D01*
X128646299Y-78649800D01*
X128541701Y-78649800D01*
X128439113Y-78670206D01*
X128342477Y-78710234D01*
X128255507Y-78768346D01*
X128181546Y-78842307D01*
X128123434Y-78929277D01*
X128083406Y-79025913D01*
X128063000Y-79128501D01*
X124018307Y-79128501D01*
X124012350Y-79114120D01*
X123938260Y-79003237D01*
X123843963Y-78908940D01*
X123733080Y-78834850D01*
X123609874Y-78783816D01*
X123479079Y-78757800D01*
X123345721Y-78757800D01*
X123214926Y-78783816D01*
X123091720Y-78834850D01*
X122980837Y-78908940D01*
X122886540Y-79003237D01*
X122812450Y-79114120D01*
X122761416Y-79237326D01*
X122735400Y-79368121D01*
X120239193Y-79368121D01*
X120198486Y-79269846D01*
X120132604Y-79171247D01*
X120091357Y-79130000D01*
X120132604Y-79088753D01*
X120198486Y-78990154D01*
X120243866Y-78880597D01*
X120267000Y-78764292D01*
X120267000Y-78645708D01*
X120243866Y-78529403D01*
X120198486Y-78419846D01*
X120132604Y-78321247D01*
X120091357Y-78280000D01*
X120132604Y-78238753D01*
X120198486Y-78140154D01*
X120243866Y-78030597D01*
X120267000Y-77914292D01*
X120267000Y-77795708D01*
X120243866Y-77679403D01*
X120198486Y-77569846D01*
X120178090Y-77539321D01*
X131473000Y-77539321D01*
X131473000Y-77672679D01*
X131499016Y-77803474D01*
X131550050Y-77926680D01*
X131624140Y-78037563D01*
X131700577Y-78114000D01*
X131624140Y-78190437D01*
X131550050Y-78301320D01*
X131499016Y-78424526D01*
X131473000Y-78555321D01*
X131473000Y-78688679D01*
X131499016Y-78819474D01*
X131550050Y-78942680D01*
X131624140Y-79053563D01*
X131700577Y-79130000D01*
X131624140Y-79206437D01*
X131550050Y-79317320D01*
X131499016Y-79440526D01*
X131473000Y-79571321D01*
X131473000Y-79704679D01*
X131499016Y-79835474D01*
X131550050Y-79958680D01*
X131624140Y-80069563D01*
X131700577Y-80146000D01*
X131624140Y-80222437D01*
X131550050Y-80333320D01*
X131499016Y-80456526D01*
X131473000Y-80587321D01*
X131473000Y-80720679D01*
X131499016Y-80851474D01*
X131550050Y-80974680D01*
X131624140Y-81085563D01*
X131718437Y-81179860D01*
X131829320Y-81253950D01*
X131952526Y-81304984D01*
X132083321Y-81331000D01*
X132216679Y-81331000D01*
X132347474Y-81304984D01*
X132470680Y-81253950D01*
X132581563Y-81179860D01*
X132658000Y-81103423D01*
X132734437Y-81179860D01*
X132845320Y-81253950D01*
X132968526Y-81304984D01*
X133099321Y-81331000D01*
X133232679Y-81331000D01*
X133363474Y-81304984D01*
X133486680Y-81253950D01*
X133597563Y-81179860D01*
X133616922Y-81160501D01*
X138985000Y-81160501D01*
X138985000Y-81265099D01*
X139005406Y-81367687D01*
X139045434Y-81464323D01*
X139103546Y-81551293D01*
X139177507Y-81625254D01*
X139264477Y-81683366D01*
X139361113Y-81723394D01*
X139463701Y-81743800D01*
X139568299Y-81743800D01*
X139670887Y-81723394D01*
X139767523Y-81683366D01*
X139854493Y-81625254D01*
X139928454Y-81551293D01*
X139986566Y-81464323D01*
X140026594Y-81367687D01*
X140047000Y-81265099D01*
X140047000Y-81160501D01*
X140026594Y-81057913D01*
X139986566Y-80961277D01*
X139928454Y-80874307D01*
X139854493Y-80800346D01*
X139767523Y-80742234D01*
X139670887Y-80702206D01*
X139568299Y-80681800D01*
X139463701Y-80681800D01*
X139361113Y-80702206D01*
X139264477Y-80742234D01*
X139177507Y-80800346D01*
X139103546Y-80874307D01*
X139045434Y-80961277D01*
X139005406Y-81057913D01*
X138985000Y-81160501D01*
X133616922Y-81160501D01*
X133691860Y-81085563D01*
X133765950Y-80974680D01*
X133816984Y-80851474D01*
X133843000Y-80720679D01*
X133843000Y-80587321D01*
X133816984Y-80456526D01*
X133765950Y-80333320D01*
X133691860Y-80222437D01*
X133615423Y-80146000D01*
X133691860Y-80069563D01*
X133765950Y-79958680D01*
X133816984Y-79835474D01*
X133843000Y-79704679D01*
X133843000Y-79571321D01*
X133816984Y-79440526D01*
X133765950Y-79317320D01*
X133691860Y-79206437D01*
X133615423Y-79130000D01*
X133691860Y-79053563D01*
X133765950Y-78942680D01*
X133816984Y-78819474D01*
X133843000Y-78688679D01*
X133843000Y-78555321D01*
X133816984Y-78424526D01*
X133765950Y-78301320D01*
X133691860Y-78190437D01*
X133615423Y-78114000D01*
X133691860Y-78037563D01*
X133765950Y-77926680D01*
X133816984Y-77803474D01*
X133843000Y-77672679D01*
X133843000Y-77539321D01*
X133816984Y-77408526D01*
X133765950Y-77285320D01*
X133691860Y-77174437D01*
X133597563Y-77080140D01*
X133486680Y-77006050D01*
X133363474Y-76955016D01*
X133232679Y-76929000D01*
X133099321Y-76929000D01*
X132968526Y-76955016D01*
X132845320Y-77006050D01*
X132734437Y-77080140D01*
X132658000Y-77156577D01*
X132581563Y-77080140D01*
X132470680Y-77006050D01*
X132347474Y-76955016D01*
X132216679Y-76929000D01*
X132083321Y-76929000D01*
X131952526Y-76955016D01*
X131829320Y-77006050D01*
X131718437Y-77080140D01*
X131624140Y-77174437D01*
X131550050Y-77285320D01*
X131499016Y-77408526D01*
X131473000Y-77539321D01*
X120178090Y-77539321D01*
X120132604Y-77471247D01*
X120091357Y-77430000D01*
X120132604Y-77388753D01*
X120198486Y-77290154D01*
X120243866Y-77180597D01*
X120267000Y-77064292D01*
X120267000Y-76945708D01*
X120246472Y-76842501D01*
X137105400Y-76842501D01*
X137105400Y-76947099D01*
X137125806Y-77049687D01*
X137165834Y-77146323D01*
X137223946Y-77233293D01*
X137297907Y-77307254D01*
X137384877Y-77365366D01*
X137481513Y-77405394D01*
X137584101Y-77425800D01*
X137688699Y-77425800D01*
X137791287Y-77405394D01*
X137887923Y-77365366D01*
X137974893Y-77307254D01*
X138048854Y-77233293D01*
X138106966Y-77146323D01*
X138146994Y-77049687D01*
X138167400Y-76947099D01*
X138167400Y-76842501D01*
X138146994Y-76739913D01*
X138106966Y-76643277D01*
X138048854Y-76556307D01*
X137974893Y-76482346D01*
X137887923Y-76424234D01*
X137791287Y-76384206D01*
X137688699Y-76363800D01*
X137584101Y-76363800D01*
X137481513Y-76384206D01*
X137384877Y-76424234D01*
X137297907Y-76482346D01*
X137223946Y-76556307D01*
X137165834Y-76643277D01*
X137125806Y-76739913D01*
X137105400Y-76842501D01*
X120246472Y-76842501D01*
X120243866Y-76829403D01*
X120198486Y-76719846D01*
X120132604Y-76621247D01*
X120048753Y-76537396D01*
X119950154Y-76471514D01*
X119840597Y-76426134D01*
X119735655Y-76405260D01*
X119665000Y-76334605D01*
X119594345Y-76405260D01*
X119489403Y-76426134D01*
X119379846Y-76471514D01*
X119281247Y-76537396D01*
X119197396Y-76621247D01*
X119131514Y-76719846D01*
X119086134Y-76829403D01*
X119063000Y-76945708D01*
X118917000Y-76945708D01*
X118893866Y-76829403D01*
X118848486Y-76719846D01*
X118782604Y-76621247D01*
X118698753Y-76537396D01*
X118600154Y-76471514D01*
X118490597Y-76426134D01*
X118385655Y-76405260D01*
X118315000Y-76334605D01*
X118244345Y-76405260D01*
X118139403Y-76426134D01*
X118029846Y-76471514D01*
X117931247Y-76537396D01*
X117847396Y-76621247D01*
X117781514Y-76719846D01*
X117736134Y-76829403D01*
X117713000Y-76945708D01*
X113766200Y-76945708D01*
X113766200Y-76244361D01*
X117354503Y-76244361D01*
X117390392Y-76430028D01*
X117461813Y-76605126D01*
X117466730Y-76614323D01*
X117662464Y-76627931D01*
X118135395Y-76155000D01*
X117662464Y-75682069D01*
X117466730Y-75695677D01*
X117393419Y-75869992D01*
X117355525Y-76055260D01*
X117354503Y-76244361D01*
X113766200Y-76244361D01*
X113766200Y-74805000D01*
X113915980Y-74805000D01*
X113932025Y-74967904D01*
X113979542Y-75124548D01*
X114056706Y-75268912D01*
X114160552Y-75395448D01*
X114287088Y-75499294D01*
X114431452Y-75576458D01*
X114588096Y-75623975D01*
X114710185Y-75636000D01*
X115899815Y-75636000D01*
X116021904Y-75623975D01*
X116178548Y-75576458D01*
X116322912Y-75499294D01*
X116449448Y-75395448D01*
X116553294Y-75268912D01*
X116630458Y-75124548D01*
X116677975Y-74967904D01*
X116694020Y-74805000D01*
X117295980Y-74805000D01*
X117312025Y-74967904D01*
X117359542Y-75124548D01*
X117436706Y-75268912D01*
X117540552Y-75395448D01*
X117667088Y-75499294D01*
X117811452Y-75576458D01*
X117961614Y-75622009D01*
X118315000Y-75975395D01*
X118329143Y-75961253D01*
X118508748Y-76140858D01*
X118494605Y-76155000D01*
X118733385Y-76393780D01*
X118740392Y-76430028D01*
X118811813Y-76605126D01*
X118816730Y-76614323D01*
X118964179Y-76624574D01*
X118967536Y-76627931D01*
X118990000Y-76626369D01*
X119012464Y-76627931D01*
X119015821Y-76624574D01*
X119163270Y-76614323D01*
X119236581Y-76440008D01*
X119245887Y-76394508D01*
X119485395Y-76155000D01*
X119844605Y-76155000D01*
X120317536Y-76627931D01*
X120513270Y-76614323D01*
X120586581Y-76440008D01*
X120624475Y-76254740D01*
X120625497Y-76065639D01*
X120589608Y-75879972D01*
X120518187Y-75704874D01*
X120513270Y-75695677D01*
X120317536Y-75682069D01*
X119844605Y-76155000D01*
X119485395Y-76155000D01*
X119471253Y-76140858D01*
X119650858Y-75961253D01*
X119665000Y-75975395D01*
X120137931Y-75502464D01*
X120124323Y-75306730D01*
X119951851Y-75234194D01*
X120010458Y-75124548D01*
X120057975Y-74967904D01*
X120074020Y-74805000D01*
X120057975Y-74642096D01*
X120010458Y-74485452D01*
X119933294Y-74341088D01*
X119829448Y-74214552D01*
X119702912Y-74110706D01*
X119558548Y-74033542D01*
X119401904Y-73986025D01*
X119279815Y-73974000D01*
X118090185Y-73974000D01*
X117968096Y-73986025D01*
X117811452Y-74033542D01*
X117667088Y-74110706D01*
X117540552Y-74214552D01*
X117436706Y-74341088D01*
X117359542Y-74485452D01*
X117312025Y-74642096D01*
X117295980Y-74805000D01*
X116694020Y-74805000D01*
X116677975Y-74642096D01*
X116630458Y-74485452D01*
X116553294Y-74341088D01*
X116449448Y-74214552D01*
X116322912Y-74110706D01*
X116178548Y-74033542D01*
X116021904Y-73986025D01*
X115899815Y-73974000D01*
X114710185Y-73974000D01*
X114588096Y-73986025D01*
X114431452Y-74033542D01*
X114287088Y-74110706D01*
X114160552Y-74214552D01*
X114056706Y-74341088D01*
X113979542Y-74485452D01*
X113932025Y-74642096D01*
X113915980Y-74805000D01*
X113766200Y-74805000D01*
X113766200Y-74743073D01*
X113782700Y-74574792D01*
X113829056Y-74421254D01*
X113904348Y-74279650D01*
X114005710Y-74155368D01*
X114129284Y-74053139D01*
X114270361Y-73976859D01*
X114423562Y-73929435D01*
X114591344Y-73911800D01*
X163080127Y-73911800D01*
X163248408Y-73928300D01*
M02*
