%TF.GenerationSoftware,KiCad,Pcbnew,(5.1.5-0-10_14)*%
%TF.CreationDate,2020-05-27T21:49:09-04:00*%
%TF.ProjectId,PD_PowerSupply,50445f50-6f77-4657-9253-7570706c792e,rev?*%
%TF.SameCoordinates,Original*%
%TF.FileFunction,Other,Fab,Top*%
%FSLAX46Y46*%
G04 Gerber Fmt 4.6, Leading zero omitted, Abs format (unit mm)*
G04 Created by KiCad (PCBNEW (5.1.5-0-10_14)) date 2020-05-27 21:49:09*
%MOMM*%
%LPD*%
G04 APERTURE LIST*
%ADD10C,0.250000*%
%ADD11C,0.300000*%
%ADD12C,0.200000*%
%ADD13C,0.127000*%
%ADD14C,0.100000*%
%ADD15C,0.152400*%
%ADD16C,0.015000*%
%ADD17C,0.050000*%
%ADD18C,0.150000*%
%ADD19C,0.060000*%
%ADD20C,0.120000*%
%ADD21C,0.075000*%
G04 APERTURE END LIST*
D10*
X161126895Y-100386780D02*
X161126895Y-101196304D01*
X161174514Y-101291542D01*
X161222133Y-101339161D01*
X161317371Y-101386780D01*
X161507847Y-101386780D01*
X161603085Y-101339161D01*
X161650704Y-101291542D01*
X161698323Y-101196304D01*
X161698323Y-100386780D01*
X162079276Y-100386780D02*
X162745942Y-100386780D01*
X162317371Y-101386780D01*
X117441180Y-104696304D02*
X116441180Y-104696304D01*
X116441180Y-104315352D01*
X116488800Y-104220114D01*
X116536419Y-104172495D01*
X116631657Y-104124876D01*
X116774514Y-104124876D01*
X116869752Y-104172495D01*
X116917371Y-104220114D01*
X116964990Y-104315352D01*
X116964990Y-104696304D01*
X117441180Y-103696304D02*
X116441180Y-103696304D01*
X116917371Y-103696304D02*
X116917371Y-103124876D01*
X117441180Y-103124876D02*
X116441180Y-103124876D01*
X116536419Y-102696304D02*
X116488800Y-102648685D01*
X116441180Y-102553447D01*
X116441180Y-102315352D01*
X116488800Y-102220114D01*
X116536419Y-102172495D01*
X116631657Y-102124876D01*
X116726895Y-102124876D01*
X116869752Y-102172495D01*
X117441180Y-102743923D01*
X117441180Y-102124876D01*
X114426895Y-109686780D02*
X114426895Y-110496304D01*
X114474514Y-110591542D01*
X114522133Y-110639161D01*
X114617371Y-110686780D01*
X114807847Y-110686780D01*
X114903085Y-110639161D01*
X114950704Y-110591542D01*
X114998323Y-110496304D01*
X114998323Y-109686780D01*
X115617371Y-110115352D02*
X115522133Y-110067733D01*
X115474514Y-110020114D01*
X115426895Y-109924876D01*
X115426895Y-109877257D01*
X115474514Y-109782019D01*
X115522133Y-109734400D01*
X115617371Y-109686780D01*
X115807847Y-109686780D01*
X115903085Y-109734400D01*
X115950704Y-109782019D01*
X115998323Y-109877257D01*
X115998323Y-109924876D01*
X115950704Y-110020114D01*
X115903085Y-110067733D01*
X115807847Y-110115352D01*
X115617371Y-110115352D01*
X115522133Y-110162971D01*
X115474514Y-110210590D01*
X115426895Y-110305828D01*
X115426895Y-110496304D01*
X115474514Y-110591542D01*
X115522133Y-110639161D01*
X115617371Y-110686780D01*
X115807847Y-110686780D01*
X115903085Y-110639161D01*
X115950704Y-110591542D01*
X115998323Y-110496304D01*
X115998323Y-110305828D01*
X115950704Y-110210590D01*
X115903085Y-110162971D01*
X115807847Y-110115352D01*
X133293561Y-78682019D02*
X133198323Y-78634400D01*
X133103085Y-78539161D01*
X132960228Y-78396304D01*
X132864990Y-78348685D01*
X132769752Y-78348685D01*
X132817371Y-78586780D02*
X132722133Y-78539161D01*
X132626895Y-78443923D01*
X132579276Y-78253447D01*
X132579276Y-77920114D01*
X132626895Y-77729638D01*
X132722133Y-77634400D01*
X132817371Y-77586780D01*
X133007847Y-77586780D01*
X133103085Y-77634400D01*
X133198323Y-77729638D01*
X133245942Y-77920114D01*
X133245942Y-78253447D01*
X133198323Y-78443923D01*
X133103085Y-78539161D01*
X133007847Y-78586780D01*
X132817371Y-78586780D01*
X134198323Y-78586780D02*
X133626895Y-78586780D01*
X133912609Y-78586780D02*
X133912609Y-77586780D01*
X133817371Y-77729638D01*
X133722133Y-77824876D01*
X133626895Y-77872495D01*
X143193561Y-78782019D02*
X143098323Y-78734400D01*
X143003085Y-78639161D01*
X142860228Y-78496304D01*
X142764990Y-78448685D01*
X142669752Y-78448685D01*
X142717371Y-78686780D02*
X142622133Y-78639161D01*
X142526895Y-78543923D01*
X142479276Y-78353447D01*
X142479276Y-78020114D01*
X142526895Y-77829638D01*
X142622133Y-77734400D01*
X142717371Y-77686780D01*
X142907847Y-77686780D01*
X143003085Y-77734400D01*
X143098323Y-77829638D01*
X143145942Y-78020114D01*
X143145942Y-78353447D01*
X143098323Y-78543923D01*
X143003085Y-78639161D01*
X142907847Y-78686780D01*
X142717371Y-78686780D01*
X143526895Y-77782019D02*
X143574514Y-77734400D01*
X143669752Y-77686780D01*
X143907847Y-77686780D01*
X144003085Y-77734400D01*
X144050704Y-77782019D01*
X144098323Y-77877257D01*
X144098323Y-77972495D01*
X144050704Y-78115352D01*
X143479276Y-78686780D01*
X144098323Y-78686780D01*
X152426895Y-80586780D02*
X152426895Y-81396304D01*
X152474514Y-81491542D01*
X152522133Y-81539161D01*
X152617371Y-81586780D01*
X152807847Y-81586780D01*
X152903085Y-81539161D01*
X152950704Y-81491542D01*
X152998323Y-81396304D01*
X152998323Y-80586780D01*
X153903085Y-80920114D02*
X153903085Y-81586780D01*
X153664990Y-80539161D02*
X153426895Y-81253447D01*
X154045942Y-81253447D01*
X138722133Y-88686780D02*
X138245942Y-88686780D01*
X138245942Y-87686780D01*
X139579276Y-88686780D02*
X139007847Y-88686780D01*
X139293561Y-88686780D02*
X139293561Y-87686780D01*
X139198323Y-87829638D01*
X139103085Y-87924876D01*
X139007847Y-87972495D01*
X129026895Y-88386780D02*
X129026895Y-89196304D01*
X129074514Y-89291542D01*
X129122133Y-89339161D01*
X129217371Y-89386780D01*
X129407847Y-89386780D01*
X129503085Y-89339161D01*
X129550704Y-89291542D01*
X129598323Y-89196304D01*
X129598323Y-88386780D01*
X130026895Y-88482019D02*
X130074514Y-88434400D01*
X130169752Y-88386780D01*
X130407847Y-88386780D01*
X130503085Y-88434400D01*
X130550704Y-88482019D01*
X130598323Y-88577257D01*
X130598323Y-88672495D01*
X130550704Y-88815352D01*
X129979276Y-89386780D01*
X130598323Y-89386780D01*
D11*
X109067371Y-81741542D02*
X110281657Y-81741542D01*
X110424514Y-81670114D01*
X110495942Y-81598685D01*
X110567371Y-81455828D01*
X110567371Y-81170114D01*
X110495942Y-81027257D01*
X110424514Y-80955828D01*
X110281657Y-80884400D01*
X109067371Y-80884400D01*
X110495942Y-80241542D02*
X110567371Y-80027257D01*
X110567371Y-79670114D01*
X110495942Y-79527257D01*
X110424514Y-79455828D01*
X110281657Y-79384400D01*
X110138800Y-79384400D01*
X109995942Y-79455828D01*
X109924514Y-79527257D01*
X109853085Y-79670114D01*
X109781657Y-79955828D01*
X109710228Y-80098685D01*
X109638800Y-80170114D01*
X109495942Y-80241542D01*
X109353085Y-80241542D01*
X109210228Y-80170114D01*
X109138800Y-80098685D01*
X109067371Y-79955828D01*
X109067371Y-79598685D01*
X109138800Y-79384400D01*
X109781657Y-78241542D02*
X109853085Y-78027257D01*
X109924514Y-77955828D01*
X110067371Y-77884400D01*
X110281657Y-77884400D01*
X110424514Y-77955828D01*
X110495942Y-78027257D01*
X110567371Y-78170114D01*
X110567371Y-78741542D01*
X109067371Y-78741542D01*
X109067371Y-78241542D01*
X109138800Y-78098685D01*
X109210228Y-78027257D01*
X109353085Y-77955828D01*
X109495942Y-77955828D01*
X109638800Y-78027257D01*
X109710228Y-78098685D01*
X109781657Y-78241542D01*
X109781657Y-78741542D01*
X110567371Y-76455828D02*
X110567371Y-77312971D01*
X110567371Y-76884400D02*
X109067371Y-76884400D01*
X109281657Y-77027257D01*
X109424514Y-77170114D01*
X109495942Y-77312971D01*
D12*
X118376400Y-118328000D02*
G75*
G03X118376400Y-118328000I-100000J0D01*
G01*
D13*
X113626400Y-119028000D02*
X113626400Y-108828000D01*
X128626400Y-119028000D02*
X113626400Y-119028000D01*
X128626400Y-108828000D02*
X128626400Y-119028000D01*
X113626400Y-108828000D02*
X128626400Y-108828000D01*
D14*
X149237600Y-116518800D02*
G75*
G03X149237600Y-116518800I-2000000J0D01*
G01*
X149737600Y-114018800D02*
X144737600Y-114018800D01*
X149737600Y-119018800D02*
X149737600Y-114018800D01*
X144737600Y-119018800D02*
X149737600Y-119018800D01*
X144737600Y-114018800D02*
X144737600Y-119018800D01*
X149737600Y-118018800D02*
X148737600Y-119018800D01*
X163809800Y-113044000D02*
X161717800Y-115137000D01*
X163992800Y-113227000D02*
X161900800Y-115320000D01*
X158809800Y-113044000D02*
X156716800Y-115137000D01*
X158992800Y-113227000D02*
X156899800Y-115320000D01*
X155354800Y-111882000D02*
X165354800Y-111882000D01*
X155354800Y-116782000D02*
X165354800Y-116782000D01*
X155354800Y-118282000D02*
X165354800Y-118282000D01*
X155354800Y-118282000D02*
X155354800Y-108982000D01*
X155854800Y-118782000D02*
X155354800Y-118282000D01*
X165354800Y-118782000D02*
X155854800Y-118782000D01*
X165354800Y-108982000D02*
X165354800Y-118782000D01*
X155354800Y-108982000D02*
X165354800Y-108982000D01*
X164354800Y-114182000D02*
G75*
G03X164354800Y-114182000I-1500000J0D01*
G01*
X159354800Y-114182000D02*
G75*
G03X159354800Y-114182000I-1500000J0D01*
G01*
X156184800Y-105380800D02*
X156184800Y-103780800D01*
X156984800Y-105380800D02*
X156184800Y-105380800D01*
X156984800Y-103780800D02*
X156984800Y-105380800D01*
X156184800Y-103780800D02*
X156984800Y-103780800D01*
X121691600Y-91309200D02*
X122491600Y-91309200D01*
X121691600Y-89709200D02*
X121691600Y-91309200D01*
X122191600Y-89709200D02*
X121691600Y-89709200D01*
X122491600Y-90009200D02*
X122191600Y-89709200D01*
X122491600Y-91309200D02*
X122491600Y-90009200D01*
X123317200Y-91309200D02*
X124117200Y-91309200D01*
X123317200Y-89709200D02*
X123317200Y-91309200D01*
X123817200Y-89709200D02*
X123317200Y-89709200D01*
X124117200Y-90009200D02*
X123817200Y-89709200D01*
X124117200Y-91309200D02*
X124117200Y-90009200D01*
X142125600Y-116518800D02*
G75*
G03X142125600Y-116518800I-2000000J0D01*
G01*
X142625600Y-114018800D02*
X137625600Y-114018800D01*
X142625600Y-119018800D02*
X142625600Y-114018800D01*
X137625600Y-119018800D02*
X142625600Y-119018800D01*
X137625600Y-114018800D02*
X137625600Y-119018800D01*
X142625600Y-118018800D02*
X141625600Y-119018800D01*
X152811200Y-116035600D02*
X152811200Y-114435600D01*
X153611200Y-116035600D02*
X152811200Y-116035600D01*
X153611200Y-114435600D02*
X153611200Y-116035600D01*
X152811200Y-114435600D02*
X153611200Y-114435600D01*
X118385000Y-90591200D02*
X119360000Y-91566200D01*
X114460000Y-90591200D02*
X118385000Y-90591200D01*
X114460000Y-94491200D02*
X114460000Y-90591200D01*
X119360000Y-94491200D02*
X114460000Y-94491200D01*
X119360000Y-91566200D02*
X119360000Y-94491200D01*
X120066000Y-91106000D02*
X120066000Y-89506000D01*
X120866000Y-91106000D02*
X120066000Y-91106000D01*
X120866000Y-89506000D02*
X120866000Y-91106000D01*
X120066000Y-89506000D02*
X120866000Y-89506000D01*
X163277600Y-107266800D02*
X161677600Y-107266800D01*
X163277600Y-106466800D02*
X163277600Y-107266800D01*
X161677600Y-106466800D02*
X163277600Y-106466800D01*
X161677600Y-107266800D02*
X161677600Y-106466800D01*
X161334400Y-90728626D02*
X158134400Y-90728626D01*
X161334400Y-89128626D02*
X161334400Y-90728626D01*
X158134400Y-89128626D02*
X161334400Y-89128626D01*
X158134400Y-90728626D02*
X158134400Y-89128626D01*
X161334400Y-76577200D02*
X158134400Y-76577200D01*
X161334400Y-74977200D02*
X161334400Y-76577200D01*
X158134400Y-74977200D02*
X161334400Y-74977200D01*
X158134400Y-76577200D02*
X158134400Y-74977200D01*
X161334400Y-88370055D02*
X158134400Y-88370055D01*
X161334400Y-86770055D02*
X161334400Y-88370055D01*
X158134400Y-86770055D02*
X161334400Y-86770055D01*
X158134400Y-88370055D02*
X158134400Y-86770055D01*
X161334400Y-81294342D02*
X158134400Y-81294342D01*
X161334400Y-79694342D02*
X161334400Y-81294342D01*
X158134400Y-79694342D02*
X161334400Y-79694342D01*
X158134400Y-81294342D02*
X158134400Y-79694342D01*
X161334400Y-86011484D02*
X158134400Y-86011484D01*
X161334400Y-84411484D02*
X161334400Y-86011484D01*
X158134400Y-84411484D02*
X161334400Y-84411484D01*
X158134400Y-86011484D02*
X158134400Y-84411484D01*
X161334400Y-93087200D02*
X158134400Y-93087200D01*
X161334400Y-91487200D02*
X161334400Y-93087200D01*
X158134400Y-91487200D02*
X161334400Y-91487200D01*
X158134400Y-93087200D02*
X158134400Y-91487200D01*
X161334400Y-83652913D02*
X158134400Y-83652913D01*
X161334400Y-82052913D02*
X161334400Y-83652913D01*
X158134400Y-82052913D02*
X161334400Y-82052913D01*
X158134400Y-83652913D02*
X158134400Y-82052913D01*
X161334400Y-78935771D02*
X158134400Y-78935771D01*
X161334400Y-77335771D02*
X161334400Y-78935771D01*
X158134400Y-77335771D02*
X161334400Y-77335771D01*
X158134400Y-78935771D02*
X158134400Y-77335771D01*
X133144800Y-105695600D02*
X133144800Y-98995600D01*
X136844800Y-98995600D02*
X133144800Y-98995600D01*
X135844800Y-105695600D02*
X133144800Y-105695600D01*
X136844800Y-104695600D02*
X136844800Y-98995600D01*
X136844800Y-104695600D02*
X135844800Y-105695600D01*
X139573200Y-96135200D02*
X139573200Y-94535200D01*
X140373200Y-96135200D02*
X139573200Y-96135200D01*
X140373200Y-94535200D02*
X140373200Y-96135200D01*
X139573200Y-94535200D02*
X140373200Y-94535200D01*
X137998400Y-96135200D02*
X137998400Y-94535200D01*
X138798400Y-96135200D02*
X137998400Y-96135200D01*
X138798400Y-94535200D02*
X138798400Y-96135200D01*
X137998400Y-94535200D02*
X138798400Y-94535200D01*
X150139600Y-92172800D02*
X150139600Y-90572800D01*
X150939600Y-92172800D02*
X150139600Y-92172800D01*
X150939600Y-90572800D02*
X150939600Y-92172800D01*
X150139600Y-90572800D02*
X150939600Y-90572800D01*
D13*
X137748800Y-93438000D02*
X144048800Y-93438000D01*
X137748800Y-87138000D02*
X137748800Y-93438000D01*
X144048800Y-87138000D02*
X137748800Y-87138000D01*
X144048800Y-93438000D02*
X144048800Y-87138000D01*
D14*
X145688000Y-98116400D02*
X145688000Y-96516400D01*
X142488000Y-98116400D02*
X145688000Y-98116400D01*
X142488000Y-96916400D02*
X142488000Y-98116400D01*
X142888000Y-96516400D02*
X142488000Y-96916400D01*
X145688000Y-96516400D02*
X142888000Y-96516400D01*
X139986000Y-105266400D02*
X139986000Y-102066400D01*
X141586000Y-105266400D02*
X139986000Y-105266400D01*
X141586000Y-102066400D02*
X141586000Y-105266400D01*
X139986000Y-102066400D02*
X141586000Y-102066400D01*
X134804400Y-96782800D02*
X134804400Y-93582800D01*
X136404400Y-96782800D02*
X134804400Y-96782800D01*
X136404400Y-93582800D02*
X136404400Y-96782800D01*
X134804400Y-93582800D02*
X136404400Y-93582800D01*
X142284800Y-94179600D02*
X145484800Y-94179600D01*
X142284800Y-95779600D02*
X142284800Y-94179600D01*
X145484800Y-95779600D02*
X142284800Y-95779600D01*
X145484800Y-94179600D02*
X145484800Y-95779600D01*
X147415600Y-87321600D02*
X150615600Y-87321600D01*
X147415600Y-88921600D02*
X147415600Y-87321600D01*
X150615600Y-88921600D02*
X147415600Y-88921600D01*
X150615600Y-87321600D02*
X150615600Y-88921600D01*
X153448000Y-96764000D02*
X155048000Y-96764000D01*
X153448000Y-97564000D02*
X153448000Y-96764000D01*
X155048000Y-97564000D02*
X153448000Y-97564000D01*
X155048000Y-96764000D02*
X155048000Y-97564000D01*
D15*
X154857400Y-102622400D02*
G75*
G03X154857400Y-102622400I-76200J0D01*
G01*
X153486000Y-103372400D02*
G75*
G03X152876400Y-103372400I-304800J0D01*
G01*
X155181200Y-103372400D02*
X155181200Y-98372400D01*
X151181200Y-103372400D02*
X155181200Y-103372400D01*
X151181200Y-98372400D02*
X151181200Y-103372400D01*
X155181200Y-98372400D02*
X151181200Y-98372400D01*
X155988600Y-87155345D02*
G75*
G03X155988600Y-87155345I-76200J0D01*
G01*
X156412400Y-87450545D02*
G75*
G03X156412400Y-88060145I0J-304800D01*
G01*
X156412400Y-86755345D02*
X153412400Y-86755345D01*
X156412400Y-88755345D02*
X156412400Y-86755345D01*
X153412400Y-88755345D02*
X156412400Y-88755345D01*
X153412400Y-86755345D02*
X153412400Y-88755345D01*
D13*
X154317600Y-81942800D02*
X150317600Y-81942800D01*
X154317600Y-77942800D02*
X150317600Y-77942800D01*
X150317600Y-77942800D02*
X150317600Y-81942800D01*
X154317600Y-77942800D02*
X154317600Y-81942800D01*
D12*
X151117600Y-82442800D02*
G75*
G03X151117600Y-82442800I-100000J0D01*
G01*
D14*
X145586000Y-90879200D02*
X148686000Y-90879200D01*
X148686000Y-90879200D02*
X148686000Y-92679200D01*
X146236000Y-92679200D02*
X148686000Y-92679200D01*
X145586000Y-90879200D02*
X145586000Y-92029200D01*
X146236000Y-92679200D02*
X145586000Y-92029200D01*
X152019200Y-110765600D02*
X152019200Y-109165600D01*
X152819200Y-110765600D02*
X152019200Y-110765600D01*
X152819200Y-109165600D02*
X152819200Y-110765600D01*
X152019200Y-109165600D02*
X152819200Y-109165600D01*
X131299200Y-94071600D02*
X132899200Y-94071600D01*
X131299200Y-94871600D02*
X131299200Y-94071600D01*
X132899200Y-94871600D02*
X131299200Y-94871600D01*
X132899200Y-94071600D02*
X132899200Y-94871600D01*
X154394000Y-109165600D02*
X154394000Y-110765600D01*
X153594000Y-109165600D02*
X154394000Y-109165600D01*
X153594000Y-110765600D02*
X153594000Y-109165600D01*
X154394000Y-110765600D02*
X153594000Y-110765600D01*
X144640400Y-83257600D02*
X144640400Y-84857600D01*
X143840400Y-83257600D02*
X144640400Y-83257600D01*
X143840400Y-84857600D02*
X143840400Y-83257600D01*
X144640400Y-84857600D02*
X143840400Y-84857600D01*
X152933600Y-93493600D02*
X152933600Y-91893600D01*
X153733600Y-93493600D02*
X152933600Y-93493600D01*
X153733600Y-91893600D02*
X153733600Y-93493600D01*
X152933600Y-91893600D02*
X153733600Y-91893600D01*
X168653200Y-99729600D02*
X168653200Y-102929600D01*
X167053200Y-99729600D02*
X168653200Y-99729600D01*
X167053200Y-102929600D02*
X167053200Y-99729600D01*
X168653200Y-102929600D02*
X167053200Y-102929600D01*
X141490800Y-83257600D02*
X141490800Y-84857600D01*
X140690800Y-83257600D02*
X141490800Y-83257600D01*
X140690800Y-84857600D02*
X140690800Y-83257600D01*
X141490800Y-84857600D02*
X140690800Y-84857600D01*
X154641600Y-84203600D02*
X153041600Y-84203600D01*
X154641600Y-83403600D02*
X154641600Y-84203600D01*
X153041600Y-83403600D02*
X154641600Y-83403600D01*
X153041600Y-84203600D02*
X153041600Y-83403600D01*
X149993600Y-75682000D02*
X151593600Y-75682000D01*
X149993600Y-76482000D02*
X149993600Y-75682000D01*
X151593600Y-76482000D02*
X149993600Y-76482000D01*
X151593600Y-75682000D02*
X151593600Y-76482000D01*
X155308400Y-91893600D02*
X155308400Y-93493600D01*
X154508400Y-91893600D02*
X155308400Y-91893600D01*
X154508400Y-93493600D02*
X154508400Y-91893600D01*
X155308400Y-93493600D02*
X154508400Y-93493600D01*
X138341200Y-83257600D02*
X138341200Y-84857600D01*
X137541200Y-83257600D02*
X138341200Y-83257600D01*
X137541200Y-84857600D02*
X137541200Y-83257600D01*
X138341200Y-84857600D02*
X137541200Y-84857600D01*
X139116000Y-84857600D02*
X139116000Y-83257600D01*
X139916000Y-84857600D02*
X139116000Y-84857600D01*
X139916000Y-83257600D02*
X139916000Y-84857600D01*
X139116000Y-83257600D02*
X139916000Y-83257600D01*
X156883200Y-91893600D02*
X156883200Y-93493600D01*
X156083200Y-91893600D02*
X156883200Y-91893600D01*
X156083200Y-93493600D02*
X156083200Y-91893600D01*
X156883200Y-93493600D02*
X156083200Y-93493600D01*
X131299200Y-95646400D02*
X132899200Y-95646400D01*
X131299200Y-96446400D02*
X131299200Y-95646400D01*
X132899200Y-96446400D02*
X131299200Y-96446400D01*
X132899200Y-95646400D02*
X132899200Y-96446400D01*
X132359600Y-91614000D02*
X132359600Y-90014000D01*
X133159600Y-91614000D02*
X132359600Y-91614000D01*
X133159600Y-90014000D02*
X133159600Y-91614000D01*
X132359600Y-90014000D02*
X133159600Y-90014000D01*
X124841200Y-91512400D02*
X124841200Y-89912400D01*
X125641200Y-91512400D02*
X124841200Y-91512400D01*
X125641200Y-89912400D02*
X125641200Y-91512400D01*
X124841200Y-89912400D02*
X125641200Y-89912400D01*
X128194000Y-77847200D02*
X128194000Y-76247200D01*
X128994000Y-77847200D02*
X128194000Y-77847200D01*
X128994000Y-76247200D02*
X128994000Y-77847200D01*
X128194000Y-76247200D02*
X128994000Y-76247200D01*
X127368400Y-76247200D02*
X127368400Y-77847200D01*
X126568400Y-76247200D02*
X127368400Y-76247200D01*
X126568400Y-77847200D02*
X126568400Y-76247200D01*
X127368400Y-77847200D02*
X126568400Y-77847200D01*
X151206400Y-116048800D02*
X151206400Y-114448800D01*
X152006400Y-116048800D02*
X151206400Y-116048800D01*
X152006400Y-114448800D02*
X152006400Y-116048800D01*
X151206400Y-114448800D02*
X152006400Y-114448800D01*
D13*
X114573200Y-105850800D02*
X115398200Y-105850800D01*
X114573200Y-100770800D02*
X114573200Y-105850800D01*
X115398200Y-100770800D02*
X114573200Y-100770800D01*
X119653200Y-105850800D02*
X118828200Y-105850800D01*
X119653200Y-100770800D02*
X119653200Y-105850800D01*
X118828200Y-100770800D02*
X119653200Y-100770800D01*
X118828200Y-100770800D02*
X118828200Y-100135800D01*
X118828200Y-105850800D02*
X118828200Y-100770800D01*
X114854619Y-99710800D02*
G75*
G03X114854619Y-99710800I-141419J0D01*
G01*
X118828200Y-106485800D02*
X118828200Y-105850800D01*
X115398200Y-106485800D02*
X118828200Y-106485800D01*
X115398200Y-105850800D02*
X115398200Y-106485800D01*
X115398200Y-100770800D02*
X115398200Y-105850800D01*
X115398200Y-100135800D02*
X115398200Y-100770800D01*
X118828200Y-100135800D02*
X115398200Y-100135800D01*
D14*
X124238000Y-79612400D02*
X125838000Y-79612400D01*
X124238000Y-76412400D02*
X124238000Y-79612400D01*
X125438000Y-76412400D02*
X124238000Y-76412400D01*
X125838000Y-76812400D02*
X125438000Y-76412400D01*
X125838000Y-79612400D02*
X125838000Y-76812400D01*
X148056800Y-80844400D02*
X148056800Y-79244400D01*
X148856800Y-80844400D02*
X148056800Y-80844400D01*
X148856800Y-79244400D02*
X148856800Y-80844400D01*
X148056800Y-79244400D02*
X148856800Y-79244400D01*
X151816000Y-88566000D02*
X151816000Y-86966000D01*
X152616000Y-88566000D02*
X151816000Y-88566000D01*
X152616000Y-86966000D02*
X152616000Y-88566000D01*
X151816000Y-86966000D02*
X152616000Y-86966000D01*
X142265600Y-84857600D02*
X142265600Y-83257600D01*
X143065600Y-84857600D02*
X142265600Y-84857600D01*
X143065600Y-83257600D02*
X143065600Y-84857600D01*
X142265600Y-83257600D02*
X143065600Y-83257600D01*
X141078000Y-76888400D02*
X139478000Y-76888400D01*
X141078000Y-76088400D02*
X141078000Y-76888400D01*
X139478000Y-76088400D02*
X141078000Y-76088400D01*
X139478000Y-76888400D02*
X139478000Y-76088400D01*
X134028000Y-85473600D02*
X132428000Y-85473600D01*
X134028000Y-84673600D02*
X134028000Y-85473600D01*
X132428000Y-84673600D02*
X134028000Y-84673600D01*
X132428000Y-85473600D02*
X132428000Y-84673600D01*
X135866400Y-114445200D02*
X135866400Y-116045200D01*
X135066400Y-114445200D02*
X135866400Y-114445200D01*
X135066400Y-116045200D02*
X135066400Y-114445200D01*
X135866400Y-116045200D02*
X135066400Y-116045200D01*
X122136000Y-106117600D02*
X122136000Y-107717600D01*
X121336000Y-106117600D02*
X122136000Y-106117600D01*
X121336000Y-107717600D02*
X121336000Y-106117600D01*
X122136000Y-107717600D02*
X121336000Y-107717600D01*
X132228000Y-83898800D02*
X130628000Y-83898800D01*
X132228000Y-83098800D02*
X132228000Y-83898800D01*
X130628000Y-83098800D02*
X132228000Y-83098800D01*
X130628000Y-83898800D02*
X130628000Y-83098800D01*
X123685400Y-106117600D02*
X123685400Y-107717600D01*
X122885400Y-106117600D02*
X123685400Y-106117600D01*
X122885400Y-107717600D02*
X122885400Y-106117600D01*
X123685400Y-107717600D02*
X122885400Y-107717600D01*
X125234800Y-106117600D02*
X125234800Y-107717600D01*
X124434800Y-106117600D02*
X125234800Y-106117600D01*
X124434800Y-107717600D02*
X124434800Y-106117600D01*
X125234800Y-107717600D02*
X124434800Y-107717600D01*
X123507600Y-76196400D02*
X123507600Y-77796400D01*
X122707600Y-76196400D02*
X123507600Y-76196400D01*
X122707600Y-77796400D02*
X122707600Y-76196400D01*
X123507600Y-77796400D02*
X122707600Y-77796400D01*
X167644000Y-112786400D02*
X167644000Y-118786400D01*
X168284000Y-118786400D02*
X167644000Y-118786400D01*
X168284000Y-112786400D02*
X168284000Y-118786400D01*
X167644000Y-108426400D02*
X167644000Y-110246400D01*
X168284000Y-108426400D02*
X167644000Y-108426400D01*
X168284000Y-108426400D02*
X168284000Y-110246400D01*
X170184000Y-112786400D02*
X170184000Y-118786400D01*
X170824000Y-118786400D02*
X170184000Y-118786400D01*
X170824000Y-112786400D02*
X170824000Y-118786400D01*
X170184000Y-108426400D02*
X170184000Y-110246400D01*
X170824000Y-108426400D02*
X170184000Y-108426400D01*
X170824000Y-108426400D02*
X170824000Y-110246400D01*
X171139000Y-110246400D02*
X171774000Y-110881400D01*
X166694000Y-110246400D02*
X171139000Y-110246400D01*
X166694000Y-112786400D02*
X166694000Y-110246400D01*
X171774000Y-112786400D02*
X166694000Y-112786400D01*
X171774000Y-110881400D02*
X171774000Y-112786400D01*
X111055000Y-74655000D02*
X120225000Y-74655000D01*
X111055000Y-83605000D02*
X111055000Y-74655000D01*
X120225000Y-83605000D02*
X111055000Y-83605000D01*
X120225000Y-74655000D02*
X120225000Y-83605000D01*
D13*
X113565000Y-73830000D02*
X113565000Y-85030000D01*
X126919600Y-89643600D02*
X126919600Y-85583600D01*
X130979600Y-89643600D02*
X130979600Y-85583600D01*
X130979600Y-85583600D02*
X126919600Y-85583600D01*
X130979600Y-89643600D02*
X126919600Y-89643600D01*
D12*
X126289600Y-86093600D02*
G75*
G03X126289600Y-86093600I-100000J0D01*
G01*
X138509800Y-78155400D02*
G75*
G03X138509800Y-78155400I-100000J0D01*
G01*
D13*
X139209800Y-77580400D02*
X142209800Y-77580400D01*
X139209800Y-80730400D02*
X139209800Y-77580400D01*
X142209800Y-80730400D02*
X139209800Y-80730400D01*
X142209800Y-77580400D02*
X142209800Y-80730400D01*
D12*
X138640000Y-80130000D02*
G75*
G03X138640000Y-80130000I-100000J0D01*
G01*
D13*
X137740000Y-80705000D02*
X134740000Y-80705000D01*
X137740000Y-77555000D02*
X137740000Y-80705000D01*
X134740000Y-77555000D02*
X137740000Y-77555000D01*
X134740000Y-80705000D02*
X134740000Y-77555000D01*
D16*
X167320637Y-104958829D02*
X167320637Y-104481521D01*
X167607022Y-105054290D02*
X166604676Y-104720175D01*
X167607022Y-104386060D01*
X167702483Y-103383714D02*
X167654753Y-103479175D01*
X167559291Y-103574637D01*
X167416099Y-103717829D01*
X167368368Y-103813291D01*
X167368368Y-103908752D01*
X167607022Y-103861021D02*
X167559291Y-103956483D01*
X167463829Y-104051944D01*
X167272906Y-104099675D01*
X166938791Y-104099675D01*
X166747868Y-104051944D01*
X166652407Y-103956483D01*
X166604676Y-103861021D01*
X166604676Y-103670098D01*
X166652407Y-103574637D01*
X166747868Y-103479175D01*
X166938791Y-103431445D01*
X167272906Y-103431445D01*
X167463829Y-103479175D01*
X167559291Y-103574637D01*
X167607022Y-103670098D01*
X167607022Y-103861021D01*
X166604676Y-103145060D02*
X167607022Y-102810945D01*
X166604676Y-102476829D01*
X166700137Y-102190445D02*
X166652407Y-102142714D01*
X166604676Y-102047252D01*
X166604676Y-101808599D01*
X166652407Y-101713137D01*
X166700137Y-101665406D01*
X166795599Y-101617676D01*
X166891060Y-101617676D01*
X167034253Y-101665406D01*
X167607022Y-102238175D01*
X167607022Y-101617676D01*
X166604676Y-100710791D02*
X166604676Y-101188099D01*
X167081983Y-101235829D01*
X167034253Y-101188099D01*
X166986522Y-101092637D01*
X166986522Y-100853983D01*
X167034253Y-100758522D01*
X167081983Y-100710791D01*
X167177445Y-100663060D01*
X167416099Y-100663060D01*
X167511560Y-100710791D01*
X167559291Y-100758522D01*
X167607022Y-100853983D01*
X167607022Y-101092637D01*
X167559291Y-101188099D01*
X167511560Y-101235829D01*
X166700137Y-100281214D02*
X166652407Y-100233483D01*
X166604676Y-100138022D01*
X166604676Y-99899368D01*
X166652407Y-99803907D01*
X166700137Y-99756176D01*
X166795599Y-99708445D01*
X166891060Y-99708445D01*
X167034253Y-99756176D01*
X167607022Y-100328945D01*
X167607022Y-99708445D01*
X166652407Y-98753830D02*
X166604676Y-98849291D01*
X166604676Y-98992484D01*
X166652407Y-99135676D01*
X166747868Y-99231137D01*
X166843330Y-99278868D01*
X167034253Y-99326599D01*
X167177445Y-99326599D01*
X167368368Y-99278868D01*
X167463829Y-99231137D01*
X167559291Y-99135676D01*
X167607022Y-98992484D01*
X167607022Y-98897022D01*
X167559291Y-98753830D01*
X167511560Y-98706099D01*
X167177445Y-98706099D01*
X167177445Y-98897022D01*
X167320637Y-98324253D02*
X167320637Y-97846945D01*
X167607022Y-98419715D02*
X166604676Y-98085599D01*
X167607022Y-97751484D01*
X166604676Y-97512830D02*
X167607022Y-96844599D01*
X166604676Y-96844599D02*
X167607022Y-97512830D01*
D17*
X118581657Y-114098685D02*
X118653085Y-114122495D01*
X118676895Y-114146304D01*
X118700704Y-114193923D01*
X118700704Y-114265352D01*
X118676895Y-114312971D01*
X118653085Y-114336780D01*
X118605466Y-114360590D01*
X118414990Y-114360590D01*
X118414990Y-113860590D01*
X118581657Y-113860590D01*
X118629276Y-113884400D01*
X118653085Y-113908209D01*
X118676895Y-113955828D01*
X118676895Y-114003447D01*
X118653085Y-114051066D01*
X118629276Y-114074876D01*
X118581657Y-114098685D01*
X118414990Y-114098685D01*
X118914990Y-114360590D02*
X118914990Y-113860590D01*
X119081657Y-114217733D01*
X119248323Y-113860590D01*
X119248323Y-114360590D01*
X119486419Y-114360590D02*
X119486419Y-113860590D01*
X119605466Y-113860590D01*
X119676895Y-113884400D01*
X119724514Y-113932019D01*
X119748323Y-113979638D01*
X119772133Y-114074876D01*
X119772133Y-114146304D01*
X119748323Y-114241542D01*
X119724514Y-114289161D01*
X119676895Y-114336780D01*
X119605466Y-114360590D01*
X119486419Y-114360590D01*
X119986419Y-114170114D02*
X120367371Y-114170114D01*
X120557847Y-113860590D02*
X120867371Y-113860590D01*
X120700704Y-114051066D01*
X120772133Y-114051066D01*
X120819752Y-114074876D01*
X120843561Y-114098685D01*
X120867371Y-114146304D01*
X120867371Y-114265352D01*
X120843561Y-114312971D01*
X120819752Y-114336780D01*
X120772133Y-114360590D01*
X120629276Y-114360590D01*
X120581657Y-114336780D01*
X120557847Y-114312971D01*
X121295942Y-114027257D02*
X121295942Y-114360590D01*
X121176895Y-113836780D02*
X121057847Y-114193923D01*
X121367371Y-114193923D01*
X121653085Y-113860590D02*
X121700704Y-113860590D01*
X121748323Y-113884400D01*
X121772133Y-113908209D01*
X121795942Y-113955828D01*
X121819752Y-114051066D01*
X121819752Y-114170114D01*
X121795942Y-114265352D01*
X121772133Y-114312971D01*
X121748323Y-114336780D01*
X121700704Y-114360590D01*
X121653085Y-114360590D01*
X121605466Y-114336780D01*
X121581657Y-114312971D01*
X121557847Y-114265352D01*
X121534038Y-114170114D01*
X121534038Y-114051066D01*
X121557847Y-113955828D01*
X121581657Y-113908209D01*
X121605466Y-113884400D01*
X121653085Y-113860590D01*
X122034038Y-114170114D02*
X122414990Y-114170114D01*
X122629276Y-114217733D02*
X122867371Y-114217733D01*
X122581657Y-114360590D02*
X122748323Y-113860590D01*
X122914990Y-114360590D01*
X123081657Y-114170114D02*
X123462609Y-114170114D01*
X123986419Y-114360590D02*
X123819752Y-114122495D01*
X123700704Y-114360590D02*
X123700704Y-113860590D01*
X123891180Y-113860590D01*
X123938800Y-113884400D01*
X123962609Y-113908209D01*
X123986419Y-113955828D01*
X123986419Y-114027257D01*
X123962609Y-114074876D01*
X123938800Y-114098685D01*
X123891180Y-114122495D01*
X123700704Y-114122495D01*
X145534038Y-113060590D02*
X145653085Y-113560590D01*
X145748323Y-113203447D01*
X145843561Y-113560590D01*
X145962609Y-113060590D01*
X146129276Y-113536780D02*
X146200704Y-113560590D01*
X146319752Y-113560590D01*
X146367371Y-113536780D01*
X146391180Y-113512971D01*
X146414990Y-113465352D01*
X146414990Y-113417733D01*
X146391180Y-113370114D01*
X146367371Y-113346304D01*
X146319752Y-113322495D01*
X146224514Y-113298685D01*
X146176895Y-113274876D01*
X146153085Y-113251066D01*
X146129276Y-113203447D01*
X146129276Y-113155828D01*
X146153085Y-113108209D01*
X146176895Y-113084400D01*
X146224514Y-113060590D01*
X146343561Y-113060590D01*
X146414990Y-113084400D01*
X146605466Y-113108209D02*
X146629276Y-113084400D01*
X146676895Y-113060590D01*
X146795942Y-113060590D01*
X146843561Y-113084400D01*
X146867371Y-113108209D01*
X146891180Y-113155828D01*
X146891180Y-113203447D01*
X146867371Y-113274876D01*
X146581657Y-113560590D01*
X146891180Y-113560590D01*
X147176895Y-113274876D02*
X147129276Y-113251066D01*
X147105466Y-113227257D01*
X147081657Y-113179638D01*
X147081657Y-113155828D01*
X147105466Y-113108209D01*
X147129276Y-113084400D01*
X147176895Y-113060590D01*
X147272133Y-113060590D01*
X147319752Y-113084400D01*
X147343561Y-113108209D01*
X147367371Y-113155828D01*
X147367371Y-113179638D01*
X147343561Y-113227257D01*
X147319752Y-113251066D01*
X147272133Y-113274876D01*
X147176895Y-113274876D01*
X147129276Y-113298685D01*
X147105466Y-113322495D01*
X147081657Y-113370114D01*
X147081657Y-113465352D01*
X147105466Y-113512971D01*
X147129276Y-113536780D01*
X147176895Y-113560590D01*
X147272133Y-113560590D01*
X147319752Y-113536780D01*
X147343561Y-113512971D01*
X147367371Y-113465352D01*
X147367371Y-113370114D01*
X147343561Y-113322495D01*
X147319752Y-113298685D01*
X147272133Y-113274876D01*
X147843561Y-113560590D02*
X147557847Y-113560590D01*
X147700704Y-113560590D02*
X147700704Y-113060590D01*
X147653085Y-113132019D01*
X147605466Y-113179638D01*
X147557847Y-113203447D01*
X148034038Y-113108209D02*
X148057847Y-113084400D01*
X148105466Y-113060590D01*
X148224514Y-113060590D01*
X148272133Y-113084400D01*
X148295942Y-113108209D01*
X148319752Y-113155828D01*
X148319752Y-113203447D01*
X148295942Y-113274876D01*
X148010228Y-113560590D01*
X148319752Y-113560590D01*
X148700704Y-113298685D02*
X148772133Y-113322495D01*
X148795942Y-113346304D01*
X148819752Y-113393923D01*
X148819752Y-113465352D01*
X148795942Y-113512971D01*
X148772133Y-113536780D01*
X148724514Y-113560590D01*
X148534038Y-113560590D01*
X148534038Y-113060590D01*
X148700704Y-113060590D01*
X148748323Y-113084400D01*
X148772133Y-113108209D01*
X148795942Y-113155828D01*
X148795942Y-113203447D01*
X148772133Y-113251066D01*
X148748323Y-113274876D01*
X148700704Y-113298685D01*
X148534038Y-113298685D01*
D18*
X146647123Y-116880704D02*
X146647123Y-116080704D01*
X146837600Y-116080704D01*
X146951885Y-116118800D01*
X147028076Y-116194990D01*
X147066171Y-116271180D01*
X147104266Y-116423561D01*
X147104266Y-116537847D01*
X147066171Y-116690228D01*
X147028076Y-116766419D01*
X146951885Y-116842609D01*
X146837600Y-116880704D01*
X146647123Y-116880704D01*
X147409028Y-116156895D02*
X147447123Y-116118800D01*
X147523314Y-116080704D01*
X147713790Y-116080704D01*
X147789980Y-116118800D01*
X147828076Y-116156895D01*
X147866171Y-116233085D01*
X147866171Y-116309276D01*
X147828076Y-116423561D01*
X147370933Y-116880704D01*
X147866171Y-116880704D01*
D17*
X157580990Y-121236780D02*
X157652419Y-121260590D01*
X157771466Y-121260590D01*
X157819085Y-121236780D01*
X157842895Y-121212971D01*
X157866704Y-121165352D01*
X157866704Y-121117733D01*
X157842895Y-121070114D01*
X157819085Y-121046304D01*
X157771466Y-121022495D01*
X157676228Y-120998685D01*
X157628609Y-120974876D01*
X157604800Y-120951066D01*
X157580990Y-120903447D01*
X157580990Y-120855828D01*
X157604800Y-120808209D01*
X157628609Y-120784400D01*
X157676228Y-120760590D01*
X157795276Y-120760590D01*
X157866704Y-120784400D01*
X158295276Y-121236780D02*
X158247657Y-121260590D01*
X158152419Y-121260590D01*
X158104800Y-121236780D01*
X158080990Y-121212971D01*
X158057180Y-121165352D01*
X158057180Y-121022495D01*
X158080990Y-120974876D01*
X158104800Y-120951066D01*
X158152419Y-120927257D01*
X158247657Y-120927257D01*
X158295276Y-120951066D01*
X158509561Y-121260590D02*
X158509561Y-120927257D01*
X158509561Y-121022495D02*
X158533371Y-120974876D01*
X158557180Y-120951066D01*
X158604800Y-120927257D01*
X158652419Y-120927257D01*
X159009561Y-121236780D02*
X158961942Y-121260590D01*
X158866704Y-121260590D01*
X158819085Y-121236780D01*
X158795276Y-121189161D01*
X158795276Y-120998685D01*
X158819085Y-120951066D01*
X158866704Y-120927257D01*
X158961942Y-120927257D01*
X159009561Y-120951066D01*
X159033371Y-120998685D01*
X159033371Y-121046304D01*
X158795276Y-121093923D01*
X159200038Y-120927257D02*
X159295276Y-121260590D01*
X159390514Y-121022495D01*
X159485752Y-121260590D01*
X159580990Y-120927257D01*
X160080990Y-120760590D02*
X160366704Y-120760590D01*
X160223847Y-121260590D02*
X160223847Y-120760590D01*
X160723847Y-121236780D02*
X160676228Y-121260590D01*
X160580990Y-121260590D01*
X160533371Y-121236780D01*
X160509561Y-121189161D01*
X160509561Y-120998685D01*
X160533371Y-120951066D01*
X160580990Y-120927257D01*
X160676228Y-120927257D01*
X160723847Y-120951066D01*
X160747657Y-120998685D01*
X160747657Y-121046304D01*
X160509561Y-121093923D01*
X160961942Y-121260590D02*
X160961942Y-120927257D01*
X160961942Y-121022495D02*
X160985752Y-120974876D01*
X161009561Y-120951066D01*
X161057180Y-120927257D01*
X161104800Y-120927257D01*
X161271466Y-121260590D02*
X161271466Y-120927257D01*
X161271466Y-120974876D02*
X161295276Y-120951066D01*
X161342895Y-120927257D01*
X161414323Y-120927257D01*
X161461942Y-120951066D01*
X161485752Y-120998685D01*
X161485752Y-121260590D01*
X161485752Y-120998685D02*
X161509561Y-120951066D01*
X161557180Y-120927257D01*
X161628609Y-120927257D01*
X161676228Y-120951066D01*
X161700038Y-120998685D01*
X161700038Y-121260590D01*
X161938133Y-121260590D02*
X161938133Y-120927257D01*
X161938133Y-120760590D02*
X161914323Y-120784400D01*
X161938133Y-120808209D01*
X161961942Y-120784400D01*
X161938133Y-120760590D01*
X161938133Y-120808209D01*
X162176228Y-120927257D02*
X162176228Y-121260590D01*
X162176228Y-120974876D02*
X162200038Y-120951066D01*
X162247657Y-120927257D01*
X162319085Y-120927257D01*
X162366704Y-120951066D01*
X162390514Y-120998685D01*
X162390514Y-121260590D01*
X162842895Y-121260590D02*
X162842895Y-120998685D01*
X162819085Y-120951066D01*
X162771466Y-120927257D01*
X162676228Y-120927257D01*
X162628609Y-120951066D01*
X162842895Y-121236780D02*
X162795276Y-121260590D01*
X162676228Y-121260590D01*
X162628609Y-121236780D01*
X162604800Y-121189161D01*
X162604800Y-121141542D01*
X162628609Y-121093923D01*
X162676228Y-121070114D01*
X162795276Y-121070114D01*
X162842895Y-121046304D01*
X163152419Y-121260590D02*
X163104800Y-121236780D01*
X163080990Y-121189161D01*
X163080990Y-120760590D01*
D18*
X160155466Y-109986780D02*
X160155466Y-110701066D01*
X160107847Y-110843923D01*
X160012609Y-110939161D01*
X159869752Y-110986780D01*
X159774514Y-110986780D01*
X160584038Y-110082019D02*
X160631657Y-110034400D01*
X160726895Y-109986780D01*
X160964990Y-109986780D01*
X161060228Y-110034400D01*
X161107847Y-110082019D01*
X161155466Y-110177257D01*
X161155466Y-110272495D01*
X161107847Y-110415352D01*
X160536419Y-110986780D01*
X161155466Y-110986780D01*
D17*
X157014990Y-107232019D02*
X157014990Y-107517733D01*
X157014990Y-107374876D02*
X156514990Y-107374876D01*
X156586419Y-107422495D01*
X156634038Y-107470114D01*
X156657847Y-107517733D01*
X156681657Y-106803447D02*
X157014990Y-106803447D01*
X156681657Y-107017733D02*
X156943561Y-107017733D01*
X156991180Y-106993923D01*
X157014990Y-106946304D01*
X157014990Y-106874876D01*
X156991180Y-106827257D01*
X156967371Y-106803447D01*
X156753085Y-106398685D02*
X156753085Y-106565352D01*
X157014990Y-106565352D02*
X156514990Y-106565352D01*
X156514990Y-106327257D01*
D19*
X156727657Y-104837942D02*
X156746704Y-104856990D01*
X156765752Y-104914133D01*
X156765752Y-104952228D01*
X156746704Y-105009371D01*
X156708609Y-105047466D01*
X156670514Y-105066514D01*
X156594323Y-105085561D01*
X156537180Y-105085561D01*
X156460990Y-105066514D01*
X156422895Y-105047466D01*
X156384800Y-105009371D01*
X156365752Y-104952228D01*
X156365752Y-104914133D01*
X156384800Y-104856990D01*
X156403847Y-104837942D01*
X156765752Y-104456990D02*
X156765752Y-104685561D01*
X156765752Y-104571276D02*
X156365752Y-104571276D01*
X156422895Y-104609371D01*
X156460990Y-104647466D01*
X156480038Y-104685561D01*
X156365752Y-104323657D02*
X156365752Y-104076038D01*
X156518133Y-104209371D01*
X156518133Y-104152228D01*
X156537180Y-104114133D01*
X156556228Y-104095085D01*
X156594323Y-104076038D01*
X156689561Y-104076038D01*
X156727657Y-104095085D01*
X156746704Y-104114133D01*
X156765752Y-104152228D01*
X156765752Y-104266514D01*
X156746704Y-104304609D01*
X156727657Y-104323657D01*
D17*
X122314990Y-96465352D02*
X121814990Y-96465352D01*
X121814990Y-96346305D01*
X121838800Y-96274876D01*
X121886419Y-96227257D01*
X121934038Y-96203448D01*
X122029276Y-96179638D01*
X122100704Y-96179638D01*
X122195942Y-96203448D01*
X122243561Y-96227257D01*
X122291180Y-96274876D01*
X122314990Y-96346305D01*
X122314990Y-96465352D01*
X122362609Y-96084400D02*
X122362609Y-95703448D01*
X122291180Y-95608210D02*
X122314990Y-95536781D01*
X122314990Y-95417733D01*
X122291180Y-95370114D01*
X122267371Y-95346305D01*
X122219752Y-95322495D01*
X122172133Y-95322495D01*
X122124514Y-95346305D01*
X122100704Y-95370114D01*
X122076895Y-95417733D01*
X122053085Y-95512971D01*
X122029276Y-95560591D01*
X122005466Y-95584400D01*
X121957847Y-95608210D01*
X121910228Y-95608210D01*
X121862609Y-95584400D01*
X121838800Y-95560591D01*
X121814990Y-95512971D01*
X121814990Y-95393924D01*
X121838800Y-95322495D01*
X122291180Y-94893924D02*
X122314990Y-94941543D01*
X122314990Y-95036781D01*
X122291180Y-95084400D01*
X122267371Y-95108210D01*
X122219752Y-95132019D01*
X122076895Y-95132019D01*
X122029276Y-95108210D01*
X122005466Y-95084400D01*
X121981657Y-95036781D01*
X121981657Y-94941543D01*
X122005466Y-94893924D01*
X122314990Y-94679638D02*
X121814990Y-94679638D01*
X122314990Y-94465352D02*
X122053085Y-94465352D01*
X122005466Y-94489162D01*
X121981657Y-94536781D01*
X121981657Y-94608210D01*
X122005466Y-94655829D01*
X122029276Y-94679638D01*
X122314990Y-94155829D02*
X122291180Y-94203448D01*
X122267371Y-94227257D01*
X122219752Y-94251067D01*
X122076895Y-94251067D01*
X122029276Y-94227257D01*
X122005466Y-94203448D01*
X121981657Y-94155829D01*
X121981657Y-94084400D01*
X122005466Y-94036781D01*
X122029276Y-94012971D01*
X122076895Y-93989162D01*
X122219752Y-93989162D01*
X122267371Y-94012971D01*
X122291180Y-94036781D01*
X122314990Y-94084400D01*
X122314990Y-94155829D01*
X121981657Y-93846305D02*
X121981657Y-93655829D01*
X121814990Y-93774876D02*
X122243561Y-93774876D01*
X122291180Y-93751067D01*
X122314990Y-93703448D01*
X122314990Y-93655829D01*
X121981657Y-93560591D02*
X121981657Y-93370114D01*
X121814990Y-93489162D02*
X122243561Y-93489162D01*
X122291180Y-93465352D01*
X122314990Y-93417733D01*
X122314990Y-93370114D01*
X122314990Y-93203448D02*
X121814990Y-93203448D01*
X122124514Y-93155829D02*
X122314990Y-93012971D01*
X121981657Y-93012971D02*
X122172133Y-93203448D01*
X121981657Y-92846305D02*
X122314990Y-92727257D01*
X121981657Y-92608210D02*
X122314990Y-92727257D01*
X122434038Y-92774876D01*
X122457847Y-92798686D01*
X122481657Y-92846305D01*
D19*
X122272552Y-90804438D02*
X121872552Y-90804438D01*
X121872552Y-90709200D01*
X121891600Y-90652057D01*
X121929695Y-90613961D01*
X121967790Y-90594914D01*
X122043980Y-90575866D01*
X122101123Y-90575866D01*
X122177314Y-90594914D01*
X122215409Y-90613961D01*
X122253504Y-90652057D01*
X122272552Y-90709200D01*
X122272552Y-90804438D01*
X121872552Y-90233009D02*
X121872552Y-90309200D01*
X121891600Y-90347295D01*
X121910647Y-90366342D01*
X121967790Y-90404438D01*
X122043980Y-90423485D01*
X122196361Y-90423485D01*
X122234457Y-90404438D01*
X122253504Y-90385390D01*
X122272552Y-90347295D01*
X122272552Y-90271104D01*
X122253504Y-90233009D01*
X122234457Y-90213961D01*
X122196361Y-90194914D01*
X122101123Y-90194914D01*
X122063028Y-90213961D01*
X122043980Y-90233009D01*
X122024933Y-90271104D01*
X122024933Y-90347295D01*
X122043980Y-90385390D01*
X122063028Y-90404438D01*
X122101123Y-90423485D01*
D17*
X123814990Y-96465352D02*
X123314990Y-96465352D01*
X123314990Y-96346305D01*
X123338800Y-96274876D01*
X123386419Y-96227257D01*
X123434038Y-96203448D01*
X123529276Y-96179638D01*
X123600704Y-96179638D01*
X123695942Y-96203448D01*
X123743561Y-96227257D01*
X123791180Y-96274876D01*
X123814990Y-96346305D01*
X123814990Y-96465352D01*
X123862609Y-96084400D02*
X123862609Y-95703448D01*
X123791180Y-95608210D02*
X123814990Y-95536781D01*
X123814990Y-95417733D01*
X123791180Y-95370114D01*
X123767371Y-95346305D01*
X123719752Y-95322495D01*
X123672133Y-95322495D01*
X123624514Y-95346305D01*
X123600704Y-95370114D01*
X123576895Y-95417733D01*
X123553085Y-95512971D01*
X123529276Y-95560591D01*
X123505466Y-95584400D01*
X123457847Y-95608210D01*
X123410228Y-95608210D01*
X123362609Y-95584400D01*
X123338800Y-95560591D01*
X123314990Y-95512971D01*
X123314990Y-95393924D01*
X123338800Y-95322495D01*
X123791180Y-94893924D02*
X123814990Y-94941543D01*
X123814990Y-95036781D01*
X123791180Y-95084400D01*
X123767371Y-95108210D01*
X123719752Y-95132019D01*
X123576895Y-95132019D01*
X123529276Y-95108210D01*
X123505466Y-95084400D01*
X123481657Y-95036781D01*
X123481657Y-94941543D01*
X123505466Y-94893924D01*
X123814990Y-94679638D02*
X123314990Y-94679638D01*
X123814990Y-94465352D02*
X123553085Y-94465352D01*
X123505466Y-94489162D01*
X123481657Y-94536781D01*
X123481657Y-94608210D01*
X123505466Y-94655829D01*
X123529276Y-94679638D01*
X123814990Y-94155829D02*
X123791180Y-94203448D01*
X123767371Y-94227257D01*
X123719752Y-94251067D01*
X123576895Y-94251067D01*
X123529276Y-94227257D01*
X123505466Y-94203448D01*
X123481657Y-94155829D01*
X123481657Y-94084400D01*
X123505466Y-94036781D01*
X123529276Y-94012971D01*
X123576895Y-93989162D01*
X123719752Y-93989162D01*
X123767371Y-94012971D01*
X123791180Y-94036781D01*
X123814990Y-94084400D01*
X123814990Y-94155829D01*
X123481657Y-93846305D02*
X123481657Y-93655829D01*
X123314990Y-93774876D02*
X123743561Y-93774876D01*
X123791180Y-93751067D01*
X123814990Y-93703448D01*
X123814990Y-93655829D01*
X123481657Y-93560591D02*
X123481657Y-93370114D01*
X123314990Y-93489162D02*
X123743561Y-93489162D01*
X123791180Y-93465352D01*
X123814990Y-93417733D01*
X123814990Y-93370114D01*
X123814990Y-93203448D02*
X123314990Y-93203448D01*
X123624514Y-93155829D02*
X123814990Y-93012971D01*
X123481657Y-93012971D02*
X123672133Y-93203448D01*
X123481657Y-92846305D02*
X123814990Y-92727257D01*
X123481657Y-92608210D02*
X123814990Y-92727257D01*
X123934038Y-92774876D01*
X123957847Y-92798686D01*
X123981657Y-92846305D01*
D19*
X123898152Y-90804438D02*
X123498152Y-90804438D01*
X123498152Y-90709200D01*
X123517200Y-90652057D01*
X123555295Y-90613961D01*
X123593390Y-90594914D01*
X123669580Y-90575866D01*
X123726723Y-90575866D01*
X123802914Y-90594914D01*
X123841009Y-90613961D01*
X123879104Y-90652057D01*
X123898152Y-90709200D01*
X123898152Y-90804438D01*
X123498152Y-90213961D02*
X123498152Y-90404438D01*
X123688628Y-90423485D01*
X123669580Y-90404438D01*
X123650533Y-90366342D01*
X123650533Y-90271104D01*
X123669580Y-90233009D01*
X123688628Y-90213961D01*
X123726723Y-90194914D01*
X123821961Y-90194914D01*
X123860057Y-90213961D01*
X123879104Y-90233009D01*
X123898152Y-90271104D01*
X123898152Y-90366342D01*
X123879104Y-90404438D01*
X123860057Y-90423485D01*
D17*
X138470838Y-113060590D02*
X138589885Y-113560590D01*
X138685123Y-113203447D01*
X138780361Y-113560590D01*
X138899409Y-113060590D01*
X139066076Y-113536780D02*
X139137504Y-113560590D01*
X139256552Y-113560590D01*
X139304171Y-113536780D01*
X139327980Y-113512971D01*
X139351790Y-113465352D01*
X139351790Y-113417733D01*
X139327980Y-113370114D01*
X139304171Y-113346304D01*
X139256552Y-113322495D01*
X139161314Y-113298685D01*
X139113695Y-113274876D01*
X139089885Y-113251066D01*
X139066076Y-113203447D01*
X139066076Y-113155828D01*
X139089885Y-113108209D01*
X139113695Y-113084400D01*
X139161314Y-113060590D01*
X139280361Y-113060590D01*
X139351790Y-113084400D01*
X139542266Y-113108209D02*
X139566076Y-113084400D01*
X139613695Y-113060590D01*
X139732742Y-113060590D01*
X139780361Y-113084400D01*
X139804171Y-113108209D01*
X139827980Y-113155828D01*
X139827980Y-113203447D01*
X139804171Y-113274876D01*
X139518457Y-113560590D01*
X139827980Y-113560590D01*
X140113695Y-113274876D02*
X140066076Y-113251066D01*
X140042266Y-113227257D01*
X140018457Y-113179638D01*
X140018457Y-113155828D01*
X140042266Y-113108209D01*
X140066076Y-113084400D01*
X140113695Y-113060590D01*
X140208933Y-113060590D01*
X140256552Y-113084400D01*
X140280361Y-113108209D01*
X140304171Y-113155828D01*
X140304171Y-113179638D01*
X140280361Y-113227257D01*
X140256552Y-113251066D01*
X140208933Y-113274876D01*
X140113695Y-113274876D01*
X140066076Y-113298685D01*
X140042266Y-113322495D01*
X140018457Y-113370114D01*
X140018457Y-113465352D01*
X140042266Y-113512971D01*
X140066076Y-113536780D01*
X140113695Y-113560590D01*
X140208933Y-113560590D01*
X140256552Y-113536780D01*
X140280361Y-113512971D01*
X140304171Y-113465352D01*
X140304171Y-113370114D01*
X140280361Y-113322495D01*
X140256552Y-113298685D01*
X140208933Y-113274876D01*
X140780361Y-113560590D02*
X140494647Y-113560590D01*
X140637504Y-113560590D02*
X140637504Y-113060590D01*
X140589885Y-113132019D01*
X140542266Y-113179638D01*
X140494647Y-113203447D01*
X140970838Y-113108209D02*
X140994647Y-113084400D01*
X141042266Y-113060590D01*
X141161314Y-113060590D01*
X141208933Y-113084400D01*
X141232742Y-113108209D01*
X141256552Y-113155828D01*
X141256552Y-113203447D01*
X141232742Y-113274876D01*
X140947028Y-113560590D01*
X141256552Y-113560590D01*
X141637504Y-113298685D02*
X141708933Y-113322495D01*
X141732742Y-113346304D01*
X141756552Y-113393923D01*
X141756552Y-113465352D01*
X141732742Y-113512971D01*
X141708933Y-113536780D01*
X141661314Y-113560590D01*
X141470838Y-113560590D01*
X141470838Y-113060590D01*
X141637504Y-113060590D01*
X141685123Y-113084400D01*
X141708933Y-113108209D01*
X141732742Y-113155828D01*
X141732742Y-113203447D01*
X141708933Y-113251066D01*
X141685123Y-113274876D01*
X141637504Y-113298685D01*
X141470838Y-113298685D01*
D18*
X139535123Y-116880704D02*
X139535123Y-116080704D01*
X139725600Y-116080704D01*
X139839885Y-116118800D01*
X139916076Y-116194990D01*
X139954171Y-116271180D01*
X139992266Y-116423561D01*
X139992266Y-116537847D01*
X139954171Y-116690228D01*
X139916076Y-116766419D01*
X139839885Y-116842609D01*
X139725600Y-116880704D01*
X139535123Y-116880704D01*
X140677980Y-116347371D02*
X140677980Y-116880704D01*
X140487504Y-116042609D02*
X140297028Y-116614038D01*
X140792266Y-116614038D01*
D17*
X153467371Y-118412971D02*
X153491180Y-118389161D01*
X153514990Y-118412971D01*
X153491180Y-118436780D01*
X153467371Y-118412971D01*
X153514990Y-118412971D01*
X153514990Y-117912971D02*
X153514990Y-118198685D01*
X153514990Y-118055828D02*
X153014990Y-118055828D01*
X153086419Y-118103447D01*
X153134038Y-118151066D01*
X153157847Y-118198685D01*
X153181657Y-117484400D02*
X153514990Y-117484400D01*
X153181657Y-117698685D02*
X153443561Y-117698685D01*
X153491180Y-117674876D01*
X153514990Y-117627257D01*
X153514990Y-117555828D01*
X153491180Y-117508209D01*
X153467371Y-117484400D01*
X153253085Y-117079638D02*
X153253085Y-117246304D01*
X153514990Y-117246304D02*
X153014990Y-117246304D01*
X153014990Y-117008209D01*
D19*
X153354057Y-115492742D02*
X153373104Y-115511790D01*
X153392152Y-115568933D01*
X153392152Y-115607028D01*
X153373104Y-115664171D01*
X153335009Y-115702266D01*
X153296914Y-115721314D01*
X153220723Y-115740361D01*
X153163580Y-115740361D01*
X153087390Y-115721314D01*
X153049295Y-115702266D01*
X153011200Y-115664171D01*
X152992152Y-115607028D01*
X152992152Y-115568933D01*
X153011200Y-115511790D01*
X153030247Y-115492742D01*
X153030247Y-115340361D02*
X153011200Y-115321314D01*
X152992152Y-115283219D01*
X152992152Y-115187980D01*
X153011200Y-115149885D01*
X153030247Y-115130838D01*
X153068342Y-115111790D01*
X153106438Y-115111790D01*
X153163580Y-115130838D01*
X153392152Y-115359409D01*
X153392152Y-115111790D01*
X152992152Y-114978457D02*
X152992152Y-114711790D01*
X153392152Y-114883219D01*
D17*
X114631657Y-94860590D02*
X114631657Y-95265352D01*
X114655466Y-95312971D01*
X114679276Y-95336780D01*
X114726895Y-95360590D01*
X114822133Y-95360590D01*
X114869752Y-95336780D01*
X114893561Y-95312971D01*
X114917371Y-95265352D01*
X114917371Y-94860590D01*
X115131657Y-95336780D02*
X115203085Y-95360590D01*
X115322133Y-95360590D01*
X115369752Y-95336780D01*
X115393561Y-95312971D01*
X115417371Y-95265352D01*
X115417371Y-95217733D01*
X115393561Y-95170114D01*
X115369752Y-95146304D01*
X115322133Y-95122495D01*
X115226895Y-95098685D01*
X115179276Y-95074876D01*
X115155466Y-95051066D01*
X115131657Y-95003447D01*
X115131657Y-94955828D01*
X115155466Y-94908209D01*
X115179276Y-94884400D01*
X115226895Y-94860590D01*
X115345942Y-94860590D01*
X115417371Y-94884400D01*
X115798323Y-95098685D02*
X115869752Y-95122495D01*
X115893561Y-95146304D01*
X115917371Y-95193923D01*
X115917371Y-95265352D01*
X115893561Y-95312971D01*
X115869752Y-95336780D01*
X115822133Y-95360590D01*
X115631657Y-95360590D01*
X115631657Y-94860590D01*
X115798323Y-94860590D01*
X115845942Y-94884400D01*
X115869752Y-94908209D01*
X115893561Y-94955828D01*
X115893561Y-95003447D01*
X115869752Y-95051066D01*
X115845942Y-95074876D01*
X115798323Y-95098685D01*
X115631657Y-95098685D01*
X116345942Y-94860590D02*
X116250704Y-94860590D01*
X116203085Y-94884400D01*
X116179276Y-94908209D01*
X116131657Y-94979638D01*
X116107847Y-95074876D01*
X116107847Y-95265352D01*
X116131657Y-95312971D01*
X116155466Y-95336780D01*
X116203085Y-95360590D01*
X116298323Y-95360590D01*
X116345942Y-95336780D01*
X116369752Y-95312971D01*
X116393561Y-95265352D01*
X116393561Y-95146304D01*
X116369752Y-95098685D01*
X116345942Y-95074876D01*
X116298323Y-95051066D01*
X116203085Y-95051066D01*
X116155466Y-95074876D01*
X116131657Y-95098685D01*
X116107847Y-95146304D01*
X116774514Y-95098685D02*
X116845942Y-95122495D01*
X116869752Y-95146304D01*
X116893561Y-95193923D01*
X116893561Y-95265352D01*
X116869752Y-95312971D01*
X116845942Y-95336780D01*
X116798323Y-95360590D01*
X116607847Y-95360590D01*
X116607847Y-94860590D01*
X116774514Y-94860590D01*
X116822133Y-94884400D01*
X116845942Y-94908209D01*
X116869752Y-94955828D01*
X116869752Y-95003447D01*
X116845942Y-95051066D01*
X116822133Y-95074876D01*
X116774514Y-95098685D01*
X116607847Y-95098685D01*
X117369752Y-95360590D02*
X117084038Y-95360590D01*
X117226895Y-95360590D02*
X117226895Y-94860590D01*
X117179276Y-94932019D01*
X117131657Y-94979638D01*
X117084038Y-95003447D01*
D18*
X116373333Y-93287866D02*
X117166666Y-93287866D01*
X117260000Y-93241200D01*
X117306666Y-93194533D01*
X117353333Y-93101200D01*
X117353333Y-92914533D01*
X117306666Y-92821200D01*
X117260000Y-92774533D01*
X117166666Y-92727866D01*
X116373333Y-92727866D01*
X117353333Y-92214533D02*
X117353333Y-92027866D01*
X117306666Y-91934533D01*
X117260000Y-91887866D01*
X117120000Y-91794533D01*
X116933333Y-91747866D01*
X116560000Y-91747866D01*
X116466666Y-91794533D01*
X116420000Y-91841200D01*
X116373333Y-91934533D01*
X116373333Y-92121200D01*
X116420000Y-92214533D01*
X116466666Y-92261200D01*
X116560000Y-92307866D01*
X116793333Y-92307866D01*
X116886666Y-92261200D01*
X116933333Y-92214533D01*
X116980000Y-92121200D01*
X116980000Y-91934533D01*
X116933333Y-91841200D01*
X116886666Y-91794533D01*
X116793333Y-91747866D01*
D17*
X120767371Y-94012971D02*
X120791180Y-93989161D01*
X120814990Y-94012971D01*
X120791180Y-94036780D01*
X120767371Y-94012971D01*
X120814990Y-94012971D01*
X120814990Y-93512971D02*
X120814990Y-93798685D01*
X120814990Y-93655828D02*
X120314990Y-93655828D01*
X120386419Y-93703447D01*
X120434038Y-93751066D01*
X120457847Y-93798685D01*
X120481657Y-93084400D02*
X120814990Y-93084400D01*
X120481657Y-93298685D02*
X120743561Y-93298685D01*
X120791180Y-93274876D01*
X120814990Y-93227257D01*
X120814990Y-93155828D01*
X120791180Y-93108209D01*
X120767371Y-93084400D01*
X120553085Y-92679638D02*
X120553085Y-92846304D01*
X120814990Y-92846304D02*
X120314990Y-92846304D01*
X120314990Y-92608209D01*
D19*
X120608857Y-90563142D02*
X120627904Y-90582190D01*
X120646952Y-90639333D01*
X120646952Y-90677428D01*
X120627904Y-90734571D01*
X120589809Y-90772666D01*
X120551714Y-90791714D01*
X120475523Y-90810761D01*
X120418380Y-90810761D01*
X120342190Y-90791714D01*
X120304095Y-90772666D01*
X120266000Y-90734571D01*
X120246952Y-90677428D01*
X120246952Y-90639333D01*
X120266000Y-90582190D01*
X120285047Y-90563142D01*
X120646952Y-90182190D02*
X120646952Y-90410761D01*
X120646952Y-90296476D02*
X120246952Y-90296476D01*
X120304095Y-90334571D01*
X120342190Y-90372666D01*
X120361238Y-90410761D01*
X120285047Y-90029809D02*
X120266000Y-90010761D01*
X120246952Y-89972666D01*
X120246952Y-89877428D01*
X120266000Y-89839333D01*
X120285047Y-89820285D01*
X120323142Y-89801238D01*
X120361238Y-89801238D01*
X120418380Y-89820285D01*
X120646952Y-90048857D01*
X120646952Y-89801238D01*
D17*
X159424514Y-107260590D02*
X159138800Y-107260590D01*
X159281657Y-107260590D02*
X159281657Y-106760590D01*
X159234038Y-106832019D01*
X159186419Y-106879638D01*
X159138800Y-106903447D01*
X159638800Y-107212971D02*
X159662609Y-107236780D01*
X159638800Y-107260590D01*
X159614990Y-107236780D01*
X159638800Y-107212971D01*
X159638800Y-107260590D01*
X160138800Y-107260590D02*
X159853085Y-107260590D01*
X159995942Y-107260590D02*
X159995942Y-106760590D01*
X159948323Y-106832019D01*
X159900704Y-106879638D01*
X159853085Y-106903447D01*
X160353085Y-107260590D02*
X160353085Y-106760590D01*
X160638800Y-107260590D02*
X160424514Y-106974876D01*
X160638800Y-106760590D02*
X160353085Y-107046304D01*
D19*
X162220457Y-107047752D02*
X162087123Y-106857276D01*
X161991885Y-107047752D02*
X161991885Y-106647752D01*
X162144266Y-106647752D01*
X162182361Y-106666800D01*
X162201409Y-106685847D01*
X162220457Y-106723942D01*
X162220457Y-106781085D01*
X162201409Y-106819180D01*
X162182361Y-106838228D01*
X162144266Y-106857276D01*
X161991885Y-106857276D01*
X162372838Y-106685847D02*
X162391885Y-106666800D01*
X162429980Y-106647752D01*
X162525219Y-106647752D01*
X162563314Y-106666800D01*
X162582361Y-106685847D01*
X162601409Y-106723942D01*
X162601409Y-106762038D01*
X162582361Y-106819180D01*
X162353790Y-107047752D01*
X162601409Y-107047752D01*
X162734742Y-106647752D02*
X162982361Y-106647752D01*
X162849028Y-106800133D01*
X162906171Y-106800133D01*
X162944266Y-106819180D01*
X162963314Y-106838228D01*
X162982361Y-106876323D01*
X162982361Y-106971561D01*
X162963314Y-107009657D01*
X162944266Y-107028704D01*
X162906171Y-107047752D01*
X162791885Y-107047752D01*
X162753790Y-107028704D01*
X162734742Y-107009657D01*
D17*
X163453085Y-90160590D02*
X163167371Y-90160590D01*
X163310228Y-90160590D02*
X163310228Y-89660590D01*
X163262609Y-89732019D01*
X163214990Y-89779638D01*
X163167371Y-89803447D01*
X163762609Y-89660590D02*
X163810228Y-89660590D01*
X163857847Y-89684400D01*
X163881657Y-89708209D01*
X163905466Y-89755828D01*
X163929276Y-89851066D01*
X163929276Y-89970114D01*
X163905466Y-90065352D01*
X163881657Y-90112971D01*
X163857847Y-90136780D01*
X163810228Y-90160590D01*
X163762609Y-90160590D01*
X163714990Y-90136780D01*
X163691180Y-90112971D01*
X163667371Y-90065352D01*
X163643561Y-89970114D01*
X163643561Y-89851066D01*
X163667371Y-89755828D01*
X163691180Y-89708209D01*
X163714990Y-89684400D01*
X163762609Y-89660590D01*
X164357847Y-89827257D02*
X164357847Y-90160590D01*
X164143561Y-89827257D02*
X164143561Y-90089161D01*
X164167371Y-90136780D01*
X164214990Y-90160590D01*
X164286419Y-90160590D01*
X164334038Y-90136780D01*
X164357847Y-90112971D01*
X164762609Y-89898685D02*
X164595942Y-89898685D01*
X164595942Y-90160590D02*
X164595942Y-89660590D01*
X164834038Y-89660590D01*
D20*
X159220114Y-90214340D02*
X159182019Y-90252435D01*
X159067733Y-90290530D01*
X158991542Y-90290530D01*
X158877257Y-90252435D01*
X158801066Y-90176245D01*
X158762971Y-90100054D01*
X158724876Y-89947673D01*
X158724876Y-89833387D01*
X158762971Y-89681006D01*
X158801066Y-89604816D01*
X158877257Y-89528626D01*
X158991542Y-89490530D01*
X159067733Y-89490530D01*
X159182019Y-89528626D01*
X159220114Y-89566721D01*
X159524876Y-89566721D02*
X159562971Y-89528626D01*
X159639161Y-89490530D01*
X159829638Y-89490530D01*
X159905828Y-89528626D01*
X159943923Y-89566721D01*
X159982019Y-89642911D01*
X159982019Y-89719102D01*
X159943923Y-89833387D01*
X159486780Y-90290530D01*
X159982019Y-90290530D01*
X160667733Y-89490530D02*
X160515352Y-89490530D01*
X160439161Y-89528626D01*
X160401066Y-89566721D01*
X160324876Y-89681006D01*
X160286780Y-89833387D01*
X160286780Y-90138149D01*
X160324876Y-90214340D01*
X160362971Y-90252435D01*
X160439161Y-90290530D01*
X160591542Y-90290530D01*
X160667733Y-90252435D01*
X160705828Y-90214340D01*
X160743923Y-90138149D01*
X160743923Y-89947673D01*
X160705828Y-89871483D01*
X160667733Y-89833387D01*
X160591542Y-89795292D01*
X160439161Y-89795292D01*
X160362971Y-89833387D01*
X160324876Y-89871483D01*
X160286780Y-89947673D01*
D17*
X163553085Y-75860590D02*
X163267371Y-75860590D01*
X163410228Y-75860590D02*
X163410228Y-75360590D01*
X163362609Y-75432019D01*
X163314990Y-75479638D01*
X163267371Y-75503447D01*
X163862609Y-75360590D02*
X163910228Y-75360590D01*
X163957847Y-75384400D01*
X163981657Y-75408209D01*
X164005466Y-75455828D01*
X164029276Y-75551066D01*
X164029276Y-75670114D01*
X164005466Y-75765352D01*
X163981657Y-75812971D01*
X163957847Y-75836780D01*
X163910228Y-75860590D01*
X163862609Y-75860590D01*
X163814990Y-75836780D01*
X163791180Y-75812971D01*
X163767371Y-75765352D01*
X163743561Y-75670114D01*
X163743561Y-75551066D01*
X163767371Y-75455828D01*
X163791180Y-75408209D01*
X163814990Y-75384400D01*
X163862609Y-75360590D01*
X164457847Y-75527257D02*
X164457847Y-75860590D01*
X164243561Y-75527257D02*
X164243561Y-75789161D01*
X164267371Y-75836780D01*
X164314990Y-75860590D01*
X164386419Y-75860590D01*
X164434038Y-75836780D01*
X164457847Y-75812971D01*
X164862609Y-75598685D02*
X164695942Y-75598685D01*
X164695942Y-75860590D02*
X164695942Y-75360590D01*
X164934038Y-75360590D01*
D20*
X159220114Y-76062914D02*
X159182019Y-76101009D01*
X159067733Y-76139104D01*
X158991542Y-76139104D01*
X158877257Y-76101009D01*
X158801066Y-76024819D01*
X158762971Y-75948628D01*
X158724876Y-75796247D01*
X158724876Y-75681961D01*
X158762971Y-75529580D01*
X158801066Y-75453390D01*
X158877257Y-75377200D01*
X158991542Y-75339104D01*
X159067733Y-75339104D01*
X159182019Y-75377200D01*
X159220114Y-75415295D01*
X159524876Y-75415295D02*
X159562971Y-75377200D01*
X159639161Y-75339104D01*
X159829638Y-75339104D01*
X159905828Y-75377200D01*
X159943923Y-75415295D01*
X159982019Y-75491485D01*
X159982019Y-75567676D01*
X159943923Y-75681961D01*
X159486780Y-76139104D01*
X159982019Y-76139104D01*
X160705828Y-75339104D02*
X160324876Y-75339104D01*
X160286780Y-75720057D01*
X160324876Y-75681961D01*
X160401066Y-75643866D01*
X160591542Y-75643866D01*
X160667733Y-75681961D01*
X160705828Y-75720057D01*
X160743923Y-75796247D01*
X160743923Y-75986723D01*
X160705828Y-76062914D01*
X160667733Y-76101009D01*
X160591542Y-76139104D01*
X160401066Y-76139104D01*
X160324876Y-76101009D01*
X160286780Y-76062914D01*
D17*
X163453085Y-87660590D02*
X163167371Y-87660590D01*
X163310228Y-87660590D02*
X163310228Y-87160590D01*
X163262609Y-87232019D01*
X163214990Y-87279638D01*
X163167371Y-87303447D01*
X163762609Y-87160590D02*
X163810228Y-87160590D01*
X163857847Y-87184400D01*
X163881657Y-87208209D01*
X163905466Y-87255828D01*
X163929276Y-87351066D01*
X163929276Y-87470114D01*
X163905466Y-87565352D01*
X163881657Y-87612971D01*
X163857847Y-87636780D01*
X163810228Y-87660590D01*
X163762609Y-87660590D01*
X163714990Y-87636780D01*
X163691180Y-87612971D01*
X163667371Y-87565352D01*
X163643561Y-87470114D01*
X163643561Y-87351066D01*
X163667371Y-87255828D01*
X163691180Y-87208209D01*
X163714990Y-87184400D01*
X163762609Y-87160590D01*
X164357847Y-87327257D02*
X164357847Y-87660590D01*
X164143561Y-87327257D02*
X164143561Y-87589161D01*
X164167371Y-87636780D01*
X164214990Y-87660590D01*
X164286419Y-87660590D01*
X164334038Y-87636780D01*
X164357847Y-87612971D01*
X164762609Y-87398685D02*
X164595942Y-87398685D01*
X164595942Y-87660590D02*
X164595942Y-87160590D01*
X164834038Y-87160590D01*
D20*
X159220114Y-87855769D02*
X159182019Y-87893864D01*
X159067733Y-87931959D01*
X158991542Y-87931959D01*
X158877257Y-87893864D01*
X158801066Y-87817674D01*
X158762971Y-87741483D01*
X158724876Y-87589102D01*
X158724876Y-87474816D01*
X158762971Y-87322435D01*
X158801066Y-87246245D01*
X158877257Y-87170055D01*
X158991542Y-87131959D01*
X159067733Y-87131959D01*
X159182019Y-87170055D01*
X159220114Y-87208150D01*
X159524876Y-87208150D02*
X159562971Y-87170055D01*
X159639161Y-87131959D01*
X159829638Y-87131959D01*
X159905828Y-87170055D01*
X159943923Y-87208150D01*
X159982019Y-87284340D01*
X159982019Y-87360531D01*
X159943923Y-87474816D01*
X159486780Y-87931959D01*
X159982019Y-87931959D01*
X160667733Y-87398626D02*
X160667733Y-87931959D01*
X160477257Y-87093864D02*
X160286780Y-87665293D01*
X160782019Y-87665293D01*
D17*
X163453085Y-80660590D02*
X163167371Y-80660590D01*
X163310228Y-80660590D02*
X163310228Y-80160590D01*
X163262609Y-80232019D01*
X163214990Y-80279638D01*
X163167371Y-80303447D01*
X163762609Y-80160590D02*
X163810228Y-80160590D01*
X163857847Y-80184400D01*
X163881657Y-80208209D01*
X163905466Y-80255828D01*
X163929276Y-80351066D01*
X163929276Y-80470114D01*
X163905466Y-80565352D01*
X163881657Y-80612971D01*
X163857847Y-80636780D01*
X163810228Y-80660590D01*
X163762609Y-80660590D01*
X163714990Y-80636780D01*
X163691180Y-80612971D01*
X163667371Y-80565352D01*
X163643561Y-80470114D01*
X163643561Y-80351066D01*
X163667371Y-80255828D01*
X163691180Y-80208209D01*
X163714990Y-80184400D01*
X163762609Y-80160590D01*
X164357847Y-80327257D02*
X164357847Y-80660590D01*
X164143561Y-80327257D02*
X164143561Y-80589161D01*
X164167371Y-80636780D01*
X164214990Y-80660590D01*
X164286419Y-80660590D01*
X164334038Y-80636780D01*
X164357847Y-80612971D01*
X164762609Y-80398685D02*
X164595942Y-80398685D01*
X164595942Y-80660590D02*
X164595942Y-80160590D01*
X164834038Y-80160590D01*
D20*
X159220114Y-80780056D02*
X159182019Y-80818151D01*
X159067733Y-80856246D01*
X158991542Y-80856246D01*
X158877257Y-80818151D01*
X158801066Y-80741961D01*
X158762971Y-80665770D01*
X158724876Y-80513389D01*
X158724876Y-80399103D01*
X158762971Y-80246722D01*
X158801066Y-80170532D01*
X158877257Y-80094342D01*
X158991542Y-80056246D01*
X159067733Y-80056246D01*
X159182019Y-80094342D01*
X159220114Y-80132437D01*
X159524876Y-80132437D02*
X159562971Y-80094342D01*
X159639161Y-80056246D01*
X159829638Y-80056246D01*
X159905828Y-80094342D01*
X159943923Y-80132437D01*
X159982019Y-80208627D01*
X159982019Y-80284818D01*
X159943923Y-80399103D01*
X159486780Y-80856246D01*
X159982019Y-80856246D01*
X160248685Y-80056246D02*
X160743923Y-80056246D01*
X160477257Y-80361008D01*
X160591542Y-80361008D01*
X160667733Y-80399103D01*
X160705828Y-80437199D01*
X160743923Y-80513389D01*
X160743923Y-80703865D01*
X160705828Y-80780056D01*
X160667733Y-80818151D01*
X160591542Y-80856246D01*
X160362971Y-80856246D01*
X160286780Y-80818151D01*
X160248685Y-80780056D01*
D17*
X163353085Y-85460590D02*
X163067371Y-85460590D01*
X163210228Y-85460590D02*
X163210228Y-84960590D01*
X163162609Y-85032019D01*
X163114990Y-85079638D01*
X163067371Y-85103447D01*
X163662609Y-84960590D02*
X163710228Y-84960590D01*
X163757847Y-84984400D01*
X163781657Y-85008209D01*
X163805466Y-85055828D01*
X163829276Y-85151066D01*
X163829276Y-85270114D01*
X163805466Y-85365352D01*
X163781657Y-85412971D01*
X163757847Y-85436780D01*
X163710228Y-85460590D01*
X163662609Y-85460590D01*
X163614990Y-85436780D01*
X163591180Y-85412971D01*
X163567371Y-85365352D01*
X163543561Y-85270114D01*
X163543561Y-85151066D01*
X163567371Y-85055828D01*
X163591180Y-85008209D01*
X163614990Y-84984400D01*
X163662609Y-84960590D01*
X164257847Y-85127257D02*
X164257847Y-85460590D01*
X164043561Y-85127257D02*
X164043561Y-85389161D01*
X164067371Y-85436780D01*
X164114990Y-85460590D01*
X164186419Y-85460590D01*
X164234038Y-85436780D01*
X164257847Y-85412971D01*
X164662609Y-85198685D02*
X164495942Y-85198685D01*
X164495942Y-85460590D02*
X164495942Y-84960590D01*
X164734038Y-84960590D01*
D20*
X159220114Y-85497198D02*
X159182019Y-85535293D01*
X159067733Y-85573388D01*
X158991542Y-85573388D01*
X158877257Y-85535293D01*
X158801066Y-85459103D01*
X158762971Y-85382912D01*
X158724876Y-85230531D01*
X158724876Y-85116245D01*
X158762971Y-84963864D01*
X158801066Y-84887674D01*
X158877257Y-84811484D01*
X158991542Y-84773388D01*
X159067733Y-84773388D01*
X159182019Y-84811484D01*
X159220114Y-84849579D01*
X159524876Y-84849579D02*
X159562971Y-84811484D01*
X159639161Y-84773388D01*
X159829638Y-84773388D01*
X159905828Y-84811484D01*
X159943923Y-84849579D01*
X159982019Y-84925769D01*
X159982019Y-85001960D01*
X159943923Y-85116245D01*
X159486780Y-85573388D01*
X159982019Y-85573388D01*
X160286780Y-84849579D02*
X160324876Y-84811484D01*
X160401066Y-84773388D01*
X160591542Y-84773388D01*
X160667733Y-84811484D01*
X160705828Y-84849579D01*
X160743923Y-84925769D01*
X160743923Y-85001960D01*
X160705828Y-85116245D01*
X160248685Y-85573388D01*
X160743923Y-85573388D01*
D17*
X163353085Y-92360590D02*
X163067371Y-92360590D01*
X163210228Y-92360590D02*
X163210228Y-91860590D01*
X163162609Y-91932019D01*
X163114990Y-91979638D01*
X163067371Y-92003447D01*
X163662609Y-91860590D02*
X163710228Y-91860590D01*
X163757847Y-91884400D01*
X163781657Y-91908209D01*
X163805466Y-91955828D01*
X163829276Y-92051066D01*
X163829276Y-92170114D01*
X163805466Y-92265352D01*
X163781657Y-92312971D01*
X163757847Y-92336780D01*
X163710228Y-92360590D01*
X163662609Y-92360590D01*
X163614990Y-92336780D01*
X163591180Y-92312971D01*
X163567371Y-92265352D01*
X163543561Y-92170114D01*
X163543561Y-92051066D01*
X163567371Y-91955828D01*
X163591180Y-91908209D01*
X163614990Y-91884400D01*
X163662609Y-91860590D01*
X164257847Y-92027257D02*
X164257847Y-92360590D01*
X164043561Y-92027257D02*
X164043561Y-92289161D01*
X164067371Y-92336780D01*
X164114990Y-92360590D01*
X164186419Y-92360590D01*
X164234038Y-92336780D01*
X164257847Y-92312971D01*
X164662609Y-92098685D02*
X164495942Y-92098685D01*
X164495942Y-92360590D02*
X164495942Y-91860590D01*
X164734038Y-91860590D01*
D20*
X159220114Y-92572914D02*
X159182019Y-92611009D01*
X159067733Y-92649104D01*
X158991542Y-92649104D01*
X158877257Y-92611009D01*
X158801066Y-92534819D01*
X158762971Y-92458628D01*
X158724876Y-92306247D01*
X158724876Y-92191961D01*
X158762971Y-92039580D01*
X158801066Y-91963390D01*
X158877257Y-91887200D01*
X158991542Y-91849104D01*
X159067733Y-91849104D01*
X159182019Y-91887200D01*
X159220114Y-91925295D01*
X159524876Y-91925295D02*
X159562971Y-91887200D01*
X159639161Y-91849104D01*
X159829638Y-91849104D01*
X159905828Y-91887200D01*
X159943923Y-91925295D01*
X159982019Y-92001485D01*
X159982019Y-92077676D01*
X159943923Y-92191961D01*
X159486780Y-92649104D01*
X159982019Y-92649104D01*
X160743923Y-92649104D02*
X160286780Y-92649104D01*
X160515352Y-92649104D02*
X160515352Y-91849104D01*
X160439161Y-91963390D01*
X160362971Y-92039580D01*
X160286780Y-92077676D01*
D17*
X163353085Y-83060590D02*
X163067371Y-83060590D01*
X163210228Y-83060590D02*
X163210228Y-82560590D01*
X163162609Y-82632019D01*
X163114990Y-82679638D01*
X163067371Y-82703447D01*
X163662609Y-82560590D02*
X163710228Y-82560590D01*
X163757847Y-82584400D01*
X163781657Y-82608209D01*
X163805466Y-82655828D01*
X163829276Y-82751066D01*
X163829276Y-82870114D01*
X163805466Y-82965352D01*
X163781657Y-83012971D01*
X163757847Y-83036780D01*
X163710228Y-83060590D01*
X163662609Y-83060590D01*
X163614990Y-83036780D01*
X163591180Y-83012971D01*
X163567371Y-82965352D01*
X163543561Y-82870114D01*
X163543561Y-82751066D01*
X163567371Y-82655828D01*
X163591180Y-82608209D01*
X163614990Y-82584400D01*
X163662609Y-82560590D01*
X164257847Y-82727257D02*
X164257847Y-83060590D01*
X164043561Y-82727257D02*
X164043561Y-82989161D01*
X164067371Y-83036780D01*
X164114990Y-83060590D01*
X164186419Y-83060590D01*
X164234038Y-83036780D01*
X164257847Y-83012971D01*
X164662609Y-82798685D02*
X164495942Y-82798685D01*
X164495942Y-83060590D02*
X164495942Y-82560590D01*
X164734038Y-82560590D01*
D20*
X159220114Y-83138627D02*
X159182019Y-83176722D01*
X159067733Y-83214817D01*
X158991542Y-83214817D01*
X158877257Y-83176722D01*
X158801066Y-83100532D01*
X158762971Y-83024341D01*
X158724876Y-82871960D01*
X158724876Y-82757674D01*
X158762971Y-82605293D01*
X158801066Y-82529103D01*
X158877257Y-82452913D01*
X158991542Y-82414817D01*
X159067733Y-82414817D01*
X159182019Y-82452913D01*
X159220114Y-82491008D01*
X159524876Y-82491008D02*
X159562971Y-82452913D01*
X159639161Y-82414817D01*
X159829638Y-82414817D01*
X159905828Y-82452913D01*
X159943923Y-82491008D01*
X159982019Y-82567198D01*
X159982019Y-82643389D01*
X159943923Y-82757674D01*
X159486780Y-83214817D01*
X159982019Y-83214817D01*
X160477257Y-82414817D02*
X160553447Y-82414817D01*
X160629638Y-82452913D01*
X160667733Y-82491008D01*
X160705828Y-82567198D01*
X160743923Y-82719579D01*
X160743923Y-82910055D01*
X160705828Y-83062436D01*
X160667733Y-83138627D01*
X160629638Y-83176722D01*
X160553447Y-83214817D01*
X160477257Y-83214817D01*
X160401066Y-83176722D01*
X160362971Y-83138627D01*
X160324876Y-83062436D01*
X160286780Y-82910055D01*
X160286780Y-82719579D01*
X160324876Y-82567198D01*
X160362971Y-82491008D01*
X160401066Y-82452913D01*
X160477257Y-82414817D01*
D17*
X163553085Y-78360590D02*
X163267371Y-78360590D01*
X163410228Y-78360590D02*
X163410228Y-77860590D01*
X163362609Y-77932019D01*
X163314990Y-77979638D01*
X163267371Y-78003447D01*
X163862609Y-77860590D02*
X163910228Y-77860590D01*
X163957847Y-77884400D01*
X163981657Y-77908209D01*
X164005466Y-77955828D01*
X164029276Y-78051066D01*
X164029276Y-78170114D01*
X164005466Y-78265352D01*
X163981657Y-78312971D01*
X163957847Y-78336780D01*
X163910228Y-78360590D01*
X163862609Y-78360590D01*
X163814990Y-78336780D01*
X163791180Y-78312971D01*
X163767371Y-78265352D01*
X163743561Y-78170114D01*
X163743561Y-78051066D01*
X163767371Y-77955828D01*
X163791180Y-77908209D01*
X163814990Y-77884400D01*
X163862609Y-77860590D01*
X164457847Y-78027257D02*
X164457847Y-78360590D01*
X164243561Y-78027257D02*
X164243561Y-78289161D01*
X164267371Y-78336780D01*
X164314990Y-78360590D01*
X164386419Y-78360590D01*
X164434038Y-78336780D01*
X164457847Y-78312971D01*
X164862609Y-78098685D02*
X164695942Y-78098685D01*
X164695942Y-78360590D02*
X164695942Y-77860590D01*
X164934038Y-77860590D01*
D20*
X159220114Y-78421485D02*
X159182019Y-78459580D01*
X159067733Y-78497675D01*
X158991542Y-78497675D01*
X158877257Y-78459580D01*
X158801066Y-78383390D01*
X158762971Y-78307199D01*
X158724876Y-78154818D01*
X158724876Y-78040532D01*
X158762971Y-77888151D01*
X158801066Y-77811961D01*
X158877257Y-77735771D01*
X158991542Y-77697675D01*
X159067733Y-77697675D01*
X159182019Y-77735771D01*
X159220114Y-77773866D01*
X159982019Y-78497675D02*
X159524876Y-78497675D01*
X159753447Y-78497675D02*
X159753447Y-77697675D01*
X159677257Y-77811961D01*
X159601066Y-77888151D01*
X159524876Y-77926247D01*
X160362971Y-78497675D02*
X160515352Y-78497675D01*
X160591542Y-78459580D01*
X160629638Y-78421485D01*
X160705828Y-78307199D01*
X160743923Y-78154818D01*
X160743923Y-77850056D01*
X160705828Y-77773866D01*
X160667733Y-77735771D01*
X160591542Y-77697675D01*
X160439161Y-77697675D01*
X160362971Y-77735771D01*
X160324876Y-77773866D01*
X160286780Y-77850056D01*
X160286780Y-78040532D01*
X160324876Y-78116723D01*
X160362971Y-78154818D01*
X160439161Y-78192913D01*
X160591542Y-78192913D01*
X160667733Y-78154818D01*
X160705828Y-78116723D01*
X160743923Y-78040532D01*
D17*
X131348323Y-107160590D02*
X131110228Y-107160590D01*
X131110228Y-106660590D01*
X131514990Y-107160590D02*
X131514990Y-106660590D01*
X131681657Y-107017733D01*
X131848323Y-106660590D01*
X131848323Y-107160590D01*
X132348323Y-107160590D02*
X132062609Y-107160590D01*
X132205466Y-107160590D02*
X132205466Y-106660590D01*
X132157847Y-106732019D01*
X132110228Y-106779638D01*
X132062609Y-106803447D01*
X132824514Y-107160590D02*
X132538800Y-107160590D01*
X132681657Y-107160590D02*
X132681657Y-106660590D01*
X132634038Y-106732019D01*
X132586419Y-106779638D01*
X132538800Y-106803447D01*
X133300704Y-107160590D02*
X133014990Y-107160590D01*
X133157847Y-107160590D02*
X133157847Y-106660590D01*
X133110228Y-106732019D01*
X133062609Y-106779638D01*
X133014990Y-106803447D01*
X133467371Y-106660590D02*
X133800704Y-106660590D01*
X133586419Y-107160590D01*
X134229276Y-107160590D02*
X133991180Y-107160590D01*
X133991180Y-106660590D01*
X134395942Y-107160590D02*
X134395942Y-106660590D01*
X134514990Y-106660590D01*
X134586419Y-106684400D01*
X134634038Y-106732019D01*
X134657847Y-106779638D01*
X134681657Y-106874876D01*
X134681657Y-106946304D01*
X134657847Y-107041542D01*
X134634038Y-107089161D01*
X134586419Y-107136780D01*
X134514990Y-107160590D01*
X134395942Y-107160590D01*
X134895942Y-106970114D02*
X135276895Y-106970114D01*
X135467371Y-106660590D02*
X135776895Y-106660590D01*
X135610228Y-106851066D01*
X135681657Y-106851066D01*
X135729276Y-106874876D01*
X135753085Y-106898685D01*
X135776895Y-106946304D01*
X135776895Y-107065352D01*
X135753085Y-107112971D01*
X135729276Y-107136780D01*
X135681657Y-107160590D01*
X135538800Y-107160590D01*
X135491180Y-107136780D01*
X135467371Y-107112971D01*
X135991180Y-107112971D02*
X136014990Y-107136780D01*
X135991180Y-107160590D01*
X135967371Y-107136780D01*
X135991180Y-107112971D01*
X135991180Y-107160590D01*
X136181657Y-106660590D02*
X136491180Y-106660590D01*
X136324514Y-106851066D01*
X136395942Y-106851066D01*
X136443561Y-106874876D01*
X136467371Y-106898685D01*
X136491180Y-106946304D01*
X136491180Y-107065352D01*
X136467371Y-107112971D01*
X136443561Y-107136780D01*
X136395942Y-107160590D01*
X136253085Y-107160590D01*
X136205466Y-107136780D01*
X136181657Y-107112971D01*
D20*
X134556704Y-102955123D02*
X135204323Y-102955123D01*
X135280514Y-102917028D01*
X135318609Y-102878933D01*
X135356704Y-102802742D01*
X135356704Y-102650361D01*
X135318609Y-102574171D01*
X135280514Y-102536076D01*
X135204323Y-102497980D01*
X134556704Y-102497980D01*
X135356704Y-101697980D02*
X135356704Y-102155123D01*
X135356704Y-101926552D02*
X134556704Y-101926552D01*
X134670990Y-102002742D01*
X134747180Y-102078933D01*
X134785276Y-102155123D01*
D17*
X140214990Y-97379638D02*
X140214990Y-97665352D01*
X140214990Y-97522495D02*
X139714990Y-97522495D01*
X139786419Y-97570114D01*
X139834038Y-97617733D01*
X139857847Y-97665352D01*
X139714990Y-97070114D02*
X139714990Y-97022495D01*
X139738800Y-96974876D01*
X139762609Y-96951066D01*
X139810228Y-96927257D01*
X139905466Y-96903447D01*
X140024514Y-96903447D01*
X140119752Y-96927257D01*
X140167371Y-96951066D01*
X140191180Y-96974876D01*
X140214990Y-97022495D01*
X140214990Y-97070114D01*
X140191180Y-97117733D01*
X140167371Y-97141542D01*
X140119752Y-97165352D01*
X140024514Y-97189161D01*
X139905466Y-97189161D01*
X139810228Y-97165352D01*
X139762609Y-97141542D01*
X139738800Y-97117733D01*
X139714990Y-97070114D01*
X140214990Y-96689161D02*
X139714990Y-96689161D01*
X140214990Y-96403447D02*
X139929276Y-96617733D01*
X139714990Y-96403447D02*
X140000704Y-96689161D01*
D19*
X140154152Y-95592342D02*
X139963676Y-95725676D01*
X140154152Y-95820914D02*
X139754152Y-95820914D01*
X139754152Y-95668533D01*
X139773200Y-95630438D01*
X139792247Y-95611390D01*
X139830342Y-95592342D01*
X139887485Y-95592342D01*
X139925580Y-95611390D01*
X139944628Y-95630438D01*
X139963676Y-95668533D01*
X139963676Y-95820914D01*
X139792247Y-95439961D02*
X139773200Y-95420914D01*
X139754152Y-95382819D01*
X139754152Y-95287580D01*
X139773200Y-95249485D01*
X139792247Y-95230438D01*
X139830342Y-95211390D01*
X139868438Y-95211390D01*
X139925580Y-95230438D01*
X140154152Y-95459009D01*
X140154152Y-95211390D01*
X139792247Y-95059009D02*
X139773200Y-95039961D01*
X139754152Y-95001866D01*
X139754152Y-94906628D01*
X139773200Y-94868533D01*
X139792247Y-94849485D01*
X139830342Y-94830438D01*
X139868438Y-94830438D01*
X139925580Y-94849485D01*
X140154152Y-95078057D01*
X140154152Y-94830438D01*
D17*
X138214990Y-98160590D02*
X138214990Y-98398685D01*
X138453085Y-98422495D01*
X138429276Y-98398685D01*
X138405466Y-98351066D01*
X138405466Y-98232019D01*
X138429276Y-98184400D01*
X138453085Y-98160590D01*
X138500704Y-98136780D01*
X138619752Y-98136780D01*
X138667371Y-98160590D01*
X138691180Y-98184400D01*
X138714990Y-98232019D01*
X138714990Y-98351066D01*
X138691180Y-98398685D01*
X138667371Y-98422495D01*
X138381657Y-97708209D02*
X138714990Y-97708209D01*
X138191180Y-97827257D02*
X138548323Y-97946304D01*
X138548323Y-97636780D01*
X138667371Y-97446304D02*
X138691180Y-97422495D01*
X138714990Y-97446304D01*
X138691180Y-97470114D01*
X138667371Y-97446304D01*
X138714990Y-97446304D01*
X138714990Y-97184400D02*
X138714990Y-97089161D01*
X138691180Y-97041542D01*
X138667371Y-97017733D01*
X138595942Y-96970114D01*
X138500704Y-96946304D01*
X138310228Y-96946304D01*
X138262609Y-96970114D01*
X138238800Y-96993923D01*
X138214990Y-97041542D01*
X138214990Y-97136780D01*
X138238800Y-97184400D01*
X138262609Y-97208209D01*
X138310228Y-97232019D01*
X138429276Y-97232019D01*
X138476895Y-97208209D01*
X138500704Y-97184400D01*
X138524514Y-97136780D01*
X138524514Y-97041542D01*
X138500704Y-96993923D01*
X138476895Y-96970114D01*
X138429276Y-96946304D01*
X138714990Y-96732019D02*
X138214990Y-96732019D01*
X138714990Y-96446304D02*
X138429276Y-96660590D01*
X138214990Y-96446304D02*
X138500704Y-96732019D01*
D19*
X138579352Y-95592342D02*
X138388876Y-95725676D01*
X138579352Y-95820914D02*
X138179352Y-95820914D01*
X138179352Y-95668533D01*
X138198400Y-95630438D01*
X138217447Y-95611390D01*
X138255542Y-95592342D01*
X138312685Y-95592342D01*
X138350780Y-95611390D01*
X138369828Y-95630438D01*
X138388876Y-95668533D01*
X138388876Y-95820914D01*
X138217447Y-95439961D02*
X138198400Y-95420914D01*
X138179352Y-95382819D01*
X138179352Y-95287580D01*
X138198400Y-95249485D01*
X138217447Y-95230438D01*
X138255542Y-95211390D01*
X138293638Y-95211390D01*
X138350780Y-95230438D01*
X138579352Y-95459009D01*
X138579352Y-95211390D01*
X138579352Y-94830438D02*
X138579352Y-95059009D01*
X138579352Y-94944723D02*
X138179352Y-94944723D01*
X138236495Y-94982819D01*
X138274590Y-95020914D01*
X138293638Y-95059009D01*
D17*
X150814990Y-94017733D02*
X150814990Y-94303447D01*
X150814990Y-94160590D02*
X150314990Y-94160590D01*
X150386419Y-94208209D01*
X150434038Y-94255828D01*
X150457847Y-94303447D01*
X150314990Y-93708209D02*
X150314990Y-93660590D01*
X150338800Y-93612971D01*
X150362609Y-93589161D01*
X150410228Y-93565352D01*
X150505466Y-93541542D01*
X150624514Y-93541542D01*
X150719752Y-93565352D01*
X150767371Y-93589161D01*
X150791180Y-93612971D01*
X150814990Y-93660590D01*
X150814990Y-93708209D01*
X150791180Y-93755828D01*
X150767371Y-93779638D01*
X150719752Y-93803447D01*
X150624514Y-93827257D01*
X150505466Y-93827257D01*
X150410228Y-93803447D01*
X150362609Y-93779638D01*
X150338800Y-93755828D01*
X150314990Y-93708209D01*
X150314990Y-93232019D02*
X150314990Y-93184400D01*
X150338800Y-93136780D01*
X150362609Y-93112971D01*
X150410228Y-93089161D01*
X150505466Y-93065352D01*
X150624514Y-93065352D01*
X150719752Y-93089161D01*
X150767371Y-93112971D01*
X150791180Y-93136780D01*
X150814990Y-93184400D01*
X150814990Y-93232019D01*
X150791180Y-93279638D01*
X150767371Y-93303447D01*
X150719752Y-93327257D01*
X150624514Y-93351066D01*
X150505466Y-93351066D01*
X150410228Y-93327257D01*
X150362609Y-93303447D01*
X150338800Y-93279638D01*
X150314990Y-93232019D01*
X150814990Y-92851066D02*
X150314990Y-92851066D01*
X150814990Y-92565352D02*
X150529276Y-92779638D01*
X150314990Y-92565352D02*
X150600704Y-92851066D01*
D19*
X150720552Y-91629942D02*
X150530076Y-91763276D01*
X150720552Y-91858514D02*
X150320552Y-91858514D01*
X150320552Y-91706133D01*
X150339600Y-91668038D01*
X150358647Y-91648990D01*
X150396742Y-91629942D01*
X150453885Y-91629942D01*
X150491980Y-91648990D01*
X150511028Y-91668038D01*
X150530076Y-91706133D01*
X150530076Y-91858514D01*
X150358647Y-91477561D02*
X150339600Y-91458514D01*
X150320552Y-91420419D01*
X150320552Y-91325180D01*
X150339600Y-91287085D01*
X150358647Y-91268038D01*
X150396742Y-91248990D01*
X150434838Y-91248990D01*
X150491980Y-91268038D01*
X150720552Y-91496609D01*
X150720552Y-91248990D01*
X150320552Y-91001371D02*
X150320552Y-90963276D01*
X150339600Y-90925180D01*
X150358647Y-90906133D01*
X150396742Y-90887085D01*
X150472933Y-90868038D01*
X150568171Y-90868038D01*
X150644361Y-90887085D01*
X150682457Y-90906133D01*
X150701504Y-90925180D01*
X150720552Y-90963276D01*
X150720552Y-91001371D01*
X150701504Y-91039466D01*
X150682457Y-91058514D01*
X150644361Y-91077561D01*
X150568171Y-91096609D01*
X150472933Y-91096609D01*
X150396742Y-91077561D01*
X150358647Y-91058514D01*
X150339600Y-91039466D01*
X150320552Y-91001371D01*
D17*
X139110584Y-92632497D02*
X138942225Y-92800855D01*
X138588672Y-92447302D01*
X139497809Y-92312615D02*
X139447302Y-92329451D01*
X139379958Y-92329451D01*
X139278943Y-92329451D01*
X139228435Y-92346287D01*
X139194763Y-92379958D01*
X139295779Y-92447302D02*
X139245271Y-92464138D01*
X139177928Y-92464138D01*
X139093748Y-92413630D01*
X138975897Y-92295779D01*
X138925389Y-92211600D01*
X138925389Y-92144256D01*
X138942225Y-92093749D01*
X139009569Y-92026405D01*
X139060076Y-92009569D01*
X139127420Y-92009569D01*
X139211599Y-92060077D01*
X139329450Y-92177928D01*
X139379958Y-92262107D01*
X139379958Y-92329451D01*
X139363122Y-92379958D01*
X139295779Y-92447302D01*
X139598824Y-92144256D02*
X139245271Y-91790703D01*
X139413630Y-91959062D02*
X139615660Y-91757031D01*
X139800855Y-91942226D02*
X139447302Y-91588672D01*
X139767183Y-91268791D02*
X139699840Y-91336134D01*
X139683004Y-91386642D01*
X139683004Y-91420313D01*
X139699840Y-91504493D01*
X139750347Y-91588672D01*
X139885034Y-91723359D01*
X139935542Y-91740195D01*
X139969214Y-91740195D01*
X140019721Y-91723359D01*
X140087065Y-91656016D01*
X140103901Y-91605508D01*
X140103901Y-91571836D01*
X140087065Y-91521329D01*
X140002886Y-91437149D01*
X139952378Y-91420313D01*
X139918706Y-91420313D01*
X139868199Y-91437149D01*
X139800855Y-91504493D01*
X139784019Y-91555000D01*
X139784019Y-91588672D01*
X139800855Y-91639180D01*
X140103901Y-90932073D02*
X140036557Y-90999417D01*
X140019721Y-91049924D01*
X140019721Y-91083596D01*
X140036557Y-91167775D01*
X140087065Y-91251955D01*
X140221752Y-91386642D01*
X140272260Y-91403478D01*
X140305931Y-91403478D01*
X140356439Y-91386642D01*
X140423782Y-91319298D01*
X140440618Y-91268791D01*
X140440618Y-91235119D01*
X140423782Y-91184611D01*
X140339603Y-91100432D01*
X140289095Y-91083596D01*
X140255424Y-91083596D01*
X140204916Y-91100432D01*
X140137573Y-91167775D01*
X140120737Y-91218283D01*
X140120737Y-91251955D01*
X140137573Y-91302462D01*
X140608977Y-91100432D02*
X140676321Y-91066760D01*
X140760500Y-90982581D01*
X140777336Y-90932073D01*
X140777336Y-90898401D01*
X140760500Y-90847894D01*
X140726828Y-90814222D01*
X140676321Y-90797386D01*
X140642649Y-90797386D01*
X140592141Y-90814222D01*
X140507962Y-90864730D01*
X140457454Y-90881565D01*
X140423782Y-90881565D01*
X140373275Y-90864730D01*
X140339603Y-90831058D01*
X140322767Y-90780550D01*
X140322767Y-90746878D01*
X140339603Y-90696371D01*
X140423782Y-90612191D01*
X140491126Y-90578520D01*
X140979366Y-90763714D02*
X140625813Y-90410161D01*
X141181397Y-90561684D01*
X140827843Y-90208130D01*
X141013038Y-90090279D02*
X141013038Y-90056608D01*
X141029874Y-90006100D01*
X141114053Y-89921921D01*
X141164561Y-89905085D01*
X141198233Y-89905085D01*
X141248740Y-89921921D01*
X141282412Y-89955592D01*
X141316084Y-90022936D01*
X141316084Y-90426997D01*
X141534950Y-90208130D01*
X141349756Y-89753562D02*
X141349756Y-89719890D01*
X141366591Y-89669382D01*
X141450771Y-89585203D01*
X141501278Y-89568367D01*
X141534950Y-89568367D01*
X141585458Y-89585203D01*
X141619130Y-89618875D01*
X141652801Y-89686218D01*
X141652801Y-90090279D01*
X141871668Y-89871413D01*
X141736981Y-89298993D02*
X141770652Y-89265321D01*
X141821160Y-89248486D01*
X141854832Y-89248486D01*
X141905339Y-89265321D01*
X141989519Y-89315829D01*
X142073698Y-89400008D01*
X142124206Y-89484188D01*
X142141042Y-89534695D01*
X142141042Y-89568367D01*
X142124206Y-89618875D01*
X142090534Y-89652547D01*
X142040026Y-89669382D01*
X142006355Y-89669382D01*
X141955847Y-89652547D01*
X141871668Y-89602039D01*
X141787488Y-89517860D01*
X141736981Y-89433680D01*
X141720145Y-89383173D01*
X141720145Y-89349501D01*
X141736981Y-89298993D01*
X142359908Y-89383173D02*
X142006355Y-89029619D01*
X142376744Y-89164306D01*
X142242057Y-88793917D01*
X142595610Y-89147470D01*
X142477759Y-88558215D02*
X142511431Y-88524543D01*
X142561939Y-88507707D01*
X142595610Y-88507707D01*
X142646118Y-88524543D01*
X142730297Y-88575050D01*
X142814477Y-88659230D01*
X142864984Y-88743409D01*
X142881820Y-88793917D01*
X142881820Y-88827589D01*
X142864984Y-88878096D01*
X142831313Y-88911768D01*
X142780805Y-88928604D01*
X142747133Y-88928604D01*
X142696626Y-88911768D01*
X142612446Y-88861260D01*
X142528267Y-88777081D01*
X142477759Y-88692902D01*
X142460923Y-88642394D01*
X142460923Y-88608722D01*
X142477759Y-88558215D01*
X142713462Y-88322512D02*
X142932328Y-88103646D01*
X142949164Y-88356184D01*
X142999671Y-88305676D01*
X143050179Y-88288841D01*
X143083851Y-88288841D01*
X143134358Y-88305676D01*
X143218538Y-88389856D01*
X143235374Y-88440363D01*
X143235374Y-88474035D01*
X143218538Y-88524543D01*
X143117523Y-88625558D01*
X143067015Y-88642394D01*
X143033343Y-88642394D01*
X143605763Y-88137318D02*
X143437404Y-88305676D01*
X143083851Y-87952123D01*
X141374514Y-99136780D02*
X141445942Y-99160590D01*
X141564990Y-99160590D01*
X141612609Y-99136780D01*
X141636419Y-99112971D01*
X141660228Y-99065352D01*
X141660228Y-99017733D01*
X141636419Y-98970114D01*
X141612609Y-98946304D01*
X141564990Y-98922495D01*
X141469752Y-98898685D01*
X141422133Y-98874876D01*
X141398323Y-98851066D01*
X141374514Y-98803447D01*
X141374514Y-98755828D01*
X141398323Y-98708209D01*
X141422133Y-98684400D01*
X141469752Y-98660590D01*
X141588800Y-98660590D01*
X141660228Y-98684400D01*
X141874514Y-99160590D02*
X141874514Y-98660590D01*
X141993561Y-98660590D01*
X142064990Y-98684400D01*
X142112609Y-98732019D01*
X142136419Y-98779638D01*
X142160228Y-98874876D01*
X142160228Y-98946304D01*
X142136419Y-99041542D01*
X142112609Y-99089161D01*
X142064990Y-99136780D01*
X141993561Y-99160590D01*
X141874514Y-99160590D01*
X142636419Y-99160590D02*
X142350704Y-99160590D01*
X142493561Y-99160590D02*
X142493561Y-98660590D01*
X142445942Y-98732019D01*
X142398323Y-98779638D01*
X142350704Y-98803447D01*
X142826895Y-98708209D02*
X142850704Y-98684400D01*
X142898323Y-98660590D01*
X143017371Y-98660590D01*
X143064990Y-98684400D01*
X143088800Y-98708209D01*
X143112609Y-98755828D01*
X143112609Y-98803447D01*
X143088800Y-98874876D01*
X142803085Y-99160590D01*
X143112609Y-99160590D01*
X143422133Y-98660590D02*
X143469752Y-98660590D01*
X143517371Y-98684400D01*
X143541180Y-98708209D01*
X143564990Y-98755828D01*
X143588800Y-98851066D01*
X143588800Y-98970114D01*
X143564990Y-99065352D01*
X143541180Y-99112971D01*
X143517371Y-99136780D01*
X143469752Y-99160590D01*
X143422133Y-99160590D01*
X143374514Y-99136780D01*
X143350704Y-99112971D01*
X143326895Y-99065352D01*
X143303085Y-98970114D01*
X143303085Y-98851066D01*
X143326895Y-98755828D01*
X143350704Y-98708209D01*
X143374514Y-98684400D01*
X143422133Y-98660590D01*
X144017371Y-98660590D02*
X143922133Y-98660590D01*
X143874514Y-98684400D01*
X143850704Y-98708209D01*
X143803085Y-98779638D01*
X143779276Y-98874876D01*
X143779276Y-99065352D01*
X143803085Y-99112971D01*
X143826895Y-99136780D01*
X143874514Y-99160590D01*
X143969752Y-99160590D01*
X144017371Y-99136780D01*
X144041180Y-99112971D01*
X144064990Y-99065352D01*
X144064990Y-98946304D01*
X144041180Y-98898685D01*
X144017371Y-98874876D01*
X143969752Y-98851066D01*
X143874514Y-98851066D01*
X143826895Y-98874876D01*
X143803085Y-98898685D01*
X143779276Y-98946304D01*
X144207847Y-98660590D02*
X144493561Y-98660590D01*
X144350704Y-99160590D02*
X144350704Y-98660590D01*
X144755466Y-98660590D02*
X144803085Y-98660590D01*
X144850704Y-98684400D01*
X144874514Y-98708209D01*
X144898323Y-98755828D01*
X144922133Y-98851066D01*
X144922133Y-98970114D01*
X144898323Y-99065352D01*
X144874514Y-99112971D01*
X144850704Y-99136780D01*
X144803085Y-99160590D01*
X144755466Y-99160590D01*
X144707847Y-99136780D01*
X144684038Y-99112971D01*
X144660228Y-99065352D01*
X144636419Y-98970114D01*
X144636419Y-98851066D01*
X144660228Y-98755828D01*
X144684038Y-98708209D01*
X144707847Y-98684400D01*
X144755466Y-98660590D01*
X145350704Y-98827257D02*
X145350704Y-99160590D01*
X145231657Y-98636780D02*
X145112609Y-98993923D01*
X145422133Y-98993923D01*
X145707847Y-98660590D02*
X145755466Y-98660590D01*
X145803085Y-98684400D01*
X145826895Y-98708209D01*
X145850704Y-98755828D01*
X145874514Y-98851066D01*
X145874514Y-98970114D01*
X145850704Y-99065352D01*
X145826895Y-99112971D01*
X145803085Y-99136780D01*
X145755466Y-99160590D01*
X145707847Y-99160590D01*
X145660228Y-99136780D01*
X145636419Y-99112971D01*
X145612609Y-99065352D01*
X145588800Y-98970114D01*
X145588800Y-98851066D01*
X145612609Y-98755828D01*
X145636419Y-98708209D01*
X145660228Y-98684400D01*
X145707847Y-98660590D01*
X146064990Y-99136780D02*
X146136419Y-99160590D01*
X146255466Y-99160590D01*
X146303085Y-99136780D01*
X146326895Y-99112971D01*
X146350704Y-99065352D01*
X146350704Y-99017733D01*
X146326895Y-98970114D01*
X146303085Y-98946304D01*
X146255466Y-98922495D01*
X146160228Y-98898685D01*
X146112609Y-98874876D01*
X146088800Y-98851066D01*
X146064990Y-98803447D01*
X146064990Y-98755828D01*
X146088800Y-98708209D01*
X146112609Y-98684400D01*
X146160228Y-98660590D01*
X146279276Y-98660590D01*
X146350704Y-98684400D01*
X146541180Y-98708209D02*
X146564990Y-98684400D01*
X146612609Y-98660590D01*
X146731657Y-98660590D01*
X146779276Y-98684400D01*
X146803085Y-98708209D01*
X146826895Y-98755828D01*
X146826895Y-98803447D01*
X146803085Y-98874876D01*
X146517371Y-99160590D01*
X146826895Y-99160590D01*
X147326895Y-99160590D02*
X147160228Y-98922495D01*
X147041180Y-99160590D02*
X147041180Y-98660590D01*
X147231657Y-98660590D01*
X147279276Y-98684400D01*
X147303085Y-98708209D01*
X147326895Y-98755828D01*
X147326895Y-98827257D01*
X147303085Y-98874876D01*
X147279276Y-98898685D01*
X147231657Y-98922495D01*
X147041180Y-98922495D01*
X147636419Y-98660590D02*
X147684038Y-98660590D01*
X147731657Y-98684400D01*
X147755466Y-98708209D01*
X147779276Y-98755828D01*
X147803085Y-98851066D01*
X147803085Y-98970114D01*
X147779276Y-99065352D01*
X147755466Y-99112971D01*
X147731657Y-99136780D01*
X147684038Y-99160590D01*
X147636419Y-99160590D01*
X147588800Y-99136780D01*
X147564990Y-99112971D01*
X147541180Y-99065352D01*
X147517371Y-98970114D01*
X147517371Y-98851066D01*
X147541180Y-98755828D01*
X147564990Y-98708209D01*
X147588800Y-98684400D01*
X147636419Y-98660590D01*
D20*
X143497523Y-97678304D02*
X143497523Y-96878304D01*
X143688000Y-96878304D01*
X143802285Y-96916400D01*
X143878476Y-96992590D01*
X143916571Y-97068780D01*
X143954666Y-97221161D01*
X143954666Y-97335447D01*
X143916571Y-97487828D01*
X143878476Y-97564019D01*
X143802285Y-97640209D01*
X143688000Y-97678304D01*
X143497523Y-97678304D01*
X144221333Y-96878304D02*
X144716571Y-96878304D01*
X144449904Y-97183066D01*
X144564190Y-97183066D01*
X144640380Y-97221161D01*
X144678476Y-97259257D01*
X144716571Y-97335447D01*
X144716571Y-97525923D01*
X144678476Y-97602114D01*
X144640380Y-97640209D01*
X144564190Y-97678304D01*
X144335619Y-97678304D01*
X144259428Y-97640209D01*
X144221333Y-97602114D01*
D17*
X140353085Y-107060590D02*
X140067371Y-107060590D01*
X140210228Y-107060590D02*
X140210228Y-106560590D01*
X140162609Y-106632019D01*
X140114990Y-106679638D01*
X140067371Y-106703447D01*
X140662609Y-106560590D02*
X140710228Y-106560590D01*
X140757847Y-106584400D01*
X140781657Y-106608209D01*
X140805466Y-106655828D01*
X140829276Y-106751066D01*
X140829276Y-106870114D01*
X140805466Y-106965352D01*
X140781657Y-107012971D01*
X140757847Y-107036780D01*
X140710228Y-107060590D01*
X140662609Y-107060590D01*
X140614990Y-107036780D01*
X140591180Y-107012971D01*
X140567371Y-106965352D01*
X140543561Y-106870114D01*
X140543561Y-106751066D01*
X140567371Y-106655828D01*
X140591180Y-106608209D01*
X140614990Y-106584400D01*
X140662609Y-106560590D01*
X141257847Y-106727257D02*
X141257847Y-107060590D01*
X141043561Y-106727257D02*
X141043561Y-106989161D01*
X141067371Y-107036780D01*
X141114990Y-107060590D01*
X141186419Y-107060590D01*
X141234038Y-107036780D01*
X141257847Y-107012971D01*
X141662609Y-106798685D02*
X141495942Y-106798685D01*
X141495942Y-107060590D02*
X141495942Y-106560590D01*
X141734038Y-106560590D01*
D20*
X141071714Y-104180685D02*
X141109809Y-104218780D01*
X141147904Y-104333066D01*
X141147904Y-104409257D01*
X141109809Y-104523542D01*
X141033619Y-104599733D01*
X140957428Y-104637828D01*
X140805047Y-104675923D01*
X140690761Y-104675923D01*
X140538380Y-104637828D01*
X140462190Y-104599733D01*
X140386000Y-104523542D01*
X140347904Y-104409257D01*
X140347904Y-104333066D01*
X140386000Y-104218780D01*
X140424095Y-104180685D01*
X141147904Y-103418780D02*
X141147904Y-103875923D01*
X141147904Y-103647352D02*
X140347904Y-103647352D01*
X140462190Y-103723542D01*
X140538380Y-103799733D01*
X140576476Y-103875923D01*
X140690761Y-102961638D02*
X140652666Y-103037828D01*
X140614571Y-103075923D01*
X140538380Y-103114019D01*
X140500285Y-103114019D01*
X140424095Y-103075923D01*
X140386000Y-103037828D01*
X140347904Y-102961638D01*
X140347904Y-102809257D01*
X140386000Y-102733066D01*
X140424095Y-102694971D01*
X140500285Y-102656876D01*
X140538380Y-102656876D01*
X140614571Y-102694971D01*
X140652666Y-102733066D01*
X140690761Y-102809257D01*
X140690761Y-102961638D01*
X140728857Y-103037828D01*
X140766952Y-103075923D01*
X140843142Y-103114019D01*
X140995523Y-103114019D01*
X141071714Y-103075923D01*
X141109809Y-103037828D01*
X141147904Y-102961638D01*
X141147904Y-102809257D01*
X141109809Y-102733066D01*
X141071714Y-102694971D01*
X140995523Y-102656876D01*
X140843142Y-102656876D01*
X140766952Y-102694971D01*
X140728857Y-102733066D01*
X140690761Y-102809257D01*
D17*
X135053085Y-92760590D02*
X134767371Y-92760590D01*
X134910228Y-92760590D02*
X134910228Y-92260590D01*
X134862609Y-92332019D01*
X134814990Y-92379638D01*
X134767371Y-92403447D01*
X135362609Y-92260590D02*
X135410228Y-92260590D01*
X135457847Y-92284400D01*
X135481657Y-92308209D01*
X135505466Y-92355828D01*
X135529276Y-92451066D01*
X135529276Y-92570114D01*
X135505466Y-92665352D01*
X135481657Y-92712971D01*
X135457847Y-92736780D01*
X135410228Y-92760590D01*
X135362609Y-92760590D01*
X135314990Y-92736780D01*
X135291180Y-92712971D01*
X135267371Y-92665352D01*
X135243561Y-92570114D01*
X135243561Y-92451066D01*
X135267371Y-92355828D01*
X135291180Y-92308209D01*
X135314990Y-92284400D01*
X135362609Y-92260590D01*
X135957847Y-92427257D02*
X135957847Y-92760590D01*
X135743561Y-92427257D02*
X135743561Y-92689161D01*
X135767371Y-92736780D01*
X135814990Y-92760590D01*
X135886419Y-92760590D01*
X135934038Y-92736780D01*
X135957847Y-92712971D01*
X136362609Y-92498685D02*
X136195942Y-92498685D01*
X136195942Y-92760590D02*
X136195942Y-92260590D01*
X136434038Y-92260590D01*
D20*
X135890114Y-95697085D02*
X135928209Y-95735180D01*
X135966304Y-95849466D01*
X135966304Y-95925657D01*
X135928209Y-96039942D01*
X135852019Y-96116133D01*
X135775828Y-96154228D01*
X135623447Y-96192323D01*
X135509161Y-96192323D01*
X135356780Y-96154228D01*
X135280590Y-96116133D01*
X135204400Y-96039942D01*
X135166304Y-95925657D01*
X135166304Y-95849466D01*
X135204400Y-95735180D01*
X135242495Y-95697085D01*
X135966304Y-94935180D02*
X135966304Y-95392323D01*
X135966304Y-95163752D02*
X135166304Y-95163752D01*
X135280590Y-95239942D01*
X135356780Y-95316133D01*
X135394876Y-95392323D01*
X135166304Y-94668514D02*
X135166304Y-94135180D01*
X135966304Y-94478038D01*
D17*
X146510228Y-95112971D02*
X146534038Y-95136780D01*
X146510228Y-95160590D01*
X146486419Y-95136780D01*
X146510228Y-95112971D01*
X146510228Y-95160590D01*
X147010228Y-95160590D02*
X146724514Y-95160590D01*
X146867371Y-95160590D02*
X146867371Y-94660590D01*
X146819752Y-94732019D01*
X146772133Y-94779638D01*
X146724514Y-94803447D01*
X147438800Y-94827257D02*
X147438800Y-95160590D01*
X147224514Y-94827257D02*
X147224514Y-95089161D01*
X147248323Y-95136780D01*
X147295942Y-95160590D01*
X147367371Y-95160590D01*
X147414990Y-95136780D01*
X147438800Y-95112971D01*
X147843561Y-94898685D02*
X147676895Y-94898685D01*
X147676895Y-95160590D02*
X147676895Y-94660590D01*
X147914990Y-94660590D01*
D20*
X143370514Y-95265314D02*
X143332419Y-95303409D01*
X143218133Y-95341504D01*
X143141942Y-95341504D01*
X143027657Y-95303409D01*
X142951466Y-95227219D01*
X142913371Y-95151028D01*
X142875276Y-94998647D01*
X142875276Y-94884361D01*
X142913371Y-94731980D01*
X142951466Y-94655790D01*
X143027657Y-94579600D01*
X143141942Y-94541504D01*
X143218133Y-94541504D01*
X143332419Y-94579600D01*
X143370514Y-94617695D01*
X144132419Y-95341504D02*
X143675276Y-95341504D01*
X143903847Y-95341504D02*
X143903847Y-94541504D01*
X143827657Y-94655790D01*
X143751466Y-94731980D01*
X143675276Y-94770076D01*
X144818133Y-94541504D02*
X144665752Y-94541504D01*
X144589561Y-94579600D01*
X144551466Y-94617695D01*
X144475276Y-94731980D01*
X144437180Y-94884361D01*
X144437180Y-95189123D01*
X144475276Y-95265314D01*
X144513371Y-95303409D01*
X144589561Y-95341504D01*
X144741942Y-95341504D01*
X144818133Y-95303409D01*
X144856228Y-95265314D01*
X144894323Y-95189123D01*
X144894323Y-94998647D01*
X144856228Y-94922457D01*
X144818133Y-94884361D01*
X144741942Y-94846266D01*
X144589561Y-94846266D01*
X144513371Y-94884361D01*
X144475276Y-94922457D01*
X144437180Y-94998647D01*
D17*
X148479885Y-86527790D02*
X148194171Y-86527790D01*
X148337028Y-86527790D02*
X148337028Y-86027790D01*
X148289409Y-86099219D01*
X148241790Y-86146838D01*
X148194171Y-86170647D01*
X148789409Y-86027790D02*
X148837028Y-86027790D01*
X148884647Y-86051600D01*
X148908457Y-86075409D01*
X148932266Y-86123028D01*
X148956076Y-86218266D01*
X148956076Y-86337314D01*
X148932266Y-86432552D01*
X148908457Y-86480171D01*
X148884647Y-86503980D01*
X148837028Y-86527790D01*
X148789409Y-86527790D01*
X148741790Y-86503980D01*
X148717980Y-86480171D01*
X148694171Y-86432552D01*
X148670361Y-86337314D01*
X148670361Y-86218266D01*
X148694171Y-86123028D01*
X148717980Y-86075409D01*
X148741790Y-86051600D01*
X148789409Y-86027790D01*
X149384647Y-86194457D02*
X149384647Y-86527790D01*
X149170361Y-86194457D02*
X149170361Y-86456361D01*
X149194171Y-86503980D01*
X149241790Y-86527790D01*
X149313219Y-86527790D01*
X149360838Y-86503980D01*
X149384647Y-86480171D01*
X149789409Y-86265885D02*
X149622742Y-86265885D01*
X149622742Y-86527790D02*
X149622742Y-86027790D01*
X149860838Y-86027790D01*
D20*
X148501314Y-88407314D02*
X148463219Y-88445409D01*
X148348933Y-88483504D01*
X148272742Y-88483504D01*
X148158457Y-88445409D01*
X148082266Y-88369219D01*
X148044171Y-88293028D01*
X148006076Y-88140647D01*
X148006076Y-88026361D01*
X148044171Y-87873980D01*
X148082266Y-87797790D01*
X148158457Y-87721600D01*
X148272742Y-87683504D01*
X148348933Y-87683504D01*
X148463219Y-87721600D01*
X148501314Y-87759695D01*
X149263219Y-88483504D02*
X148806076Y-88483504D01*
X149034647Y-88483504D02*
X149034647Y-87683504D01*
X148958457Y-87797790D01*
X148882266Y-87873980D01*
X148806076Y-87912076D01*
X149987028Y-87683504D02*
X149606076Y-87683504D01*
X149567980Y-88064457D01*
X149606076Y-88026361D01*
X149682266Y-87988266D01*
X149872742Y-87988266D01*
X149948933Y-88026361D01*
X149987028Y-88064457D01*
X150025123Y-88140647D01*
X150025123Y-88331123D01*
X149987028Y-88407314D01*
X149948933Y-88445409D01*
X149872742Y-88483504D01*
X149682266Y-88483504D01*
X149606076Y-88445409D01*
X149567980Y-88407314D01*
D17*
X155510228Y-97312971D02*
X155534038Y-97336780D01*
X155510228Y-97360590D01*
X155486419Y-97336780D01*
X155510228Y-97312971D01*
X155510228Y-97360590D01*
X156010228Y-97360590D02*
X155724514Y-97360590D01*
X155867371Y-97360590D02*
X155867371Y-96860590D01*
X155819752Y-96932019D01*
X155772133Y-96979638D01*
X155724514Y-97003447D01*
X156438800Y-97027257D02*
X156438800Y-97360590D01*
X156224514Y-97027257D02*
X156224514Y-97289161D01*
X156248323Y-97336780D01*
X156295942Y-97360590D01*
X156367371Y-97360590D01*
X156414990Y-97336780D01*
X156438800Y-97312971D01*
X156843561Y-97098685D02*
X156676895Y-97098685D01*
X156676895Y-97360590D02*
X156676895Y-96860590D01*
X156914990Y-96860590D01*
D19*
X153990857Y-97306857D02*
X153971809Y-97325904D01*
X153914666Y-97344952D01*
X153876571Y-97344952D01*
X153819428Y-97325904D01*
X153781333Y-97287809D01*
X153762285Y-97249714D01*
X153743238Y-97173523D01*
X153743238Y-97116380D01*
X153762285Y-97040190D01*
X153781333Y-97002095D01*
X153819428Y-96964000D01*
X153876571Y-96944952D01*
X153914666Y-96944952D01*
X153971809Y-96964000D01*
X153990857Y-96983047D01*
X154371809Y-97344952D02*
X154143238Y-97344952D01*
X154257523Y-97344952D02*
X154257523Y-96944952D01*
X154219428Y-97002095D01*
X154181333Y-97040190D01*
X154143238Y-97059238D01*
X154714666Y-97078285D02*
X154714666Y-97344952D01*
X154619428Y-96925904D02*
X154524190Y-97211619D01*
X154771809Y-97211619D01*
D18*
X152419295Y-100324780D02*
X152419295Y-101134304D01*
X152466914Y-101229542D01*
X152514533Y-101277161D01*
X152609771Y-101324780D01*
X152800247Y-101324780D01*
X152895485Y-101277161D01*
X152943104Y-101229542D01*
X152990723Y-101134304D01*
X152990723Y-100324780D01*
X153895485Y-100324780D02*
X153705009Y-100324780D01*
X153609771Y-100372400D01*
X153562152Y-100420019D01*
X153466914Y-100562876D01*
X153419295Y-100753352D01*
X153419295Y-101134304D01*
X153466914Y-101229542D01*
X153514533Y-101277161D01*
X153609771Y-101324780D01*
X153800247Y-101324780D01*
X153895485Y-101277161D01*
X153943104Y-101229542D01*
X153990723Y-101134304D01*
X153990723Y-100896209D01*
X153943104Y-100800971D01*
X153895485Y-100753352D01*
X153800247Y-100705733D01*
X153609771Y-100705733D01*
X153514533Y-100753352D01*
X153466914Y-100800971D01*
X153419295Y-100896209D01*
X154026895Y-87286780D02*
X154026895Y-88096304D01*
X154074514Y-88191542D01*
X154122133Y-88239161D01*
X154217371Y-88286780D01*
X154407847Y-88286780D01*
X154503085Y-88239161D01*
X154550704Y-88191542D01*
X154598323Y-88096304D01*
X154598323Y-87286780D01*
X155550704Y-87286780D02*
X155074514Y-87286780D01*
X155026895Y-87762971D01*
X155074514Y-87715352D01*
X155169752Y-87667733D01*
X155407847Y-87667733D01*
X155503085Y-87715352D01*
X155550704Y-87762971D01*
X155598323Y-87858209D01*
X155598323Y-88096304D01*
X155550704Y-88191542D01*
X155503085Y-88239161D01*
X155407847Y-88286780D01*
X155169752Y-88286780D01*
X155074514Y-88239161D01*
X155026895Y-88191542D01*
D17*
X151312319Y-81330762D02*
X151143960Y-81499121D01*
X150790407Y-81145567D01*
X151026109Y-80909865D02*
X151228139Y-80707835D01*
X151480677Y-81162403D02*
X151127124Y-80808850D01*
X151699544Y-80943537D02*
X151345990Y-80589983D01*
X151716380Y-80724670D01*
X151581693Y-80354281D01*
X151935246Y-80707835D01*
X151952082Y-80286938D02*
X151901574Y-80303774D01*
X151867903Y-80303774D01*
X151817395Y-80286938D01*
X151800559Y-80270102D01*
X151783723Y-80219594D01*
X151783723Y-80185922D01*
X151800559Y-80135415D01*
X151867903Y-80068071D01*
X151918410Y-80051235D01*
X151952082Y-80051235D01*
X152002590Y-80068071D01*
X152019425Y-80084907D01*
X152036261Y-80135415D01*
X152036261Y-80169087D01*
X152019425Y-80219594D01*
X151952082Y-80286938D01*
X151935246Y-80337445D01*
X151935246Y-80371117D01*
X151952082Y-80421625D01*
X152019425Y-80488968D01*
X152069933Y-80505804D01*
X152103605Y-80505804D01*
X152154112Y-80488968D01*
X152221456Y-80421625D01*
X152238292Y-80371117D01*
X152238292Y-80337445D01*
X152221456Y-80286938D01*
X152154112Y-80219594D01*
X152103605Y-80202758D01*
X152069933Y-80202758D01*
X152019425Y-80219594D01*
X152154112Y-79781861D02*
X152187784Y-79748190D01*
X152238292Y-79731354D01*
X152271964Y-79731354D01*
X152322471Y-79748190D01*
X152406651Y-79798697D01*
X152490830Y-79882877D01*
X152541338Y-79967056D01*
X152558174Y-80017564D01*
X152558174Y-80051235D01*
X152541338Y-80101743D01*
X152507666Y-80135415D01*
X152457158Y-80152251D01*
X152423487Y-80152251D01*
X152372979Y-80135415D01*
X152288800Y-80084907D01*
X152204620Y-80000728D01*
X152154112Y-79916548D01*
X152137277Y-79866041D01*
X152137277Y-79832369D01*
X152154112Y-79781861D01*
X152389815Y-79546159D02*
X152625517Y-79310457D01*
X152827548Y-79815533D01*
X153029578Y-79142098D02*
X153265280Y-79377800D01*
X152810712Y-79091590D02*
X152979070Y-79428308D01*
X153197937Y-79209442D01*
X153450475Y-79192606D02*
X153096922Y-78839052D01*
X153517818Y-78788545D02*
X153686177Y-78956903D01*
X153214773Y-78721201D02*
X153517818Y-78788545D01*
X153450475Y-78485499D01*
X144903085Y-90660590D02*
X144664990Y-90660590D01*
X144664990Y-90160590D01*
X145069752Y-90660590D02*
X145069752Y-90160590D01*
X145236419Y-90517733D01*
X145403085Y-90160590D01*
X145403085Y-90660590D01*
X145926895Y-90660590D02*
X145760228Y-90422495D01*
X145641180Y-90660590D02*
X145641180Y-90160590D01*
X145831657Y-90160590D01*
X145879276Y-90184400D01*
X145903085Y-90208209D01*
X145926895Y-90255828D01*
X145926895Y-90327257D01*
X145903085Y-90374876D01*
X145879276Y-90398685D01*
X145831657Y-90422495D01*
X145641180Y-90422495D01*
X146403085Y-90660590D02*
X146117371Y-90660590D01*
X146260228Y-90660590D02*
X146260228Y-90160590D01*
X146212609Y-90232019D01*
X146164990Y-90279638D01*
X146117371Y-90303447D01*
X146831657Y-90160590D02*
X146736419Y-90160590D01*
X146688800Y-90184400D01*
X146664990Y-90208209D01*
X146617371Y-90279638D01*
X146593561Y-90374876D01*
X146593561Y-90565352D01*
X146617371Y-90612971D01*
X146641180Y-90636780D01*
X146688800Y-90660590D01*
X146784038Y-90660590D01*
X146831657Y-90636780D01*
X146855466Y-90612971D01*
X146879276Y-90565352D01*
X146879276Y-90446304D01*
X146855466Y-90398685D01*
X146831657Y-90374876D01*
X146784038Y-90351066D01*
X146688800Y-90351066D01*
X146641180Y-90374876D01*
X146617371Y-90398685D01*
X146593561Y-90446304D01*
X147188800Y-90160590D02*
X147236419Y-90160590D01*
X147284038Y-90184400D01*
X147307847Y-90208209D01*
X147331657Y-90255828D01*
X147355466Y-90351066D01*
X147355466Y-90470114D01*
X147331657Y-90565352D01*
X147307847Y-90612971D01*
X147284038Y-90636780D01*
X147236419Y-90660590D01*
X147188800Y-90660590D01*
X147141180Y-90636780D01*
X147117371Y-90612971D01*
X147093561Y-90565352D01*
X147069752Y-90470114D01*
X147069752Y-90351066D01*
X147093561Y-90255828D01*
X147117371Y-90208209D01*
X147141180Y-90184400D01*
X147188800Y-90160590D01*
X147664990Y-90160590D02*
X147712609Y-90160590D01*
X147760228Y-90184400D01*
X147784038Y-90208209D01*
X147807847Y-90255828D01*
X147831657Y-90351066D01*
X147831657Y-90470114D01*
X147807847Y-90565352D01*
X147784038Y-90612971D01*
X147760228Y-90636780D01*
X147712609Y-90660590D01*
X147664990Y-90660590D01*
X147617371Y-90636780D01*
X147593561Y-90612971D01*
X147569752Y-90565352D01*
X147545942Y-90470114D01*
X147545942Y-90351066D01*
X147569752Y-90255828D01*
X147593561Y-90208209D01*
X147617371Y-90184400D01*
X147664990Y-90160590D01*
X148260228Y-90160590D02*
X148164990Y-90160590D01*
X148117371Y-90184400D01*
X148093561Y-90208209D01*
X148045942Y-90279638D01*
X148022133Y-90374876D01*
X148022133Y-90565352D01*
X148045942Y-90612971D01*
X148069752Y-90636780D01*
X148117371Y-90660590D01*
X148212609Y-90660590D01*
X148260228Y-90636780D01*
X148284038Y-90612971D01*
X148307847Y-90565352D01*
X148307847Y-90446304D01*
X148284038Y-90398685D01*
X148260228Y-90374876D01*
X148212609Y-90351066D01*
X148117371Y-90351066D01*
X148069752Y-90374876D01*
X148045942Y-90398685D01*
X148022133Y-90446304D01*
X148617371Y-90422495D02*
X148617371Y-90660590D01*
X148450704Y-90160590D02*
X148617371Y-90422495D01*
X148784038Y-90160590D01*
X149284038Y-90708209D02*
X149236419Y-90684400D01*
X149188800Y-90636780D01*
X149117371Y-90565352D01*
X149069752Y-90541542D01*
X149022133Y-90541542D01*
X149045942Y-90660590D02*
X148998323Y-90636780D01*
X148950704Y-90589161D01*
X148926895Y-90493923D01*
X148926895Y-90327257D01*
X148950704Y-90232019D01*
X148998323Y-90184400D01*
X149045942Y-90160590D01*
X149141180Y-90160590D01*
X149188800Y-90184400D01*
X149236419Y-90232019D01*
X149260228Y-90327257D01*
X149260228Y-90493923D01*
X149236419Y-90589161D01*
X149188800Y-90636780D01*
X149141180Y-90660590D01*
X149045942Y-90660590D01*
X149712609Y-90160590D02*
X149474514Y-90160590D01*
X149450704Y-90398685D01*
X149474514Y-90374876D01*
X149522133Y-90351066D01*
X149641180Y-90351066D01*
X149688800Y-90374876D01*
X149712609Y-90398685D01*
X149736419Y-90446304D01*
X149736419Y-90565352D01*
X149712609Y-90612971D01*
X149688800Y-90636780D01*
X149641180Y-90660590D01*
X149522133Y-90660590D01*
X149474514Y-90636780D01*
X149450704Y-90612971D01*
D21*
X146755047Y-91505390D02*
X146755047Y-91910152D01*
X146778857Y-91957771D01*
X146802666Y-91981580D01*
X146850285Y-92005390D01*
X146945523Y-92005390D01*
X146993142Y-91981580D01*
X147016952Y-91957771D01*
X147040761Y-91910152D01*
X147040761Y-91505390D01*
X147231238Y-91505390D02*
X147540761Y-91505390D01*
X147374095Y-91695866D01*
X147445523Y-91695866D01*
X147493142Y-91719676D01*
X147516952Y-91743485D01*
X147540761Y-91791104D01*
X147540761Y-91910152D01*
X147516952Y-91957771D01*
X147493142Y-91981580D01*
X147445523Y-92005390D01*
X147302666Y-92005390D01*
X147255047Y-91981580D01*
X147231238Y-91957771D01*
D17*
X152262609Y-108184400D02*
X152238800Y-108160590D01*
X152214990Y-108112971D01*
X152214990Y-107993923D01*
X152238800Y-107946304D01*
X152262609Y-107922495D01*
X152310228Y-107898685D01*
X152357847Y-107898685D01*
X152429276Y-107922495D01*
X152714990Y-108208209D01*
X152714990Y-107898685D01*
X152667371Y-107684400D02*
X152691180Y-107660590D01*
X152714990Y-107684400D01*
X152691180Y-107708209D01*
X152667371Y-107684400D01*
X152714990Y-107684400D01*
X152262609Y-107470114D02*
X152238800Y-107446304D01*
X152214990Y-107398685D01*
X152214990Y-107279638D01*
X152238800Y-107232019D01*
X152262609Y-107208209D01*
X152310228Y-107184400D01*
X152357847Y-107184400D01*
X152429276Y-107208209D01*
X152714990Y-107493923D01*
X152714990Y-107184400D01*
X152714990Y-106970114D02*
X152214990Y-106970114D01*
X152714990Y-106684400D02*
X152429276Y-106898685D01*
X152214990Y-106684400D02*
X152500704Y-106970114D01*
D19*
X152600152Y-110222742D02*
X152409676Y-110356076D01*
X152600152Y-110451314D02*
X152200152Y-110451314D01*
X152200152Y-110298933D01*
X152219200Y-110260838D01*
X152238247Y-110241790D01*
X152276342Y-110222742D01*
X152333485Y-110222742D01*
X152371580Y-110241790D01*
X152390628Y-110260838D01*
X152409676Y-110298933D01*
X152409676Y-110451314D01*
X152600152Y-109841790D02*
X152600152Y-110070361D01*
X152600152Y-109956076D02*
X152200152Y-109956076D01*
X152257295Y-109994171D01*
X152295390Y-110032266D01*
X152314438Y-110070361D01*
X152600152Y-109651314D02*
X152600152Y-109575123D01*
X152581104Y-109537028D01*
X152562057Y-109517980D01*
X152504914Y-109479885D01*
X152428723Y-109460838D01*
X152276342Y-109460838D01*
X152238247Y-109479885D01*
X152219200Y-109498933D01*
X152200152Y-109537028D01*
X152200152Y-109613219D01*
X152219200Y-109651314D01*
X152238247Y-109670361D01*
X152276342Y-109689409D01*
X152371580Y-109689409D01*
X152409676Y-109670361D01*
X152428723Y-109651314D01*
X152447771Y-109613219D01*
X152447771Y-109537028D01*
X152428723Y-109498933D01*
X152409676Y-109479885D01*
X152371580Y-109460838D01*
D17*
X129591180Y-94760590D02*
X129305466Y-94760590D01*
X129448323Y-94760590D02*
X129448323Y-94260590D01*
X129400704Y-94332019D01*
X129353085Y-94379638D01*
X129305466Y-94403447D01*
X129900704Y-94260590D02*
X129948323Y-94260590D01*
X129995942Y-94284400D01*
X130019752Y-94308209D01*
X130043561Y-94355828D01*
X130067371Y-94451066D01*
X130067371Y-94570114D01*
X130043561Y-94665352D01*
X130019752Y-94712971D01*
X129995942Y-94736780D01*
X129948323Y-94760590D01*
X129900704Y-94760590D01*
X129853085Y-94736780D01*
X129829276Y-94712971D01*
X129805466Y-94665352D01*
X129781657Y-94570114D01*
X129781657Y-94451066D01*
X129805466Y-94355828D01*
X129829276Y-94308209D01*
X129853085Y-94284400D01*
X129900704Y-94260590D01*
X130281657Y-94760590D02*
X130281657Y-94260590D01*
X130329276Y-94570114D02*
X130472133Y-94760590D01*
X130472133Y-94427257D02*
X130281657Y-94617733D01*
D19*
X131842057Y-94652552D02*
X131708723Y-94462076D01*
X131613485Y-94652552D02*
X131613485Y-94252552D01*
X131765866Y-94252552D01*
X131803961Y-94271600D01*
X131823009Y-94290647D01*
X131842057Y-94328742D01*
X131842057Y-94385885D01*
X131823009Y-94423980D01*
X131803961Y-94443028D01*
X131765866Y-94462076D01*
X131613485Y-94462076D01*
X132223009Y-94652552D02*
X131994438Y-94652552D01*
X132108723Y-94652552D02*
X132108723Y-94252552D01*
X132070628Y-94309695D01*
X132032533Y-94347790D01*
X131994438Y-94366838D01*
X132451580Y-94423980D02*
X132413485Y-94404933D01*
X132394438Y-94385885D01*
X132375390Y-94347790D01*
X132375390Y-94328742D01*
X132394438Y-94290647D01*
X132413485Y-94271600D01*
X132451580Y-94252552D01*
X132527771Y-94252552D01*
X132565866Y-94271600D01*
X132584914Y-94290647D01*
X132603961Y-94328742D01*
X132603961Y-94347790D01*
X132584914Y-94385885D01*
X132565866Y-94404933D01*
X132527771Y-94423980D01*
X132451580Y-94423980D01*
X132413485Y-94443028D01*
X132394438Y-94462076D01*
X132375390Y-94500171D01*
X132375390Y-94576361D01*
X132394438Y-94614457D01*
X132413485Y-94633504D01*
X132451580Y-94652552D01*
X132527771Y-94652552D01*
X132565866Y-94633504D01*
X132584914Y-94614457D01*
X132603961Y-94576361D01*
X132603961Y-94500171D01*
X132584914Y-94462076D01*
X132565866Y-94443028D01*
X132527771Y-94423980D01*
D17*
X154114990Y-107879638D02*
X154114990Y-108165352D01*
X154114990Y-108022495D02*
X153614990Y-108022495D01*
X153686419Y-108070114D01*
X153734038Y-108117733D01*
X153757847Y-108165352D01*
X153662609Y-107689161D02*
X153638800Y-107665352D01*
X153614990Y-107617733D01*
X153614990Y-107498685D01*
X153638800Y-107451066D01*
X153662609Y-107427257D01*
X153710228Y-107403447D01*
X153757847Y-107403447D01*
X153829276Y-107427257D01*
X154114990Y-107712971D01*
X154114990Y-107403447D01*
X154114990Y-107189161D02*
X153614990Y-107189161D01*
X154114990Y-106903447D02*
X153829276Y-107117733D01*
X153614990Y-106903447D02*
X153900704Y-107189161D01*
D19*
X154174952Y-110222742D02*
X153984476Y-110356076D01*
X154174952Y-110451314D02*
X153774952Y-110451314D01*
X153774952Y-110298933D01*
X153794000Y-110260838D01*
X153813047Y-110241790D01*
X153851142Y-110222742D01*
X153908285Y-110222742D01*
X153946380Y-110241790D01*
X153965428Y-110260838D01*
X153984476Y-110298933D01*
X153984476Y-110451314D01*
X154174952Y-109841790D02*
X154174952Y-110070361D01*
X154174952Y-109956076D02*
X153774952Y-109956076D01*
X153832095Y-109994171D01*
X153870190Y-110032266D01*
X153889238Y-110070361D01*
X153774952Y-109708457D02*
X153774952Y-109441790D01*
X154174952Y-109613219D01*
D17*
X144414990Y-82393923D02*
X144414990Y-82679638D01*
X144414990Y-82536780D02*
X143914990Y-82536780D01*
X143986419Y-82584400D01*
X144034038Y-82632019D01*
X144057847Y-82679638D01*
X144414990Y-82179638D02*
X143914990Y-82179638D01*
X144224514Y-82132019D02*
X144414990Y-81989161D01*
X144081657Y-81989161D02*
X144272133Y-82179638D01*
D19*
X144421352Y-84314742D02*
X144230876Y-84448076D01*
X144421352Y-84543314D02*
X144021352Y-84543314D01*
X144021352Y-84390933D01*
X144040400Y-84352838D01*
X144059447Y-84333790D01*
X144097542Y-84314742D01*
X144154685Y-84314742D01*
X144192780Y-84333790D01*
X144211828Y-84352838D01*
X144230876Y-84390933D01*
X144230876Y-84543314D01*
X144421352Y-83933790D02*
X144421352Y-84162361D01*
X144421352Y-84048076D02*
X144021352Y-84048076D01*
X144078495Y-84086171D01*
X144116590Y-84124266D01*
X144135638Y-84162361D01*
X144021352Y-83590933D02*
X144021352Y-83667123D01*
X144040400Y-83705219D01*
X144059447Y-83724266D01*
X144116590Y-83762361D01*
X144192780Y-83781409D01*
X144345161Y-83781409D01*
X144383257Y-83762361D01*
X144402304Y-83743314D01*
X144421352Y-83705219D01*
X144421352Y-83629028D01*
X144402304Y-83590933D01*
X144383257Y-83571885D01*
X144345161Y-83552838D01*
X144249923Y-83552838D01*
X144211828Y-83571885D01*
X144192780Y-83590933D01*
X144173733Y-83629028D01*
X144173733Y-83705219D01*
X144192780Y-83743314D01*
X144211828Y-83762361D01*
X144249923Y-83781409D01*
D17*
X153614990Y-91332019D02*
X153614990Y-91617733D01*
X153614990Y-91474876D02*
X153114990Y-91474876D01*
X153186419Y-91522495D01*
X153234038Y-91570114D01*
X153257847Y-91617733D01*
X153114990Y-91022495D02*
X153114990Y-90974876D01*
X153138800Y-90927257D01*
X153162609Y-90903447D01*
X153210228Y-90879638D01*
X153305466Y-90855828D01*
X153424514Y-90855828D01*
X153519752Y-90879638D01*
X153567371Y-90903447D01*
X153591180Y-90927257D01*
X153614990Y-90974876D01*
X153614990Y-91022495D01*
X153591180Y-91070114D01*
X153567371Y-91093923D01*
X153519752Y-91117733D01*
X153424514Y-91141542D01*
X153305466Y-91141542D01*
X153210228Y-91117733D01*
X153162609Y-91093923D01*
X153138800Y-91070114D01*
X153114990Y-91022495D01*
X153614990Y-90641542D02*
X153114990Y-90641542D01*
X153424514Y-90593923D02*
X153614990Y-90451066D01*
X153281657Y-90451066D02*
X153472133Y-90641542D01*
D19*
X153514552Y-92950742D02*
X153324076Y-93084076D01*
X153514552Y-93179314D02*
X153114552Y-93179314D01*
X153114552Y-93026933D01*
X153133600Y-92988838D01*
X153152647Y-92969790D01*
X153190742Y-92950742D01*
X153247885Y-92950742D01*
X153285980Y-92969790D01*
X153305028Y-92988838D01*
X153324076Y-93026933D01*
X153324076Y-93179314D01*
X153514552Y-92569790D02*
X153514552Y-92798361D01*
X153514552Y-92684076D02*
X153114552Y-92684076D01*
X153171695Y-92722171D01*
X153209790Y-92760266D01*
X153228838Y-92798361D01*
X153114552Y-92207885D02*
X153114552Y-92398361D01*
X153305028Y-92417409D01*
X153285980Y-92398361D01*
X153266933Y-92360266D01*
X153266933Y-92265028D01*
X153285980Y-92226933D01*
X153305028Y-92207885D01*
X153343123Y-92188838D01*
X153438361Y-92188838D01*
X153476457Y-92207885D01*
X153495504Y-92226933D01*
X153514552Y-92265028D01*
X153514552Y-92360266D01*
X153495504Y-92398361D01*
X153476457Y-92417409D01*
D17*
X169399390Y-102067695D02*
X169399390Y-101758171D01*
X169589866Y-101924838D01*
X169589866Y-101853409D01*
X169613676Y-101805790D01*
X169637485Y-101781980D01*
X169685104Y-101758171D01*
X169804152Y-101758171D01*
X169851771Y-101781980D01*
X169875580Y-101805790D01*
X169899390Y-101853409D01*
X169899390Y-101996266D01*
X169875580Y-102043885D01*
X169851771Y-102067695D01*
X169399390Y-101448647D02*
X169399390Y-101401028D01*
X169423200Y-101353409D01*
X169447009Y-101329600D01*
X169494628Y-101305790D01*
X169589866Y-101281980D01*
X169708914Y-101281980D01*
X169804152Y-101305790D01*
X169851771Y-101329600D01*
X169875580Y-101353409D01*
X169899390Y-101401028D01*
X169899390Y-101448647D01*
X169875580Y-101496266D01*
X169851771Y-101520076D01*
X169804152Y-101543885D01*
X169708914Y-101567695D01*
X169589866Y-101567695D01*
X169494628Y-101543885D01*
X169447009Y-101520076D01*
X169423200Y-101496266D01*
X169399390Y-101448647D01*
X169899390Y-101067695D02*
X169566057Y-101067695D01*
X169613676Y-101067695D02*
X169589866Y-101043885D01*
X169566057Y-100996266D01*
X169566057Y-100924838D01*
X169589866Y-100877219D01*
X169637485Y-100853409D01*
X169899390Y-100853409D01*
X169637485Y-100853409D02*
X169589866Y-100829600D01*
X169566057Y-100781980D01*
X169566057Y-100710552D01*
X169589866Y-100662933D01*
X169637485Y-100639123D01*
X169899390Y-100639123D01*
D20*
X168215104Y-101843885D02*
X167834152Y-102110552D01*
X168215104Y-102301028D02*
X167415104Y-102301028D01*
X167415104Y-101996266D01*
X167453200Y-101920076D01*
X167491295Y-101881980D01*
X167567485Y-101843885D01*
X167681771Y-101843885D01*
X167757961Y-101881980D01*
X167796057Y-101920076D01*
X167834152Y-101996266D01*
X167834152Y-102301028D01*
X168215104Y-101081980D02*
X168215104Y-101539123D01*
X168215104Y-101310552D02*
X167415104Y-101310552D01*
X167529390Y-101386742D01*
X167605580Y-101462933D01*
X167643676Y-101539123D01*
X167681771Y-100396266D02*
X168215104Y-100396266D01*
X167377009Y-100586742D02*
X167948438Y-100777219D01*
X167948438Y-100281980D01*
D17*
X143114990Y-82067733D02*
X143114990Y-82353447D01*
X143114990Y-82210590D02*
X142614990Y-82210590D01*
X142686419Y-82258209D01*
X142734038Y-82305828D01*
X142757847Y-82353447D01*
X142614990Y-81758209D02*
X142614990Y-81710590D01*
X142638800Y-81662971D01*
X142662609Y-81639161D01*
X142710228Y-81615352D01*
X142805466Y-81591542D01*
X142924514Y-81591542D01*
X143019752Y-81615352D01*
X143067371Y-81639161D01*
X143091180Y-81662971D01*
X143114990Y-81710590D01*
X143114990Y-81758209D01*
X143091180Y-81805828D01*
X143067371Y-81829638D01*
X143019752Y-81853447D01*
X142924514Y-81877257D01*
X142805466Y-81877257D01*
X142710228Y-81853447D01*
X142662609Y-81829638D01*
X142638800Y-81805828D01*
X142614990Y-81758209D01*
X142614990Y-81282019D02*
X142614990Y-81234400D01*
X142638800Y-81186780D01*
X142662609Y-81162971D01*
X142710228Y-81139161D01*
X142805466Y-81115352D01*
X142924514Y-81115352D01*
X143019752Y-81139161D01*
X143067371Y-81162971D01*
X143091180Y-81186780D01*
X143114990Y-81234400D01*
X143114990Y-81282019D01*
X143091180Y-81329638D01*
X143067371Y-81353447D01*
X143019752Y-81377257D01*
X142924514Y-81401066D01*
X142805466Y-81401066D01*
X142710228Y-81377257D01*
X142662609Y-81353447D01*
X142638800Y-81329638D01*
X142614990Y-81282019D01*
D19*
X141271752Y-84314742D02*
X141081276Y-84448076D01*
X141271752Y-84543314D02*
X140871752Y-84543314D01*
X140871752Y-84390933D01*
X140890800Y-84352838D01*
X140909847Y-84333790D01*
X140947942Y-84314742D01*
X141005085Y-84314742D01*
X141043180Y-84333790D01*
X141062228Y-84352838D01*
X141081276Y-84390933D01*
X141081276Y-84543314D01*
X141271752Y-83933790D02*
X141271752Y-84162361D01*
X141271752Y-84048076D02*
X140871752Y-84048076D01*
X140928895Y-84086171D01*
X140966990Y-84124266D01*
X140986038Y-84162361D01*
X140871752Y-83800457D02*
X140871752Y-83552838D01*
X141024133Y-83686171D01*
X141024133Y-83629028D01*
X141043180Y-83590933D01*
X141062228Y-83571885D01*
X141100323Y-83552838D01*
X141195561Y-83552838D01*
X141233657Y-83571885D01*
X141252704Y-83590933D01*
X141271752Y-83629028D01*
X141271752Y-83743314D01*
X141252704Y-83781409D01*
X141233657Y-83800457D01*
D17*
X153448742Y-85126457D02*
X153448742Y-85459790D01*
X153329695Y-84935980D02*
X153210647Y-85293123D01*
X153520171Y-85293123D01*
X153663028Y-84959790D02*
X153996361Y-84959790D01*
X153782076Y-85459790D01*
X154186838Y-85459790D02*
X154186838Y-84959790D01*
X154472552Y-85459790D02*
X154258266Y-85174076D01*
X154472552Y-84959790D02*
X154186838Y-85245504D01*
D19*
X153584457Y-83984552D02*
X153451123Y-83794076D01*
X153355885Y-83984552D02*
X153355885Y-83584552D01*
X153508266Y-83584552D01*
X153546361Y-83603600D01*
X153565409Y-83622647D01*
X153584457Y-83660742D01*
X153584457Y-83717885D01*
X153565409Y-83755980D01*
X153546361Y-83775028D01*
X153508266Y-83794076D01*
X153355885Y-83794076D01*
X153965409Y-83984552D02*
X153736838Y-83984552D01*
X153851123Y-83984552D02*
X153851123Y-83584552D01*
X153813028Y-83641695D01*
X153774933Y-83679790D01*
X153736838Y-83698838D01*
X154117790Y-83622647D02*
X154136838Y-83603600D01*
X154174933Y-83584552D01*
X154270171Y-83584552D01*
X154308266Y-83603600D01*
X154327314Y-83622647D01*
X154346361Y-83660742D01*
X154346361Y-83698838D01*
X154327314Y-83755980D01*
X154098742Y-83984552D01*
X154346361Y-83984552D01*
D17*
X150091219Y-74544857D02*
X150091219Y-74878190D01*
X149972171Y-74354380D02*
X149853123Y-74711523D01*
X150162647Y-74711523D01*
X150448361Y-74378190D02*
X150495980Y-74378190D01*
X150543600Y-74402000D01*
X150567409Y-74425809D01*
X150591219Y-74473428D01*
X150615028Y-74568666D01*
X150615028Y-74687714D01*
X150591219Y-74782952D01*
X150567409Y-74830571D01*
X150543600Y-74854380D01*
X150495980Y-74878190D01*
X150448361Y-74878190D01*
X150400742Y-74854380D01*
X150376933Y-74830571D01*
X150353123Y-74782952D01*
X150329314Y-74687714D01*
X150329314Y-74568666D01*
X150353123Y-74473428D01*
X150376933Y-74425809D01*
X150400742Y-74402000D01*
X150448361Y-74378190D01*
X150829314Y-74830571D02*
X150853123Y-74854380D01*
X150829314Y-74878190D01*
X150805504Y-74854380D01*
X150829314Y-74830571D01*
X150829314Y-74878190D01*
X151043600Y-74425809D02*
X151067409Y-74402000D01*
X151115028Y-74378190D01*
X151234076Y-74378190D01*
X151281695Y-74402000D01*
X151305504Y-74425809D01*
X151329314Y-74473428D01*
X151329314Y-74521047D01*
X151305504Y-74592476D01*
X151019790Y-74878190D01*
X151329314Y-74878190D01*
X151543600Y-74878190D02*
X151543600Y-74378190D01*
X151591219Y-74687714D02*
X151734076Y-74878190D01*
X151734076Y-74544857D02*
X151543600Y-74735333D01*
D19*
X150536457Y-76262952D02*
X150403123Y-76072476D01*
X150307885Y-76262952D02*
X150307885Y-75862952D01*
X150460266Y-75862952D01*
X150498361Y-75882000D01*
X150517409Y-75901047D01*
X150536457Y-75939142D01*
X150536457Y-75996285D01*
X150517409Y-76034380D01*
X150498361Y-76053428D01*
X150460266Y-76072476D01*
X150307885Y-76072476D01*
X150917409Y-76262952D02*
X150688838Y-76262952D01*
X150803123Y-76262952D02*
X150803123Y-75862952D01*
X150765028Y-75920095D01*
X150726933Y-75958190D01*
X150688838Y-75977238D01*
X151298361Y-76262952D02*
X151069790Y-76262952D01*
X151184076Y-76262952D02*
X151184076Y-75862952D01*
X151145980Y-75920095D01*
X151107885Y-75958190D01*
X151069790Y-75977238D01*
D17*
X155114990Y-91332019D02*
X155114990Y-91617733D01*
X155114990Y-91474876D02*
X154614990Y-91474876D01*
X154686419Y-91522495D01*
X154734038Y-91570114D01*
X154757847Y-91617733D01*
X154614990Y-91022495D02*
X154614990Y-90974876D01*
X154638800Y-90927257D01*
X154662609Y-90903447D01*
X154710228Y-90879638D01*
X154805466Y-90855828D01*
X154924514Y-90855828D01*
X155019752Y-90879638D01*
X155067371Y-90903447D01*
X155091180Y-90927257D01*
X155114990Y-90974876D01*
X155114990Y-91022495D01*
X155091180Y-91070114D01*
X155067371Y-91093923D01*
X155019752Y-91117733D01*
X154924514Y-91141542D01*
X154805466Y-91141542D01*
X154710228Y-91117733D01*
X154662609Y-91093923D01*
X154638800Y-91070114D01*
X154614990Y-91022495D01*
X155114990Y-90641542D02*
X154614990Y-90641542D01*
X154924514Y-90593923D02*
X155114990Y-90451066D01*
X154781657Y-90451066D02*
X154972133Y-90641542D01*
D19*
X155089352Y-92950742D02*
X154898876Y-93084076D01*
X155089352Y-93179314D02*
X154689352Y-93179314D01*
X154689352Y-93026933D01*
X154708400Y-92988838D01*
X154727447Y-92969790D01*
X154765542Y-92950742D01*
X154822685Y-92950742D01*
X154860780Y-92969790D01*
X154879828Y-92988838D01*
X154898876Y-93026933D01*
X154898876Y-93179314D01*
X155089352Y-92569790D02*
X155089352Y-92798361D01*
X155089352Y-92684076D02*
X154689352Y-92684076D01*
X154746495Y-92722171D01*
X154784590Y-92760266D01*
X154803638Y-92798361D01*
X154689352Y-92322171D02*
X154689352Y-92284076D01*
X154708400Y-92245980D01*
X154727447Y-92226933D01*
X154765542Y-92207885D01*
X154841733Y-92188838D01*
X154936971Y-92188838D01*
X155013161Y-92207885D01*
X155051257Y-92226933D01*
X155070304Y-92245980D01*
X155089352Y-92284076D01*
X155089352Y-92322171D01*
X155070304Y-92360266D01*
X155051257Y-92379314D01*
X155013161Y-92398361D01*
X154936971Y-92417409D01*
X154841733Y-92417409D01*
X154765542Y-92398361D01*
X154727447Y-92379314D01*
X154708400Y-92360266D01*
X154689352Y-92322171D01*
D17*
X139714990Y-82770114D02*
X139714990Y-83055828D01*
X139714990Y-82912971D02*
X139214990Y-82912971D01*
X139286419Y-82960590D01*
X139334038Y-83008209D01*
X139357847Y-83055828D01*
X139214990Y-82460590D02*
X139214990Y-82412971D01*
X139238800Y-82365352D01*
X139262609Y-82341542D01*
X139310228Y-82317733D01*
X139405466Y-82293923D01*
X139524514Y-82293923D01*
X139619752Y-82317733D01*
X139667371Y-82341542D01*
X139691180Y-82365352D01*
X139714990Y-82412971D01*
X139714990Y-82460590D01*
X139691180Y-82508209D01*
X139667371Y-82532019D01*
X139619752Y-82555828D01*
X139524514Y-82579638D01*
X139405466Y-82579638D01*
X139310228Y-82555828D01*
X139262609Y-82532019D01*
X139238800Y-82508209D01*
X139214990Y-82460590D01*
X139214990Y-81984400D02*
X139214990Y-81936780D01*
X139238800Y-81889161D01*
X139262609Y-81865352D01*
X139310228Y-81841542D01*
X139405466Y-81817733D01*
X139524514Y-81817733D01*
X139619752Y-81841542D01*
X139667371Y-81865352D01*
X139691180Y-81889161D01*
X139714990Y-81936780D01*
X139714990Y-81984400D01*
X139691180Y-82032019D01*
X139667371Y-82055828D01*
X139619752Y-82079638D01*
X139524514Y-82103447D01*
X139405466Y-82103447D01*
X139310228Y-82079638D01*
X139262609Y-82055828D01*
X139238800Y-82032019D01*
X139214990Y-81984400D01*
X139714990Y-81603447D02*
X139214990Y-81603447D01*
X139524514Y-81555828D02*
X139714990Y-81412971D01*
X139381657Y-81412971D02*
X139572133Y-81603447D01*
D19*
X138122152Y-84124266D02*
X137931676Y-84257600D01*
X138122152Y-84352838D02*
X137722152Y-84352838D01*
X137722152Y-84200457D01*
X137741200Y-84162361D01*
X137760247Y-84143314D01*
X137798342Y-84124266D01*
X137855485Y-84124266D01*
X137893580Y-84143314D01*
X137912628Y-84162361D01*
X137931676Y-84200457D01*
X137931676Y-84352838D01*
X138122152Y-83933790D02*
X138122152Y-83857600D01*
X138103104Y-83819504D01*
X138084057Y-83800457D01*
X138026914Y-83762361D01*
X137950723Y-83743314D01*
X137798342Y-83743314D01*
X137760247Y-83762361D01*
X137741200Y-83781409D01*
X137722152Y-83819504D01*
X137722152Y-83895695D01*
X137741200Y-83933790D01*
X137760247Y-83952838D01*
X137798342Y-83971885D01*
X137893580Y-83971885D01*
X137931676Y-83952838D01*
X137950723Y-83933790D01*
X137969771Y-83895695D01*
X137969771Y-83819504D01*
X137950723Y-83781409D01*
X137931676Y-83762361D01*
X137893580Y-83743314D01*
D17*
X137762609Y-82517733D02*
X137738800Y-82493923D01*
X137714990Y-82446304D01*
X137714990Y-82327257D01*
X137738800Y-82279638D01*
X137762609Y-82255828D01*
X137810228Y-82232019D01*
X137857847Y-82232019D01*
X137929276Y-82255828D01*
X138214990Y-82541542D01*
X138214990Y-82232019D01*
X137762609Y-82041542D02*
X137738800Y-82017733D01*
X137714990Y-81970114D01*
X137714990Y-81851066D01*
X137738800Y-81803447D01*
X137762609Y-81779638D01*
X137810228Y-81755828D01*
X137857847Y-81755828D01*
X137929276Y-81779638D01*
X138214990Y-82065352D01*
X138214990Y-81755828D01*
X138214990Y-81541542D02*
X137714990Y-81541542D01*
X138024514Y-81493923D02*
X138214990Y-81351066D01*
X137881657Y-81351066D02*
X138072133Y-81541542D01*
D19*
X139696952Y-84124266D02*
X139506476Y-84257600D01*
X139696952Y-84352838D02*
X139296952Y-84352838D01*
X139296952Y-84200457D01*
X139316000Y-84162361D01*
X139335047Y-84143314D01*
X139373142Y-84124266D01*
X139430285Y-84124266D01*
X139468380Y-84143314D01*
X139487428Y-84162361D01*
X139506476Y-84200457D01*
X139506476Y-84352838D01*
X139468380Y-83895695D02*
X139449333Y-83933790D01*
X139430285Y-83952838D01*
X139392190Y-83971885D01*
X139373142Y-83971885D01*
X139335047Y-83952838D01*
X139316000Y-83933790D01*
X139296952Y-83895695D01*
X139296952Y-83819504D01*
X139316000Y-83781409D01*
X139335047Y-83762361D01*
X139373142Y-83743314D01*
X139392190Y-83743314D01*
X139430285Y-83762361D01*
X139449333Y-83781409D01*
X139468380Y-83819504D01*
X139468380Y-83895695D01*
X139487428Y-83933790D01*
X139506476Y-83952838D01*
X139544571Y-83971885D01*
X139620761Y-83971885D01*
X139658857Y-83952838D01*
X139677904Y-83933790D01*
X139696952Y-83895695D01*
X139696952Y-83819504D01*
X139677904Y-83781409D01*
X139658857Y-83762361D01*
X139620761Y-83743314D01*
X139544571Y-83743314D01*
X139506476Y-83762361D01*
X139487428Y-83781409D01*
X139468380Y-83819504D01*
D17*
X156714990Y-91332019D02*
X156714990Y-91617733D01*
X156714990Y-91474876D02*
X156214990Y-91474876D01*
X156286419Y-91522495D01*
X156334038Y-91570114D01*
X156357847Y-91617733D01*
X156214990Y-91022495D02*
X156214990Y-90974876D01*
X156238800Y-90927257D01*
X156262609Y-90903447D01*
X156310228Y-90879638D01*
X156405466Y-90855828D01*
X156524514Y-90855828D01*
X156619752Y-90879638D01*
X156667371Y-90903447D01*
X156691180Y-90927257D01*
X156714990Y-90974876D01*
X156714990Y-91022495D01*
X156691180Y-91070114D01*
X156667371Y-91093923D01*
X156619752Y-91117733D01*
X156524514Y-91141542D01*
X156405466Y-91141542D01*
X156310228Y-91117733D01*
X156262609Y-91093923D01*
X156238800Y-91070114D01*
X156214990Y-91022495D01*
X156714990Y-90641542D02*
X156214990Y-90641542D01*
X156524514Y-90593923D02*
X156714990Y-90451066D01*
X156381657Y-90451066D02*
X156572133Y-90641542D01*
D19*
X156664152Y-92760266D02*
X156473676Y-92893600D01*
X156664152Y-92988838D02*
X156264152Y-92988838D01*
X156264152Y-92836457D01*
X156283200Y-92798361D01*
X156302247Y-92779314D01*
X156340342Y-92760266D01*
X156397485Y-92760266D01*
X156435580Y-92779314D01*
X156454628Y-92798361D01*
X156473676Y-92836457D01*
X156473676Y-92988838D01*
X156264152Y-92626933D02*
X156264152Y-92360266D01*
X156664152Y-92531695D01*
D17*
X129491180Y-96260590D02*
X129205466Y-96260590D01*
X129348323Y-96260590D02*
X129348323Y-95760590D01*
X129300704Y-95832019D01*
X129253085Y-95879638D01*
X129205466Y-95903447D01*
X129800704Y-95760590D02*
X129848323Y-95760590D01*
X129895942Y-95784400D01*
X129919752Y-95808209D01*
X129943561Y-95855828D01*
X129967371Y-95951066D01*
X129967371Y-96070114D01*
X129943561Y-96165352D01*
X129919752Y-96212971D01*
X129895942Y-96236780D01*
X129848323Y-96260590D01*
X129800704Y-96260590D01*
X129753085Y-96236780D01*
X129729276Y-96212971D01*
X129705466Y-96165352D01*
X129681657Y-96070114D01*
X129681657Y-95951066D01*
X129705466Y-95855828D01*
X129729276Y-95808209D01*
X129753085Y-95784400D01*
X129800704Y-95760590D01*
X130181657Y-96260590D02*
X130181657Y-95760590D01*
X130229276Y-96070114D02*
X130372133Y-96260590D01*
X130372133Y-95927257D02*
X130181657Y-96117733D01*
D19*
X132032533Y-96227352D02*
X131899200Y-96036876D01*
X131803961Y-96227352D02*
X131803961Y-95827352D01*
X131956342Y-95827352D01*
X131994438Y-95846400D01*
X132013485Y-95865447D01*
X132032533Y-95903542D01*
X132032533Y-95960685D01*
X132013485Y-95998780D01*
X131994438Y-96017828D01*
X131956342Y-96036876D01*
X131803961Y-96036876D01*
X132375390Y-95827352D02*
X132299200Y-95827352D01*
X132261104Y-95846400D01*
X132242057Y-95865447D01*
X132203961Y-95922590D01*
X132184914Y-95998780D01*
X132184914Y-96151161D01*
X132203961Y-96189257D01*
X132223009Y-96208304D01*
X132261104Y-96227352D01*
X132337295Y-96227352D01*
X132375390Y-96208304D01*
X132394438Y-96189257D01*
X132413485Y-96151161D01*
X132413485Y-96055923D01*
X132394438Y-96017828D01*
X132375390Y-95998780D01*
X132337295Y-95979733D01*
X132261104Y-95979733D01*
X132223009Y-95998780D01*
X132203961Y-96017828D01*
X132184914Y-96055923D01*
D17*
X131555790Y-91349714D02*
X131555790Y-91635428D01*
X131555790Y-91492571D02*
X131055790Y-91492571D01*
X131127219Y-91540190D01*
X131174838Y-91587809D01*
X131198647Y-91635428D01*
X131055790Y-91040190D02*
X131055790Y-90992571D01*
X131079600Y-90944952D01*
X131103409Y-90921142D01*
X131151028Y-90897333D01*
X131246266Y-90873523D01*
X131365314Y-90873523D01*
X131460552Y-90897333D01*
X131508171Y-90921142D01*
X131531980Y-90944952D01*
X131555790Y-90992571D01*
X131555790Y-91040190D01*
X131531980Y-91087809D01*
X131508171Y-91111619D01*
X131460552Y-91135428D01*
X131365314Y-91159238D01*
X131246266Y-91159238D01*
X131151028Y-91135428D01*
X131103409Y-91111619D01*
X131079600Y-91087809D01*
X131055790Y-91040190D01*
X131055790Y-90564000D02*
X131055790Y-90516380D01*
X131079600Y-90468761D01*
X131103409Y-90444952D01*
X131151028Y-90421142D01*
X131246266Y-90397333D01*
X131365314Y-90397333D01*
X131460552Y-90421142D01*
X131508171Y-90444952D01*
X131531980Y-90468761D01*
X131555790Y-90516380D01*
X131555790Y-90564000D01*
X131531980Y-90611619D01*
X131508171Y-90635428D01*
X131460552Y-90659238D01*
X131365314Y-90683047D01*
X131246266Y-90683047D01*
X131151028Y-90659238D01*
X131103409Y-90635428D01*
X131079600Y-90611619D01*
X131055790Y-90564000D01*
X131555790Y-90183047D02*
X131055790Y-90183047D01*
X131365314Y-90135428D02*
X131555790Y-89992571D01*
X131222457Y-89992571D02*
X131412933Y-90183047D01*
D19*
X132940552Y-90880666D02*
X132750076Y-91014000D01*
X132940552Y-91109238D02*
X132540552Y-91109238D01*
X132540552Y-90956857D01*
X132559600Y-90918761D01*
X132578647Y-90899714D01*
X132616742Y-90880666D01*
X132673885Y-90880666D01*
X132711980Y-90899714D01*
X132731028Y-90918761D01*
X132750076Y-90956857D01*
X132750076Y-91109238D01*
X132540552Y-90518761D02*
X132540552Y-90709238D01*
X132731028Y-90728285D01*
X132711980Y-90709238D01*
X132692933Y-90671142D01*
X132692933Y-90575904D01*
X132711980Y-90537809D01*
X132731028Y-90518761D01*
X132769123Y-90499714D01*
X132864361Y-90499714D01*
X132902457Y-90518761D01*
X132921504Y-90537809D01*
X132940552Y-90575904D01*
X132940552Y-90671142D01*
X132921504Y-90709238D01*
X132902457Y-90728285D01*
D17*
X125314990Y-93989162D02*
X125314990Y-94274876D01*
X125314990Y-94132019D02*
X124814990Y-94132019D01*
X124886419Y-94179638D01*
X124934038Y-94227257D01*
X124957847Y-94274876D01*
X124814990Y-93679638D02*
X124814990Y-93632019D01*
X124838800Y-93584400D01*
X124862609Y-93560590D01*
X124910228Y-93536781D01*
X125005466Y-93512971D01*
X125124514Y-93512971D01*
X125219752Y-93536781D01*
X125267371Y-93560590D01*
X125291180Y-93584400D01*
X125314990Y-93632019D01*
X125314990Y-93679638D01*
X125291180Y-93727257D01*
X125267371Y-93751067D01*
X125219752Y-93774876D01*
X125124514Y-93798686D01*
X125005466Y-93798686D01*
X124910228Y-93774876D01*
X124862609Y-93751067D01*
X124838800Y-93727257D01*
X124814990Y-93679638D01*
X124814990Y-93203448D02*
X124814990Y-93155828D01*
X124838800Y-93108209D01*
X124862609Y-93084400D01*
X124910228Y-93060590D01*
X125005466Y-93036781D01*
X125124514Y-93036781D01*
X125219752Y-93060590D01*
X125267371Y-93084400D01*
X125291180Y-93108209D01*
X125314990Y-93155828D01*
X125314990Y-93203448D01*
X125291180Y-93251067D01*
X125267371Y-93274876D01*
X125219752Y-93298686D01*
X125124514Y-93322495D01*
X125005466Y-93322495D01*
X124910228Y-93298686D01*
X124862609Y-93274876D01*
X124838800Y-93251067D01*
X124814990Y-93203448D01*
X125314990Y-92822495D02*
X124814990Y-92822495D01*
X125124514Y-92774876D02*
X125314990Y-92632019D01*
X124981657Y-92632019D02*
X125172133Y-92822495D01*
D19*
X125422152Y-90779066D02*
X125231676Y-90912400D01*
X125422152Y-91007638D02*
X125022152Y-91007638D01*
X125022152Y-90855257D01*
X125041200Y-90817161D01*
X125060247Y-90798114D01*
X125098342Y-90779066D01*
X125155485Y-90779066D01*
X125193580Y-90798114D01*
X125212628Y-90817161D01*
X125231676Y-90855257D01*
X125231676Y-91007638D01*
X125155485Y-90436209D02*
X125422152Y-90436209D01*
X125003104Y-90531447D02*
X125288819Y-90626685D01*
X125288819Y-90379066D01*
D17*
X127314990Y-79293923D02*
X127314990Y-79579638D01*
X127314990Y-79436780D02*
X126814990Y-79436780D01*
X126886419Y-79484400D01*
X126934038Y-79532019D01*
X126957847Y-79579638D01*
X127314990Y-79079638D02*
X126814990Y-79079638D01*
X127124514Y-79032019D02*
X127314990Y-78889161D01*
X126981657Y-78889161D02*
X127172133Y-79079638D01*
D19*
X128774952Y-77113866D02*
X128584476Y-77247200D01*
X128774952Y-77342438D02*
X128374952Y-77342438D01*
X128374952Y-77190057D01*
X128394000Y-77151961D01*
X128413047Y-77132914D01*
X128451142Y-77113866D01*
X128508285Y-77113866D01*
X128546380Y-77132914D01*
X128565428Y-77151961D01*
X128584476Y-77190057D01*
X128584476Y-77342438D01*
X128374952Y-76980533D02*
X128374952Y-76732914D01*
X128527333Y-76866247D01*
X128527333Y-76809104D01*
X128546380Y-76771009D01*
X128565428Y-76751961D01*
X128603523Y-76732914D01*
X128698761Y-76732914D01*
X128736857Y-76751961D01*
X128755904Y-76771009D01*
X128774952Y-76809104D01*
X128774952Y-76923390D01*
X128755904Y-76961485D01*
X128736857Y-76980533D01*
D17*
X128481657Y-79815352D02*
X128814990Y-79815352D01*
X128291180Y-79934400D02*
X128648323Y-80053447D01*
X128648323Y-79743923D01*
X128314990Y-79601066D02*
X128314990Y-79267733D01*
X128814990Y-79482019D01*
X128314990Y-78982019D02*
X128314990Y-78934400D01*
X128338800Y-78886780D01*
X128362609Y-78862971D01*
X128410228Y-78839161D01*
X128505466Y-78815352D01*
X128624514Y-78815352D01*
X128719752Y-78839161D01*
X128767371Y-78862971D01*
X128791180Y-78886780D01*
X128814990Y-78934400D01*
X128814990Y-78982019D01*
X128791180Y-79029638D01*
X128767371Y-79053447D01*
X128719752Y-79077257D01*
X128624514Y-79101066D01*
X128505466Y-79101066D01*
X128410228Y-79077257D01*
X128362609Y-79053447D01*
X128338800Y-79029638D01*
X128314990Y-78982019D01*
D19*
X127149352Y-77113866D02*
X126958876Y-77247200D01*
X127149352Y-77342438D02*
X126749352Y-77342438D01*
X126749352Y-77190057D01*
X126768400Y-77151961D01*
X126787447Y-77132914D01*
X126825542Y-77113866D01*
X126882685Y-77113866D01*
X126920780Y-77132914D01*
X126939828Y-77151961D01*
X126958876Y-77190057D01*
X126958876Y-77342438D01*
X126787447Y-76961485D02*
X126768400Y-76942438D01*
X126749352Y-76904342D01*
X126749352Y-76809104D01*
X126768400Y-76771009D01*
X126787447Y-76751961D01*
X126825542Y-76732914D01*
X126863638Y-76732914D01*
X126920780Y-76751961D01*
X127149352Y-76980533D01*
X127149352Y-76732914D01*
D17*
X151562609Y-118015352D02*
X151538800Y-117991542D01*
X151514990Y-117943923D01*
X151514990Y-117824876D01*
X151538800Y-117777257D01*
X151562609Y-117753447D01*
X151610228Y-117729638D01*
X151657847Y-117729638D01*
X151729276Y-117753447D01*
X152014990Y-118039161D01*
X152014990Y-117729638D01*
X151514990Y-117420114D02*
X151514990Y-117372495D01*
X151538800Y-117324876D01*
X151562609Y-117301066D01*
X151610228Y-117277257D01*
X151705466Y-117253447D01*
X151824514Y-117253447D01*
X151919752Y-117277257D01*
X151967371Y-117301066D01*
X151991180Y-117324876D01*
X152014990Y-117372495D01*
X152014990Y-117420114D01*
X151991180Y-117467733D01*
X151967371Y-117491542D01*
X151919752Y-117515352D01*
X151824514Y-117539161D01*
X151705466Y-117539161D01*
X151610228Y-117515352D01*
X151562609Y-117491542D01*
X151538800Y-117467733D01*
X151514990Y-117420114D01*
D19*
X151787352Y-115315466D02*
X151596876Y-115448800D01*
X151787352Y-115544038D02*
X151387352Y-115544038D01*
X151387352Y-115391657D01*
X151406400Y-115353561D01*
X151425447Y-115334514D01*
X151463542Y-115315466D01*
X151520685Y-115315466D01*
X151558780Y-115334514D01*
X151577828Y-115353561D01*
X151596876Y-115391657D01*
X151596876Y-115544038D01*
X151787352Y-114934514D02*
X151787352Y-115163085D01*
X151787352Y-115048800D02*
X151387352Y-115048800D01*
X151444495Y-115086895D01*
X151482590Y-115124990D01*
X151501638Y-115163085D01*
D17*
X120153085Y-107608209D02*
X120153085Y-107774876D01*
X120414990Y-107774876D02*
X119914990Y-107774876D01*
X119914990Y-107536780D01*
X119914990Y-107417733D02*
X119914990Y-107132019D01*
X120414990Y-107274876D02*
X119914990Y-107274876D01*
X120391180Y-106989161D02*
X120414990Y-106917733D01*
X120414990Y-106798685D01*
X120391180Y-106751066D01*
X120367371Y-106727257D01*
X120319752Y-106703447D01*
X120272133Y-106703447D01*
X120224514Y-106727257D01*
X120200704Y-106751066D01*
X120176895Y-106798685D01*
X120153085Y-106893923D01*
X120129276Y-106941542D01*
X120105466Y-106965352D01*
X120057847Y-106989161D01*
X120010228Y-106989161D01*
X119962609Y-106965352D01*
X119938800Y-106941542D01*
X119914990Y-106893923D01*
X119914990Y-106774876D01*
X119938800Y-106703447D01*
X120414990Y-106489161D02*
X119914990Y-106489161D01*
X120153085Y-106489161D02*
X120153085Y-106203447D01*
X120414990Y-106203447D02*
X119914990Y-106203447D01*
X120224514Y-105965352D02*
X120224514Y-105584400D01*
X120414990Y-105084400D02*
X120414990Y-105370114D01*
X120414990Y-105227257D02*
X119914990Y-105227257D01*
X119986419Y-105274876D01*
X120034038Y-105322495D01*
X120057847Y-105370114D01*
X119914990Y-104774876D02*
X119914990Y-104727257D01*
X119938800Y-104679638D01*
X119962609Y-104655828D01*
X120010228Y-104632019D01*
X120105466Y-104608209D01*
X120224514Y-104608209D01*
X120319752Y-104632019D01*
X120367371Y-104655828D01*
X120391180Y-104679638D01*
X120414990Y-104727257D01*
X120414990Y-104774876D01*
X120391180Y-104822495D01*
X120367371Y-104846304D01*
X120319752Y-104870114D01*
X120224514Y-104893923D01*
X120105466Y-104893923D01*
X120010228Y-104870114D01*
X119962609Y-104846304D01*
X119938800Y-104822495D01*
X119914990Y-104774876D01*
X119914990Y-104155828D02*
X119914990Y-104393923D01*
X120153085Y-104417733D01*
X120129276Y-104393923D01*
X120105466Y-104346304D01*
X120105466Y-104227257D01*
X120129276Y-104179638D01*
X120153085Y-104155828D01*
X120200704Y-104132019D01*
X120319752Y-104132019D01*
X120367371Y-104155828D01*
X120391180Y-104179638D01*
X120414990Y-104227257D01*
X120414990Y-104346304D01*
X120391180Y-104393923D01*
X120367371Y-104417733D01*
X120224514Y-103917733D02*
X120224514Y-103536780D01*
X119914990Y-103203447D02*
X119914990Y-103155828D01*
X119938800Y-103108209D01*
X119962609Y-103084400D01*
X120010228Y-103060590D01*
X120105466Y-103036780D01*
X120224514Y-103036780D01*
X120319752Y-103060590D01*
X120367371Y-103084400D01*
X120391180Y-103108209D01*
X120414990Y-103155828D01*
X120414990Y-103203447D01*
X120391180Y-103251066D01*
X120367371Y-103274876D01*
X120319752Y-103298685D01*
X120224514Y-103322495D01*
X120105466Y-103322495D01*
X120010228Y-103298685D01*
X119962609Y-103274876D01*
X119938800Y-103251066D01*
X119914990Y-103203447D01*
X120414990Y-102560590D02*
X120414990Y-102846304D01*
X120414990Y-102703447D02*
X119914990Y-102703447D01*
X119986419Y-102751066D01*
X120034038Y-102798685D01*
X120057847Y-102846304D01*
X120224514Y-102346304D02*
X120224514Y-101965352D01*
X120414990Y-101489161D02*
X120414990Y-101727257D01*
X119914990Y-101727257D01*
X120224514Y-101322495D02*
X120224514Y-100941542D01*
X120414990Y-100703447D02*
X119914990Y-100703447D01*
X119914990Y-100584400D01*
X119938800Y-100512971D01*
X119986419Y-100465352D01*
X120034038Y-100441542D01*
X120129276Y-100417733D01*
X120200704Y-100417733D01*
X120295942Y-100441542D01*
X120343561Y-100465352D01*
X120391180Y-100512971D01*
X120414990Y-100584400D01*
X120414990Y-100703447D01*
X119914990Y-100274876D02*
X120414990Y-100108209D01*
X119914990Y-99941542D01*
X120224514Y-99774876D02*
X120224514Y-99393923D01*
X120414990Y-99155828D02*
X119914990Y-99155828D01*
X120414990Y-98870114D02*
X120129276Y-99084400D01*
X119914990Y-98870114D02*
X120200704Y-99155828D01*
X125314990Y-84739161D02*
X124814990Y-84739161D01*
X124814990Y-84620114D01*
X124838800Y-84548685D01*
X124886419Y-84501066D01*
X124934038Y-84477257D01*
X125029276Y-84453447D01*
X125100704Y-84453447D01*
X125195942Y-84477257D01*
X125243561Y-84501066D01*
X125291180Y-84548685D01*
X125314990Y-84620114D01*
X125314990Y-84739161D01*
X125362609Y-84358209D02*
X125362609Y-83977257D01*
X125291180Y-83882019D02*
X125314990Y-83810590D01*
X125314990Y-83691542D01*
X125291180Y-83643923D01*
X125267371Y-83620114D01*
X125219752Y-83596304D01*
X125172133Y-83596304D01*
X125124514Y-83620114D01*
X125100704Y-83643923D01*
X125076895Y-83691542D01*
X125053085Y-83786780D01*
X125029276Y-83834400D01*
X125005466Y-83858209D01*
X124957847Y-83882019D01*
X124910228Y-83882019D01*
X124862609Y-83858209D01*
X124838800Y-83834400D01*
X124814990Y-83786780D01*
X124814990Y-83667733D01*
X124838800Y-83596304D01*
X125291180Y-83167733D02*
X125314990Y-83215352D01*
X125314990Y-83310590D01*
X125291180Y-83358209D01*
X125267371Y-83382019D01*
X125219752Y-83405828D01*
X125076895Y-83405828D01*
X125029276Y-83382019D01*
X125005466Y-83358209D01*
X124981657Y-83310590D01*
X124981657Y-83215352D01*
X125005466Y-83167733D01*
X125314990Y-82953447D02*
X124814990Y-82953447D01*
X125314990Y-82739161D02*
X125053085Y-82739161D01*
X125005466Y-82762971D01*
X124981657Y-82810590D01*
X124981657Y-82882019D01*
X125005466Y-82929638D01*
X125029276Y-82953447D01*
X125314990Y-82429638D02*
X125291180Y-82477257D01*
X125267371Y-82501066D01*
X125219752Y-82524876D01*
X125076895Y-82524876D01*
X125029276Y-82501066D01*
X125005466Y-82477257D01*
X124981657Y-82429638D01*
X124981657Y-82358209D01*
X125005466Y-82310590D01*
X125029276Y-82286780D01*
X125076895Y-82262971D01*
X125219752Y-82262971D01*
X125267371Y-82286780D01*
X125291180Y-82310590D01*
X125314990Y-82358209D01*
X125314990Y-82429638D01*
X124981657Y-82120114D02*
X124981657Y-81929638D01*
X124814990Y-82048685D02*
X125243561Y-82048685D01*
X125291180Y-82024876D01*
X125314990Y-81977257D01*
X125314990Y-81929638D01*
X124981657Y-81834400D02*
X124981657Y-81643923D01*
X124814990Y-81762971D02*
X125243561Y-81762971D01*
X125291180Y-81739161D01*
X125314990Y-81691542D01*
X125314990Y-81643923D01*
X125314990Y-81477257D02*
X124814990Y-81477257D01*
X125124514Y-81429638D02*
X125314990Y-81286780D01*
X124981657Y-81286780D02*
X125172133Y-81477257D01*
X124981657Y-81120114D02*
X125314990Y-81001066D01*
X124981657Y-80882019D02*
X125314990Y-81001066D01*
X125434038Y-81048685D01*
X125457847Y-81072495D01*
X125481657Y-81120114D01*
D20*
X125399904Y-78602876D02*
X124599904Y-78602876D01*
X124599904Y-78412400D01*
X124638000Y-78298114D01*
X124714190Y-78221923D01*
X124790380Y-78183828D01*
X124942761Y-78145733D01*
X125057047Y-78145733D01*
X125209428Y-78183828D01*
X125285619Y-78221923D01*
X125361809Y-78298114D01*
X125399904Y-78412400D01*
X125399904Y-78602876D01*
X125399904Y-77383828D02*
X125399904Y-77840971D01*
X125399904Y-77612400D02*
X124599904Y-77612400D01*
X124714190Y-77688590D01*
X124790380Y-77764780D01*
X124828476Y-77840971D01*
D17*
X147252990Y-80342019D02*
X147252990Y-80627733D01*
X147252990Y-80484876D02*
X146752990Y-80484876D01*
X146824419Y-80532495D01*
X146872038Y-80580114D01*
X146895847Y-80627733D01*
X146919657Y-79913447D02*
X147252990Y-79913447D01*
X146919657Y-80127733D02*
X147181561Y-80127733D01*
X147229180Y-80103923D01*
X147252990Y-80056304D01*
X147252990Y-79984876D01*
X147229180Y-79937257D01*
X147205371Y-79913447D01*
X146991085Y-79508685D02*
X146991085Y-79675352D01*
X147252990Y-79675352D02*
X146752990Y-79675352D01*
X146752990Y-79437257D01*
D19*
X148599657Y-80301542D02*
X148618704Y-80320590D01*
X148637752Y-80377733D01*
X148637752Y-80415828D01*
X148618704Y-80472971D01*
X148580609Y-80511066D01*
X148542514Y-80530114D01*
X148466323Y-80549161D01*
X148409180Y-80549161D01*
X148332990Y-80530114D01*
X148294895Y-80511066D01*
X148256800Y-80472971D01*
X148237752Y-80415828D01*
X148237752Y-80377733D01*
X148256800Y-80320590D01*
X148275847Y-80301542D01*
X148637752Y-79920590D02*
X148637752Y-80149161D01*
X148637752Y-80034876D02*
X148237752Y-80034876D01*
X148294895Y-80072971D01*
X148332990Y-80111066D01*
X148352038Y-80149161D01*
X148637752Y-79539638D02*
X148637752Y-79768209D01*
X148637752Y-79653923D02*
X148237752Y-79653923D01*
X148294895Y-79692019D01*
X148332990Y-79730114D01*
X148352038Y-79768209D01*
D17*
X151914990Y-90555828D02*
X151914990Y-90508209D01*
X151938800Y-90460590D01*
X151962609Y-90436780D01*
X152010228Y-90412971D01*
X152105466Y-90389161D01*
X152224514Y-90389161D01*
X152319752Y-90412971D01*
X152367371Y-90436780D01*
X152391180Y-90460590D01*
X152414990Y-90508209D01*
X152414990Y-90555828D01*
X152391180Y-90603447D01*
X152367371Y-90627257D01*
X152319752Y-90651066D01*
X152224514Y-90674876D01*
X152105466Y-90674876D01*
X152010228Y-90651066D01*
X151962609Y-90627257D01*
X151938800Y-90603447D01*
X151914990Y-90555828D01*
X152367371Y-90174876D02*
X152391180Y-90151066D01*
X152414990Y-90174876D01*
X152391180Y-90198685D01*
X152367371Y-90174876D01*
X152414990Y-90174876D01*
X152414990Y-89674876D02*
X152414990Y-89960590D01*
X152414990Y-89817733D02*
X151914990Y-89817733D01*
X151986419Y-89865352D01*
X152034038Y-89912971D01*
X152057847Y-89960590D01*
X152081657Y-89246304D02*
X152414990Y-89246304D01*
X152081657Y-89460590D02*
X152343561Y-89460590D01*
X152391180Y-89436780D01*
X152414990Y-89389161D01*
X152414990Y-89317733D01*
X152391180Y-89270114D01*
X152367371Y-89246304D01*
X152153085Y-88841542D02*
X152153085Y-89008209D01*
X152414990Y-89008209D02*
X151914990Y-89008209D01*
X151914990Y-88770114D01*
D19*
X152358857Y-88023142D02*
X152377904Y-88042190D01*
X152396952Y-88099333D01*
X152396952Y-88137428D01*
X152377904Y-88194571D01*
X152339809Y-88232666D01*
X152301714Y-88251714D01*
X152225523Y-88270761D01*
X152168380Y-88270761D01*
X152092190Y-88251714D01*
X152054095Y-88232666D01*
X152016000Y-88194571D01*
X151996952Y-88137428D01*
X151996952Y-88099333D01*
X152016000Y-88042190D01*
X152035047Y-88023142D01*
X152396952Y-87642190D02*
X152396952Y-87870761D01*
X152396952Y-87756476D02*
X151996952Y-87756476D01*
X152054095Y-87794571D01*
X152092190Y-87832666D01*
X152111238Y-87870761D01*
X151996952Y-87394571D02*
X151996952Y-87356476D01*
X152016000Y-87318380D01*
X152035047Y-87299333D01*
X152073142Y-87280285D01*
X152149333Y-87261238D01*
X152244571Y-87261238D01*
X152320761Y-87280285D01*
X152358857Y-87299333D01*
X152377904Y-87318380D01*
X152396952Y-87356476D01*
X152396952Y-87394571D01*
X152377904Y-87432666D01*
X152358857Y-87451714D01*
X152320761Y-87470761D01*
X152244571Y-87489809D01*
X152149333Y-87489809D01*
X152073142Y-87470761D01*
X152035047Y-87451714D01*
X152016000Y-87432666D01*
X151996952Y-87394571D01*
D17*
X141167371Y-83112971D02*
X141191180Y-83089161D01*
X141214990Y-83112971D01*
X141191180Y-83136780D01*
X141167371Y-83112971D01*
X141214990Y-83112971D01*
X141214990Y-82612971D02*
X141214990Y-82898685D01*
X141214990Y-82755828D02*
X140714990Y-82755828D01*
X140786419Y-82803447D01*
X140834038Y-82851066D01*
X140857847Y-82898685D01*
X140881657Y-82184400D02*
X141214990Y-82184400D01*
X140881657Y-82398685D02*
X141143561Y-82398685D01*
X141191180Y-82374876D01*
X141214990Y-82327257D01*
X141214990Y-82255828D01*
X141191180Y-82208209D01*
X141167371Y-82184400D01*
X140953085Y-81779638D02*
X140953085Y-81946304D01*
X141214990Y-81946304D02*
X140714990Y-81946304D01*
X140714990Y-81708209D01*
D19*
X142808457Y-84124266D02*
X142827504Y-84143314D01*
X142846552Y-84200457D01*
X142846552Y-84238552D01*
X142827504Y-84295695D01*
X142789409Y-84333790D01*
X142751314Y-84352838D01*
X142675123Y-84371885D01*
X142617980Y-84371885D01*
X142541790Y-84352838D01*
X142503695Y-84333790D01*
X142465600Y-84295695D01*
X142446552Y-84238552D01*
X142446552Y-84200457D01*
X142465600Y-84143314D01*
X142484647Y-84124266D01*
X142846552Y-83933790D02*
X142846552Y-83857600D01*
X142827504Y-83819504D01*
X142808457Y-83800457D01*
X142751314Y-83762361D01*
X142675123Y-83743314D01*
X142522742Y-83743314D01*
X142484647Y-83762361D01*
X142465600Y-83781409D01*
X142446552Y-83819504D01*
X142446552Y-83895695D01*
X142465600Y-83933790D01*
X142484647Y-83952838D01*
X142522742Y-83971885D01*
X142617980Y-83971885D01*
X142656076Y-83952838D01*
X142675123Y-83933790D01*
X142694171Y-83895695D01*
X142694171Y-83819504D01*
X142675123Y-83781409D01*
X142656076Y-83762361D01*
X142617980Y-83743314D01*
D17*
X137491180Y-76560590D02*
X137205466Y-76560590D01*
X137348323Y-76560590D02*
X137348323Y-76060590D01*
X137300704Y-76132019D01*
X137253085Y-76179638D01*
X137205466Y-76203447D01*
X137919752Y-76227257D02*
X137919752Y-76560590D01*
X137705466Y-76227257D02*
X137705466Y-76489161D01*
X137729276Y-76536780D01*
X137776895Y-76560590D01*
X137848323Y-76560590D01*
X137895942Y-76536780D01*
X137919752Y-76512971D01*
X138324514Y-76298685D02*
X138157847Y-76298685D01*
X138157847Y-76560590D02*
X138157847Y-76060590D01*
X138395942Y-76060590D01*
D19*
X140211333Y-76631257D02*
X140192285Y-76650304D01*
X140135142Y-76669352D01*
X140097047Y-76669352D01*
X140039904Y-76650304D01*
X140001809Y-76612209D01*
X139982761Y-76574114D01*
X139963714Y-76497923D01*
X139963714Y-76440780D01*
X139982761Y-76364590D01*
X140001809Y-76326495D01*
X140039904Y-76288400D01*
X140097047Y-76269352D01*
X140135142Y-76269352D01*
X140192285Y-76288400D01*
X140211333Y-76307447D01*
X140439904Y-76440780D02*
X140401809Y-76421733D01*
X140382761Y-76402685D01*
X140363714Y-76364590D01*
X140363714Y-76345542D01*
X140382761Y-76307447D01*
X140401809Y-76288400D01*
X140439904Y-76269352D01*
X140516095Y-76269352D01*
X140554190Y-76288400D01*
X140573238Y-76307447D01*
X140592285Y-76345542D01*
X140592285Y-76364590D01*
X140573238Y-76402685D01*
X140554190Y-76421733D01*
X140516095Y-76440780D01*
X140439904Y-76440780D01*
X140401809Y-76459828D01*
X140382761Y-76478876D01*
X140363714Y-76516971D01*
X140363714Y-76593161D01*
X140382761Y-76631257D01*
X140401809Y-76650304D01*
X140439904Y-76669352D01*
X140516095Y-76669352D01*
X140554190Y-76650304D01*
X140573238Y-76631257D01*
X140592285Y-76593161D01*
X140592285Y-76516971D01*
X140573238Y-76478876D01*
X140554190Y-76459828D01*
X140516095Y-76440780D01*
D17*
X134591180Y-85360590D02*
X134305466Y-85360590D01*
X134448323Y-85360590D02*
X134448323Y-84860590D01*
X134400704Y-84932019D01*
X134353085Y-84979638D01*
X134305466Y-85003447D01*
X135019752Y-85027257D02*
X135019752Y-85360590D01*
X134805466Y-85027257D02*
X134805466Y-85289161D01*
X134829276Y-85336780D01*
X134876895Y-85360590D01*
X134948323Y-85360590D01*
X134995942Y-85336780D01*
X135019752Y-85312971D01*
X135424514Y-85098685D02*
X135257847Y-85098685D01*
X135257847Y-85360590D02*
X135257847Y-84860590D01*
X135495942Y-84860590D01*
D19*
X133161333Y-85216457D02*
X133142285Y-85235504D01*
X133085142Y-85254552D01*
X133047047Y-85254552D01*
X132989904Y-85235504D01*
X132951809Y-85197409D01*
X132932761Y-85159314D01*
X132913714Y-85083123D01*
X132913714Y-85025980D01*
X132932761Y-84949790D01*
X132951809Y-84911695D01*
X132989904Y-84873600D01*
X133047047Y-84854552D01*
X133085142Y-84854552D01*
X133142285Y-84873600D01*
X133161333Y-84892647D01*
X133294666Y-84854552D02*
X133561333Y-84854552D01*
X133389904Y-85254552D01*
D17*
X135567371Y-118512971D02*
X135591180Y-118489161D01*
X135614990Y-118512971D01*
X135591180Y-118536780D01*
X135567371Y-118512971D01*
X135614990Y-118512971D01*
X135614990Y-118012971D02*
X135614990Y-118298685D01*
X135614990Y-118155828D02*
X135114990Y-118155828D01*
X135186419Y-118203447D01*
X135234038Y-118251066D01*
X135257847Y-118298685D01*
X135281657Y-117584400D02*
X135614990Y-117584400D01*
X135281657Y-117798685D02*
X135543561Y-117798685D01*
X135591180Y-117774876D01*
X135614990Y-117727257D01*
X135614990Y-117655828D01*
X135591180Y-117608209D01*
X135567371Y-117584400D01*
X135353085Y-117179638D02*
X135353085Y-117346304D01*
X135614990Y-117346304D02*
X135114990Y-117346304D01*
X135114990Y-117108209D01*
D19*
X135609257Y-115311866D02*
X135628304Y-115330914D01*
X135647352Y-115388057D01*
X135647352Y-115426152D01*
X135628304Y-115483295D01*
X135590209Y-115521390D01*
X135552114Y-115540438D01*
X135475923Y-115559485D01*
X135418780Y-115559485D01*
X135342590Y-115540438D01*
X135304495Y-115521390D01*
X135266400Y-115483295D01*
X135247352Y-115426152D01*
X135247352Y-115388057D01*
X135266400Y-115330914D01*
X135285447Y-115311866D01*
X135247352Y-114969009D02*
X135247352Y-115045200D01*
X135266400Y-115083295D01*
X135285447Y-115102342D01*
X135342590Y-115140438D01*
X135418780Y-115159485D01*
X135571161Y-115159485D01*
X135609257Y-115140438D01*
X135628304Y-115121390D01*
X135647352Y-115083295D01*
X135647352Y-115007104D01*
X135628304Y-114969009D01*
X135609257Y-114949961D01*
X135571161Y-114930914D01*
X135475923Y-114930914D01*
X135437828Y-114949961D01*
X135418780Y-114969009D01*
X135399733Y-115007104D01*
X135399733Y-115083295D01*
X135418780Y-115121390D01*
X135437828Y-115140438D01*
X135475923Y-115159485D01*
D17*
X121681657Y-104636780D02*
X122014990Y-104636780D01*
X121491180Y-104755828D02*
X121848323Y-104874876D01*
X121848323Y-104565352D01*
X121967371Y-104374876D02*
X121991180Y-104351066D01*
X122014990Y-104374876D01*
X121991180Y-104398685D01*
X121967371Y-104374876D01*
X122014990Y-104374876D01*
X121514990Y-104184400D02*
X121514990Y-103851066D01*
X122014990Y-104065352D01*
X121681657Y-103446304D02*
X122014990Y-103446304D01*
X121681657Y-103660590D02*
X121943561Y-103660590D01*
X121991180Y-103636780D01*
X122014990Y-103589161D01*
X122014990Y-103517733D01*
X121991180Y-103470114D01*
X121967371Y-103446304D01*
X121753085Y-103041542D02*
X121753085Y-103208209D01*
X122014990Y-103208209D02*
X121514990Y-103208209D01*
X121514990Y-102970114D01*
D19*
X121878857Y-106984266D02*
X121897904Y-107003314D01*
X121916952Y-107060457D01*
X121916952Y-107098552D01*
X121897904Y-107155695D01*
X121859809Y-107193790D01*
X121821714Y-107212838D01*
X121745523Y-107231885D01*
X121688380Y-107231885D01*
X121612190Y-107212838D01*
X121574095Y-107193790D01*
X121536000Y-107155695D01*
X121516952Y-107098552D01*
X121516952Y-107060457D01*
X121536000Y-107003314D01*
X121555047Y-106984266D01*
X121516952Y-106622361D02*
X121516952Y-106812838D01*
X121707428Y-106831885D01*
X121688380Y-106812838D01*
X121669333Y-106774742D01*
X121669333Y-106679504D01*
X121688380Y-106641409D01*
X121707428Y-106622361D01*
X121745523Y-106603314D01*
X121840761Y-106603314D01*
X121878857Y-106622361D01*
X121897904Y-106641409D01*
X121916952Y-106679504D01*
X121916952Y-106774742D01*
X121897904Y-106812838D01*
X121878857Y-106831885D01*
D17*
X129491180Y-83760590D02*
X129205466Y-83760590D01*
X129348323Y-83760590D02*
X129348323Y-83260590D01*
X129300704Y-83332019D01*
X129253085Y-83379638D01*
X129205466Y-83403447D01*
X129919752Y-83427257D02*
X129919752Y-83760590D01*
X129705466Y-83427257D02*
X129705466Y-83689161D01*
X129729276Y-83736780D01*
X129776895Y-83760590D01*
X129848323Y-83760590D01*
X129895942Y-83736780D01*
X129919752Y-83712971D01*
X130324514Y-83498685D02*
X130157847Y-83498685D01*
X130157847Y-83760590D02*
X130157847Y-83260590D01*
X130395942Y-83260590D01*
D19*
X131361333Y-83641657D02*
X131342285Y-83660704D01*
X131285142Y-83679752D01*
X131247047Y-83679752D01*
X131189904Y-83660704D01*
X131151809Y-83622609D01*
X131132761Y-83584514D01*
X131113714Y-83508323D01*
X131113714Y-83451180D01*
X131132761Y-83374990D01*
X131151809Y-83336895D01*
X131189904Y-83298800D01*
X131247047Y-83279752D01*
X131285142Y-83279752D01*
X131342285Y-83298800D01*
X131361333Y-83317847D01*
X131704190Y-83413085D02*
X131704190Y-83679752D01*
X131608952Y-83260704D02*
X131513714Y-83546419D01*
X131761333Y-83546419D01*
D17*
X123467371Y-105112971D02*
X123491180Y-105089161D01*
X123514990Y-105112971D01*
X123491180Y-105136780D01*
X123467371Y-105112971D01*
X123514990Y-105112971D01*
X123514990Y-104612971D02*
X123514990Y-104898685D01*
X123514990Y-104755828D02*
X123014990Y-104755828D01*
X123086419Y-104803447D01*
X123134038Y-104851066D01*
X123157847Y-104898685D01*
X123181657Y-104184400D02*
X123514990Y-104184400D01*
X123181657Y-104398685D02*
X123443561Y-104398685D01*
X123491180Y-104374876D01*
X123514990Y-104327257D01*
X123514990Y-104255828D01*
X123491180Y-104208209D01*
X123467371Y-104184400D01*
X123253085Y-103779638D02*
X123253085Y-103946304D01*
X123514990Y-103946304D02*
X123014990Y-103946304D01*
X123014990Y-103708209D01*
D19*
X123428257Y-106984266D02*
X123447304Y-107003314D01*
X123466352Y-107060457D01*
X123466352Y-107098552D01*
X123447304Y-107155695D01*
X123409209Y-107193790D01*
X123371114Y-107212838D01*
X123294923Y-107231885D01*
X123237780Y-107231885D01*
X123161590Y-107212838D01*
X123123495Y-107193790D01*
X123085400Y-107155695D01*
X123066352Y-107098552D01*
X123066352Y-107060457D01*
X123085400Y-107003314D01*
X123104447Y-106984266D01*
X123066352Y-106850933D02*
X123066352Y-106603314D01*
X123218733Y-106736647D01*
X123218733Y-106679504D01*
X123237780Y-106641409D01*
X123256828Y-106622361D01*
X123294923Y-106603314D01*
X123390161Y-106603314D01*
X123428257Y-106622361D01*
X123447304Y-106641409D01*
X123466352Y-106679504D01*
X123466352Y-106793790D01*
X123447304Y-106831885D01*
X123428257Y-106850933D01*
D17*
X125167371Y-105012971D02*
X125191180Y-104989161D01*
X125214990Y-105012971D01*
X125191180Y-105036780D01*
X125167371Y-105012971D01*
X125214990Y-105012971D01*
X125214990Y-104512971D02*
X125214990Y-104798685D01*
X125214990Y-104655828D02*
X124714990Y-104655828D01*
X124786419Y-104703447D01*
X124834038Y-104751066D01*
X124857847Y-104798685D01*
X124881657Y-104084400D02*
X125214990Y-104084400D01*
X124881657Y-104298685D02*
X125143561Y-104298685D01*
X125191180Y-104274876D01*
X125214990Y-104227257D01*
X125214990Y-104155828D01*
X125191180Y-104108209D01*
X125167371Y-104084400D01*
X124953085Y-103679638D02*
X124953085Y-103846304D01*
X125214990Y-103846304D02*
X124714990Y-103846304D01*
X124714990Y-103608209D01*
D19*
X124977657Y-106984266D02*
X124996704Y-107003314D01*
X125015752Y-107060457D01*
X125015752Y-107098552D01*
X124996704Y-107155695D01*
X124958609Y-107193790D01*
X124920514Y-107212838D01*
X124844323Y-107231885D01*
X124787180Y-107231885D01*
X124710990Y-107212838D01*
X124672895Y-107193790D01*
X124634800Y-107155695D01*
X124615752Y-107098552D01*
X124615752Y-107060457D01*
X124634800Y-107003314D01*
X124653847Y-106984266D01*
X124653847Y-106831885D02*
X124634800Y-106812838D01*
X124615752Y-106774742D01*
X124615752Y-106679504D01*
X124634800Y-106641409D01*
X124653847Y-106622361D01*
X124691942Y-106603314D01*
X124730038Y-106603314D01*
X124787180Y-106622361D01*
X125015752Y-106850933D01*
X125015752Y-106603314D01*
D17*
X123614990Y-79632019D02*
X123614990Y-79917733D01*
X123614990Y-79774876D02*
X123114990Y-79774876D01*
X123186419Y-79822495D01*
X123234038Y-79870114D01*
X123257847Y-79917733D01*
X123281657Y-79203447D02*
X123614990Y-79203447D01*
X123281657Y-79417733D02*
X123543561Y-79417733D01*
X123591180Y-79393923D01*
X123614990Y-79346304D01*
X123614990Y-79274876D01*
X123591180Y-79227257D01*
X123567371Y-79203447D01*
X123353085Y-78798685D02*
X123353085Y-78965352D01*
X123614990Y-78965352D02*
X123114990Y-78965352D01*
X123114990Y-78727257D01*
D19*
X123250457Y-77063066D02*
X123269504Y-77082114D01*
X123288552Y-77139257D01*
X123288552Y-77177352D01*
X123269504Y-77234495D01*
X123231409Y-77272590D01*
X123193314Y-77291638D01*
X123117123Y-77310685D01*
X123059980Y-77310685D01*
X122983790Y-77291638D01*
X122945695Y-77272590D01*
X122907600Y-77234495D01*
X122888552Y-77177352D01*
X122888552Y-77139257D01*
X122907600Y-77082114D01*
X122926647Y-77063066D01*
X123288552Y-76682114D02*
X123288552Y-76910685D01*
X123288552Y-76796400D02*
X122888552Y-76796400D01*
X122945695Y-76834495D01*
X122983790Y-76872590D01*
X123002838Y-76910685D01*
D17*
X173562609Y-117427257D02*
X173538800Y-117403447D01*
X173514990Y-117355828D01*
X173514990Y-117236780D01*
X173538800Y-117189161D01*
X173562609Y-117165352D01*
X173610228Y-117141542D01*
X173657847Y-117141542D01*
X173729276Y-117165352D01*
X174014990Y-117451066D01*
X174014990Y-117141542D01*
X173967371Y-116927257D02*
X173991180Y-116903447D01*
X174014990Y-116927257D01*
X173991180Y-116951066D01*
X173967371Y-116927257D01*
X174014990Y-116927257D01*
X173514990Y-116451066D02*
X173514990Y-116689161D01*
X173753085Y-116712971D01*
X173729276Y-116689161D01*
X173705466Y-116641542D01*
X173705466Y-116522495D01*
X173729276Y-116474876D01*
X173753085Y-116451066D01*
X173800704Y-116427257D01*
X173919752Y-116427257D01*
X173967371Y-116451066D01*
X173991180Y-116474876D01*
X174014990Y-116522495D01*
X174014990Y-116641542D01*
X173991180Y-116689161D01*
X173967371Y-116712971D01*
X173681657Y-115998685D02*
X174014990Y-115998685D01*
X173491180Y-116117733D02*
X173848323Y-116236780D01*
X173848323Y-115927257D01*
X174014990Y-115736780D02*
X173681657Y-115736780D01*
X173729276Y-115736780D02*
X173705466Y-115712971D01*
X173681657Y-115665352D01*
X173681657Y-115593923D01*
X173705466Y-115546304D01*
X173753085Y-115522495D01*
X174014990Y-115522495D01*
X173753085Y-115522495D02*
X173705466Y-115498685D01*
X173681657Y-115451066D01*
X173681657Y-115379638D01*
X173705466Y-115332019D01*
X173753085Y-115308209D01*
X174014990Y-115308209D01*
X174014990Y-115070114D02*
X173681657Y-115070114D01*
X173729276Y-115070114D02*
X173705466Y-115046304D01*
X173681657Y-114998685D01*
X173681657Y-114927257D01*
X173705466Y-114879638D01*
X173753085Y-114855828D01*
X174014990Y-114855828D01*
X173753085Y-114855828D02*
X173705466Y-114832019D01*
X173681657Y-114784400D01*
X173681657Y-114712971D01*
X173705466Y-114665352D01*
X173753085Y-114641542D01*
X174014990Y-114641542D01*
X174014990Y-114022495D02*
X173514990Y-114022495D01*
X173753085Y-114022495D02*
X173753085Y-113736780D01*
X174014990Y-113736780D02*
X173514990Y-113736780D01*
X173991180Y-113308209D02*
X174014990Y-113355828D01*
X174014990Y-113451066D01*
X173991180Y-113498685D01*
X173943561Y-113522495D01*
X173753085Y-113522495D01*
X173705466Y-113498685D01*
X173681657Y-113451066D01*
X173681657Y-113355828D01*
X173705466Y-113308209D01*
X173753085Y-113284400D01*
X173800704Y-113284400D01*
X173848323Y-113522495D01*
X174014990Y-112855828D02*
X173753085Y-112855828D01*
X173705466Y-112879638D01*
X173681657Y-112927257D01*
X173681657Y-113022495D01*
X173705466Y-113070114D01*
X173991180Y-112855828D02*
X174014990Y-112903447D01*
X174014990Y-113022495D01*
X173991180Y-113070114D01*
X173943561Y-113093923D01*
X173895942Y-113093923D01*
X173848323Y-113070114D01*
X173824514Y-113022495D01*
X173824514Y-112903447D01*
X173800704Y-112855828D01*
X174014990Y-112403447D02*
X173514990Y-112403447D01*
X173991180Y-112403447D02*
X174014990Y-112451066D01*
X174014990Y-112546304D01*
X173991180Y-112593923D01*
X173967371Y-112617733D01*
X173919752Y-112641542D01*
X173776895Y-112641542D01*
X173729276Y-112617733D01*
X173705466Y-112593923D01*
X173681657Y-112546304D01*
X173681657Y-112451066D01*
X173705466Y-112403447D01*
X173991180Y-111974876D02*
X174014990Y-112022495D01*
X174014990Y-112117733D01*
X173991180Y-112165352D01*
X173943561Y-112189161D01*
X173753085Y-112189161D01*
X173705466Y-112165352D01*
X173681657Y-112117733D01*
X173681657Y-112022495D01*
X173705466Y-111974876D01*
X173753085Y-111951066D01*
X173800704Y-111951066D01*
X173848323Y-112189161D01*
X174014990Y-111736780D02*
X173681657Y-111736780D01*
X173776895Y-111736780D02*
X173729276Y-111712971D01*
X173705466Y-111689161D01*
X173681657Y-111641542D01*
X173681657Y-111593923D01*
D18*
X168900666Y-110968780D02*
X168900666Y-111683066D01*
X168853047Y-111825923D01*
X168757809Y-111921161D01*
X168614952Y-111968780D01*
X168519714Y-111968780D01*
X169900666Y-111968780D02*
X169329238Y-111968780D01*
X169614952Y-111968780D02*
X169614952Y-110968780D01*
X169519714Y-111111638D01*
X169424476Y-111206876D01*
X169329238Y-111254495D01*
D17*
X113783596Y-81552378D02*
X114069806Y-81838588D01*
X114120313Y-81855424D01*
X114153985Y-81855424D01*
X114204493Y-81838588D01*
X114271836Y-81771245D01*
X114288672Y-81720737D01*
X114288672Y-81687065D01*
X114271836Y-81636558D01*
X113985626Y-81350348D01*
X114473867Y-81535542D02*
X114541210Y-81501871D01*
X114625389Y-81417691D01*
X114642225Y-81367184D01*
X114642225Y-81333512D01*
X114625389Y-81283004D01*
X114591718Y-81249332D01*
X114541210Y-81232497D01*
X114507538Y-81232497D01*
X114457031Y-81249332D01*
X114372851Y-81299840D01*
X114322344Y-81316676D01*
X114288672Y-81316676D01*
X114238164Y-81299840D01*
X114204493Y-81266168D01*
X114187657Y-81215661D01*
X114187657Y-81181989D01*
X114204493Y-81131481D01*
X114288672Y-81047302D01*
X114356015Y-81013630D01*
X114776912Y-80895779D02*
X114844256Y-80862107D01*
X114877928Y-80862107D01*
X114928435Y-80878943D01*
X114978943Y-80929451D01*
X114995779Y-80979958D01*
X114995779Y-81013630D01*
X114978943Y-81064138D01*
X114844256Y-81198825D01*
X114490702Y-80845271D01*
X114608554Y-80727420D01*
X114659061Y-80710584D01*
X114692733Y-80710584D01*
X114743241Y-80727420D01*
X114776912Y-80761092D01*
X114793748Y-80811600D01*
X114793748Y-80845271D01*
X114776912Y-80895779D01*
X114659061Y-81013630D01*
X115113630Y-80458046D02*
X115349332Y-80693749D01*
X114894763Y-80407539D02*
X115063122Y-80744256D01*
X115281989Y-80525390D01*
X115248317Y-80087657D02*
X115281989Y-80053985D01*
X115332496Y-80037149D01*
X115366168Y-80037149D01*
X115416676Y-80053985D01*
X115500855Y-80104493D01*
X115585034Y-80188672D01*
X115635542Y-80272852D01*
X115652378Y-80323359D01*
X115652378Y-80357031D01*
X115635542Y-80407539D01*
X115601870Y-80441210D01*
X115551363Y-80458046D01*
X115517691Y-80458046D01*
X115467183Y-80441210D01*
X115383004Y-80390703D01*
X115298824Y-80306523D01*
X115248317Y-80222344D01*
X115231481Y-80171836D01*
X115231481Y-80138165D01*
X115248317Y-80087657D01*
X115719721Y-79919298D02*
X115669214Y-79936134D01*
X115635542Y-79936134D01*
X115585034Y-79919298D01*
X115568199Y-79902462D01*
X115551363Y-79851955D01*
X115551363Y-79818283D01*
X115568199Y-79767775D01*
X115635542Y-79700432D01*
X115686050Y-79683596D01*
X115719721Y-79683596D01*
X115770229Y-79700432D01*
X115787065Y-79717268D01*
X115803901Y-79767775D01*
X115803901Y-79801447D01*
X115787065Y-79851955D01*
X115719721Y-79919298D01*
X115702886Y-79969806D01*
X115702886Y-80003478D01*
X115719721Y-80053985D01*
X115787065Y-80121329D01*
X115837573Y-80138165D01*
X115871244Y-80138165D01*
X115921752Y-80121329D01*
X115989095Y-80053985D01*
X116005931Y-80003478D01*
X116005931Y-79969806D01*
X115989095Y-79919298D01*
X115921752Y-79851955D01*
X115871244Y-79835119D01*
X115837573Y-79835119D01*
X115787065Y-79851955D01*
X116022767Y-79313207D02*
X115854408Y-79481565D01*
X116005931Y-79666760D01*
X116005931Y-79633088D01*
X116022767Y-79582581D01*
X116106947Y-79498401D01*
X116157454Y-79481565D01*
X116191126Y-79481565D01*
X116241634Y-79498401D01*
X116325813Y-79582581D01*
X116342649Y-79633088D01*
X116342649Y-79666760D01*
X116325813Y-79717268D01*
X116241634Y-79801447D01*
X116191126Y-79818283D01*
X116157454Y-79818283D01*
X116409992Y-79363714D02*
X116679366Y-79094340D01*
X116830889Y-78538756D02*
X116780382Y-78555592D01*
X116729874Y-78606100D01*
X116696202Y-78673443D01*
X116696202Y-78740787D01*
X116713038Y-78791295D01*
X116763546Y-78875474D01*
X116814053Y-78925982D01*
X116898233Y-78976489D01*
X116948740Y-78993325D01*
X117016084Y-78993325D01*
X117083427Y-78959653D01*
X117117099Y-78925982D01*
X117150771Y-78858638D01*
X117150771Y-78824966D01*
X117032920Y-78707115D01*
X116965576Y-78774459D01*
X117268622Y-78404069D02*
X117150771Y-78521921D01*
X117335965Y-78707115D02*
X116982412Y-78353562D01*
X117150771Y-78185203D01*
X117504324Y-78269382D02*
X117773698Y-78000008D01*
X117958893Y-77882157D02*
X118127252Y-77713799D01*
X118026236Y-78016844D02*
X117790534Y-77545440D01*
X118261939Y-77781142D01*
X118329282Y-77781142D02*
X118598656Y-77511768D01*
X118851194Y-77191886D02*
X118564984Y-77141379D01*
X118649164Y-77393917D02*
X118295610Y-77040363D01*
X118430297Y-76905676D01*
X118480805Y-76888841D01*
X118514477Y-76888841D01*
X118564984Y-76905676D01*
X118615492Y-76956184D01*
X118632328Y-77006692D01*
X118632328Y-77040363D01*
X118615492Y-77090871D01*
X118480805Y-77225558D01*
X118817523Y-76855169D02*
X118935374Y-76737318D01*
X119171076Y-76872005D02*
X119002717Y-77040363D01*
X118649164Y-76686810D01*
X118817523Y-76518451D01*
X118918538Y-76417436D02*
X119389942Y-76653138D01*
X119154240Y-76181734D01*
X119507793Y-76333257D02*
X119676152Y-76164898D01*
X119575137Y-76467944D02*
X119339435Y-75996539D01*
X119810839Y-76232241D01*
X127454383Y-89297784D02*
X127508258Y-89270847D01*
X127575601Y-89203503D01*
X127589070Y-89163097D01*
X127589070Y-89136160D01*
X127575601Y-89095754D01*
X127548664Y-89068816D01*
X127508258Y-89055347D01*
X127481320Y-89055347D01*
X127440914Y-89068816D01*
X127373571Y-89109222D01*
X127333165Y-89122691D01*
X127306227Y-89122691D01*
X127265821Y-89109222D01*
X127238884Y-89082285D01*
X127225415Y-89041879D01*
X127225415Y-89014941D01*
X127238884Y-88974535D01*
X127306227Y-88907192D01*
X127360102Y-88880254D01*
X127427445Y-88785973D02*
X127589070Y-88624349D01*
X127791100Y-88988004D02*
X127508258Y-88705161D01*
X127683351Y-88530068D02*
X127912319Y-88759036D01*
X127952725Y-88772505D01*
X127979662Y-88772505D01*
X128020068Y-88759036D01*
X128073943Y-88705161D01*
X128087412Y-88664755D01*
X128087412Y-88637818D01*
X128073943Y-88597412D01*
X127844975Y-88368444D01*
X128235568Y-88516599D02*
X128289442Y-88489662D01*
X128356786Y-88422318D01*
X128370255Y-88381912D01*
X128370255Y-88354975D01*
X128356786Y-88314569D01*
X128329848Y-88287631D01*
X128289442Y-88274163D01*
X128262505Y-88274163D01*
X128222099Y-88287631D01*
X128154755Y-88328038D01*
X128114349Y-88341506D01*
X128087412Y-88341506D01*
X128047006Y-88328038D01*
X128020068Y-88301100D01*
X128006600Y-88260694D01*
X128006600Y-88233757D01*
X128020068Y-88193351D01*
X128087412Y-88126007D01*
X128141287Y-88099070D01*
X128478004Y-88004789D02*
X128531879Y-87977851D01*
X128558816Y-87977851D01*
X128599222Y-87991320D01*
X128639629Y-88031726D01*
X128653097Y-88072132D01*
X128653097Y-88099070D01*
X128639629Y-88139476D01*
X128531879Y-88247225D01*
X128249036Y-87964383D01*
X128343317Y-87870102D01*
X128383723Y-87856633D01*
X128410661Y-87856633D01*
X128451067Y-87870102D01*
X128478004Y-87897039D01*
X128491473Y-87937445D01*
X128491473Y-87964383D01*
X128478004Y-88004789D01*
X128383723Y-88099070D01*
X128747378Y-87654603D02*
X128935940Y-87843164D01*
X128572285Y-87614196D02*
X128706972Y-87883570D01*
X128882065Y-87708477D01*
X128935940Y-87277479D02*
X128801253Y-87412166D01*
X128922471Y-87560322D01*
X128922471Y-87533384D01*
X128935940Y-87492978D01*
X129003283Y-87425635D01*
X129043690Y-87412166D01*
X129070627Y-87412166D01*
X129111033Y-87425635D01*
X129178377Y-87492978D01*
X129191845Y-87533384D01*
X129191845Y-87560322D01*
X129178377Y-87600728D01*
X129111033Y-87668071D01*
X129070627Y-87681540D01*
X129043690Y-87681540D01*
X129124502Y-87088917D02*
X129151439Y-87061980D01*
X129191845Y-87048511D01*
X129218783Y-87048511D01*
X129259189Y-87061980D01*
X129326532Y-87102386D01*
X129393876Y-87169729D01*
X129434282Y-87237073D01*
X129447751Y-87277479D01*
X129447751Y-87304416D01*
X129434282Y-87344822D01*
X129407344Y-87371760D01*
X129366938Y-87385229D01*
X129340001Y-87385229D01*
X129299595Y-87371760D01*
X129232251Y-87331354D01*
X129164908Y-87264010D01*
X129124502Y-87196667D01*
X129111033Y-87156261D01*
X129111033Y-87129323D01*
X129124502Y-87088917D01*
X129393876Y-86819543D02*
X129420813Y-86792606D01*
X129461219Y-86779137D01*
X129488157Y-86779137D01*
X129528563Y-86792606D01*
X129595906Y-86833012D01*
X129663250Y-86900355D01*
X129703656Y-86967699D01*
X129717125Y-87008105D01*
X129717125Y-87035042D01*
X129703656Y-87075448D01*
X129676718Y-87102386D01*
X129636312Y-87115855D01*
X129609375Y-87115855D01*
X129568969Y-87102386D01*
X129501625Y-87061980D01*
X129434282Y-86994636D01*
X129393876Y-86927293D01*
X129380407Y-86886887D01*
X129380407Y-86859949D01*
X129393876Y-86819543D01*
X130107717Y-86725262D02*
X130067311Y-86738731D01*
X130013436Y-86738731D01*
X129932624Y-86738731D01*
X129892218Y-86752200D01*
X129865280Y-86779137D01*
X129946092Y-86833012D02*
X129905686Y-86846481D01*
X129851812Y-86846481D01*
X129784468Y-86806074D01*
X129690187Y-86711794D01*
X129649781Y-86644450D01*
X129649781Y-86590575D01*
X129663250Y-86550169D01*
X129717125Y-86496294D01*
X129757531Y-86482826D01*
X129811405Y-86482826D01*
X129878749Y-86523232D01*
X129973030Y-86617513D01*
X130013436Y-86684856D01*
X130013436Y-86738731D01*
X129999967Y-86779137D01*
X129946092Y-86833012D01*
X129865280Y-86348139D02*
X130026905Y-86186514D01*
X130228935Y-86550169D02*
X129946092Y-86267326D01*
X130565653Y-86213452D02*
X130336685Y-86173045D01*
X130404028Y-86375076D02*
X130121186Y-86092233D01*
X130228935Y-85984484D01*
X130269341Y-85971015D01*
X130296279Y-85971015D01*
X130336685Y-85984484D01*
X130377091Y-86024890D01*
X130390560Y-86065296D01*
X130390560Y-86092233D01*
X130377091Y-86132639D01*
X130269341Y-86240389D01*
X139577632Y-80574535D02*
X139631507Y-80547598D01*
X139698850Y-80480254D01*
X139712319Y-80439848D01*
X139712319Y-80412911D01*
X139698850Y-80372505D01*
X139671913Y-80345567D01*
X139631507Y-80332099D01*
X139604569Y-80332099D01*
X139564163Y-80345567D01*
X139496819Y-80385973D01*
X139456413Y-80399442D01*
X139429476Y-80399442D01*
X139389070Y-80385973D01*
X139362132Y-80359036D01*
X139348664Y-80318630D01*
X139348664Y-80291692D01*
X139362132Y-80251286D01*
X139429476Y-80183943D01*
X139483351Y-80157005D01*
X139550694Y-80062725D02*
X139712319Y-79901100D01*
X139914349Y-80264755D02*
X139631507Y-79981912D01*
X140224129Y-79954975D02*
X140089442Y-80089662D01*
X139806600Y-79806819D01*
X140156786Y-79456633D02*
X140102911Y-79510508D01*
X140089442Y-79550914D01*
X140089442Y-79577851D01*
X140102911Y-79645195D01*
X140143317Y-79712538D01*
X140251067Y-79820288D01*
X140291473Y-79833757D01*
X140318410Y-79833757D01*
X140358816Y-79820288D01*
X140412691Y-79766413D01*
X140426160Y-79726007D01*
X140426160Y-79699070D01*
X140412691Y-79658664D01*
X140345348Y-79591320D01*
X140304942Y-79577851D01*
X140278004Y-79577851D01*
X140237598Y-79591320D01*
X140183723Y-79645195D01*
X140170255Y-79685601D01*
X140170255Y-79712538D01*
X140183723Y-79752944D01*
X140587784Y-79591320D02*
X140304942Y-79308477D01*
X140412691Y-79200728D01*
X140453097Y-79187259D01*
X140480035Y-79187259D01*
X140520441Y-79200728D01*
X140560847Y-79241134D01*
X140574316Y-79281540D01*
X140574316Y-79308477D01*
X140560847Y-79348883D01*
X140453097Y-79456633D01*
X140560847Y-79052572D02*
X140735940Y-78877479D01*
X140749409Y-79079509D01*
X140789815Y-79039103D01*
X140830221Y-79025635D01*
X140857158Y-79025635D01*
X140897564Y-79039103D01*
X140964908Y-79106447D01*
X140978377Y-79146853D01*
X140978377Y-79173790D01*
X140964908Y-79214196D01*
X140884096Y-79295009D01*
X140843690Y-79308477D01*
X140816752Y-79308477D01*
X141274688Y-78904416D02*
X141140001Y-79039103D01*
X140857158Y-78756261D01*
X141503656Y-78675448D02*
X141368969Y-78810135D01*
X141086126Y-78527293D01*
X141597937Y-78581168D02*
X141315094Y-78298325D01*
X141449781Y-78433012D02*
X141611405Y-78271387D01*
X141759561Y-78419543D02*
X141476718Y-78136700D01*
X141732624Y-77880795D02*
X141678749Y-77934670D01*
X141665280Y-77975076D01*
X141665280Y-78002013D01*
X141678749Y-78069357D01*
X141719155Y-78136700D01*
X141826905Y-78244450D01*
X141867311Y-78257919D01*
X141894248Y-78257919D01*
X141934654Y-78244450D01*
X141988529Y-78190575D01*
X142001998Y-78150169D01*
X142001998Y-78123232D01*
X141988529Y-78082826D01*
X141921186Y-78015482D01*
X141880780Y-78002013D01*
X141853842Y-78002013D01*
X141813436Y-78015482D01*
X141759561Y-78069357D01*
X141746092Y-78109763D01*
X141746092Y-78136700D01*
X141759561Y-78177107D01*
X135177632Y-80474535D02*
X135231507Y-80447598D01*
X135298850Y-80380254D01*
X135312319Y-80339848D01*
X135312319Y-80312911D01*
X135298850Y-80272505D01*
X135271913Y-80245567D01*
X135231507Y-80232099D01*
X135204569Y-80232099D01*
X135164163Y-80245567D01*
X135096819Y-80285973D01*
X135056413Y-80299442D01*
X135029476Y-80299442D01*
X134989070Y-80285973D01*
X134962132Y-80259036D01*
X134948664Y-80218630D01*
X134948664Y-80191692D01*
X134962132Y-80151286D01*
X135029476Y-80083943D01*
X135083351Y-80057005D01*
X135150694Y-79962725D02*
X135312319Y-79801100D01*
X135514349Y-80164755D02*
X135231507Y-79881912D01*
X135824129Y-79854975D02*
X135689442Y-79989662D01*
X135406600Y-79706819D01*
X135756786Y-79356633D02*
X135702911Y-79410508D01*
X135689442Y-79450914D01*
X135689442Y-79477851D01*
X135702911Y-79545195D01*
X135743317Y-79612538D01*
X135851067Y-79720288D01*
X135891473Y-79733757D01*
X135918410Y-79733757D01*
X135958816Y-79720288D01*
X136012691Y-79666413D01*
X136026160Y-79626007D01*
X136026160Y-79599070D01*
X136012691Y-79558664D01*
X135945348Y-79491320D01*
X135904942Y-79477851D01*
X135878004Y-79477851D01*
X135837598Y-79491320D01*
X135783723Y-79545195D01*
X135770255Y-79585601D01*
X135770255Y-79612538D01*
X135783723Y-79652944D01*
X136187784Y-79491320D02*
X135904942Y-79208477D01*
X136012691Y-79100728D01*
X136053097Y-79087259D01*
X136080035Y-79087259D01*
X136120441Y-79100728D01*
X136160847Y-79141134D01*
X136174316Y-79181540D01*
X136174316Y-79208477D01*
X136160847Y-79248883D01*
X136053097Y-79356633D01*
X136160847Y-78952572D02*
X136335940Y-78777479D01*
X136349409Y-78979509D01*
X136389815Y-78939103D01*
X136430221Y-78925635D01*
X136457158Y-78925635D01*
X136497564Y-78939103D01*
X136564908Y-79006447D01*
X136578377Y-79046853D01*
X136578377Y-79073790D01*
X136564908Y-79114196D01*
X136484096Y-79195009D01*
X136443690Y-79208477D01*
X136416752Y-79208477D01*
X136874688Y-78804416D02*
X136740001Y-78939103D01*
X136457158Y-78656261D01*
X137103656Y-78575448D02*
X136968969Y-78710135D01*
X136686126Y-78427293D01*
X137197937Y-78481168D02*
X136915094Y-78198325D01*
X137049781Y-78333012D02*
X137211405Y-78171387D01*
X137359561Y-78319543D02*
X137076718Y-78036700D01*
X137332624Y-77780795D02*
X137278749Y-77834670D01*
X137265280Y-77875076D01*
X137265280Y-77902013D01*
X137278749Y-77969357D01*
X137319155Y-78036700D01*
X137426905Y-78144450D01*
X137467311Y-78157919D01*
X137494248Y-78157919D01*
X137534654Y-78144450D01*
X137588529Y-78090575D01*
X137601998Y-78050169D01*
X137601998Y-78023232D01*
X137588529Y-77982826D01*
X137521186Y-77915482D01*
X137480780Y-77902013D01*
X137453842Y-77902013D01*
X137413436Y-77915482D01*
X137359561Y-77969357D01*
X137346092Y-78009763D01*
X137346092Y-78036700D01*
X137359561Y-78077107D01*
M02*
