M48
; DRILL file {KiCad (5.1.5-0-10_14)} date Sunday, June 14, 2020 at 07:47:03 PM
; FORMAT={-:-/ absolute / inch / decimal}
; #@! TF.CreationDate,2020-06-14T19:47:03-04:00
; #@! TF.GenerationSoftware,Kicad,Pcbnew,(5.1.5-0-10_14)
; #@! TF.FileFunction,Plated,1,4,PTH
FMAT,2
INCH
T1C0.0100
T2C0.0157
T3C0.0236
T4C0.0394
T5C0.0512
%
G90
G05
T1
X4.4498Y-4.0174
X4.5278Y-3.6444
X4.5308Y-3.9194
X4.5308Y-4.2094
X4.5768Y-3.4814
X4.5788Y-3.8034
X4.6268Y-3.8034
X4.6288Y-3.4814
X4.6807Y-4.525
X4.6846Y-4.4462
X4.6988Y-4.6874
X4.7258Y-4.2164
X4.7428Y-3.6294
X4.7428Y-4.6874
X4.7728Y-4.0694
X4.7928Y-4.1384
X4.8068Y-3.6474
X4.8468Y-2.9574
X4.8508Y-4.4934
X4.8538Y-4.1384
X4.8708Y-3.4014
X4.8708Y-3.4834
X4.8708Y-3.6474
X4.8728Y-4.4154
X4.8854Y-4.4423
X4.8878Y-4.5503
X4.8893Y-4.4738
X4.8908Y-4.5074
X4.9148Y-4.1384
X4.9308Y-3.7274
X4.9328Y-3.6474
X4.9328Y-4.3954
X4.9368Y-4.5814
X4.9728Y-4.1564
X4.9768Y-3.5354
X4.9828Y-3.8794
X4.9838Y-3.6564
X4.9848Y-3.7234
X4.9868Y-3.8334
X5.0028Y-4.2714
X5.0428Y-4.6674
X5.0507Y-3.4226
X5.0628Y-3.1174
X5.0628Y-4.3334
X5.0628Y-4.3774
X5.0708Y-4.4634
X5.0748Y-3.5674
X5.0818Y-3.6564
X5.0908Y-4.6153
X5.0928Y-4.6834
X5.0968Y-3.7234
X5.1008Y-3.7814
X5.1019Y-3.4738
X5.1069Y-3.5872
X5.1361Y-4.5287
X5.1408Y-4.5614
X5.1568Y-4.3874
X5.1628Y-3.3594
X5.1948Y-4.3934
X5.1948Y-4.4454
X5.1988Y-3.4794
X5.1995Y-3.4001
X5.201Y-4.5496
X5.2268Y-3.6474
X5.2318Y-3.8254
X5.2418Y-3.2874
X5.2468Y-3.4474
X5.2608Y-4.4654
X5.3126Y-3.3494
X5.3388Y-3.8574
X5.4188Y-3.0274
X5.4928Y-3.1974
X5.5108Y-3.8254
X5.5428Y-3.6534
X5.5948Y-3.0114
X5.7028Y-3.6534
X5.7673Y-4.0447
X5.7868Y-3.8294
X5.7927Y-3.1677
X5.7927Y-3.2157
X5.7928Y-3.7034
X5.7928Y-3.7374
X5.8027Y-3.2494
X5.8086Y-4.0781
X5.8108Y-2.9994
X5.8108Y-3.0314
X5.8108Y-3.0654
X5.8342Y-3.3911
X5.846Y-2.9974
X5.8468Y-3.0634
X5.8468Y-4.4894
X5.8808Y-3.0634
X5.8848Y-4.5874
X5.8893Y-3.962
X5.8893Y-3.9974
X5.8893Y-4.0329
X5.8918Y-4.0678
X5.9008Y-3.1974
X5.9008Y-3.2314
X5.9022Y-3.4939
X5.9069Y-3.0338
X5.9069Y-3.0818
X5.9078Y-3.3584
X5.9088Y-4.1194
X5.9129Y-3.9069
X5.9508Y-4.4494
X5.9523Y-3.2376
X5.956Y-3.8482
X5.9641Y-3.458
X5.9641Y-3.525
X5.9768Y-3.7407
X5.9877Y-3.4974
X5.9993Y-3.0434
X6.0008Y-4.4014
X6.0153Y-3.458
X6.0331Y-3.0434
X6.0389Y-3.5171
X6.0408Y-3.7854
X6.0507Y-3.3399
X6.0507Y-3.4856
X6.0648Y-3.2394
X6.0648Y-4.4214
X6.0669Y-3.0434
X6.0768Y-4.1034
X6.0901Y-3.458
X6.0901Y-3.525
X6.098Y-3.2394
X6.1008Y-3.0434
X6.1008Y-3.0767
X6.1008Y-3.11
X6.1008Y-3.1434
X6.1056Y-3.7854
X6.1177Y-3.4817
X6.1452Y-3.8872
X6.1508Y-3.9234
X6.151Y-4.1885
X6.1531Y-3.2533
X6.1531Y-3.647
X6.1668Y-3.9554
X6.1668Y-4.0214
X6.5803Y-3.8754
X6.6063Y-3.8754
X6.6323Y-3.8754
T2
X4.8588Y-3.1274
X5.1888Y-3.9134
X5.1888Y-4.1454
X5.2028Y-3.0554
X5.2028Y-3.0954
X5.2028Y-3.1354
X5.2028Y-3.1754
X5.2428Y-3.0554
X5.2428Y-3.0954
X5.2428Y-3.1354
X5.2428Y-3.1754
X5.3333Y-4.4552
X5.5508Y-4.6514
X5.6228Y-4.0262
X5.6228Y-4.1365
X5.7442Y-3.4694
X5.7555Y-3.3321
X5.8328Y-4.6514
X6.0319Y-4.6168
X6.4148Y-3.2634
X6.4148Y-3.3554
X6.4148Y-3.5374
X6.4168Y-2.9834
X6.4168Y-3.0754
X6.4168Y-3.1714
X6.4168Y-3.4474
X6.4668Y-3.6114
X6.4668Y-3.6634
X6.4888Y-4.2074
X4.6581Y-2.9982
X4.6581Y-3.0317
X4.6581Y-3.0652
X4.6581Y-3.0986
X4.6581Y-3.1321
X4.6581Y-3.1656
X4.6581Y-3.199
X4.6581Y-3.2325
X4.7112Y-2.9982
X4.7112Y-3.0317
X4.7112Y-3.0652
X4.7112Y-3.0986
X4.7112Y-3.1321
X4.7112Y-3.1656
X4.7112Y-3.199
X4.7112Y-3.2325
T4
X6.6128Y-4.2814
X6.7128Y-4.2814
T5
X6.2161Y-4.4974
X6.4129Y-4.4974
T3
G00X4.5553Y-2.9451
M15
G01X4.5238Y-2.9451
M16
G05
G00X4.5553Y-3.2856
M15
G01X4.5238Y-3.2856
M16
G05
G00X4.7022Y-2.9451
M15
G01X4.6431Y-2.9451
M16
G05
G00X4.7022Y-3.2856
M15
G01X4.6431Y-3.2856
M16
G05
T0
M30
