G04 #@! TF.GenerationSoftware,KiCad,Pcbnew,(5.1.5-0-10_14)*
G04 #@! TF.CreationDate,2020-05-29T17:41:24-04:00*
G04 #@! TF.ProjectId,PD_PowerSupply,50445f50-6f77-4657-9253-7570706c792e,rev?*
G04 #@! TF.SameCoordinates,Original*
G04 #@! TF.FileFunction,Other,ECO1*
%FSLAX46Y46*%
G04 Gerber Fmt 4.6, Leading zero omitted, Abs format (unit mm)*
G04 Created by KiCad (PCBNEW (5.1.5-0-10_14)) date 2020-05-29 17:41:24*
%MOMM*%
%LPD*%
G04 APERTURE LIST*
%ADD10C,0.150000*%
G04 APERTURE END LIST*
D10*
X116241180Y-117129638D02*
X115241180Y-117129638D01*
X116241180Y-116558209D02*
X115669752Y-116986780D01*
X115241180Y-116558209D02*
X115812609Y-117129638D01*
X115717371Y-116129638D02*
X115717371Y-115796304D01*
X116241180Y-115653447D02*
X116241180Y-116129638D01*
X115241180Y-116129638D01*
X115241180Y-115653447D01*
X115717371Y-115224876D02*
X115717371Y-114891542D01*
X116241180Y-114748685D02*
X116241180Y-115224876D01*
X115241180Y-115224876D01*
X115241180Y-114748685D01*
X116241180Y-114320114D02*
X115241180Y-114320114D01*
X115241180Y-113939161D01*
X115288800Y-113843923D01*
X115336419Y-113796304D01*
X115431657Y-113748685D01*
X115574514Y-113748685D01*
X115669752Y-113796304D01*
X115717371Y-113843923D01*
X115764990Y-113939161D01*
X115764990Y-114320114D01*
X115241180Y-113129638D02*
X115241180Y-112939161D01*
X115288800Y-112843923D01*
X115384038Y-112748685D01*
X115574514Y-112701066D01*
X115907847Y-112701066D01*
X116098323Y-112748685D01*
X116193561Y-112843923D01*
X116241180Y-112939161D01*
X116241180Y-113129638D01*
X116193561Y-113224876D01*
X116098323Y-113320114D01*
X115907847Y-113367733D01*
X115574514Y-113367733D01*
X115384038Y-113320114D01*
X115288800Y-113224876D01*
X115241180Y-113129638D01*
X115241180Y-112272495D02*
X116050704Y-112272495D01*
X116145942Y-112224876D01*
X116193561Y-112177257D01*
X116241180Y-112082019D01*
X116241180Y-111891542D01*
X116193561Y-111796304D01*
X116145942Y-111748685D01*
X116050704Y-111701066D01*
X115241180Y-111701066D01*
X115241180Y-111367733D02*
X115241180Y-110796304D01*
X116241180Y-111082019D02*
X115241180Y-111082019D01*
M02*
