G04 #@! TF.GenerationSoftware,KiCad,Pcbnew,(5.1.5-0-10_14)*
G04 #@! TF.CreationDate,2020-05-29T17:41:24-04:00*
G04 #@! TF.ProjectId,PD_PowerSupply,50445f50-6f77-4657-9253-7570706c792e,rev?*
G04 #@! TF.SameCoordinates,Original*
G04 #@! TF.FileFunction,Copper,L4,Bot*
G04 #@! TF.FilePolarity,Positive*
%FSLAX46Y46*%
G04 Gerber Fmt 4.6, Leading zero omitted, Abs format (unit mm)*
G04 Created by KiCad (PCBNEW (5.1.5-0-10_14)) date 2020-05-29 17:41:24*
%MOMM*%
%LPD*%
G04 APERTURE LIST*
%ADD10C,0.300000*%
%ADD11O,2.216000X1.108000*%
%ADD12C,0.650000*%
%ADD13C,1.000000*%
%ADD14C,2.600000*%
%ADD15R,2.600000X2.600000*%
%ADD16O,1.700000X1.700000*%
%ADD17R,1.700000X1.700000*%
%ADD18C,0.508000*%
%ADD19C,0.800000*%
%ADD20C,0.152400*%
%ADD21C,0.254000*%
%ADD22C,0.508000*%
%ADD23C,1.524000*%
%ADD24C,0.200000*%
G04 APERTURE END LIST*
D10*
X158278085Y-76117614D02*
X158206657Y-76055114D01*
X158135228Y-75921185D01*
X158135228Y-75778328D01*
X158206657Y-75626542D01*
X158278085Y-75546185D01*
X158420942Y-75456900D01*
X158563800Y-75439042D01*
X158706657Y-75492614D01*
X158778085Y-75555114D01*
X158849514Y-75689042D01*
X158849514Y-75831900D01*
X158778085Y-75983685D01*
X158706657Y-76064042D01*
X158135228Y-76135471D02*
X158706657Y-76064042D01*
X158778085Y-76126542D01*
X158778085Y-76197971D01*
X158706657Y-76349757D01*
X158563800Y-76439042D01*
X158206657Y-76483685D01*
X157992371Y-76367614D01*
X157849514Y-76171185D01*
X157778085Y-75894400D01*
X157849514Y-75599757D01*
X157992371Y-75367614D01*
X158206657Y-75197971D01*
X158492371Y-75090828D01*
X158778085Y-75126542D01*
X158992371Y-75242614D01*
X159135228Y-75439042D01*
X159206657Y-75715828D01*
X159135228Y-76010471D01*
X158992371Y-76242614D01*
X157992371Y-77010471D02*
X157992371Y-77796185D01*
X158992371Y-76885471D01*
X158992371Y-77671185D01*
X158992371Y-78885471D02*
X158206657Y-78983685D01*
X158063800Y-78930114D01*
X157992371Y-78796185D01*
X157992371Y-78510471D01*
X158063800Y-78358685D01*
X158920942Y-78894400D02*
X158992371Y-78742614D01*
X158992371Y-78385471D01*
X158920942Y-78251542D01*
X158778085Y-78197971D01*
X158635228Y-78215828D01*
X158492371Y-78305114D01*
X158420942Y-78456900D01*
X158420942Y-78814042D01*
X158349514Y-78965828D01*
X158992371Y-79599757D02*
X157992371Y-79724757D01*
X157492371Y-79787257D02*
X157563800Y-79706900D01*
X157635228Y-79769400D01*
X157563800Y-79849757D01*
X157492371Y-79787257D01*
X157635228Y-79769400D01*
X157992371Y-80439042D02*
X158992371Y-80314042D01*
X158135228Y-80421185D02*
X158063800Y-80501542D01*
X157992371Y-80653328D01*
X157992371Y-80867614D01*
X158063800Y-81001542D01*
X158206657Y-81055114D01*
X158992371Y-80956900D01*
X158992371Y-82314042D02*
X158206657Y-82412257D01*
X158063800Y-82358685D01*
X157992371Y-82224757D01*
X157992371Y-81939042D01*
X158063800Y-81787257D01*
X158920942Y-82322971D02*
X158992371Y-82171185D01*
X158992371Y-81814042D01*
X158920942Y-81680114D01*
X158778085Y-81626542D01*
X158635228Y-81644400D01*
X158492371Y-81733685D01*
X158420942Y-81885471D01*
X158420942Y-82242614D01*
X158349514Y-82394400D01*
X158992371Y-83028328D02*
X157492371Y-83215828D01*
X158992371Y-83671185D02*
X158206657Y-83769400D01*
X158063800Y-83715828D01*
X157992371Y-83581900D01*
X157992371Y-83367614D01*
X158063800Y-83215828D01*
X158135228Y-83135471D01*
X158992371Y-84385471D02*
X157992371Y-84510471D01*
X158135228Y-84492614D02*
X158063800Y-84572971D01*
X157992371Y-84724757D01*
X157992371Y-84939042D01*
X158063800Y-85072971D01*
X158206657Y-85126542D01*
X158992371Y-85028328D01*
X158206657Y-85126542D02*
X158063800Y-85215828D01*
X157992371Y-85367614D01*
X157992371Y-85581900D01*
X158063800Y-85715828D01*
X158206657Y-85769400D01*
X158992371Y-85671185D01*
X157492371Y-86430114D02*
X157492371Y-87358685D01*
X158063800Y-86787257D01*
X158063800Y-87001542D01*
X158135228Y-87135471D01*
X158206657Y-87197971D01*
X158349514Y-87251542D01*
X158706657Y-87206900D01*
X158849514Y-87117614D01*
X158920942Y-87037257D01*
X158992371Y-86885471D01*
X158992371Y-86456900D01*
X158920942Y-86322971D01*
X158849514Y-86260471D01*
X158992371Y-88456900D02*
X157492371Y-88644400D01*
X158920942Y-88465828D02*
X158992371Y-88314042D01*
X158992371Y-88028328D01*
X158920942Y-87894400D01*
X158849514Y-87831900D01*
X158706657Y-87778328D01*
X158278085Y-87831900D01*
X158135228Y-87921185D01*
X158063800Y-88001542D01*
X157992371Y-88153328D01*
X157992371Y-88439042D01*
X158063800Y-88572971D01*
X160828085Y-76046185D02*
X160756657Y-75983685D01*
X160685228Y-75849757D01*
X160685228Y-75706900D01*
X160756657Y-75555114D01*
X160828085Y-75474757D01*
X160970942Y-75385471D01*
X161113800Y-75367614D01*
X161256657Y-75421185D01*
X161328085Y-75483685D01*
X161399514Y-75617614D01*
X161399514Y-75760471D01*
X161328085Y-75912257D01*
X161256657Y-75992614D01*
X160685228Y-76064042D02*
X161256657Y-75992614D01*
X161328085Y-76055114D01*
X161328085Y-76126542D01*
X161256657Y-76278328D01*
X161113800Y-76367614D01*
X160756657Y-76412257D01*
X160542371Y-76296185D01*
X160399514Y-76099757D01*
X160328085Y-75822971D01*
X160399514Y-75528328D01*
X160542371Y-75296185D01*
X160756657Y-75126542D01*
X161042371Y-75019400D01*
X161328085Y-75055114D01*
X161542371Y-75171185D01*
X161685228Y-75367614D01*
X161756657Y-75644400D01*
X161685228Y-75939042D01*
X161542371Y-76171185D01*
X161399514Y-77831900D02*
X161470942Y-77751542D01*
X161542371Y-77528328D01*
X161542371Y-77385471D01*
X161470942Y-77180114D01*
X161328085Y-77055114D01*
X161185228Y-77001542D01*
X160899514Y-76965828D01*
X160685228Y-76992614D01*
X160399514Y-77099757D01*
X160256657Y-77189042D01*
X160113800Y-77349757D01*
X160042371Y-77572971D01*
X160042371Y-77715828D01*
X160113800Y-77921185D01*
X160185228Y-77983685D01*
X161542371Y-79099757D02*
X160756657Y-79197971D01*
X160613800Y-79144400D01*
X160542371Y-79010471D01*
X160542371Y-78724757D01*
X160613800Y-78572971D01*
X161470942Y-79108685D02*
X161542371Y-78956900D01*
X161542371Y-78599757D01*
X161470942Y-78465828D01*
X161328085Y-78412257D01*
X161185228Y-78430114D01*
X161042371Y-78519400D01*
X160970942Y-78671185D01*
X160970942Y-79028328D01*
X160899514Y-79180114D01*
X160542371Y-79939042D02*
X162042371Y-79751542D01*
X160613800Y-79930114D02*
X160542371Y-80081900D01*
X160542371Y-80367614D01*
X160613800Y-80501542D01*
X160685228Y-80564042D01*
X160828085Y-80617614D01*
X161256657Y-80564042D01*
X161399514Y-80474757D01*
X161470942Y-80394400D01*
X161542371Y-80242614D01*
X161542371Y-79956900D01*
X161470942Y-79822971D01*
X160542371Y-81081900D02*
X160542371Y-81653328D01*
X160042371Y-81358685D02*
X161328085Y-81197971D01*
X161470942Y-81251542D01*
X161542371Y-81385471D01*
X161542371Y-81528328D01*
X161542371Y-82028328D02*
X160542371Y-82153328D01*
X160042371Y-82215828D02*
X160113800Y-82135471D01*
X160185228Y-82197971D01*
X160113800Y-82278328D01*
X160042371Y-82215828D01*
X160185228Y-82197971D01*
X161542371Y-82956900D02*
X161470942Y-82822971D01*
X161399514Y-82760471D01*
X161256657Y-82706900D01*
X160828085Y-82760471D01*
X160685228Y-82849757D01*
X160613800Y-82930114D01*
X160542371Y-83081900D01*
X160542371Y-83296185D01*
X160613800Y-83430114D01*
X160685228Y-83492614D01*
X160828085Y-83546185D01*
X161256657Y-83492614D01*
X161399514Y-83403328D01*
X161470942Y-83322971D01*
X161542371Y-83171185D01*
X161542371Y-82956900D01*
X161542371Y-84814042D02*
X161542371Y-84099757D01*
X160042371Y-84287257D01*
X161542371Y-85956900D02*
X160756657Y-86055114D01*
X160613800Y-86001542D01*
X160542371Y-85867614D01*
X160542371Y-85581900D01*
X160613800Y-85430114D01*
X161470942Y-85965828D02*
X161542371Y-85814042D01*
X161542371Y-85456900D01*
X161470942Y-85322971D01*
X161328085Y-85269400D01*
X161185228Y-85287257D01*
X161042371Y-85376542D01*
X160970942Y-85528328D01*
X160970942Y-85885471D01*
X160899514Y-86037257D01*
X161542371Y-86671185D02*
X160042371Y-86858685D01*
X160613800Y-86787257D02*
X160542371Y-86939042D01*
X160542371Y-87224757D01*
X160613800Y-87358685D01*
X160685228Y-87421185D01*
X160828085Y-87474757D01*
X161256657Y-87421185D01*
X161399514Y-87331900D01*
X161470942Y-87251542D01*
X161542371Y-87099757D01*
X161542371Y-86814042D01*
X161470942Y-86680114D01*
X161470942Y-87965828D02*
X161542371Y-88099757D01*
X161542371Y-88385471D01*
X161470942Y-88537257D01*
X161328085Y-88626542D01*
X161256657Y-88635471D01*
X161113800Y-88581900D01*
X161042371Y-88447971D01*
X161042371Y-88233685D01*
X160970942Y-88099757D01*
X160828085Y-88046185D01*
X160756657Y-88055114D01*
X160613800Y-88144400D01*
X160542371Y-88296185D01*
X160542371Y-88510471D01*
X160613800Y-88644400D01*
D11*
X115305000Y-74805000D03*
X115305000Y-83455000D03*
X118685000Y-83455000D03*
X118685000Y-74805000D03*
D12*
X118315000Y-76155000D03*
X118315000Y-77005000D03*
X118315000Y-77855000D03*
X118315000Y-78705000D03*
X118315000Y-79555000D03*
X118315000Y-80405000D03*
X118315000Y-81255000D03*
X118315000Y-82105000D03*
X119665000Y-82105000D03*
X119665000Y-81255000D03*
X119665000Y-80405000D03*
X119665000Y-79555000D03*
X119665000Y-78705000D03*
X119665000Y-77855000D03*
X119665000Y-77005000D03*
X119665000Y-76155000D03*
D13*
X144888800Y-102734400D03*
X146888800Y-99734400D03*
X150488800Y-111234400D03*
X149188800Y-94834400D03*
X159788800Y-89834400D03*
X148088800Y-105934400D03*
D14*
X162854800Y-114182000D03*
D15*
X157854800Y-114182000D03*
D13*
X147593200Y-114944000D03*
X129457600Y-94573200D03*
X126612800Y-94573200D03*
D16*
X167964000Y-108746400D03*
D17*
X170504000Y-108746400D03*
D18*
X129559200Y-96046400D03*
X126612800Y-94573200D03*
X131946800Y-111591200D03*
X131946800Y-112912000D03*
X125292000Y-111642000D03*
X129457600Y-94573200D03*
X130981600Y-111438800D03*
X150034000Y-78278400D03*
X150034000Y-77059200D03*
X147134000Y-81678400D03*
X147134000Y-80459200D03*
X155734000Y-84478400D03*
X155734000Y-83259200D03*
X124834800Y-105114200D03*
X123285400Y-105114200D03*
X121736000Y-105114200D03*
X119348400Y-119058800D03*
X128086000Y-118550800D03*
X125393600Y-116366400D03*
X153333600Y-94573200D03*
X153435200Y-96148000D03*
X156635600Y-102142400D03*
X152419200Y-111794400D03*
D19*
X164814400Y-106866800D03*
X162934800Y-89848800D03*
X162985600Y-87562800D03*
X162934800Y-85226000D03*
X162934800Y-82889200D03*
X162985600Y-80552400D03*
X162985600Y-78114000D03*
D18*
X139973200Y-97164000D03*
X150438000Y-86648400D03*
X149879200Y-81212800D03*
X149879200Y-82889200D03*
X149879200Y-82076400D03*
X149879200Y-83752800D03*
X151657200Y-83702000D03*
X148488800Y-76134400D03*
X147593200Y-76996400D03*
X147593200Y-76183600D03*
X147593200Y-77860000D03*
X148507600Y-77809200D03*
X149371200Y-77809200D03*
D19*
X153211200Y-117267600D03*
X135466400Y-113162400D03*
X140989200Y-118144400D03*
X148152000Y-118144400D03*
D18*
X135604400Y-97976800D03*
X146983600Y-97265600D03*
X147136000Y-94928800D03*
X147136000Y-94065200D03*
X168461200Y-98435600D03*
X167800800Y-98435600D03*
X167140400Y-98435600D03*
X115081200Y-106917600D03*
X120466000Y-92185600D03*
X142106800Y-76488400D03*
X134940800Y-85073600D03*
X133140800Y-83498800D03*
X123107600Y-75116800D03*
X132759600Y-92642800D03*
X122091600Y-92642800D03*
X123717200Y-92642800D03*
X125292000Y-92642800D03*
X129588800Y-88234400D03*
X128288800Y-86934400D03*
X115005000Y-92566600D03*
X113023800Y-102040800D03*
D19*
X142818000Y-105066400D03*
D18*
X154959200Y-79841200D03*
X154959200Y-78977600D03*
X154959200Y-78164800D03*
X153181200Y-77352000D03*
X154044800Y-77352000D03*
X154959200Y-77301200D03*
X154044800Y-82279600D03*
X155264000Y-82279600D03*
X151606400Y-82889200D03*
D19*
X162985600Y-75777200D03*
D18*
X156229200Y-99653200D03*
X156584800Y-106511200D03*
X151250800Y-104022000D03*
X150336400Y-98789600D03*
X152216000Y-89544000D03*
X127070000Y-108492400D03*
X124088800Y-113734400D03*
X120466000Y-119058800D03*
X118888800Y-114934400D03*
X118988800Y-112934400D03*
X137636400Y-76894800D03*
X139516000Y-81212800D03*
X125241200Y-94674800D03*
X126409600Y-89798000D03*
X156534000Y-94573200D03*
X154908400Y-94573200D03*
D19*
X131794400Y-105292000D03*
X131794400Y-99399200D03*
D18*
X128797200Y-113369200D03*
X115081200Y-99551600D03*
X132886700Y-97164000D03*
X129305200Y-117228000D03*
D19*
X142818000Y-102266400D03*
D18*
X155081199Y-96148000D03*
X151281201Y-97743199D03*
X152012800Y-85937200D03*
X120034200Y-107095400D03*
D19*
X133166000Y-77606000D03*
X133166000Y-78622000D03*
X133166000Y-79638000D03*
X133166000Y-80654000D03*
X132150000Y-77606000D03*
X132150000Y-78622000D03*
X132150000Y-79638000D03*
X132150000Y-80654000D03*
X123412400Y-79434800D03*
D18*
X145866000Y-88121600D03*
X132068400Y-86363600D03*
X128594000Y-79180800D03*
X128898800Y-90610800D03*
X133267600Y-87562800D03*
X129715600Y-91114800D03*
X148507600Y-114029600D03*
X149472800Y-116518800D03*
X123209200Y-114131198D03*
X132048400Y-88375600D03*
X126562000Y-98535600D03*
X131134000Y-85327600D03*
X126663600Y-97367200D03*
X153536800Y-89950400D03*
X152825600Y-85581600D03*
X150996800Y-84565600D03*
X154908400Y-90854000D03*
X126587400Y-92871400D03*
X129076600Y-92871400D03*
X154349600Y-104225200D03*
X156635600Y-100466000D03*
D19*
X164255600Y-93049200D03*
X164255600Y-91728400D03*
D18*
X154044800Y-112302400D03*
X123768000Y-112150000D03*
X121228000Y-103361600D03*
X156889600Y-98891200D03*
X124150000Y-115578000D03*
X150082400Y-104631600D03*
X151149200Y-113013600D03*
X129356001Y-118957199D03*
X151809600Y-95013600D03*
X130575200Y-115858400D03*
X156838800Y-89594800D03*
X130458000Y-115030000D03*
X156127600Y-85734000D03*
X149588802Y-101534394D03*
X147538797Y-103584397D03*
X146488794Y-102534400D03*
X124225200Y-114486800D03*
X156788000Y-86750000D03*
X149588802Y-100634400D03*
X132105801Y-115560201D03*
X149588802Y-102434400D03*
X140786000Y-92795200D03*
X144850000Y-92795200D03*
X133623200Y-113420000D03*
X126308000Y-105571400D03*
X123717200Y-88477200D03*
X123717200Y-86394400D03*
X128594000Y-110067200D03*
X117519600Y-96605200D03*
X128594000Y-111184800D03*
X116300400Y-96605200D03*
X116249600Y-88426400D03*
X117570400Y-88426400D03*
D20*
X129559200Y-96148000D02*
X129559200Y-96148000D01*
X128086000Y-94573200D02*
X129559200Y-96046400D01*
X126612800Y-94573200D02*
X128086000Y-94573200D01*
X131946800Y-112759600D02*
X131794400Y-112912000D01*
X131946800Y-111591200D02*
X131946800Y-112759600D01*
X130586000Y-111834400D02*
X130981600Y-111438800D01*
X125484400Y-111834400D02*
X130586000Y-111834400D01*
X125292000Y-111642000D02*
X125484400Y-111834400D01*
D21*
X137636400Y-79333200D02*
X139516000Y-81212800D01*
X137636400Y-76894800D02*
X137636400Y-79333200D01*
D20*
X126155601Y-90051999D02*
X126409600Y-89798000D01*
X125822201Y-90385399D02*
X126155601Y-90051999D01*
X125822201Y-94093799D02*
X125822201Y-90385399D01*
X125241200Y-94674800D02*
X125822201Y-94093799D01*
D22*
X133166000Y-80654000D02*
X135553600Y-80654000D01*
X135553600Y-80654000D02*
X143021200Y-88121600D01*
X143021200Y-88121600D02*
X145866000Y-88121600D01*
X145866000Y-88121600D02*
X145866000Y-88121600D01*
D21*
X132068400Y-86363600D02*
X132068400Y-83671200D01*
X132068400Y-83671200D02*
X128594000Y-80196800D01*
X128594000Y-80196800D02*
X128594000Y-79180800D01*
X128594000Y-79180800D02*
X128594000Y-79180800D01*
D20*
X128898800Y-90610800D02*
X131946800Y-87562800D01*
X131946800Y-87562800D02*
X133267600Y-87562800D01*
D21*
X147593200Y-114944000D02*
X148507600Y-114029600D01*
X123158400Y-114131200D02*
X123158400Y-114131200D01*
D20*
X128823302Y-116925200D02*
X124686118Y-116925200D01*
X123209200Y-114490408D02*
X123209200Y-114131198D01*
X123209200Y-115448282D02*
X123209200Y-114490408D01*
X129787098Y-116925200D02*
X129559697Y-116697799D01*
X149472800Y-116518800D02*
X149066400Y-116925200D01*
X129559697Y-116697799D02*
X129050703Y-116697799D01*
X149066400Y-116925200D02*
X129787098Y-116925200D01*
X129050703Y-116697799D02*
X128823302Y-116925200D01*
X124686118Y-116925200D02*
X123209200Y-115448282D01*
X130626000Y-97052782D02*
X130626000Y-89798000D01*
X129143182Y-98535600D02*
X130626000Y-97052782D01*
X130626000Y-89798000D02*
X132048400Y-88375600D01*
X126562000Y-98535600D02*
X129143182Y-98535600D01*
X130233801Y-96289399D02*
X129156000Y-97367200D01*
X129156000Y-97367200D02*
X126663600Y-97367200D01*
X130233801Y-93243903D02*
X130233801Y-96289399D01*
X128289200Y-91299302D02*
X130233801Y-93243903D01*
X128289200Y-88172400D02*
X128289200Y-91299302D01*
X131134000Y-85327600D02*
X128289200Y-88172400D01*
X153536800Y-89950400D02*
X153892400Y-89594800D01*
X153892400Y-89594800D02*
X153892400Y-86648400D01*
X153892400Y-86648400D02*
X152825600Y-85581600D01*
X152825600Y-85581600D02*
X152825600Y-85581600D01*
X150996800Y-84565600D02*
X150996800Y-84565600D01*
X153943200Y-84565600D02*
X154908400Y-85530800D01*
X154908400Y-85530800D02*
X154908400Y-90494790D01*
X150996800Y-84565600D02*
X153943200Y-84565600D01*
X154908400Y-90494790D02*
X154908400Y-90854000D01*
X126587400Y-92871400D02*
X129076600Y-92871400D01*
X129076600Y-92871400D02*
X129076600Y-92871400D01*
D23*
X164693277Y-114182000D02*
X162854800Y-114182000D01*
X170504000Y-111120400D02*
X167442400Y-114182000D01*
X167442400Y-114182000D02*
X164693277Y-114182000D01*
X170504000Y-108746400D02*
X170504000Y-111120400D01*
D20*
X154349600Y-103865990D02*
X156076800Y-102138790D01*
X154349600Y-104225200D02*
X154349600Y-103865990D01*
X156076800Y-102138790D02*
X156076800Y-100974000D01*
X156076800Y-100974000D02*
X156432400Y-100618400D01*
X156432400Y-100618400D02*
X156635600Y-100466000D01*
X156635600Y-100466000D02*
X156534000Y-100618400D01*
D23*
X157854800Y-111358000D02*
X157854800Y-114182000D01*
X158078800Y-111134000D02*
X157854800Y-111358000D01*
X165576400Y-111134000D02*
X158078800Y-111134000D01*
X164255600Y-103463200D02*
X167964000Y-107171600D01*
X167964000Y-107171600D02*
X167964000Y-109711600D01*
X167964000Y-109711600D02*
X167862400Y-109813200D01*
X164255600Y-91728400D02*
X164255600Y-103463200D01*
X167862400Y-109813200D02*
X165576400Y-111134000D01*
X167964000Y-108746400D02*
X167862400Y-109813200D01*
D21*
X157854800Y-114182000D02*
X155924400Y-114182000D01*
X155924400Y-114182000D02*
X154044800Y-112302400D01*
X154044800Y-112302400D02*
X154044800Y-112302400D01*
X154044800Y-112302400D02*
X154044800Y-112302400D01*
D20*
X120872400Y-108873400D02*
X120872400Y-103717200D01*
X120872400Y-103717200D02*
X121228000Y-103361600D01*
X123768000Y-111769000D02*
X120872400Y-108873400D01*
X123768000Y-112150000D02*
X123768000Y-111769000D01*
X121228000Y-103361600D02*
X121228000Y-103361600D01*
X150082400Y-104631600D02*
X150082400Y-104631600D01*
X156530390Y-98891200D02*
X156889600Y-98891200D01*
X150082400Y-104272390D02*
X155463590Y-98891200D01*
X155463590Y-98891200D02*
X156530390Y-98891200D01*
X150082400Y-104631600D02*
X150082400Y-104272390D01*
X124150000Y-115578000D02*
X129177200Y-115578000D01*
X130118000Y-116518800D02*
X143744729Y-116518800D01*
X129177200Y-115578000D02*
X130118000Y-116518800D01*
X149825210Y-110438320D02*
X150082400Y-110181130D01*
X143744729Y-116518800D02*
X145116329Y-115147200D01*
X150082400Y-110181130D02*
X150082400Y-104631600D01*
X149758965Y-110504565D02*
X150488800Y-111234400D01*
X145116329Y-115147200D02*
X149758965Y-110504565D01*
X149758965Y-110504565D02*
X149825210Y-110438320D01*
X151149200Y-113013600D02*
X151149200Y-115627098D01*
X149343098Y-117433200D02*
X130880000Y-117433200D01*
X130880000Y-117433200D02*
X129610000Y-118703200D01*
X129610000Y-118703200D02*
X129356001Y-118957199D01*
X151149200Y-115627098D02*
X149343098Y-117433200D01*
X149368000Y-95013600D02*
X149188800Y-94834400D01*
X151809600Y-95013600D02*
X149368000Y-95013600D01*
X156838800Y-89594800D02*
X156889600Y-89645600D01*
X157169000Y-96529000D02*
X157169000Y-89925000D01*
X130829200Y-116112400D02*
X143652747Y-116112400D01*
X149472800Y-110292347D02*
X149472800Y-104225200D01*
X149472800Y-104225200D02*
X157169000Y-96529000D01*
X143652747Y-116112400D02*
X149472800Y-110292347D01*
X157169000Y-89925000D02*
X156838800Y-89594800D01*
X130575200Y-115858400D02*
X130829200Y-116112400D01*
X159549200Y-89594800D02*
X159788800Y-89834400D01*
X156838800Y-89594800D02*
X159549200Y-89594800D01*
X156127600Y-85734000D02*
X156127600Y-85734000D01*
X136093194Y-115030000D02*
X147538797Y-103584397D01*
X157318201Y-86213401D02*
X157318201Y-87004497D01*
X149948010Y-101534394D02*
X149588800Y-101534394D01*
X156003799Y-96508480D02*
X150977885Y-101534394D01*
X156127600Y-85734000D02*
X156838800Y-85734000D01*
X157318201Y-87004497D02*
X156003799Y-88318899D01*
X130458000Y-115030000D02*
X136093194Y-115030000D01*
X149334801Y-101788393D02*
X149588800Y-101534394D01*
X156003799Y-88318899D02*
X156003799Y-96508480D01*
X150977885Y-101534394D02*
X149948010Y-101534394D01*
X156838800Y-85734000D02*
X157318201Y-86213401D01*
X147538797Y-103584397D02*
X149334801Y-101788393D01*
X146288794Y-102734400D02*
X146488794Y-102534400D01*
X144888800Y-102734400D02*
X146288794Y-102734400D01*
X156788000Y-86750000D02*
X156788000Y-86750000D01*
X149848008Y-100634400D02*
X149588802Y-100634400D01*
X155619600Y-87410400D02*
X155619600Y-94862808D01*
X156280000Y-86750000D02*
X155619600Y-87410400D01*
X155619600Y-94862808D02*
X149848008Y-100634400D01*
X156788000Y-86750000D02*
X156280000Y-86750000D01*
X148688802Y-99734400D02*
X149588802Y-100634400D01*
X146888800Y-99734400D02*
X148688802Y-99734400D01*
X124225200Y-114486800D02*
X135747098Y-114486800D01*
X149334803Y-100888399D02*
X149588802Y-100634400D01*
X135747098Y-114486800D02*
X149334803Y-100899095D01*
X149334803Y-100899095D02*
X149334803Y-100888399D01*
X132105801Y-115560201D02*
X132105801Y-115560201D01*
X149334801Y-102688399D02*
X149588800Y-102434400D01*
X132105801Y-115560201D02*
X136462999Y-115560201D01*
X147138800Y-104984400D02*
X148088800Y-105934400D01*
X147138800Y-104884400D02*
X147138800Y-104984400D01*
X136462999Y-115560201D02*
X147138800Y-104884400D01*
X147138800Y-104884400D02*
X149334801Y-102688399D01*
D21*
X144490790Y-92795200D02*
X140786000Y-92795200D01*
X144850000Y-92795200D02*
X144490790Y-92795200D01*
D20*
X126667210Y-105571400D02*
X126308000Y-105571400D01*
X126946610Y-105571400D02*
X126667210Y-105571400D01*
X133623200Y-112247990D02*
X126946610Y-105571400D01*
X133623200Y-113420000D02*
X133623200Y-112247990D01*
X123717200Y-88477200D02*
X123717200Y-86394400D01*
X128594000Y-110067200D02*
X128594000Y-110067200D01*
D24*
X119501892Y-97918655D02*
X119449371Y-97876771D01*
X118177800Y-96605200D02*
X117519600Y-96605200D01*
X119760585Y-97947803D02*
X119695091Y-97962752D01*
X119873634Y-97876770D02*
X119821111Y-97918655D01*
X120156477Y-97593928D02*
X119873634Y-97876770D01*
X120402199Y-97507946D02*
X120335020Y-97507946D01*
X120335020Y-97507946D02*
X120269526Y-97522895D01*
X120580742Y-97593928D02*
X120528219Y-97552042D01*
X119449371Y-97876771D02*
X118177800Y-96605200D01*
X119695091Y-97962752D02*
X119627912Y-97962752D01*
X120209000Y-97552042D02*
X120156477Y-97593928D01*
X120622627Y-97646450D02*
X120580742Y-97593928D01*
X120666724Y-97772470D02*
X120651775Y-97706976D01*
X120269526Y-97522895D02*
X120209000Y-97552042D01*
X120651775Y-97905143D02*
X120666724Y-97839649D01*
X119562418Y-97947803D02*
X119501892Y-97918655D01*
X120622627Y-97965669D02*
X120651775Y-97905143D01*
X120256014Y-98353558D02*
X120297900Y-98301035D01*
X120297900Y-98301035D02*
X120580742Y-98018192D01*
X120666724Y-97839649D02*
X120666724Y-97772470D01*
X120226867Y-98414084D02*
X120256014Y-98353558D01*
X125113800Y-108841200D02*
X125113800Y-105581122D01*
X120651775Y-97706976D02*
X120622627Y-97646450D01*
X120226867Y-98612251D02*
X120211918Y-98546757D01*
X125338801Y-104872279D02*
X125113800Y-104647278D01*
X119821111Y-97918655D02*
X119760585Y-97947803D01*
X120256014Y-98672777D02*
X120226867Y-98612251D01*
X119627912Y-97962752D02*
X119562418Y-97947803D01*
X125338801Y-105356121D02*
X125338801Y-104872279D01*
X125113800Y-103541200D02*
X120297900Y-98725300D01*
X120211918Y-98546757D02*
X120211918Y-98479578D01*
X125113800Y-104647278D02*
X125113800Y-103541200D01*
X128260200Y-110401000D02*
X126673600Y-110401000D01*
X120528219Y-97552042D02*
X120467693Y-97522895D01*
X120211918Y-98479578D02*
X120226867Y-98414084D01*
X120467693Y-97522895D02*
X120402199Y-97507946D01*
X125113800Y-105581122D02*
X125338801Y-105356121D01*
X120580742Y-98018192D02*
X120622627Y-97965669D01*
X120297900Y-98725300D02*
X120256014Y-98672777D01*
X126673600Y-110401000D02*
X125113800Y-108841200D01*
X128594000Y-110067200D02*
X128260200Y-110401000D01*
D20*
X128594000Y-111184800D02*
X128594000Y-111184800D01*
D24*
X128260200Y-110851000D02*
X128594000Y-111184800D01*
X124663800Y-109027600D02*
X126487200Y-110851000D01*
X124592879Y-105618201D02*
X124663800Y-105618201D01*
X124663800Y-105618201D02*
X124663800Y-109027600D01*
X124663800Y-104539278D02*
X124330799Y-104872279D01*
X124330799Y-105356121D02*
X124592879Y-105618201D01*
X124663800Y-103727600D02*
X124663800Y-104539278D01*
X126487200Y-110851000D02*
X128260200Y-110851000D01*
X117991400Y-97055200D02*
X124663800Y-103727600D01*
X117761521Y-97109201D02*
X117815522Y-97055200D01*
X116750400Y-97055200D02*
X117223678Y-97055200D01*
X117223678Y-97055200D02*
X117277679Y-97109201D01*
X116300400Y-96605200D02*
X116750400Y-97055200D01*
X124330799Y-104872279D02*
X124330799Y-105356121D01*
X117815522Y-97055200D02*
X117991400Y-97055200D01*
X117277679Y-97109201D02*
X117761521Y-97109201D01*
D20*
X116249600Y-88426400D02*
X116249600Y-88426400D01*
D24*
X122165053Y-82648273D02*
X122168751Y-82637705D01*
X121595600Y-85009400D02*
X122163800Y-84441200D01*
X122163800Y-84441200D02*
X122163800Y-82659400D01*
X116249600Y-88426400D02*
X119666600Y-85009400D01*
X122224926Y-82608146D02*
X122235494Y-82604448D01*
X122244974Y-82598491D02*
X122252891Y-82590574D01*
X122174708Y-82628225D02*
X122182625Y-82620308D01*
X122163800Y-80027600D02*
X121491200Y-79355000D01*
X122202673Y-82610653D02*
X122224926Y-82608146D01*
X121511563Y-81642643D02*
X121533751Y-81579234D01*
X122262546Y-82048273D02*
X122258848Y-82037705D01*
X122258848Y-82037705D02*
X122252891Y-82028225D01*
X121737285Y-82001878D02*
X121673876Y-81979690D01*
X121533751Y-81839565D02*
X121511563Y-81776156D01*
X122252891Y-82590574D02*
X122258848Y-82581094D01*
X122252891Y-82028225D02*
X122244974Y-82020308D01*
X122244974Y-82020308D02*
X122235494Y-82014351D01*
X122213800Y-82009400D02*
X121804041Y-82009400D01*
X122098350Y-81296446D02*
X122134091Y-81239565D01*
X122262546Y-82570526D02*
X122263800Y-82559400D01*
X122163800Y-82659400D02*
X122165053Y-82648273D01*
X122168751Y-82637705D02*
X122174708Y-82628225D01*
X121993966Y-81379690D02*
X122050847Y-81343949D01*
X121569492Y-81896446D02*
X121533751Y-81839565D01*
X122235494Y-82014351D02*
X122224926Y-82010653D01*
X122263800Y-82559400D02*
X122263800Y-82059400D01*
X121863800Y-81409400D02*
X121930557Y-81401878D01*
X122182625Y-82620308D02*
X122192105Y-82614351D01*
X121673876Y-81979690D02*
X121616995Y-81943949D01*
X122235494Y-82604448D02*
X122244974Y-82598491D01*
X121673876Y-81439109D02*
X121737285Y-81416921D01*
X122224926Y-82010653D02*
X122213800Y-82009400D01*
X119865000Y-79355000D02*
X119688225Y-79531775D01*
X121504041Y-81709400D02*
X121511563Y-81642643D01*
X121511563Y-81776156D02*
X121504041Y-81709400D01*
X121616995Y-81943949D02*
X121569492Y-81896446D01*
X121533751Y-81579234D02*
X121569492Y-81522353D01*
X121804041Y-82009400D02*
X121737285Y-82001878D01*
X122263800Y-82059400D02*
X122262546Y-82048273D01*
X122258848Y-82581094D02*
X122262546Y-82570526D01*
X122192105Y-82614351D02*
X122202673Y-82610653D01*
X122134091Y-81239565D02*
X122156279Y-81176156D01*
X122156279Y-81176156D02*
X122163800Y-81109400D01*
X121616995Y-81474850D02*
X121673876Y-81439109D01*
X121804041Y-81409400D02*
X121863800Y-81409400D01*
X121569492Y-81522353D02*
X121616995Y-81474850D01*
X121930557Y-81401878D02*
X121993966Y-81379690D01*
X122050847Y-81343949D02*
X122098350Y-81296446D01*
X121737285Y-81416921D02*
X121804041Y-81409400D01*
X122163800Y-81109400D02*
X122163800Y-80027600D01*
X121491200Y-79355000D02*
X119865000Y-79355000D01*
X119666600Y-85009400D02*
X121595600Y-85009400D01*
X119688225Y-79531775D02*
X119665000Y-79555000D01*
D21*
X118700038Y-79555000D02*
X119550038Y-78705000D01*
X118315000Y-79555000D02*
X118700038Y-79555000D01*
D20*
X119665000Y-78705000D02*
X119550038Y-78705000D01*
X117570400Y-88426400D02*
X117570400Y-88426400D01*
D24*
X119865000Y-78905000D02*
X119688225Y-78728225D01*
X120544578Y-78897481D02*
X120477850Y-78905000D01*
X120607960Y-78875303D02*
X120544578Y-78897481D01*
X120712301Y-78792094D02*
X120664819Y-78839576D01*
X120770206Y-78671853D02*
X120748028Y-78735235D01*
X120807421Y-78475014D02*
X120785243Y-78538396D01*
X120785243Y-78538396D02*
X120770206Y-78671853D01*
X120843148Y-78418155D02*
X120807421Y-78475014D01*
X120890630Y-78370673D02*
X120843148Y-78418155D01*
X121144578Y-78312768D02*
X121077850Y-78305250D01*
X121370206Y-78538396D02*
X121348028Y-78475014D01*
X121385243Y-78671853D02*
X121370206Y-78538396D01*
X121312301Y-78418155D02*
X121264819Y-78370673D01*
X121407421Y-78735235D02*
X121385243Y-78671853D01*
X121348028Y-78475014D02*
X121312301Y-78418155D01*
X120947489Y-78334946D02*
X120890630Y-78370673D01*
X121207960Y-78334946D02*
X121144578Y-78312768D01*
X120664819Y-78839576D02*
X120607960Y-78875303D01*
X121443148Y-78792094D02*
X121407421Y-78735235D01*
X120748028Y-78735235D02*
X120712301Y-78792094D01*
X121547489Y-78875303D02*
X121490630Y-78839576D01*
X121077850Y-78305250D02*
X121077600Y-78305250D01*
X121610871Y-78897481D02*
X121547489Y-78875303D01*
X121077600Y-78305250D02*
X121010871Y-78312768D01*
X117570400Y-88426400D02*
X117570400Y-87741997D01*
X121677600Y-78905000D02*
X121610871Y-78897481D01*
X122613800Y-84627600D02*
X122613800Y-79841200D01*
X117570400Y-87741997D02*
X119852997Y-85459400D01*
X119688225Y-78728225D02*
X119665000Y-78705000D01*
X121264819Y-78370673D02*
X121207960Y-78334946D01*
X122613800Y-79841200D02*
X121677600Y-78905000D01*
X121782000Y-85459400D02*
X122613800Y-84627600D01*
X121010871Y-78312768D02*
X120947489Y-78334946D01*
X121490630Y-78839576D02*
X121443148Y-78792094D01*
X120477850Y-78905000D02*
X119865000Y-78905000D01*
X119852997Y-85459400D02*
X121782000Y-85459400D01*
M02*
