%TF.GenerationSoftware,KiCad,Pcbnew,(5.1.5-0-10_14)*%
%TF.CreationDate,2020-05-27T21:49:09-04:00*%
%TF.ProjectId,PD_PowerSupply,50445f50-6f77-4657-9253-7570706c792e,rev?*%
%TF.SameCoordinates,Original*%
%TF.FileFunction,OtherDrawing,Comment*%
%FSLAX46Y46*%
G04 Gerber Fmt 4.6, Leading zero omitted, Abs format (unit mm)*
G04 Created by KiCad (PCBNEW (5.1.5-0-10_14)) date 2020-05-27 21:49:09*
%MOMM*%
%LPD*%
G04 APERTURE LIST*
%ADD10C,0.010000*%
%ADD11C,0.015000*%
G04 APERTURE END LIST*
D10*
G36*
X113614750Y-108828000D02*
G01*
X118026400Y-108828000D01*
X118026400Y-119035920D01*
X113614750Y-119035920D01*
X113614750Y-108828000D01*
G37*
X113614750Y-108828000D02*
X118026400Y-108828000D01*
X118026400Y-119035920D01*
X113614750Y-119035920D01*
X113614750Y-108828000D01*
G36*
X113606920Y-108828000D02*
G01*
X118026400Y-108828000D01*
X118026400Y-119041250D01*
X113606920Y-119041250D01*
X113606920Y-108828000D01*
G37*
X113606920Y-108828000D02*
X118026400Y-108828000D01*
X118026400Y-119041250D01*
X113606920Y-119041250D01*
X113606920Y-108828000D01*
D11*
X113392240Y-87768444D02*
X113620946Y-87158560D01*
X113849652Y-87768444D01*
X113925888Y-86777383D02*
X113125416Y-86777383D01*
X113125416Y-86472441D01*
X113163534Y-86396206D01*
X113201651Y-86358088D01*
X113277887Y-86319970D01*
X113392240Y-86319970D01*
X113468475Y-86358088D01*
X113506593Y-86396206D01*
X113544711Y-86472441D01*
X113544711Y-86777383D01*
X113849652Y-85519498D02*
X113887770Y-85557616D01*
X113925888Y-85671969D01*
X113925888Y-85748205D01*
X113887770Y-85862558D01*
X113811535Y-85938793D01*
X113735299Y-85976911D01*
X113582828Y-86015029D01*
X113468475Y-86015029D01*
X113316004Y-85976911D01*
X113239769Y-85938793D01*
X113163534Y-85862558D01*
X113125416Y-85748205D01*
X113125416Y-85671969D01*
X113163534Y-85557616D01*
X113201651Y-85519498D01*
X113506593Y-84909615D02*
X113544711Y-84795262D01*
X113582828Y-84757144D01*
X113659064Y-84719026D01*
X113773417Y-84719026D01*
X113849652Y-84757144D01*
X113887770Y-84795262D01*
X113925888Y-84871497D01*
X113925888Y-85176439D01*
X113125416Y-85176439D01*
X113125416Y-84909615D01*
X113163534Y-84833380D01*
X113201651Y-84795262D01*
X113277887Y-84757144D01*
X113354122Y-84757144D01*
X113430358Y-84795262D01*
X113468475Y-84833380D01*
X113506593Y-84909615D01*
X113506593Y-85176439D01*
X112967930Y-84566556D02*
X112967930Y-83842319D01*
X113506593Y-84375967D02*
X113506593Y-84109143D01*
X113925888Y-83994790D02*
X113925888Y-84375967D01*
X113125416Y-84375967D01*
X113125416Y-83994790D01*
X112967930Y-83842319D02*
X112967930Y-83118082D01*
X113925888Y-83308671D02*
X113125416Y-83308671D01*
X113887770Y-83308671D02*
X113925888Y-83384906D01*
X113925888Y-83537377D01*
X113887770Y-83613613D01*
X113849652Y-83651730D01*
X113773417Y-83689848D01*
X113544711Y-83689848D01*
X113468475Y-83651730D01*
X113430358Y-83613613D01*
X113392240Y-83537377D01*
X113392240Y-83384906D01*
X113430358Y-83308671D01*
X112967930Y-83118082D02*
X112967930Y-82393846D01*
X113392240Y-82584434D02*
X114040241Y-82584434D01*
X114116476Y-82622552D01*
X114154594Y-82660670D01*
X114192712Y-82736905D01*
X114192712Y-82851258D01*
X114154594Y-82927494D01*
X113887770Y-82584434D02*
X113925888Y-82660670D01*
X113925888Y-82813141D01*
X113887770Y-82889376D01*
X113849652Y-82927494D01*
X113773417Y-82965612D01*
X113544711Y-82965612D01*
X113468475Y-82927494D01*
X113430358Y-82889376D01*
X113392240Y-82813141D01*
X113392240Y-82660670D01*
X113430358Y-82584434D01*
X112967930Y-82393846D02*
X112967930Y-81707727D01*
X113887770Y-81898316D02*
X113925888Y-81974551D01*
X113925888Y-82127022D01*
X113887770Y-82203257D01*
X113811535Y-82241375D01*
X113506593Y-82241375D01*
X113430358Y-82203257D01*
X113392240Y-82127022D01*
X113392240Y-81974551D01*
X113430358Y-81898316D01*
X113506593Y-81860198D01*
X113582828Y-81860198D01*
X113659064Y-82241375D01*
M02*
