G04 #@! TF.GenerationSoftware,KiCad,Pcbnew,(5.1.5-0-10_14)*
G04 #@! TF.CreationDate,2020-06-17T21:35:02-04:00*
G04 #@! TF.ProjectId,PD_PowerSupply,50445f50-6f77-4657-9253-7570706c792e,rev?*
G04 #@! TF.SameCoordinates,Original*
G04 #@! TF.FileFunction,Legend,Top*
G04 #@! TF.FilePolarity,Positive*
%FSLAX46Y46*%
G04 Gerber Fmt 4.6, Leading zero omitted, Abs format (unit mm)*
G04 Created by KiCad (PCBNEW (5.1.5-0-10_14)) date 2020-06-17 21:35:02*
%MOMM*%
%LPD*%
G04 APERTURE LIST*
%ADD10C,0.350000*%
%ADD11C,0.250000*%
%ADD12C,0.150000*%
%ADD13C,0.065000*%
%ADD14C,0.120000*%
%ADD15C,0.100000*%
%ADD16C,0.127000*%
%ADD17C,0.200000*%
%ADD18C,0.152400*%
%ADD19C,0.015000*%
G04 APERTURE END LIST*
D10*
X161736419Y-107512971D02*
X163641180Y-107512971D01*
D11*
X133743561Y-107103447D02*
X133743561Y-105403447D01*
X134391180Y-105403447D01*
X134553085Y-105484400D01*
X134634038Y-105565352D01*
X134714990Y-105727257D01*
X134714990Y-105970114D01*
X134634038Y-106132019D01*
X134553085Y-106212971D01*
X134391180Y-106293923D01*
X133743561Y-106293923D01*
X135443561Y-107103447D02*
X135443561Y-105403447D01*
X135848323Y-105403447D01*
X136091180Y-105484400D01*
X136253085Y-105646304D01*
X136334038Y-105808209D01*
X136414990Y-106132019D01*
X136414990Y-106374876D01*
X136334038Y-106698685D01*
X136253085Y-106860590D01*
X136091180Y-107022495D01*
X135848323Y-107103447D01*
X135443561Y-107103447D01*
X137062609Y-107022495D02*
X137305466Y-107103447D01*
X137710228Y-107103447D01*
X137872133Y-107022495D01*
X137953085Y-106941542D01*
X138034038Y-106779638D01*
X138034038Y-106617733D01*
X137953085Y-106455828D01*
X137872133Y-106374876D01*
X137710228Y-106293923D01*
X137386419Y-106212971D01*
X137224514Y-106132019D01*
X137143561Y-106051066D01*
X137062609Y-105889161D01*
X137062609Y-105727257D01*
X137143561Y-105565352D01*
X137224514Y-105484400D01*
X137386419Y-105403447D01*
X137791180Y-105403447D01*
X138034038Y-105484400D01*
X139491180Y-105970114D02*
X139491180Y-107103447D01*
X138762609Y-105970114D02*
X138762609Y-106860590D01*
X138843561Y-107022495D01*
X139005466Y-107103447D01*
X139248323Y-107103447D01*
X139410228Y-107022495D01*
X139491180Y-106941542D01*
X140300704Y-105970114D02*
X140300704Y-107670114D01*
X140300704Y-106051066D02*
X140462609Y-105970114D01*
X140786419Y-105970114D01*
X140948323Y-106051066D01*
X141029276Y-106132019D01*
X141110228Y-106293923D01*
X141110228Y-106779638D01*
X141029276Y-106941542D01*
X140948323Y-107022495D01*
X140786419Y-107103447D01*
X140462609Y-107103447D01*
X140300704Y-107022495D01*
X141838800Y-105970114D02*
X141838800Y-107670114D01*
X141838800Y-106051066D02*
X142000704Y-105970114D01*
X142324514Y-105970114D01*
X142486419Y-106051066D01*
X142567371Y-106132019D01*
X142648323Y-106293923D01*
X142648323Y-106779638D01*
X142567371Y-106941542D01*
X142486419Y-107022495D01*
X142324514Y-107103447D01*
X142000704Y-107103447D01*
X141838800Y-107022495D01*
X143619752Y-107103447D02*
X143457847Y-107022495D01*
X143376895Y-106860590D01*
X143376895Y-105403447D01*
X144105466Y-105970114D02*
X144510228Y-107103447D01*
X144914990Y-105970114D02*
X144510228Y-107103447D01*
X144348323Y-107508209D01*
X144267371Y-107589161D01*
X144105466Y-107670114D01*
X146776895Y-107022495D02*
X147019752Y-107103447D01*
X147424514Y-107103447D01*
X147586419Y-107022495D01*
X147667371Y-106941542D01*
X147748323Y-106779638D01*
X147748323Y-106617733D01*
X147667371Y-106455828D01*
X147586419Y-106374876D01*
X147424514Y-106293923D01*
X147100704Y-106212971D01*
X146938800Y-106132019D01*
X146857847Y-106051066D01*
X146776895Y-105889161D01*
X146776895Y-105727257D01*
X146857847Y-105565352D01*
X146938800Y-105484400D01*
X147100704Y-105403447D01*
X147505466Y-105403447D01*
X147748323Y-105484400D01*
X148719752Y-107103447D02*
X148557847Y-107022495D01*
X148476895Y-106941542D01*
X148395942Y-106779638D01*
X148395942Y-106293923D01*
X148476895Y-106132019D01*
X148557847Y-106051066D01*
X148719752Y-105970114D01*
X148962609Y-105970114D01*
X149124514Y-106051066D01*
X149205466Y-106132019D01*
X149286419Y-106293923D01*
X149286419Y-106779638D01*
X149205466Y-106941542D01*
X149124514Y-107022495D01*
X148962609Y-107103447D01*
X148719752Y-107103447D01*
X150257847Y-107103447D02*
X150095942Y-107022495D01*
X150014990Y-106860590D01*
X150014990Y-105403447D01*
X151148323Y-107103447D02*
X150986419Y-107022495D01*
X150905466Y-106941542D01*
X150824514Y-106779638D01*
X150824514Y-106293923D01*
X150905466Y-106132019D01*
X150986419Y-106051066D01*
X151148323Y-105970114D01*
X151391180Y-105970114D01*
X151553085Y-106051066D01*
X151634038Y-106132019D01*
X151714990Y-106293923D01*
X151714990Y-106779638D01*
X151634038Y-106941542D01*
X151553085Y-107022495D01*
X151391180Y-107103447D01*
X151148323Y-107103447D01*
D10*
X170036419Y-106312971D02*
X171941180Y-106312971D01*
X166536419Y-106312971D02*
X168441180Y-106312971D01*
X167488800Y-107265352D02*
X167488800Y-105360590D01*
X156736419Y-107512971D02*
X158641180Y-107512971D01*
X157688800Y-108465352D02*
X157688800Y-106560590D01*
D12*
X144684038Y-112386780D02*
X144874514Y-112386780D01*
X144969752Y-112434400D01*
X145064990Y-112529638D01*
X145112609Y-112720114D01*
X145112609Y-113053447D01*
X145064990Y-113243923D01*
X144969752Y-113339161D01*
X144874514Y-113386780D01*
X144684038Y-113386780D01*
X144588800Y-113339161D01*
X144493561Y-113243923D01*
X144445942Y-113053447D01*
X144445942Y-112720114D01*
X144493561Y-112529638D01*
X144588800Y-112434400D01*
X144684038Y-112386780D01*
X145541180Y-112386780D02*
X145541180Y-113196304D01*
X145588800Y-113291542D01*
X145636419Y-113339161D01*
X145731657Y-113386780D01*
X145922133Y-113386780D01*
X146017371Y-113339161D01*
X146064990Y-113291542D01*
X146112609Y-113196304D01*
X146112609Y-112386780D01*
X146445942Y-112386780D02*
X147017371Y-112386780D01*
X146731657Y-113386780D02*
X146731657Y-112386780D01*
X147350704Y-113386780D02*
X147350704Y-112386780D01*
X147731657Y-112386780D01*
X147826895Y-112434400D01*
X147874514Y-112482019D01*
X147922133Y-112577257D01*
X147922133Y-112720114D01*
X147874514Y-112815352D01*
X147826895Y-112862971D01*
X147731657Y-112910590D01*
X147350704Y-112910590D01*
X148350704Y-112386780D02*
X148350704Y-113196304D01*
X148398323Y-113291542D01*
X148445942Y-113339161D01*
X148541180Y-113386780D01*
X148731657Y-113386780D01*
X148826895Y-113339161D01*
X148874514Y-113291542D01*
X148922133Y-113196304D01*
X148922133Y-112386780D01*
X149255466Y-112386780D02*
X149826895Y-112386780D01*
X149541180Y-113386780D02*
X149541180Y-112386780D01*
X139579276Y-112862971D02*
X139722133Y-112910590D01*
X139769752Y-112958209D01*
X139817371Y-113053447D01*
X139817371Y-113196304D01*
X139769752Y-113291542D01*
X139722133Y-113339161D01*
X139626895Y-113386780D01*
X139245942Y-113386780D01*
X139245942Y-112386780D01*
X139579276Y-112386780D01*
X139674514Y-112434400D01*
X139722133Y-112482019D01*
X139769752Y-112577257D01*
X139769752Y-112672495D01*
X139722133Y-112767733D01*
X139674514Y-112815352D01*
X139579276Y-112862971D01*
X139245942Y-112862971D01*
X140103085Y-112386780D02*
X140674514Y-112386780D01*
X140388800Y-113386780D02*
X140388800Y-112386780D01*
D13*
X119305844Y-115604400D02*
G75*
G03X119305844Y-115604400I-160644J0D01*
G01*
D14*
X148988800Y-99134400D02*
X147298800Y-99134400D01*
D15*
X148888800Y-101734400D02*
X147888800Y-101734400D01*
D16*
X157626200Y-98510200D02*
G75*
G02X157499200Y-101050200I-63500J-1270000D01*
G01*
X166135200Y-96656000D02*
X157499200Y-96656000D01*
X157499200Y-102828200D02*
X157499200Y-96656000D01*
X166135200Y-102828200D02*
X157499200Y-102828200D01*
X166135200Y-102828200D02*
X166135200Y-96656000D01*
X150903800Y-87084400D02*
X150903800Y-90184400D01*
X155273800Y-87084400D02*
X155273800Y-90184400D01*
D17*
X154988800Y-85234400D02*
G75*
G03X154988800Y-85234400I-100000J0D01*
G01*
D14*
X134694400Y-94580736D02*
X134694400Y-95784864D01*
X136514400Y-94580736D02*
X136514400Y-95784864D01*
X155088800Y-119134400D02*
X155588800Y-119134400D01*
X155088800Y-118394400D02*
X155088800Y-119134400D01*
X161661800Y-115257400D02*
X161614800Y-115303400D01*
X163958800Y-112959400D02*
X163923800Y-112995400D01*
X161854800Y-115473400D02*
X161819800Y-115508400D01*
X164163800Y-113165400D02*
X164116800Y-113211400D01*
X165448800Y-108973400D02*
X165448800Y-118894400D01*
X155328800Y-108973400D02*
X155328800Y-118894400D01*
X155328800Y-118894400D02*
X165448800Y-118894400D01*
X155328800Y-108973400D02*
X165448800Y-108973400D01*
X155328800Y-111933400D02*
X165448800Y-111933400D01*
X155328800Y-116834400D02*
X165448800Y-116834400D01*
X155328800Y-118334400D02*
X165448800Y-118334400D01*
X164568800Y-114234400D02*
G75*
G03X164568800Y-114234400I-1680000J0D01*
G01*
X157917605Y-115914653D02*
G75*
G02X157204800Y-115769400I-28805J1680253D01*
G01*
X156353374Y-114917442D02*
G75*
G02X156353800Y-113550400I1535426J683042D01*
G01*
X157205758Y-112698974D02*
G75*
G02X158572800Y-112699400I683042J-1535426D01*
G01*
X159424226Y-113551358D02*
G75*
G02X159423800Y-114918400I-1535426J-683042D01*
G01*
X158572118Y-115769156D02*
G75*
G02X157888800Y-115914400I-683318J1534756D01*
G01*
X156798800Y-84697179D02*
X156798800Y-84371621D01*
X155778800Y-84697179D02*
X155778800Y-84371621D01*
D18*
X155769349Y-102555537D02*
G75*
G03X155732800Y-102698600I-36549J-66863D01*
G01*
X150800200Y-103026602D02*
X150800200Y-103753400D01*
X155562200Y-98718198D02*
X155562200Y-97991400D01*
X155562200Y-103753400D02*
X155562200Y-103026605D01*
X150800200Y-103753400D02*
X155562200Y-103753400D01*
X150800200Y-97991400D02*
X150800200Y-98718195D01*
X155562200Y-97991400D02*
X150800200Y-97991400D01*
D16*
X137748800Y-87138000D02*
X137748800Y-88138000D01*
X144048800Y-87138000D02*
X137748800Y-87138000D01*
X144048800Y-88138000D02*
X144048800Y-87138000D01*
X137748800Y-93438000D02*
X137748800Y-92438000D01*
X144048800Y-93438000D02*
X137748800Y-93438000D01*
X144048800Y-92438000D02*
X144048800Y-93438000D01*
D17*
X138509800Y-78155400D02*
G75*
G03X138509800Y-78155400I-100000J0D01*
G01*
D16*
X142209800Y-80843900D02*
X139209800Y-80843900D01*
X142209800Y-77466900D02*
X139209800Y-77466900D01*
D17*
X138640000Y-80130000D02*
G75*
G03X138640000Y-80130000I-100000J0D01*
G01*
D16*
X134740000Y-77441500D02*
X137740000Y-77441500D01*
X134740000Y-80818500D02*
X137740000Y-80818500D01*
X126919600Y-85583600D02*
X126919600Y-85913600D01*
X126919600Y-89643600D02*
X126919600Y-89313600D01*
X130979600Y-85583600D02*
X130979600Y-85913600D01*
X130979600Y-89643600D02*
X130979600Y-89313600D01*
X126919600Y-85583600D02*
X127249600Y-85583600D01*
X126919600Y-89643600D02*
X127249600Y-89643600D01*
X130979600Y-85583600D02*
X130649600Y-85583600D01*
X130979600Y-89643600D02*
X130649600Y-89643600D01*
D17*
X126289600Y-86093600D02*
G75*
G03X126289600Y-86093600I-100000J0D01*
G01*
D16*
X150317600Y-77942800D02*
X151317600Y-77942800D01*
X150317600Y-77942800D02*
X150317600Y-78942800D01*
X150317600Y-81942800D02*
X151317600Y-81942800D01*
X150317600Y-81942800D02*
X150317600Y-80942800D01*
X154317600Y-81942800D02*
X153317600Y-81942800D01*
X154317600Y-81942800D02*
X154317600Y-80942800D01*
X154317600Y-77942800D02*
X153317600Y-77942800D01*
X154317600Y-77942800D02*
X154317600Y-78942800D01*
D17*
X151117600Y-82442800D02*
G75*
G03X151117600Y-82442800I-100000J0D01*
G01*
D16*
X114854619Y-99710800D02*
G75*
G03X114854619Y-99710800I-141419J0D01*
G01*
X115398200Y-106485800D02*
X118828200Y-106485800D01*
X118828200Y-100135800D02*
X115398200Y-100135800D01*
D14*
X156798800Y-87797179D02*
X156798800Y-87471621D01*
X155778800Y-87797179D02*
X155778800Y-87471621D01*
X153726021Y-93144400D02*
X154051579Y-93144400D01*
X153726021Y-92124400D02*
X154051579Y-92124400D01*
X121406600Y-88824200D02*
X121406600Y-91309200D01*
X122776600Y-88824200D02*
X121406600Y-88824200D01*
X122776600Y-91309200D02*
X122776600Y-88824200D01*
D17*
X113565000Y-83605000D02*
X113915000Y-83605000D01*
X113565000Y-74655000D02*
X113565000Y-83605000D01*
X113915000Y-74655000D02*
X113565000Y-74655000D01*
X120225000Y-74655000D02*
X120225000Y-83605000D01*
X118376400Y-119428000D02*
G75*
G03X118376400Y-119428000I-100000J0D01*
G01*
D16*
X118326400Y-119028000D02*
X128626400Y-119028000D01*
X128626400Y-108828000D02*
X118326400Y-108828000D01*
X128626400Y-108828000D02*
X128626400Y-119028000D01*
D14*
X150887600Y-119268800D02*
X150887600Y-118118800D01*
X143587600Y-119268800D02*
X150887600Y-119268800D01*
X143587600Y-113768800D02*
X150887600Y-113768800D01*
X152351579Y-104124400D02*
X152026021Y-104124400D01*
X152351579Y-105144400D02*
X152026021Y-105144400D01*
X123032200Y-88824200D02*
X123032200Y-91309200D01*
X124402200Y-88824200D02*
X123032200Y-88824200D01*
X124402200Y-91309200D02*
X124402200Y-88824200D01*
X143775600Y-119268800D02*
X143775600Y-118118800D01*
X136475600Y-119268800D02*
X143775600Y-119268800D01*
X136475600Y-113768800D02*
X143775600Y-113768800D01*
X152701200Y-115072821D02*
X152701200Y-115398379D01*
X153721200Y-115072821D02*
X153721200Y-115398379D01*
X119470000Y-92541200D02*
X119470000Y-89091200D01*
X119470000Y-92541200D02*
X119470000Y-94491200D01*
X114350000Y-92541200D02*
X114350000Y-90591200D01*
X114350000Y-92541200D02*
X114350000Y-94491200D01*
X119956000Y-90143221D02*
X119956000Y-90468779D01*
X120976000Y-90143221D02*
X120976000Y-90468779D01*
X157098800Y-104497179D02*
X157098800Y-104171621D01*
X156078800Y-104497179D02*
X156078800Y-104171621D01*
X159132336Y-90838626D02*
X160336464Y-90838626D01*
X159132336Y-89018626D02*
X160336464Y-89018626D01*
X159132336Y-76687200D02*
X160336464Y-76687200D01*
X159132336Y-74867200D02*
X160336464Y-74867200D01*
X159132336Y-88480055D02*
X160336464Y-88480055D01*
X159132336Y-86660055D02*
X160336464Y-86660055D01*
X159132336Y-81404342D02*
X160336464Y-81404342D01*
X159132336Y-79584342D02*
X160336464Y-79584342D01*
X159132336Y-86121484D02*
X160336464Y-86121484D01*
X159132336Y-84301484D02*
X160336464Y-84301484D01*
X159132336Y-93197200D02*
X160336464Y-93197200D01*
X159132336Y-91377200D02*
X160336464Y-91377200D01*
X159132336Y-83762913D02*
X160336464Y-83762913D01*
X159132336Y-81942913D02*
X160336464Y-81942913D01*
X159132336Y-79045771D02*
X160336464Y-79045771D01*
X159132336Y-77225771D02*
X160336464Y-77225771D01*
X130688800Y-104344400D02*
X124678800Y-104344400D01*
X128438800Y-97524400D02*
X124678800Y-97524400D01*
X124678800Y-104344400D02*
X124678800Y-103084400D01*
X124678800Y-97524400D02*
X124678800Y-98784400D01*
X139463200Y-95172421D02*
X139463200Y-95497979D01*
X140483200Y-95172421D02*
X140483200Y-95497979D01*
X137888400Y-95172421D02*
X137888400Y-95497979D01*
X138908400Y-95172421D02*
X138908400Y-95497979D01*
X149278800Y-92071621D02*
X149278800Y-92397179D01*
X150298800Y-92071621D02*
X150298800Y-92397179D01*
X141603000Y-98401400D02*
X145688000Y-98401400D01*
X141603000Y-96231400D02*
X141603000Y-98401400D01*
X145688000Y-96231400D02*
X141603000Y-96231400D01*
X122890864Y-95224400D02*
X121686736Y-95224400D01*
X122890864Y-97044400D02*
X121686736Y-97044400D01*
X144486864Y-94069600D02*
X143282736Y-94069600D01*
X144486864Y-95889600D02*
X143282736Y-95889600D01*
X145278800Y-84232336D02*
X145278800Y-85436464D01*
X147098800Y-84232336D02*
X147098800Y-85436464D01*
X154410779Y-96654000D02*
X154085221Y-96654000D01*
X154410779Y-97674000D02*
X154085221Y-97674000D01*
X145526000Y-90879200D02*
X145526000Y-93329200D01*
X148746000Y-92679200D02*
X148746000Y-90879200D01*
X151909200Y-109802821D02*
X151909200Y-110128379D01*
X152929200Y-109802821D02*
X152929200Y-110128379D01*
X132261979Y-93961600D02*
X131936421Y-93961600D01*
X132261979Y-94981600D02*
X131936421Y-94981600D01*
X154504000Y-110128379D02*
X154504000Y-109802821D01*
X153484000Y-110128379D02*
X153484000Y-109802821D01*
X144750400Y-84220379D02*
X144750400Y-83894821D01*
X143730400Y-84220379D02*
X143730400Y-83894821D01*
X156798800Y-90897179D02*
X156798800Y-90571621D01*
X155778800Y-90897179D02*
X155778800Y-90571621D01*
X168763200Y-101931664D02*
X168763200Y-100727536D01*
X166943200Y-101931664D02*
X166943200Y-100727536D01*
X141600800Y-84220379D02*
X141600800Y-83894821D01*
X140580800Y-84220379D02*
X140580800Y-83894821D01*
X153678821Y-84313600D02*
X154004379Y-84313600D01*
X153678821Y-83293600D02*
X154004379Y-83293600D01*
X150956379Y-75572000D02*
X150630821Y-75572000D01*
X150956379Y-76592000D02*
X150630821Y-76592000D01*
X147678800Y-83871621D02*
X147678800Y-84197179D01*
X148698800Y-83871621D02*
X148698800Y-84197179D01*
X138451200Y-84220379D02*
X138451200Y-83894821D01*
X137431200Y-84220379D02*
X137431200Y-83894821D01*
X139006000Y-83894821D02*
X139006000Y-84220379D01*
X140026000Y-83894821D02*
X140026000Y-84220379D01*
X132261979Y-95536400D02*
X131936421Y-95536400D01*
X132261979Y-96556400D02*
X131936421Y-96556400D01*
X132249600Y-90651221D02*
X132249600Y-90976779D01*
X133269600Y-90651221D02*
X133269600Y-90976779D01*
X124731200Y-90549621D02*
X124731200Y-90875179D01*
X125751200Y-90549621D02*
X125751200Y-90875179D01*
X128084000Y-76884421D02*
X128084000Y-77209979D01*
X129104000Y-76884421D02*
X129104000Y-77209979D01*
X127478400Y-77209979D02*
X127478400Y-76884421D01*
X126458400Y-77209979D02*
X126458400Y-76884421D01*
X151096400Y-115086021D02*
X151096400Y-115411579D01*
X152116400Y-115086021D02*
X152116400Y-115411579D01*
X123953000Y-75527400D02*
X123953000Y-79612400D01*
X126123000Y-75527400D02*
X123953000Y-75527400D01*
X126123000Y-79612400D02*
X126123000Y-75527400D01*
X147946800Y-79881621D02*
X147946800Y-80207179D01*
X148966800Y-79881621D02*
X148966800Y-80207179D01*
X149406000Y-86803221D02*
X149406000Y-87128779D01*
X150426000Y-86803221D02*
X150426000Y-87128779D01*
X142155600Y-83894821D02*
X142155600Y-84220379D01*
X143175600Y-83894821D02*
X143175600Y-84220379D01*
X140115221Y-76998400D02*
X140440779Y-76998400D01*
X140115221Y-75978400D02*
X140440779Y-75978400D01*
X133065221Y-85583600D02*
X133390779Y-85583600D01*
X133065221Y-84563600D02*
X133390779Y-84563600D01*
X135976400Y-115407979D02*
X135976400Y-115082421D01*
X134956400Y-115407979D02*
X134956400Y-115082421D01*
X122246000Y-107080379D02*
X122246000Y-106754821D01*
X121226000Y-107080379D02*
X121226000Y-106754821D01*
X131265221Y-84008800D02*
X131590779Y-84008800D01*
X131265221Y-82988800D02*
X131590779Y-82988800D01*
X123795400Y-107080379D02*
X123795400Y-106754821D01*
X122775400Y-107080379D02*
X122775400Y-106754821D01*
X125344800Y-107080379D02*
X125344800Y-106754821D01*
X124324800Y-107080379D02*
X124324800Y-106754821D01*
X123617600Y-77159179D02*
X123617600Y-76833621D01*
X122597600Y-77159179D02*
X122597600Y-76833621D01*
X171774000Y-107476400D02*
X171774000Y-108746400D01*
X170504000Y-107476400D02*
X171774000Y-107476400D01*
X167584000Y-109789329D02*
X167584000Y-110186400D01*
X168344000Y-109789329D02*
X168344000Y-110186400D01*
X167584000Y-118846400D02*
X167584000Y-112846400D01*
X168344000Y-118846400D02*
X167584000Y-118846400D01*
X168344000Y-112846400D02*
X168344000Y-118846400D01*
X169234000Y-110186400D02*
X169234000Y-112846400D01*
X170124000Y-109856400D02*
X170124000Y-110186400D01*
X170884000Y-109856400D02*
X170884000Y-110186400D01*
X170224000Y-112846400D02*
X170224000Y-118846400D01*
X170344000Y-112846400D02*
X170344000Y-118846400D01*
X170464000Y-112846400D02*
X170464000Y-118846400D01*
X170584000Y-112846400D02*
X170584000Y-118846400D01*
X170704000Y-112846400D02*
X170704000Y-118846400D01*
X170824000Y-112846400D02*
X170824000Y-118846400D01*
X170124000Y-118846400D02*
X170124000Y-112846400D01*
X170884000Y-118846400D02*
X170124000Y-118846400D01*
X170884000Y-112846400D02*
X170884000Y-118846400D01*
X171834000Y-112846400D02*
X171834000Y-110186400D01*
X166634000Y-112846400D02*
X171834000Y-112846400D01*
X166634000Y-110186400D02*
X166634000Y-112846400D01*
X171834000Y-110186400D02*
X166634000Y-110186400D01*
D19*
X155544723Y-88154019D02*
X156062819Y-88154019D01*
X156123771Y-88123542D01*
X156154247Y-88093066D01*
X156184723Y-88032114D01*
X156184723Y-87910209D01*
X156154247Y-87849257D01*
X156123771Y-87818780D01*
X156062819Y-87788304D01*
X155544723Y-87788304D01*
X155544723Y-87178780D02*
X155544723Y-87483542D01*
X155849485Y-87514019D01*
X155819009Y-87483542D01*
X155788533Y-87422590D01*
X155788533Y-87270209D01*
X155819009Y-87209257D01*
X155849485Y-87178780D01*
X155910438Y-87148304D01*
X156062819Y-87148304D01*
X156123771Y-87178780D01*
X156154247Y-87209257D01*
X156184723Y-87270209D01*
X156184723Y-87422590D01*
X156154247Y-87483542D01*
X156123771Y-87514019D01*
D12*
X153181200Y-100324780D02*
X153181200Y-100562876D01*
X152943104Y-100467638D02*
X153181200Y-100562876D01*
X153419295Y-100467638D01*
X153038342Y-100753352D02*
X153181200Y-100562876D01*
X153324057Y-100753352D01*
X146374514Y-115286780D02*
X145803085Y-115286780D01*
X146088800Y-115286780D02*
X146088800Y-114286780D01*
X145993561Y-114429638D01*
X145898323Y-114524876D01*
X145803085Y-114572495D01*
X139274514Y-115371180D02*
X138703085Y-115371180D01*
X138988800Y-115371180D02*
X138988800Y-114371180D01*
X138893561Y-114514038D01*
X138798323Y-114609276D01*
X138703085Y-114656895D01*
M02*
